G75*
G70*
%OFA0B0*%
%FSLAX24Y24*%
%IPPOS*%
%LPD*%
%AMOC8*
5,1,8,0,0,1.08239X$1,22.5*
%
%ADD10C,0.0060*%
%ADD11C,0.0070*%
%ADD12C,0.0100*%
%ADD13C,0.0079*%
%ADD14C,0.0394*%
%ADD15C,0.0197*%
%ADD16C,0.0040*%
%ADD17R,0.0118X0.0157*%
%ADD18C,0.0050*%
%ADD19C,0.0020*%
%ADD20C,0.0080*%
%ADD21C,0.0348*%
%ADD22R,0.0157X0.0118*%
D10*
X003611Y001361D02*
X003861Y001111D01*
X004361Y001111D01*
X004611Y001361D01*
X004861Y001111D01*
X005361Y001111D01*
X005611Y001361D01*
X005861Y001111D01*
X006361Y001111D01*
X006611Y001361D01*
X006611Y002361D01*
X006361Y002611D01*
X005861Y002611D01*
X005611Y002361D01*
X005611Y001361D01*
X006041Y000956D02*
X006041Y000616D01*
X006154Y000729D01*
X006268Y000616D01*
X006268Y000956D01*
X005218Y000899D02*
X005218Y000786D01*
X005161Y000729D01*
X004991Y000729D01*
X004991Y000616D02*
X004991Y000956D01*
X005161Y000956D01*
X005218Y000899D01*
X005104Y000729D02*
X005218Y000616D01*
X004218Y000673D02*
X004161Y000616D01*
X004048Y000616D01*
X003991Y000673D01*
X003991Y000899D01*
X004048Y000956D01*
X004161Y000956D01*
X004218Y000899D01*
X004611Y001361D02*
X004611Y002361D01*
X004861Y002611D01*
X005361Y002611D01*
X005611Y002361D01*
X005693Y002811D02*
X005466Y002811D01*
X005466Y003151D01*
X005324Y002811D02*
X005097Y002811D01*
X005097Y003151D01*
X004956Y003151D02*
X004729Y003151D01*
X004729Y002811D01*
X004956Y002811D01*
X004843Y002981D02*
X004729Y002981D01*
X004588Y003094D02*
X004531Y003151D01*
X004418Y003151D01*
X004361Y003094D01*
X004361Y002868D01*
X004418Y002811D01*
X004531Y002811D01*
X004588Y002868D01*
X004361Y002611D02*
X004611Y002361D01*
X004361Y002611D02*
X003861Y002611D01*
X003611Y002361D01*
X003611Y001361D01*
X009821Y005571D02*
X009821Y005588D01*
X009821Y005571D02*
X010400Y005571D01*
X010400Y005588D01*
X010400Y005905D02*
X010400Y006316D01*
X010400Y006634D02*
X010400Y006651D01*
X009821Y006651D01*
X009821Y006634D01*
X009821Y006316D02*
X009821Y006279D01*
X009821Y005942D02*
X009821Y005905D01*
X011216Y006291D02*
X011216Y006631D01*
X011386Y006631D01*
X011443Y006574D01*
X011443Y006518D01*
X011386Y006461D01*
X011216Y006461D01*
X011386Y006461D02*
X011443Y006404D01*
X011443Y006348D01*
X011386Y006291D01*
X011216Y006291D01*
X011584Y006291D02*
X011584Y006518D01*
X011698Y006631D01*
X011811Y006518D01*
X011811Y006291D01*
X011811Y006461D02*
X011584Y006461D01*
X011586Y006736D02*
X011361Y006961D01*
X011361Y007761D01*
X011586Y007986D01*
X012136Y007986D01*
X012361Y007761D01*
X012586Y007986D01*
X013136Y007986D01*
X013361Y007761D01*
X013586Y007986D01*
X014136Y007986D01*
X014361Y007761D01*
X014361Y006961D01*
X014136Y006736D01*
X013586Y006736D01*
X013361Y006961D01*
X013136Y006736D01*
X012586Y006736D01*
X012361Y006961D01*
X012136Y006736D01*
X011586Y006736D01*
X011952Y006631D02*
X012179Y006631D01*
X012066Y006631D02*
X012066Y006291D01*
X012461Y006379D02*
X012574Y006266D01*
X012688Y006379D01*
X012688Y006606D01*
X012829Y006549D02*
X012886Y006606D01*
X012999Y006606D01*
X013056Y006549D01*
X013198Y006549D02*
X013198Y006323D01*
X013254Y006266D01*
X013368Y006266D01*
X013424Y006323D01*
X013424Y006549D02*
X013368Y006606D01*
X013254Y006606D01*
X013198Y006549D01*
X013056Y006323D02*
X012999Y006266D01*
X012886Y006266D01*
X012829Y006323D01*
X012829Y006549D01*
X012461Y006606D02*
X012461Y006379D01*
X013816Y006323D02*
X013873Y006266D01*
X013986Y006266D01*
X014043Y006323D01*
X014043Y006606D01*
X014184Y006549D02*
X014184Y006493D01*
X014241Y006436D01*
X014354Y006436D01*
X014411Y006379D01*
X014411Y006323D01*
X014354Y006266D01*
X014241Y006266D01*
X014184Y006323D01*
X014184Y006549D02*
X014241Y006606D01*
X014354Y006606D01*
X014411Y006549D01*
X014552Y006606D02*
X014552Y006266D01*
X014723Y006266D01*
X014779Y006323D01*
X014779Y006379D01*
X014723Y006436D01*
X014552Y006436D01*
X014552Y006606D02*
X014723Y006606D01*
X014779Y006549D01*
X014779Y006493D01*
X014723Y006436D01*
X013816Y006323D02*
X013816Y006606D01*
X013749Y008091D02*
X013636Y008204D01*
X013693Y008204D02*
X013523Y008204D01*
X013523Y008091D02*
X013523Y008431D01*
X013693Y008431D01*
X013749Y008374D01*
X013749Y008261D01*
X013693Y008204D01*
X013381Y008091D02*
X013154Y008091D01*
X013154Y008431D01*
X013381Y008431D01*
X013268Y008261D02*
X013154Y008261D01*
X013013Y008091D02*
X013013Y008431D01*
X012786Y008431D02*
X012786Y008091D01*
X012899Y008204D01*
X013013Y008091D01*
X012644Y008148D02*
X012644Y008374D01*
X012588Y008431D01*
X012474Y008431D01*
X012418Y008374D01*
X012418Y008148D01*
X012474Y008091D01*
X012588Y008091D01*
X012644Y008148D01*
X012276Y008261D02*
X012219Y008204D01*
X012049Y008204D01*
X012049Y008091D02*
X012049Y008431D01*
X012219Y008431D01*
X012276Y008374D01*
X012276Y008261D01*
X012087Y008658D02*
X011587Y008658D01*
X011337Y008908D01*
X011337Y009908D01*
X011587Y010158D01*
X012087Y010158D01*
X012337Y009908D01*
X012587Y010158D01*
X013087Y010158D01*
X013337Y009908D01*
X013337Y008908D01*
X013087Y008658D01*
X012587Y008658D01*
X012337Y008908D01*
X012087Y008658D01*
X012337Y008908D02*
X012337Y009908D01*
X013442Y009938D02*
X013612Y009938D01*
X013669Y009882D01*
X013669Y009825D01*
X013612Y009768D01*
X013442Y009768D01*
X013442Y010108D01*
X013612Y010108D01*
X013669Y010052D01*
X013669Y009995D01*
X013612Y009938D01*
X013811Y009938D02*
X014037Y009938D01*
X014037Y009995D02*
X014037Y009768D01*
X013811Y009768D02*
X013811Y009995D01*
X013924Y010108D01*
X014037Y009995D01*
X014179Y010108D02*
X014406Y010108D01*
X014292Y010108D02*
X014292Y009768D01*
X011131Y009677D02*
X011131Y009848D01*
X011074Y009904D01*
X010847Y009904D01*
X010791Y009848D01*
X010791Y009677D01*
X011131Y009677D01*
X011131Y009536D02*
X010791Y009536D01*
X010791Y009309D02*
X011131Y009536D01*
X011131Y009309D02*
X010791Y009309D01*
X010847Y009168D02*
X010791Y009111D01*
X010791Y008998D01*
X010847Y008941D01*
X011074Y008941D01*
X011131Y008998D01*
X011131Y009111D01*
X011074Y009168D01*
X010961Y009168D01*
X010961Y009054D01*
X010968Y010641D02*
X010968Y010981D01*
X011109Y010981D02*
X011336Y010981D01*
X011136Y010986D02*
X011361Y011211D01*
X011361Y012011D01*
X011136Y012236D01*
X010586Y012236D01*
X010361Y012011D01*
X010136Y012236D01*
X009586Y012236D01*
X009361Y012011D01*
X009136Y012236D01*
X008586Y012236D01*
X008361Y012011D01*
X008361Y011211D01*
X008586Y010986D01*
X009136Y010986D01*
X009361Y011211D01*
X009586Y010986D01*
X010136Y010986D01*
X010361Y011211D01*
X010586Y010986D01*
X011136Y010986D01*
X011109Y010981D02*
X011109Y010641D01*
X010968Y010641D02*
X010741Y010981D01*
X010741Y010641D01*
X011109Y010811D02*
X011223Y010811D01*
X009236Y010824D02*
X009236Y010711D01*
X009179Y010654D01*
X009009Y010654D01*
X009009Y010541D02*
X009009Y010881D01*
X009179Y010881D01*
X009236Y010824D01*
X008868Y010541D02*
X008641Y010541D01*
X008641Y010881D01*
X007451Y009351D02*
X003751Y009351D01*
X003731Y009351D01*
X003710Y009347D01*
X003691Y009341D01*
X003673Y009332D01*
X003656Y009320D01*
X003642Y009305D01*
X003630Y009289D01*
X003621Y009271D01*
X003615Y009251D01*
X003611Y009231D01*
X003611Y008811D01*
X003611Y008411D01*
X003611Y007991D01*
X003615Y007970D01*
X003622Y007950D01*
X003632Y007931D01*
X003645Y007914D01*
X003661Y007900D01*
X003679Y007888D01*
X003698Y007879D01*
X003719Y007873D01*
X003740Y007870D01*
X003761Y007871D01*
X007461Y007871D01*
X007482Y007870D01*
X007503Y007873D01*
X007524Y007879D01*
X007543Y007888D01*
X007561Y007900D01*
X007577Y007914D01*
X007590Y007931D01*
X007600Y007950D01*
X007607Y007970D01*
X007611Y007991D01*
X007611Y009231D01*
X007606Y009253D01*
X007598Y009273D01*
X007586Y009292D01*
X007572Y009309D01*
X007556Y009324D01*
X007537Y009336D01*
X007517Y009344D01*
X007495Y009350D01*
X007473Y009352D01*
X007451Y009351D01*
X003611Y008811D02*
X003638Y008809D01*
X003665Y008804D01*
X003691Y008794D01*
X003715Y008782D01*
X003737Y008766D01*
X003757Y008748D01*
X003774Y008726D01*
X003789Y008703D01*
X003799Y008678D01*
X003807Y008652D01*
X003811Y008625D01*
X003811Y008597D01*
X003807Y008570D01*
X003799Y008544D01*
X003789Y008519D01*
X003774Y008496D01*
X003757Y008474D01*
X003737Y008456D01*
X003715Y008440D01*
X003691Y008428D01*
X003665Y008418D01*
X003638Y008413D01*
X003611Y008411D01*
X003111Y008861D02*
X002861Y008611D01*
X002361Y008611D01*
X002111Y008861D01*
X001861Y008611D01*
X001361Y008611D01*
X001111Y008861D01*
X001111Y009861D01*
X001361Y010111D01*
X001861Y010111D01*
X002111Y009861D01*
X002361Y010111D01*
X002861Y010111D01*
X003111Y009861D01*
X003111Y008861D01*
X002111Y008861D02*
X002111Y009861D01*
X015821Y003901D02*
X015821Y003884D01*
X015821Y003901D02*
X016400Y003901D01*
X016400Y003884D01*
X016400Y003566D02*
X016400Y003529D01*
X016400Y003192D02*
X016400Y003155D01*
X016400Y002838D02*
X016400Y002821D01*
X015821Y002821D01*
X015821Y002838D01*
X015821Y003155D02*
X015821Y003566D01*
X027541Y012473D02*
X027981Y012473D01*
X027761Y012693D01*
X027761Y012399D01*
X027541Y012859D02*
X027541Y013153D01*
X027541Y013006D02*
X027981Y013006D01*
X027834Y013153D01*
X027908Y013320D02*
X027614Y013320D01*
X027541Y013393D01*
X027541Y013540D01*
X027614Y013613D01*
X027908Y013320D01*
X027981Y013393D01*
X027981Y013540D01*
X027908Y013613D01*
X027614Y013613D01*
X027541Y013780D02*
X027541Y014074D01*
X027834Y013780D01*
X027908Y013780D01*
X027981Y013854D01*
X027981Y014000D01*
X027908Y014074D01*
X027981Y014241D02*
X027541Y014534D01*
X027908Y014701D02*
X027614Y014994D01*
X027541Y014994D01*
X027614Y015161D02*
X027541Y015235D01*
X027541Y015381D01*
X027614Y015455D01*
X027908Y015161D01*
X027614Y015161D01*
X027908Y015161D02*
X027981Y015235D01*
X027981Y015381D01*
X027908Y015455D01*
X027614Y015455D01*
X027981Y015622D02*
X027541Y015915D01*
X027614Y016082D02*
X027541Y016155D01*
X027541Y016302D01*
X027614Y016376D01*
X027761Y016376D02*
X027834Y016229D01*
X027834Y016155D01*
X027761Y016082D01*
X027614Y016082D01*
X027981Y016082D02*
X027981Y016376D01*
X027761Y016376D01*
X027614Y016542D02*
X027541Y016616D01*
X027541Y016762D01*
X027614Y016836D01*
X027908Y016542D01*
X027614Y016542D01*
X027908Y016542D02*
X027981Y016616D01*
X027981Y016762D01*
X027908Y016836D01*
X027614Y016836D01*
X027981Y014994D02*
X027981Y014701D01*
X027908Y014701D01*
X019395Y019690D02*
X019395Y019741D01*
X019395Y019686D02*
X019394Y019669D01*
X019389Y019652D01*
X019382Y019637D01*
X019372Y019623D01*
X019360Y019611D01*
X019346Y019601D01*
X019331Y019594D01*
X019314Y019589D01*
X019297Y019588D01*
X019293Y019587D02*
X017525Y019587D01*
X017525Y019588D02*
X017508Y019589D01*
X017491Y019594D01*
X017476Y019601D01*
X017462Y019611D01*
X017450Y019623D01*
X017440Y019637D01*
X017433Y019652D01*
X017428Y019669D01*
X017427Y019686D01*
X017427Y019690D02*
X017427Y019741D01*
X017427Y019985D02*
X017427Y020237D01*
X017427Y020485D02*
X017427Y020737D01*
X017427Y020985D02*
X017427Y021237D01*
X017427Y021481D02*
X017427Y021540D01*
X017427Y021536D02*
X017428Y021553D01*
X017433Y021570D01*
X017440Y021585D01*
X017450Y021599D01*
X017462Y021611D01*
X017476Y021621D01*
X017491Y021628D01*
X017508Y021633D01*
X017525Y021634D01*
X019297Y021634D01*
X019314Y021633D01*
X019331Y021628D01*
X019346Y021621D01*
X019360Y021611D01*
X019372Y021599D01*
X019382Y021585D01*
X019389Y021570D01*
X019394Y021553D01*
X019395Y021536D01*
X019395Y021528D02*
X019395Y021477D01*
X019395Y021237D02*
X019395Y020981D01*
X019395Y020737D02*
X019395Y020481D01*
X019395Y020237D02*
X019395Y019985D01*
X015611Y020111D02*
X015361Y019861D01*
X014861Y019861D01*
X014611Y020111D01*
X014611Y021611D01*
X014861Y021861D01*
X015361Y021861D01*
X015611Y021611D01*
X015611Y020111D01*
X014611Y020111D02*
X014361Y019861D01*
X013861Y019861D01*
X013611Y020111D01*
X013611Y021611D01*
X013861Y021861D01*
X014361Y021861D01*
X014611Y021611D01*
X013611Y021611D02*
X013361Y021861D01*
X012861Y021861D01*
X012611Y021611D01*
X012611Y020111D01*
X012861Y019861D01*
X013361Y019861D01*
X013611Y020111D01*
X012441Y020841D02*
X012327Y020841D01*
X012384Y020841D02*
X012384Y021181D01*
X012327Y021181D02*
X012441Y021181D01*
X012186Y021124D02*
X012129Y021181D01*
X011959Y021181D01*
X011959Y020841D01*
X012129Y020841D01*
X012186Y020898D01*
X012186Y021124D01*
X011818Y021124D02*
X011761Y021181D01*
X011591Y021181D01*
X011591Y020841D01*
X011591Y020954D02*
X011761Y020954D01*
X011818Y021011D01*
X011818Y021124D01*
D11*
X028227Y011312D02*
X028227Y011240D01*
X028299Y011168D01*
X028658Y011168D01*
X028658Y011383D01*
X028586Y011455D01*
X028443Y011455D01*
X028371Y011383D01*
X028371Y011168D01*
X028371Y010995D02*
X028658Y010995D01*
X028658Y010780D01*
X028586Y010708D01*
X028371Y010708D01*
X029246Y010785D02*
X029461Y010785D01*
X029533Y010856D01*
X029533Y011071D01*
X029246Y011071D01*
X029246Y011245D02*
X029246Y011460D01*
X029318Y011532D01*
X029461Y011532D01*
X029533Y011460D01*
X029533Y011245D01*
X029174Y011245D01*
X029102Y011317D01*
X029102Y011388D01*
X029246Y011695D02*
X029246Y011839D01*
X029246Y011767D02*
X029533Y011767D01*
X029533Y011839D01*
X029676Y011767D02*
X029748Y011767D01*
X029533Y012012D02*
X029533Y012227D01*
X029461Y012299D01*
X029389Y012227D01*
X029389Y012084D01*
X029318Y012012D01*
X029246Y012084D01*
X029246Y012299D01*
X029389Y012473D02*
X029389Y012759D01*
X029318Y012759D02*
X029461Y012759D01*
X029533Y012688D01*
X029533Y012544D01*
X029461Y012473D01*
X029389Y012473D01*
X029246Y012544D02*
X029246Y012688D01*
X029318Y012759D01*
X029318Y012933D02*
X029604Y012933D01*
X029676Y013005D01*
X029676Y013220D01*
X029246Y013220D01*
X029246Y013005D01*
X029318Y012933D01*
X028801Y012928D02*
X028801Y013143D01*
X028371Y013143D01*
X028371Y012928D01*
X028443Y012856D01*
X028729Y012856D01*
X028801Y012928D01*
X028586Y012683D02*
X028658Y012611D01*
X028658Y012468D01*
X028586Y012396D01*
X028514Y012396D01*
X028514Y012683D01*
X028443Y012683D02*
X028586Y012683D01*
X028443Y012683D02*
X028371Y012611D01*
X028371Y012468D01*
X028371Y012222D02*
X028371Y012079D01*
X028371Y012151D02*
X028658Y012151D01*
X028658Y012222D01*
X028801Y012151D02*
X028873Y012151D01*
X028586Y011915D02*
X028658Y011844D01*
X028658Y011629D01*
X028514Y011700D02*
X028514Y011844D01*
X028586Y011915D01*
X028371Y011915D02*
X028371Y011700D01*
X028443Y011629D01*
X028514Y011700D01*
X028371Y010074D02*
X028371Y009931D01*
X028371Y010002D02*
X028801Y010002D01*
X028801Y009931D02*
X028801Y010074D01*
X029246Y010079D02*
X029246Y009936D01*
X029318Y009864D01*
X029676Y009864D01*
X029604Y009690D02*
X029318Y009690D01*
X029246Y009619D01*
X029246Y009475D01*
X029318Y009404D01*
X029318Y009230D02*
X029246Y009158D01*
X029246Y009015D01*
X029318Y008943D01*
X029389Y008943D01*
X029461Y009015D01*
X029461Y009158D01*
X029533Y009230D01*
X029604Y009230D01*
X029676Y009158D01*
X029676Y009015D01*
X029604Y008943D01*
X029676Y008770D02*
X029246Y008770D01*
X029246Y008555D01*
X029318Y008483D01*
X029389Y008483D01*
X029461Y008555D01*
X029461Y008770D01*
X029676Y008770D02*
X029676Y008555D01*
X029604Y008483D01*
X029533Y008483D01*
X029461Y008555D01*
X028801Y008631D02*
X028729Y008560D01*
X028586Y008560D01*
X028514Y008631D01*
X028514Y008846D01*
X028514Y008703D02*
X028371Y008560D01*
X028443Y008386D02*
X028371Y008314D01*
X028371Y008171D01*
X028443Y008099D01*
X028586Y008099D01*
X028658Y008171D01*
X028658Y008314D01*
X028586Y008386D01*
X028443Y008386D01*
X028801Y008631D02*
X028801Y008846D01*
X028371Y008846D01*
X028443Y009480D02*
X028729Y009480D01*
X028801Y009552D01*
X028801Y009695D01*
X028729Y009767D01*
X028443Y009767D01*
X028371Y009695D01*
X028371Y009552D01*
X028443Y009480D01*
X029246Y010079D02*
X029318Y010151D01*
X029676Y010151D01*
X029604Y009690D02*
X029676Y009619D01*
X029676Y009475D01*
X029604Y009404D01*
X029533Y007849D02*
X029389Y007849D01*
X029246Y007706D01*
X029246Y007542D02*
X029676Y007542D01*
X029676Y007327D01*
X029604Y007255D01*
X029461Y007255D01*
X029389Y007327D01*
X029389Y007542D01*
X029676Y007706D02*
X029533Y007849D01*
X028801Y007639D02*
X028371Y007639D01*
X028371Y007854D01*
X028443Y007926D01*
X028586Y007926D01*
X028658Y007854D01*
X028658Y007639D01*
X028586Y007465D02*
X028658Y007394D01*
X028658Y007250D01*
X028586Y007179D01*
X028514Y007179D01*
X028514Y007465D01*
X028443Y007465D02*
X028586Y007465D01*
X028443Y007465D02*
X028371Y007394D01*
X028371Y007250D01*
X028443Y007005D02*
X028371Y006933D01*
X028371Y006790D01*
X028443Y006718D01*
X028586Y006718D01*
X028658Y006790D01*
X028658Y006933D01*
X028586Y007005D01*
X028443Y007005D01*
X029246Y007010D02*
X029676Y007010D01*
X029676Y007082D01*
X029246Y007082D02*
X029246Y006938D01*
X029318Y006775D02*
X029389Y006703D01*
X029389Y006488D01*
X029461Y006488D02*
X029246Y006488D01*
X029246Y006703D01*
X029318Y006775D01*
X029533Y006703D02*
X029533Y006560D01*
X029461Y006488D01*
X029533Y006315D02*
X029246Y006028D01*
X029318Y005854D02*
X029246Y005782D01*
X029246Y005567D01*
X029318Y005394D02*
X029246Y005322D01*
X029246Y005179D01*
X029318Y005107D01*
X029461Y005107D01*
X029533Y005179D01*
X029533Y005322D01*
X029461Y005394D01*
X029318Y005394D01*
X029533Y005567D02*
X029533Y005782D01*
X029461Y005854D01*
X029318Y005854D01*
X029533Y006028D02*
X029246Y006315D01*
X028801Y006084D02*
X028801Y005941D01*
X028801Y006013D02*
X028371Y006013D01*
X028371Y006084D02*
X028371Y005941D01*
X028371Y005777D02*
X028658Y005777D01*
X028658Y005562D01*
X028586Y005491D01*
X028371Y005491D01*
X028443Y005317D02*
X028371Y005245D01*
X028371Y005030D01*
X028658Y005030D02*
X028658Y005245D01*
X028586Y005317D01*
X028443Y005317D01*
X029318Y004473D02*
X029246Y004401D01*
X029246Y004258D01*
X029318Y004186D01*
X029461Y004186D01*
X029461Y004330D01*
X029604Y004473D02*
X029318Y004473D01*
X029604Y004473D02*
X029676Y004401D01*
X029676Y004258D01*
X029604Y004186D01*
X029533Y004013D02*
X029246Y004013D01*
X029389Y004013D02*
X029533Y003869D01*
X029533Y003798D01*
X029461Y003629D02*
X029318Y003629D01*
X029246Y003557D01*
X029246Y003414D01*
X029318Y003342D01*
X029461Y003342D01*
X029533Y003414D01*
X029533Y003557D01*
X029461Y003629D01*
X029533Y003169D02*
X029318Y003169D01*
X029246Y003097D01*
X029246Y002882D01*
X029533Y002882D01*
X029533Y002708D02*
X029102Y002708D01*
X029246Y002708D02*
X029246Y002493D01*
X029318Y002422D01*
X029461Y002422D01*
X029533Y002493D01*
X029533Y002708D01*
X029676Y002248D02*
X029533Y002105D01*
X029389Y002105D01*
X029246Y002248D01*
X028801Y013777D02*
X028371Y013777D01*
X028371Y013992D01*
X028443Y014064D01*
X028586Y014064D01*
X028658Y013992D01*
X028658Y013777D01*
X028586Y014237D02*
X028514Y014237D01*
X028514Y014524D01*
X028443Y014524D02*
X028586Y014524D01*
X028658Y014452D01*
X028658Y014309D01*
X028586Y014237D01*
X028371Y014309D02*
X028371Y014452D01*
X028443Y014524D01*
X028371Y014688D02*
X028371Y014831D01*
X028371Y014759D02*
X028658Y014759D01*
X028658Y014831D01*
X028801Y014759D02*
X028873Y014759D01*
X029246Y014621D02*
X029461Y014621D01*
X029533Y014693D01*
X029533Y014908D01*
X029246Y014908D01*
X029246Y015071D02*
X029246Y015215D01*
X029246Y015143D02*
X029533Y015143D01*
X029533Y015215D01*
X029676Y015143D02*
X029748Y015143D01*
X029533Y015388D02*
X029174Y015388D01*
X029102Y015460D01*
X029102Y015532D01*
X029246Y015603D02*
X029246Y015388D01*
X029246Y015603D02*
X029318Y015675D01*
X029461Y015675D01*
X029533Y015603D01*
X029533Y015388D01*
X029246Y015838D02*
X029246Y015982D01*
X029246Y015910D02*
X029533Y015910D01*
X029533Y015982D01*
X029676Y015910D02*
X029748Y015910D01*
X029533Y016150D02*
X029533Y016222D01*
X029389Y016366D01*
X029246Y016366D02*
X029533Y016366D01*
X029604Y016539D02*
X029676Y016611D01*
X029676Y016754D01*
X029604Y016826D01*
X029318Y016826D01*
X029246Y016754D01*
X029246Y016611D01*
X029318Y016539D01*
X029604Y016539D01*
X028801Y016539D02*
X028371Y016539D01*
X028443Y016366D02*
X028371Y016294D01*
X028371Y016150D01*
X028443Y016079D01*
X028586Y016079D01*
X028658Y016150D01*
X028658Y016294D01*
X028586Y016366D01*
X028443Y016366D01*
X028658Y016682D02*
X028801Y016539D01*
X028658Y016682D02*
X028801Y016826D01*
X028371Y016826D01*
X028443Y015905D02*
X028586Y015905D01*
X028658Y015833D01*
X028658Y015618D01*
X028801Y015618D02*
X028371Y015618D01*
X028371Y015833D01*
X028443Y015905D01*
X028371Y015445D02*
X028371Y015301D01*
X028371Y015373D02*
X028658Y015373D01*
X028658Y015445D01*
X028801Y015373D02*
X028873Y015373D01*
X028729Y015066D02*
X028371Y015066D01*
X028586Y015138D02*
X028586Y014994D01*
X028729Y015066D02*
X028801Y014994D01*
X029318Y014447D02*
X029389Y014376D01*
X029389Y014161D01*
X029461Y014161D02*
X029246Y014161D01*
X029246Y014376D01*
X029318Y014447D01*
X029533Y014376D02*
X029533Y014232D01*
X029461Y014161D01*
X029246Y013987D02*
X029246Y013844D01*
X029246Y013915D02*
X029676Y013915D01*
X029676Y013987D01*
D12*
X029886Y014208D02*
X030486Y014208D01*
X030486Y013908D01*
X030386Y013807D01*
X030186Y013807D01*
X030086Y013908D01*
X030086Y014208D01*
X030086Y014452D02*
X030086Y014752D01*
X030186Y014852D01*
X030286Y014752D01*
X030286Y014452D01*
X030386Y014452D02*
X030086Y014452D01*
X030386Y014452D02*
X030486Y014552D01*
X030486Y014752D01*
X030386Y015096D02*
X030286Y015096D01*
X030286Y015497D01*
X030186Y015497D02*
X030386Y015497D01*
X030486Y015397D01*
X030486Y015197D01*
X030386Y015096D01*
X030086Y015197D02*
X030086Y015397D01*
X030186Y015497D01*
X030086Y015741D02*
X030386Y015741D01*
X030486Y015841D01*
X030486Y016041D01*
X030386Y016141D01*
X030686Y016141D02*
X030086Y016141D01*
X030186Y016386D02*
X030086Y016486D01*
X030086Y016686D01*
X030186Y016786D01*
X030586Y016786D01*
X030686Y016686D01*
X030686Y016486D01*
X030586Y016386D01*
X030586Y013563D02*
X030486Y013563D01*
X030386Y013463D01*
X030386Y013263D01*
X030286Y013163D01*
X030186Y013163D01*
X030086Y013263D01*
X030086Y013463D01*
X030186Y013563D01*
X030586Y013563D02*
X030686Y013463D01*
X030686Y013263D01*
X030586Y013163D01*
X030486Y012919D02*
X030486Y012719D01*
X030586Y012819D02*
X030186Y012819D01*
X030086Y012719D01*
X030186Y012489D02*
X030286Y012389D01*
X030286Y012089D01*
X030386Y012089D02*
X030086Y012089D01*
X030086Y012389D01*
X030186Y012489D01*
X030486Y012389D02*
X030486Y012189D01*
X030386Y012089D01*
X030486Y011844D02*
X030486Y011644D01*
X030586Y011744D02*
X030186Y011744D01*
X030086Y011644D01*
X030286Y010770D02*
X030086Y010570D01*
X030286Y010370D01*
X030686Y010370D01*
X030586Y010126D02*
X030686Y010026D01*
X030686Y009826D01*
X030586Y009725D01*
X030486Y009725D01*
X030086Y010126D01*
X030086Y009725D01*
X030086Y009481D02*
X030086Y009381D01*
X030186Y009381D01*
X030186Y009481D01*
X030086Y009481D01*
X030086Y009159D02*
X030086Y008759D01*
X030086Y008959D02*
X030686Y008959D01*
X030486Y009159D01*
X030686Y010770D02*
X030286Y010770D01*
D13*
X016942Y014030D02*
X016942Y017692D01*
X013280Y017692D01*
X013280Y014030D01*
X016942Y014030D01*
D14*
X013634Y014384D03*
D15*
X013221Y013400D03*
D16*
X012412Y012686D02*
X012226Y012686D01*
X012226Y012546D01*
X012319Y012593D01*
X012366Y012593D01*
X012412Y012546D01*
X012412Y012453D01*
X012366Y012406D01*
X012272Y012406D01*
X012226Y012453D01*
X012118Y012406D02*
X012024Y012499D01*
X012071Y012499D02*
X011931Y012499D01*
X011931Y012406D02*
X011931Y012686D01*
X012071Y012686D01*
X012118Y012639D01*
X012118Y012546D01*
X012071Y012499D01*
X012072Y012186D02*
X012166Y012186D01*
X012212Y012139D01*
X012026Y011953D01*
X012072Y011906D01*
X012166Y011906D01*
X012212Y011953D01*
X012212Y012139D01*
X012320Y012186D02*
X012320Y011906D01*
X012320Y011999D02*
X012460Y012093D01*
X012320Y011999D02*
X012460Y011906D01*
X012026Y011953D02*
X012026Y012139D01*
X012072Y012186D01*
X011824Y012186D02*
X011824Y011906D01*
X011731Y011906D02*
X011918Y011906D01*
X011731Y012093D02*
X011824Y012186D01*
X010823Y012311D02*
X010730Y012404D01*
X010776Y012404D02*
X010636Y012404D01*
X010636Y012311D02*
X010636Y012591D01*
X010776Y012591D01*
X010823Y012544D01*
X010823Y012451D01*
X010776Y012404D01*
X010528Y012451D02*
X010528Y012544D01*
X010482Y012591D01*
X010342Y012591D01*
X010342Y012311D01*
X010342Y012404D02*
X010482Y012404D01*
X010528Y012451D01*
X010234Y012591D02*
X010140Y012591D01*
X010187Y012591D02*
X010187Y012358D01*
X010140Y012311D01*
X010094Y012311D01*
X010047Y012358D01*
X009939Y012264D02*
X009752Y012264D01*
X009644Y012358D02*
X009598Y012311D01*
X009504Y012311D01*
X009458Y012358D01*
X009458Y012544D01*
X009504Y012591D01*
X009598Y012591D01*
X009644Y012544D01*
X009350Y012544D02*
X009350Y012358D01*
X009303Y012311D01*
X009163Y012311D01*
X009163Y012591D01*
X009303Y012591D01*
X009350Y012544D01*
X009055Y012498D02*
X009055Y012311D01*
X009055Y012451D02*
X008868Y012451D01*
X008868Y012498D02*
X008868Y012311D01*
X008868Y012498D02*
X008962Y012591D01*
X009055Y012498D01*
X007341Y013281D02*
X007341Y013468D01*
X007341Y013374D02*
X007061Y013374D01*
X007154Y013281D01*
X007107Y013576D02*
X007061Y013622D01*
X007061Y013716D01*
X007107Y013762D01*
X007294Y013576D01*
X007341Y013622D01*
X007341Y013716D01*
X007294Y013762D01*
X007107Y013762D01*
X007107Y013870D02*
X007061Y013917D01*
X007061Y014010D01*
X007107Y014057D01*
X007294Y013870D01*
X007341Y013917D01*
X007341Y014010D01*
X007294Y014057D01*
X007107Y014057D01*
X007154Y014165D02*
X007154Y014305D01*
X007201Y014352D01*
X007341Y014352D01*
X007341Y014165D02*
X007154Y014165D01*
X007107Y013870D02*
X007294Y013870D01*
X007294Y013576D02*
X007107Y013576D01*
X006191Y013621D02*
X006144Y013668D01*
X006191Y013621D02*
X006191Y013528D01*
X006144Y013481D01*
X005957Y013481D01*
X005911Y013528D01*
X005911Y013621D01*
X005957Y013668D01*
X005957Y013776D02*
X005911Y013822D01*
X005911Y013916D01*
X005957Y013962D01*
X006004Y013962D01*
X006191Y013776D01*
X006191Y013962D01*
X006144Y014070D02*
X006191Y014117D01*
X006191Y014210D01*
X006144Y014257D01*
X006097Y014257D01*
X006051Y014210D01*
X006051Y014164D01*
X006051Y014210D02*
X006004Y014257D01*
X005957Y014257D01*
X005911Y014210D01*
X005911Y014117D01*
X005957Y014070D01*
X006911Y015331D02*
X006911Y015471D01*
X006957Y015518D01*
X007051Y015518D01*
X007097Y015471D01*
X007097Y015331D01*
X007097Y015424D02*
X007191Y015518D01*
X007144Y015626D02*
X007191Y015672D01*
X007191Y015766D01*
X007144Y015812D01*
X007097Y015812D01*
X007051Y015766D01*
X007051Y015626D01*
X007144Y015626D01*
X007051Y015626D02*
X006957Y015719D01*
X006911Y015812D01*
X006911Y015331D02*
X007191Y015331D01*
X008061Y015324D02*
X008341Y015324D01*
X008341Y015231D02*
X008341Y015418D01*
X008294Y015526D02*
X008107Y015712D01*
X008294Y015712D01*
X008341Y015666D01*
X008341Y015572D01*
X008294Y015526D01*
X008107Y015526D01*
X008061Y015572D01*
X008061Y015666D01*
X008107Y015712D01*
X008061Y015820D02*
X008341Y015820D01*
X008247Y015820D02*
X008154Y015960D01*
X008247Y015820D02*
X008341Y015960D01*
X008061Y015324D02*
X008154Y015231D01*
X009811Y015156D02*
X010091Y015156D01*
X010091Y015343D01*
X010091Y015451D02*
X010091Y015637D01*
X010091Y015544D02*
X009811Y015544D01*
X009904Y015451D01*
X009891Y016031D02*
X009891Y016218D01*
X009891Y016124D02*
X009611Y016124D01*
X009704Y016031D01*
X009657Y016326D02*
X009611Y016372D01*
X009611Y016466D01*
X009657Y016512D01*
X009844Y016326D01*
X009891Y016372D01*
X009891Y016466D01*
X009844Y016512D01*
X009657Y016512D01*
X009704Y016620D02*
X009844Y016620D01*
X009891Y016667D01*
X009891Y016807D01*
X009704Y016807D01*
X009657Y016326D02*
X009844Y016326D01*
X009844Y017381D02*
X009891Y017428D01*
X009891Y017521D01*
X009844Y017568D01*
X009844Y017676D02*
X009891Y017722D01*
X009891Y017816D01*
X009844Y017862D01*
X009797Y017862D01*
X009751Y017816D01*
X009751Y017676D01*
X009844Y017676D01*
X009751Y017676D02*
X009657Y017769D01*
X009611Y017862D01*
X009657Y017568D02*
X009611Y017521D01*
X009611Y017428D01*
X009657Y017381D01*
X009844Y017381D01*
X010811Y017828D02*
X010857Y017781D01*
X011044Y017781D01*
X011091Y017828D01*
X011091Y017921D01*
X011044Y017968D01*
X011044Y018076D02*
X011091Y018122D01*
X011091Y018216D01*
X011044Y018262D01*
X010951Y018262D01*
X010904Y018216D01*
X010904Y018169D01*
X010951Y018076D01*
X010811Y018076D01*
X010811Y018262D01*
X010857Y017968D02*
X010811Y017921D01*
X010811Y017828D01*
X011261Y017774D02*
X011354Y017681D01*
X011261Y017774D02*
X011541Y017774D01*
X011541Y017681D02*
X011541Y017868D01*
X011494Y017976D02*
X011307Y018162D01*
X011494Y018162D01*
X011541Y018116D01*
X011541Y018022D01*
X011494Y017976D01*
X011307Y017976D01*
X011261Y018022D01*
X011261Y018116D01*
X011307Y018162D01*
X011307Y018270D02*
X011261Y018317D01*
X011261Y018410D01*
X011307Y018457D01*
X011494Y018270D01*
X011541Y018317D01*
X011541Y018410D01*
X011494Y018457D01*
X011307Y018457D01*
X011354Y018565D02*
X011354Y018705D01*
X011401Y018752D01*
X011541Y018752D01*
X011541Y018565D02*
X011354Y018565D01*
X011307Y018270D02*
X011494Y018270D01*
X013281Y019028D02*
X013281Y019214D01*
X013328Y019261D01*
X013421Y019261D01*
X013468Y019214D01*
X013576Y019214D02*
X013622Y019261D01*
X013716Y019261D01*
X013762Y019214D01*
X013762Y019168D01*
X013716Y019121D01*
X013762Y019074D01*
X013762Y019028D01*
X013716Y018981D01*
X013622Y018981D01*
X013576Y019028D01*
X013468Y019028D02*
X013421Y018981D01*
X013328Y018981D01*
X013281Y019028D01*
X013669Y019121D02*
X013716Y019121D01*
X015481Y019031D02*
X015668Y019031D01*
X015574Y019031D02*
X015574Y019311D01*
X015481Y019218D01*
X015776Y019264D02*
X015776Y019078D01*
X015962Y019264D01*
X015962Y019078D01*
X015916Y019031D01*
X015822Y019031D01*
X015776Y019078D01*
X015776Y019264D02*
X015822Y019311D01*
X015916Y019311D01*
X015962Y019264D01*
X016070Y019264D02*
X016070Y019078D01*
X016257Y019264D01*
X016257Y019078D01*
X016210Y019031D01*
X016117Y019031D01*
X016070Y019078D01*
X016070Y019264D02*
X016117Y019311D01*
X016210Y019311D01*
X016257Y019264D01*
X016365Y019218D02*
X016505Y019218D01*
X016552Y019171D01*
X016552Y019031D01*
X016365Y019031D02*
X016365Y019218D01*
X018745Y019186D02*
X018839Y019186D01*
X018792Y019186D02*
X018792Y019466D01*
X018745Y019466D02*
X018839Y019466D01*
X018942Y019419D02*
X018942Y019233D01*
X018988Y019186D01*
X019082Y019186D01*
X019128Y019233D01*
X019236Y019326D02*
X019423Y019326D01*
X019376Y019466D02*
X019236Y019326D01*
X019128Y019419D02*
X019082Y019466D01*
X018988Y019466D01*
X018942Y019419D01*
X019376Y019466D02*
X019376Y019186D01*
X019200Y021811D02*
X019200Y021998D01*
X019106Y022091D01*
X019013Y021998D01*
X019013Y021811D01*
X018905Y021811D02*
X018718Y021811D01*
X018812Y021811D02*
X018812Y022091D01*
X018718Y021998D01*
X018610Y021951D02*
X018424Y021951D01*
X018564Y022091D01*
X018564Y021811D01*
X018316Y021858D02*
X018316Y022044D01*
X018129Y021858D01*
X018176Y021811D01*
X018269Y021811D01*
X018316Y021858D01*
X018316Y022044D02*
X018269Y022091D01*
X018176Y022091D01*
X018129Y022044D01*
X018129Y021858D01*
X017928Y021951D02*
X017834Y021951D01*
X017834Y021811D02*
X017834Y022091D01*
X018021Y022091D01*
X017726Y022044D02*
X017726Y021858D01*
X017680Y021811D01*
X017540Y021811D01*
X017540Y022091D01*
X017680Y022091D01*
X017726Y022044D01*
X017432Y022091D02*
X017245Y022091D01*
X017245Y021951D01*
X017338Y021998D01*
X017385Y021998D01*
X017432Y021951D01*
X017432Y021858D01*
X017385Y021811D01*
X017292Y021811D01*
X017245Y021858D01*
X017137Y021811D02*
X016950Y021811D01*
X017137Y021998D01*
X017137Y022044D01*
X017091Y022091D01*
X016997Y022091D01*
X016950Y022044D01*
X016843Y022091D02*
X016656Y022091D01*
X016749Y022091D02*
X016749Y021811D01*
X016548Y021811D02*
X016548Y021998D01*
X016454Y022091D01*
X016361Y021998D01*
X016361Y021811D01*
X016361Y021951D02*
X016548Y021951D01*
X019013Y021951D02*
X019200Y021951D01*
X019308Y021951D02*
X019494Y021951D01*
X019602Y021998D02*
X019649Y021951D01*
X019742Y021951D01*
X019789Y021904D01*
X019789Y021858D01*
X019742Y021811D01*
X019649Y021811D01*
X019602Y021858D01*
X019602Y021998D02*
X019602Y022044D01*
X019649Y022091D01*
X019742Y022091D01*
X019789Y022044D01*
X019897Y022091D02*
X019897Y021811D01*
X019897Y021951D02*
X020084Y021951D01*
X020191Y021951D02*
X020378Y021951D01*
X020486Y021951D02*
X020626Y021951D01*
X020673Y021904D01*
X020673Y021858D01*
X020626Y021811D01*
X020486Y021811D01*
X020486Y022091D01*
X020626Y022091D01*
X020673Y022044D01*
X020673Y021998D01*
X020626Y021951D01*
X020084Y022091D02*
X020084Y021811D01*
X020004Y015963D02*
X019957Y015963D01*
X019911Y015916D01*
X019911Y015823D01*
X019957Y015776D01*
X019957Y015668D02*
X019911Y015622D01*
X019911Y015528D01*
X019957Y015482D01*
X020144Y015482D01*
X020191Y015528D01*
X020191Y015622D01*
X020144Y015668D01*
X020191Y015776D02*
X020004Y015963D01*
X020191Y015963D02*
X020191Y015776D01*
X020191Y015163D02*
X020051Y015163D01*
X020004Y015116D01*
X020004Y014976D01*
X020191Y014976D01*
X020144Y014868D02*
X020191Y014822D01*
X020191Y014728D01*
X020144Y014682D01*
X019957Y014868D01*
X020144Y014868D01*
X020144Y014682D02*
X019957Y014682D01*
X019911Y014728D01*
X019911Y014822D01*
X019957Y014868D01*
X019957Y014574D02*
X020144Y014387D01*
X020191Y014434D01*
X020191Y014527D01*
X020144Y014574D01*
X019957Y014574D01*
X019911Y014527D01*
X019911Y014434D01*
X019957Y014387D01*
X020144Y014387D01*
X020191Y014279D02*
X020191Y014092D01*
X020191Y014186D02*
X019911Y014186D01*
X020004Y014092D01*
X018191Y015381D02*
X018191Y015474D01*
X018191Y015428D02*
X017911Y015428D01*
X017911Y015474D02*
X017911Y015381D01*
X017957Y015577D02*
X018144Y015577D01*
X018191Y015624D01*
X018191Y015717D01*
X018144Y015764D01*
X018191Y015872D02*
X018191Y016059D01*
X018191Y015965D02*
X017911Y015965D01*
X018004Y015872D01*
X017957Y015764D02*
X017911Y015717D01*
X017911Y015624D01*
X017957Y015577D01*
X018478Y011861D02*
X018431Y011814D01*
X018431Y011628D01*
X018478Y011581D01*
X018571Y011581D01*
X018618Y011628D01*
X018726Y011581D02*
X018912Y011581D01*
X018819Y011581D02*
X018819Y011861D01*
X018726Y011768D01*
X018618Y011814D02*
X018571Y011861D01*
X018478Y011861D01*
X019020Y011721D02*
X019160Y011721D01*
X019207Y011674D01*
X019207Y011628D01*
X019160Y011581D01*
X019067Y011581D01*
X019020Y011628D01*
X019020Y011721D01*
X019114Y011814D01*
X019207Y011861D01*
X017952Y011671D02*
X017952Y011531D01*
X017952Y011671D02*
X017905Y011718D01*
X017765Y011718D01*
X017765Y011531D01*
X017657Y011578D02*
X017610Y011531D01*
X017517Y011531D01*
X017470Y011578D01*
X017657Y011764D01*
X017657Y011578D01*
X017657Y011764D02*
X017610Y011811D01*
X017517Y011811D01*
X017470Y011764D01*
X017470Y011578D01*
X017362Y011578D02*
X017316Y011531D01*
X017222Y011531D01*
X017176Y011578D01*
X017362Y011764D01*
X017362Y011578D01*
X017362Y011764D02*
X017316Y011811D01*
X017222Y011811D01*
X017176Y011764D01*
X017176Y011578D01*
X017068Y011531D02*
X016881Y011531D01*
X016974Y011531D02*
X016974Y011811D01*
X016881Y011718D01*
X016173Y011561D02*
X015986Y011561D01*
X016080Y011561D02*
X016080Y011841D01*
X015986Y011748D01*
X015878Y011794D02*
X015832Y011841D01*
X015738Y011841D01*
X015692Y011794D01*
X015692Y011608D01*
X015738Y011561D01*
X015832Y011561D01*
X015878Y011608D01*
X015423Y011561D02*
X015423Y011701D01*
X015376Y011748D01*
X015236Y011748D01*
X015236Y011561D01*
X015128Y011608D02*
X015082Y011561D01*
X014988Y011561D01*
X014942Y011608D01*
X015128Y011794D01*
X015128Y011608D01*
X015128Y011794D02*
X015082Y011841D01*
X014988Y011841D01*
X014942Y011794D01*
X014942Y011608D01*
X014834Y011608D02*
X014787Y011561D01*
X014694Y011561D01*
X014647Y011608D01*
X014834Y011794D01*
X014834Y011608D01*
X014834Y011794D02*
X014787Y011841D01*
X014694Y011841D01*
X014647Y011794D01*
X014647Y011608D01*
X014539Y011561D02*
X014352Y011561D01*
X014446Y011561D02*
X014446Y011841D01*
X014352Y011748D01*
X012512Y011071D02*
X012326Y011071D01*
X012466Y011211D01*
X012466Y010931D01*
X012457Y010768D02*
X012457Y010581D01*
X012317Y010581D01*
X012270Y010628D01*
X012270Y010768D01*
X012162Y010814D02*
X011976Y010628D01*
X012022Y010581D01*
X012116Y010581D01*
X012162Y010628D01*
X012162Y010814D01*
X012116Y010861D01*
X012022Y010861D01*
X011976Y010814D01*
X011976Y010628D01*
X011868Y010581D02*
X011681Y010581D01*
X011774Y010581D02*
X011774Y010861D01*
X011681Y010768D01*
X012031Y010978D02*
X012078Y010931D01*
X012171Y010931D01*
X012218Y010978D01*
X012218Y011164D02*
X012171Y011211D01*
X012078Y011211D01*
X012031Y011164D01*
X012031Y010978D01*
X014561Y009591D02*
X014561Y009497D01*
X014607Y009451D01*
X014561Y009591D02*
X014607Y009637D01*
X014654Y009637D01*
X014841Y009451D01*
X014841Y009637D01*
X014841Y009343D02*
X014841Y009156D01*
X014561Y009156D01*
X014654Y008932D02*
X014841Y008932D01*
X014841Y008792D01*
X014794Y008745D01*
X014654Y008745D01*
X014607Y008637D02*
X014794Y008451D01*
X014841Y008497D01*
X014841Y008591D01*
X014794Y008637D01*
X014607Y008637D01*
X014561Y008591D01*
X014561Y008497D01*
X014607Y008451D01*
X014794Y008451D01*
X014841Y008343D02*
X014841Y008156D01*
X014841Y008249D02*
X014561Y008249D01*
X014654Y008156D01*
X015235Y007441D02*
X015235Y007161D01*
X015142Y007161D02*
X015328Y007161D01*
X015436Y007208D02*
X015483Y007161D01*
X015623Y007161D01*
X015623Y007348D01*
X015436Y007348D02*
X015436Y007208D01*
X015235Y007441D02*
X015142Y007348D01*
X016997Y007394D02*
X016997Y007208D01*
X017044Y007161D01*
X017137Y007161D01*
X017184Y007208D01*
X017292Y007161D02*
X017478Y007161D01*
X017385Y007161D02*
X017385Y007441D01*
X017292Y007348D01*
X017184Y007394D02*
X017137Y007441D01*
X017044Y007441D01*
X016997Y007394D01*
X017586Y007441D02*
X017586Y007301D01*
X017680Y007348D01*
X017726Y007348D01*
X017773Y007301D01*
X017773Y007208D01*
X017726Y007161D01*
X017633Y007161D01*
X017586Y007208D01*
X017586Y007441D02*
X017773Y007441D01*
X019231Y007314D02*
X019231Y007128D01*
X019278Y007081D01*
X019371Y007081D01*
X019418Y007128D01*
X019526Y007081D02*
X019712Y007081D01*
X019619Y007081D02*
X019619Y007361D01*
X019526Y007268D01*
X019418Y007314D02*
X019371Y007361D01*
X019278Y007361D01*
X019231Y007314D01*
X019820Y007221D02*
X020007Y007221D01*
X019960Y007081D02*
X019960Y007361D01*
X019820Y007221D01*
X019867Y006961D02*
X019960Y006961D01*
X020007Y006914D01*
X019820Y006728D01*
X019867Y006681D01*
X019960Y006681D01*
X020007Y006728D01*
X020007Y006914D01*
X020115Y006868D02*
X020255Y006868D01*
X020302Y006821D01*
X020302Y006681D01*
X020115Y006681D02*
X020115Y006868D01*
X019867Y006961D02*
X019820Y006914D01*
X019820Y006728D01*
X019712Y006728D02*
X019666Y006681D01*
X019572Y006681D01*
X019526Y006728D01*
X019712Y006914D01*
X019712Y006728D01*
X019712Y006914D02*
X019666Y006961D01*
X019572Y006961D01*
X019526Y006914D01*
X019526Y006728D01*
X019418Y006681D02*
X019231Y006681D01*
X019324Y006681D02*
X019324Y006961D01*
X019231Y006868D01*
X018407Y006164D02*
X018407Y006118D01*
X018360Y006071D01*
X018407Y006024D01*
X018407Y005978D01*
X018360Y005931D01*
X018267Y005931D01*
X018220Y005978D01*
X018112Y005931D02*
X017926Y005931D01*
X018019Y005931D02*
X018019Y006211D01*
X017926Y006118D01*
X017818Y006164D02*
X017771Y006211D01*
X017678Y006211D01*
X017631Y006164D01*
X017631Y005978D01*
X017678Y005931D01*
X017771Y005931D01*
X017818Y005978D01*
X018220Y006164D02*
X018267Y006211D01*
X018360Y006211D01*
X018407Y006164D01*
X018360Y006071D02*
X018314Y006071D01*
X018066Y005061D02*
X018112Y005014D01*
X017926Y004828D01*
X017972Y004781D01*
X018066Y004781D01*
X018112Y004828D01*
X018112Y005014D01*
X018066Y005061D02*
X017972Y005061D01*
X017926Y005014D01*
X017926Y004828D01*
X017818Y004781D02*
X017631Y004781D01*
X017724Y004781D02*
X017724Y005061D01*
X017631Y004968D01*
X018220Y004968D02*
X018360Y004968D01*
X018407Y004921D01*
X018407Y004781D01*
X018220Y004781D02*
X018220Y004968D01*
X017191Y004186D02*
X017191Y003999D01*
X017191Y004092D02*
X016911Y004092D01*
X017004Y003999D01*
X016957Y003891D02*
X017144Y003704D01*
X017191Y003751D01*
X017191Y003844D01*
X017144Y003891D01*
X016957Y003891D01*
X016911Y003844D01*
X016911Y003751D01*
X016957Y003704D01*
X017144Y003704D01*
X017144Y003596D02*
X017191Y003550D01*
X017191Y003456D01*
X017144Y003409D01*
X017051Y003409D02*
X017004Y003503D01*
X017004Y003550D01*
X017051Y003596D01*
X017144Y003596D01*
X017051Y003409D02*
X016911Y003409D01*
X016911Y003596D01*
X016957Y003302D02*
X016911Y003255D01*
X016911Y003161D01*
X016957Y003115D01*
X016911Y003007D02*
X017191Y003007D01*
X016911Y002820D01*
X017191Y002820D01*
X017191Y002712D02*
X017004Y002712D01*
X016911Y002619D01*
X017004Y002526D01*
X017191Y002526D01*
X017051Y002526D02*
X017051Y002712D01*
X016911Y002418D02*
X016911Y002231D01*
X017191Y002231D01*
X017051Y002231D02*
X017051Y002324D01*
X017191Y003115D02*
X017004Y003302D01*
X016957Y003302D01*
X017191Y003302D02*
X017191Y003115D01*
X018192Y002599D02*
X018254Y002599D01*
X018270Y002601D01*
X018285Y002605D01*
X018300Y002613D01*
X018312Y002623D01*
X018322Y002635D01*
X018330Y002650D01*
X018334Y002665D01*
X018336Y002681D01*
X018335Y002681D02*
X018335Y002146D01*
X018683Y001680D02*
X018765Y001680D01*
X018867Y000740D01*
X019071Y000740D01*
X019173Y001680D01*
X019255Y001680D01*
X019153Y000596D01*
X019149Y000577D01*
X019143Y000558D01*
X019133Y000541D01*
X019121Y000525D01*
X019106Y000512D01*
X019089Y000501D01*
X019071Y000494D01*
X018846Y000494D02*
X018828Y000501D01*
X018811Y000512D01*
X018796Y000525D01*
X018784Y000541D01*
X018774Y000558D01*
X018768Y000577D01*
X018764Y000596D01*
X018765Y000596D02*
X018683Y001680D01*
X019439Y002191D02*
X019357Y000597D01*
X019357Y000596D02*
X019359Y000580D01*
X019363Y000565D01*
X019371Y000550D01*
X019381Y000538D01*
X019393Y000528D01*
X019408Y000520D01*
X019423Y000516D01*
X019439Y000514D01*
X019439Y000515D02*
X019439Y000515D01*
X019439Y000514D02*
X019455Y000516D01*
X019470Y000520D01*
X019485Y000528D01*
X019497Y000538D01*
X019507Y000550D01*
X019515Y000565D01*
X019519Y000580D01*
X019521Y000596D01*
X019603Y001945D01*
X020093Y001945D01*
X020175Y000596D01*
X020177Y000580D01*
X020181Y000565D01*
X020189Y000550D01*
X020199Y000538D01*
X020211Y000528D01*
X020226Y000520D01*
X020241Y000516D01*
X020257Y000514D01*
X020273Y000516D01*
X020288Y000520D01*
X020303Y000528D01*
X020315Y000538D01*
X020325Y000550D01*
X020333Y000565D01*
X020337Y000580D01*
X020339Y000596D01*
X020338Y000597D02*
X020257Y002191D01*
X020254Y002209D01*
X020247Y002226D01*
X020238Y002241D01*
X020225Y002254D01*
X020210Y002263D01*
X020193Y002270D01*
X020175Y002273D01*
X020175Y002272D02*
X019521Y002272D01*
X019521Y002273D02*
X019503Y002270D01*
X019486Y002263D01*
X019471Y002254D01*
X019458Y002241D01*
X019449Y002226D01*
X019442Y002209D01*
X019439Y002191D01*
X019153Y002620D02*
X020543Y002620D01*
X020563Y002622D01*
X020582Y002628D01*
X020600Y002637D01*
X020615Y002650D01*
X020628Y002665D01*
X020637Y002683D01*
X020643Y002702D01*
X020645Y002722D01*
X020643Y002738D01*
X020639Y002753D01*
X020631Y002768D01*
X020621Y002780D01*
X020609Y002790D01*
X020594Y002798D01*
X020579Y002802D01*
X020563Y002804D01*
X019133Y002804D01*
X019132Y002804D02*
X019116Y002802D01*
X019101Y002798D01*
X019086Y002790D01*
X019074Y002780D01*
X019064Y002768D01*
X019056Y002753D01*
X019052Y002738D01*
X019050Y002722D01*
X019051Y002722D02*
X019051Y002722D01*
X019053Y002702D01*
X019059Y002683D01*
X019068Y002665D01*
X019081Y002650D01*
X019096Y002637D01*
X019114Y002628D01*
X019133Y002622D01*
X019153Y002620D01*
X019051Y003008D02*
X019051Y003744D01*
X019051Y003764D02*
X018662Y003764D01*
X018662Y003744D02*
X018662Y003601D01*
X016437Y004728D02*
X016391Y004681D01*
X016297Y004681D01*
X016251Y004728D01*
X016143Y004681D02*
X015956Y004681D01*
X015956Y004961D01*
X016251Y004914D02*
X016297Y004961D01*
X016391Y004961D01*
X016437Y004914D01*
X016437Y004868D01*
X016391Y004821D01*
X016437Y004774D01*
X016437Y004728D01*
X016391Y004821D02*
X016344Y004821D01*
X014923Y004908D02*
X014876Y004861D01*
X014783Y004861D01*
X014736Y004908D01*
X014736Y004954D01*
X014783Y005001D01*
X014876Y005001D01*
X014923Y004954D01*
X014923Y004908D01*
X014876Y005001D02*
X014923Y005048D01*
X014923Y005094D01*
X014876Y005141D01*
X014783Y005141D01*
X014736Y005094D01*
X014736Y005048D01*
X014783Y005001D01*
X014628Y005094D02*
X014582Y005141D01*
X014488Y005141D01*
X014442Y005094D01*
X014442Y004908D01*
X014488Y004861D01*
X014582Y004861D01*
X014628Y004908D01*
X014123Y004861D02*
X014123Y005048D01*
X013936Y005048D02*
X013936Y004908D01*
X013983Y004861D01*
X014123Y004861D01*
X013828Y004861D02*
X013642Y004861D01*
X013735Y004861D02*
X013735Y005141D01*
X013642Y005048D01*
X013057Y005014D02*
X013057Y004968D01*
X013010Y004921D01*
X012917Y004921D01*
X012870Y004968D01*
X012870Y005014D01*
X012917Y005061D01*
X013010Y005061D01*
X013057Y005014D01*
X013010Y004921D02*
X013057Y004874D01*
X013057Y004828D01*
X013010Y004781D01*
X012917Y004781D01*
X012870Y004828D01*
X012870Y004874D01*
X012917Y004921D01*
X012762Y004781D02*
X012576Y004781D01*
X012669Y004781D02*
X012669Y005061D01*
X012576Y004968D01*
X012468Y005014D02*
X012421Y005061D01*
X012328Y005061D01*
X012281Y005014D01*
X012281Y004828D01*
X012328Y004781D01*
X012421Y004781D01*
X012468Y004828D01*
X012057Y004781D02*
X012057Y004968D01*
X011870Y004968D02*
X011870Y004828D01*
X011917Y004781D01*
X012057Y004781D01*
X011762Y004828D02*
X011762Y005014D01*
X011576Y004828D01*
X011622Y004781D01*
X011716Y004781D01*
X011762Y004828D01*
X011762Y005014D02*
X011716Y005061D01*
X011622Y005061D01*
X011576Y005014D01*
X011576Y004828D01*
X011468Y004781D02*
X011281Y004781D01*
X011374Y004781D02*
X011374Y005061D01*
X011281Y004968D01*
X010461Y004982D02*
X010414Y005028D01*
X010227Y005028D01*
X010181Y004982D01*
X010181Y004888D01*
X010227Y004842D01*
X010274Y004842D01*
X010321Y004888D01*
X010321Y005028D01*
X010414Y005136D02*
X010461Y005136D01*
X010414Y005136D02*
X010227Y005323D01*
X010181Y005323D01*
X010181Y005136D01*
X009941Y005055D02*
X009894Y005102D01*
X009707Y005102D01*
X009661Y005055D01*
X009661Y004915D01*
X009941Y004915D01*
X009941Y005055D01*
X009894Y005209D02*
X009941Y005256D01*
X009941Y005350D01*
X009894Y005396D01*
X009894Y005209D02*
X009707Y005209D01*
X009661Y005256D01*
X009661Y005350D01*
X009707Y005396D01*
X009801Y004807D02*
X009801Y004620D01*
X009894Y004512D02*
X009941Y004466D01*
X009941Y004372D01*
X009894Y004326D01*
X009707Y004326D01*
X009661Y004372D01*
X009661Y004466D01*
X009707Y004512D01*
X009707Y004218D02*
X009661Y004171D01*
X009661Y004031D01*
X009941Y004031D01*
X009941Y004171D01*
X009894Y004218D01*
X009707Y004218D01*
X010181Y004144D02*
X010227Y004051D01*
X010321Y003958D01*
X010321Y004098D01*
X010367Y004144D01*
X010414Y004144D01*
X010461Y004098D01*
X010461Y004004D01*
X010414Y003958D01*
X010321Y003958D01*
X010367Y003850D02*
X010414Y003850D01*
X010461Y003803D01*
X010461Y003710D01*
X010414Y003663D01*
X010321Y003710D02*
X010321Y003803D01*
X010367Y003850D01*
X010227Y003850D02*
X010181Y003803D01*
X010181Y003710D01*
X010227Y003663D01*
X010274Y003663D01*
X010321Y003710D01*
X010321Y003555D02*
X010227Y003555D01*
X010181Y003508D01*
X010181Y003368D01*
X010461Y003368D01*
X010367Y003368D02*
X010367Y003508D01*
X010321Y003555D01*
X010181Y003260D02*
X010181Y003074D01*
X010181Y003167D02*
X010461Y003167D01*
X008866Y003881D02*
X008866Y004068D01*
X008866Y003974D02*
X008586Y003974D01*
X008679Y003881D01*
X008632Y004176D02*
X008586Y004222D01*
X008586Y004316D01*
X008632Y004362D01*
X008819Y004176D01*
X008866Y004222D01*
X008866Y004316D01*
X008819Y004362D01*
X008632Y004362D01*
X008679Y004470D02*
X008819Y004470D01*
X008866Y004517D01*
X008866Y004657D01*
X008679Y004657D01*
X008366Y004520D02*
X008319Y004520D01*
X008132Y004707D01*
X008086Y004707D01*
X008086Y004520D01*
X008086Y004319D02*
X008366Y004319D01*
X008366Y004226D02*
X008366Y004412D01*
X008179Y004226D02*
X008086Y004319D01*
X008132Y004118D02*
X008086Y004071D01*
X008086Y003978D01*
X008132Y003931D01*
X008319Y003931D01*
X008366Y003978D01*
X008366Y004071D01*
X008319Y004118D01*
X008632Y004176D02*
X008819Y004176D01*
X010181Y004346D02*
X010274Y004252D01*
X010181Y004346D02*
X010461Y004346D01*
X010461Y004439D02*
X010461Y004252D01*
X010414Y004547D02*
X010227Y004734D01*
X010414Y004734D01*
X010461Y004687D01*
X010461Y004594D01*
X010414Y004547D01*
X010227Y004547D01*
X010181Y004594D01*
X010181Y004687D01*
X010227Y004734D01*
X010414Y004842D02*
X010461Y004888D01*
X010461Y004982D01*
X014986Y003566D02*
X015032Y003612D01*
X015079Y003612D01*
X015126Y003566D01*
X015172Y003612D01*
X015219Y003612D01*
X015266Y003566D01*
X015266Y003472D01*
X015219Y003426D01*
X015219Y003318D02*
X014986Y003318D01*
X015032Y003426D02*
X014986Y003472D01*
X014986Y003566D01*
X015126Y003566D02*
X015126Y003519D01*
X015219Y003318D02*
X015266Y003271D01*
X015266Y003178D01*
X015219Y003131D01*
X014986Y003131D01*
X018128Y000997D02*
X018128Y000810D01*
X018128Y000903D02*
X017848Y000903D01*
X017941Y000810D01*
X017848Y000702D02*
X018128Y000515D01*
X018128Y000702D02*
X017848Y000515D01*
X018335Y000657D02*
X018335Y000321D01*
X021360Y000321D01*
X021360Y000657D01*
X021360Y000321D02*
X021360Y000321D01*
X020931Y000596D02*
X021013Y001680D01*
X020931Y001680D01*
X020829Y000740D01*
X020624Y000740D01*
X020522Y001680D01*
X020441Y001680D01*
X020543Y000596D01*
X020542Y000596D02*
X020546Y000577D01*
X020552Y000558D01*
X020562Y000541D01*
X020574Y000525D01*
X020589Y000512D01*
X020606Y000501D01*
X020624Y000494D01*
X020849Y000494D02*
X020867Y000501D01*
X020884Y000512D01*
X020899Y000525D01*
X020911Y000541D01*
X020921Y000558D01*
X020927Y000577D01*
X020931Y000596D01*
X020849Y000495D02*
X020812Y000486D01*
X020775Y000480D01*
X020737Y000478D01*
X020699Y000480D01*
X020661Y000486D01*
X020625Y000495D01*
X019071Y000495D02*
X019034Y000486D01*
X018997Y000480D01*
X018959Y000478D01*
X018921Y000480D01*
X018883Y000486D01*
X018847Y000495D01*
X021360Y002107D02*
X021360Y002681D01*
X021362Y002665D01*
X021366Y002650D01*
X021374Y002635D01*
X021384Y002623D01*
X021396Y002613D01*
X021411Y002605D01*
X021426Y002601D01*
X021442Y002599D01*
X021503Y002599D01*
X020645Y003008D02*
X020645Y003744D01*
X020645Y003764D02*
X021033Y003764D01*
X021033Y003744D02*
X021033Y003601D01*
X021030Y008529D02*
X020843Y008529D01*
X021030Y008715D01*
X021030Y008762D01*
X020983Y008809D01*
X020890Y008809D01*
X020843Y008762D01*
X020735Y008809D02*
X020548Y008809D01*
X020642Y008809D02*
X020642Y008529D01*
X020347Y008669D02*
X020254Y008669D01*
X020254Y008809D02*
X020441Y008809D01*
X020254Y008809D02*
X020254Y008529D01*
X021138Y008575D02*
X021184Y008529D01*
X021278Y008529D01*
X021324Y008575D01*
X021324Y008622D01*
X021278Y008669D01*
X021231Y008669D01*
X021278Y008669D02*
X021324Y008715D01*
X021324Y008762D01*
X021278Y008809D01*
X021184Y008809D01*
X021138Y008762D01*
X021432Y008762D02*
X021479Y008809D01*
X021572Y008809D01*
X021619Y008762D01*
X021619Y008715D01*
X021432Y008529D01*
X021619Y008529D01*
X021727Y008529D02*
X021727Y008809D01*
X021867Y008809D01*
X021914Y008762D01*
X021914Y008669D01*
X021867Y008622D01*
X021727Y008622D01*
X021820Y008622D02*
X021914Y008529D01*
X022022Y008529D02*
X022208Y008529D01*
X022022Y008529D02*
X022022Y008809D01*
X020877Y010137D02*
X020783Y010137D01*
X020737Y010183D01*
X020629Y010183D02*
X020582Y010137D01*
X020489Y010137D01*
X020442Y010183D01*
X020442Y010370D01*
X020489Y010417D01*
X020582Y010417D01*
X020629Y010370D01*
X020737Y010370D02*
X020783Y010417D01*
X020877Y010417D01*
X020923Y010370D01*
X020923Y010324D01*
X020877Y010277D01*
X020923Y010230D01*
X020923Y010183D01*
X020877Y010137D01*
X020877Y010277D02*
X020830Y010277D01*
X020339Y010417D02*
X020245Y010417D01*
X020292Y010417D02*
X020292Y010137D01*
X020245Y010137D02*
X020339Y010137D01*
X010948Y008248D02*
X010948Y008061D01*
X010808Y008061D01*
X010761Y008108D01*
X010761Y008248D01*
X010653Y008294D02*
X010467Y008108D01*
X010513Y008061D01*
X010607Y008061D01*
X010653Y008108D01*
X010653Y008294D01*
X010607Y008341D01*
X010513Y008341D01*
X010467Y008294D01*
X010467Y008108D01*
X010359Y008061D02*
X010172Y008061D01*
X010265Y008061D02*
X010265Y008341D01*
X010172Y008248D01*
X009848Y008201D02*
X009661Y008201D01*
X009801Y008341D01*
X009801Y008061D01*
X009553Y008061D02*
X009367Y008061D01*
X009367Y008341D01*
X007991Y008322D02*
X007991Y008416D01*
X007944Y008462D01*
X007851Y008462D01*
X007851Y008369D01*
X007944Y008276D02*
X007991Y008322D01*
X007944Y008276D02*
X007757Y008276D01*
X007711Y008322D01*
X007711Y008416D01*
X007757Y008462D01*
X007851Y008570D02*
X007851Y008710D01*
X007897Y008757D01*
X007944Y008757D01*
X007991Y008710D01*
X007991Y008617D01*
X007944Y008570D01*
X007851Y008570D01*
X007757Y008664D01*
X007711Y008757D01*
X007804Y008865D02*
X007711Y008958D01*
X007991Y008958D01*
X007991Y008865D02*
X007991Y009052D01*
X007991Y009159D02*
X007804Y009346D01*
X007757Y009346D01*
X007711Y009300D01*
X007711Y009206D01*
X007757Y009159D01*
X007991Y009159D02*
X007991Y009346D01*
X007944Y008168D02*
X007757Y008168D01*
X007711Y008121D01*
X007711Y007981D01*
X007991Y007981D01*
X007991Y008121D01*
X007944Y008168D01*
X003541Y008478D02*
X003494Y008431D01*
X003541Y008478D02*
X003541Y008571D01*
X003494Y008618D01*
X003447Y008618D01*
X003401Y008571D01*
X003401Y008478D01*
X003354Y008431D01*
X003307Y008431D01*
X003261Y008478D01*
X003261Y008571D01*
X003307Y008618D01*
X003354Y008726D02*
X003261Y008819D01*
X003541Y008819D01*
X003541Y008726D02*
X003541Y008912D01*
X001211Y010351D02*
X001211Y010538D01*
X001211Y010445D02*
X000931Y010445D01*
X001024Y010351D01*
X001071Y010646D02*
X001071Y010786D01*
X001117Y010833D01*
X001164Y010833D01*
X001211Y010786D01*
X001211Y010693D01*
X001164Y010646D01*
X001071Y010646D01*
X000977Y010739D01*
X000931Y010833D01*
X000931Y010941D02*
X001071Y010941D01*
X001024Y011034D01*
X001024Y011081D01*
X001071Y011127D01*
X001164Y011127D01*
X001211Y011081D01*
X001211Y010987D01*
X001164Y010941D01*
X000931Y010941D02*
X000931Y011127D01*
X000931Y011235D02*
X001211Y011235D01*
X001117Y011235D02*
X001024Y011375D01*
X001117Y011235D02*
X001211Y011375D01*
X002131Y011433D02*
X002177Y011386D01*
X002131Y011433D02*
X002131Y011526D01*
X002177Y011573D01*
X002224Y011573D01*
X002411Y011386D01*
X002411Y011573D01*
X002411Y011278D02*
X002411Y011092D01*
X002411Y011185D02*
X002131Y011185D01*
X002224Y011092D01*
X002177Y010984D02*
X002271Y010984D01*
X002317Y010937D01*
X002317Y010797D01*
X002317Y010890D02*
X002411Y010984D01*
X002411Y010797D02*
X002131Y010797D01*
X002131Y010937D01*
X002177Y010984D01*
X004031Y011781D02*
X004124Y011781D01*
X004078Y011781D02*
X004078Y012061D01*
X004124Y012061D02*
X004031Y012061D01*
X004227Y012014D02*
X004227Y011828D01*
X004274Y011781D01*
X004367Y011781D01*
X004414Y011828D01*
X004522Y011781D02*
X004709Y011968D01*
X004709Y012014D01*
X004662Y012061D01*
X004569Y012061D01*
X004522Y012014D01*
X004414Y012014D02*
X004367Y012061D01*
X004274Y012061D01*
X004227Y012014D01*
X004522Y011781D02*
X004709Y011781D01*
X002591Y012381D02*
X002591Y012568D01*
X002591Y012474D02*
X002311Y012474D01*
X002404Y012381D01*
X002357Y012676D02*
X002311Y012722D01*
X002311Y012816D01*
X002357Y012862D01*
X002544Y012676D01*
X002591Y012722D01*
X002591Y012816D01*
X002544Y012862D01*
X002357Y012862D01*
X002404Y012970D02*
X002404Y013110D01*
X002451Y013157D01*
X002591Y013157D01*
X002591Y012970D02*
X002404Y012970D01*
X002357Y012676D02*
X002544Y012676D01*
X001441Y012676D02*
X001254Y012862D01*
X001207Y012862D01*
X001161Y012816D01*
X001161Y012722D01*
X001207Y012676D01*
X001207Y012568D02*
X001161Y012521D01*
X001161Y012428D01*
X001207Y012381D01*
X001394Y012381D01*
X001441Y012428D01*
X001441Y012521D01*
X001394Y012568D01*
X001441Y012676D02*
X001441Y012862D01*
X001441Y012970D02*
X001254Y013157D01*
X001207Y013157D01*
X001161Y013110D01*
X001161Y013017D01*
X001207Y012970D01*
X001441Y012970D02*
X001441Y013157D01*
X001369Y014181D02*
X001416Y014228D01*
X001416Y014321D01*
X001369Y014368D01*
X001416Y014476D02*
X001229Y014662D01*
X001182Y014662D01*
X001136Y014616D01*
X001136Y014522D01*
X001182Y014476D01*
X001182Y014368D02*
X001136Y014321D01*
X001136Y014228D01*
X001182Y014181D01*
X001369Y014181D01*
X001416Y014476D02*
X001416Y014662D01*
X001369Y014770D02*
X001182Y014957D01*
X001369Y014957D01*
X001416Y014910D01*
X001416Y014817D01*
X001369Y014770D01*
X001182Y014770D01*
X001136Y014817D01*
X001136Y014910D01*
X001182Y014957D01*
X002311Y014474D02*
X002591Y014474D01*
X002591Y014381D02*
X002591Y014568D01*
X002591Y014676D02*
X002404Y014676D01*
X002404Y014816D01*
X002451Y014862D01*
X002591Y014862D01*
X002311Y014474D02*
X002404Y014381D01*
X003292Y015686D02*
X003292Y015966D01*
X003199Y015966D02*
X003385Y015966D01*
X003493Y015966D02*
X003493Y015686D01*
X003680Y015686D01*
X003788Y015733D02*
X003835Y015686D01*
X003928Y015686D01*
X003975Y015733D01*
X004083Y015686D02*
X004269Y015873D01*
X004269Y015919D01*
X004223Y015966D01*
X004129Y015966D01*
X004083Y015919D01*
X003975Y015919D02*
X003928Y015966D01*
X003835Y015966D01*
X003788Y015919D01*
X003788Y015733D01*
X004083Y015686D02*
X004269Y015686D01*
X004377Y015686D02*
X004564Y015873D01*
X004564Y015919D01*
X004517Y015966D01*
X004424Y015966D01*
X004377Y015919D01*
X004377Y015686D02*
X004564Y015686D01*
X004672Y015733D02*
X004719Y015686D01*
X004812Y015686D01*
X004859Y015733D01*
X004859Y015779D01*
X004812Y015826D01*
X004672Y015826D01*
X004672Y015733D01*
X004672Y015826D02*
X004765Y015919D01*
X004859Y015966D01*
X004967Y015826D02*
X005153Y015826D01*
X005107Y015686D02*
X005107Y015966D01*
X004967Y015826D01*
X005261Y015966D02*
X005401Y015966D01*
X005448Y015919D01*
X005448Y015733D01*
X005401Y015686D01*
X005261Y015686D01*
X005261Y015966D01*
X005704Y017311D02*
X005704Y017358D01*
X005891Y017544D01*
X005891Y017591D01*
X005704Y017591D01*
X005999Y017544D02*
X006045Y017591D01*
X006139Y017591D01*
X006186Y017544D01*
X006186Y017498D01*
X006139Y017451D01*
X006186Y017404D01*
X006186Y017358D01*
X006139Y017311D01*
X006045Y017311D01*
X005999Y017358D01*
X006092Y017451D02*
X006139Y017451D01*
X006293Y017358D02*
X006340Y017358D01*
X006340Y017311D01*
X006293Y017311D01*
X006293Y017358D01*
X006441Y017311D02*
X006627Y017498D01*
X006627Y017544D01*
X006581Y017591D01*
X006487Y017591D01*
X006441Y017544D01*
X006441Y017311D02*
X006627Y017311D01*
X006735Y017311D02*
X006735Y017591D01*
X006875Y017498D02*
X006735Y017404D01*
X006875Y017311D01*
X007297Y017311D02*
X007297Y017591D01*
X007437Y017591D01*
X007484Y017544D01*
X007484Y017451D01*
X007437Y017404D01*
X007297Y017404D01*
X007390Y017404D02*
X007484Y017311D01*
X007592Y017311D02*
X007778Y017311D01*
X007685Y017311D02*
X007685Y017591D01*
X007592Y017498D01*
X007886Y017544D02*
X007886Y017358D01*
X008073Y017544D01*
X008073Y017358D01*
X008026Y017311D01*
X007933Y017311D01*
X007886Y017358D01*
X007886Y017544D02*
X007933Y017591D01*
X008026Y017591D01*
X008073Y017544D01*
X003106Y018183D02*
X002920Y018183D01*
X003013Y018183D02*
X003013Y018463D01*
X002920Y018370D01*
X002812Y018183D02*
X002625Y018183D01*
X002718Y018183D02*
X002718Y018463D01*
X002625Y018370D01*
X002517Y018323D02*
X002470Y018277D01*
X002330Y018277D01*
X002424Y018277D02*
X002517Y018183D01*
X002517Y018323D02*
X002517Y018417D01*
X002470Y018463D01*
X002330Y018463D01*
X002330Y018183D01*
X002072Y018159D02*
X001931Y018252D01*
X002072Y018345D01*
X001931Y018439D02*
X001931Y018159D01*
X001824Y018205D02*
X001777Y018159D01*
X001684Y018159D01*
X001637Y018205D01*
X001824Y018392D01*
X001824Y018205D01*
X001824Y018392D02*
X001777Y018439D01*
X001684Y018439D01*
X001637Y018392D01*
X001637Y018205D01*
X001529Y018205D02*
X001482Y018159D01*
X001389Y018159D01*
X001342Y018205D01*
X001342Y018299D02*
X001436Y018345D01*
X001482Y018345D01*
X001529Y018299D01*
X001529Y018205D01*
X001342Y018299D02*
X001342Y018439D01*
X001529Y018439D01*
X001141Y018439D02*
X001141Y018159D01*
X001048Y018159D02*
X001234Y018159D01*
X001048Y018345D02*
X001141Y018439D01*
X002476Y016854D02*
X002616Y016854D01*
X002476Y016854D02*
X002429Y016808D01*
X002429Y016667D01*
X002616Y016667D01*
X002569Y016560D02*
X002616Y016513D01*
X002616Y016420D01*
X002569Y016373D01*
X002476Y016373D02*
X002429Y016466D01*
X002429Y016513D01*
X002476Y016560D01*
X002569Y016560D01*
X002476Y016373D02*
X002336Y016373D01*
X002336Y016560D01*
X002569Y016272D02*
X002616Y016272D01*
X002616Y016226D01*
X002569Y016226D01*
X002569Y016272D01*
X002616Y016118D02*
X002616Y015931D01*
X002616Y016024D02*
X002336Y016024D01*
X002429Y015931D01*
X001391Y016028D02*
X001391Y016121D01*
X001344Y016168D01*
X001391Y016276D02*
X001204Y016462D01*
X001157Y016462D01*
X001111Y016416D01*
X001111Y016322D01*
X001157Y016276D01*
X001157Y016168D02*
X001111Y016121D01*
X001111Y016028D01*
X001157Y015981D01*
X001344Y015981D01*
X001391Y016028D01*
X001391Y016276D02*
X001391Y016462D01*
X001391Y016570D02*
X001391Y016757D01*
X001391Y016664D02*
X001111Y016664D01*
X001204Y016570D01*
X000787Y009753D02*
X000601Y009753D01*
X000787Y009753D02*
X000881Y009660D01*
X000787Y009566D01*
X000601Y009566D01*
X000741Y009458D02*
X000741Y009272D01*
X000881Y009169D02*
X000881Y009075D01*
X000881Y009122D02*
X000601Y009122D01*
X000601Y009075D02*
X000601Y009169D01*
X001181Y006673D02*
X001227Y006673D01*
X001414Y006486D01*
X001461Y006486D01*
X001414Y006378D02*
X001461Y006332D01*
X001461Y006238D01*
X001414Y006192D01*
X001227Y006192D01*
X001181Y006238D01*
X001181Y006332D01*
X001227Y006378D01*
X001181Y006486D02*
X001181Y006673D01*
X001674Y006626D02*
X001674Y006486D01*
X001861Y006486D01*
X001814Y006378D02*
X001767Y006378D01*
X001721Y006332D01*
X001721Y006192D01*
X001814Y006192D01*
X001861Y006238D01*
X001861Y006332D01*
X001814Y006378D01*
X001721Y006192D02*
X001627Y006285D01*
X001581Y006378D01*
X001674Y006626D02*
X001721Y006673D01*
X001861Y006673D01*
X002311Y006666D02*
X002311Y006572D01*
X002357Y006526D01*
X002404Y006526D01*
X002451Y006572D01*
X002451Y006712D01*
X002544Y006712D02*
X002357Y006712D01*
X002311Y006666D01*
X002544Y006712D02*
X002591Y006666D01*
X002591Y006572D01*
X002544Y006526D01*
X002591Y006418D02*
X002497Y006324D01*
X002497Y006371D02*
X002497Y006231D01*
X002591Y006231D02*
X002311Y006231D01*
X002311Y006371D01*
X002357Y006418D01*
X002451Y006418D01*
X002497Y006371D01*
X002761Y006372D02*
X002807Y006326D01*
X002761Y006372D02*
X002761Y006466D01*
X002807Y006512D01*
X002854Y006512D01*
X002901Y006466D01*
X002947Y006512D01*
X002994Y006512D01*
X003041Y006466D01*
X003041Y006372D01*
X002994Y006326D01*
X002994Y006218D02*
X003041Y006171D01*
X003041Y006078D01*
X002994Y006031D01*
X002901Y006124D02*
X002901Y006171D01*
X002947Y006218D01*
X002994Y006218D01*
X002901Y006171D02*
X002854Y006218D01*
X002807Y006218D01*
X002761Y006171D01*
X002761Y006078D01*
X002807Y006031D01*
X002901Y006419D02*
X002901Y006466D01*
X002947Y006620D02*
X002854Y006760D01*
X002761Y006620D02*
X003041Y006620D01*
X002947Y006620D02*
X003041Y006760D01*
X001861Y006037D02*
X001861Y005944D01*
X001814Y005897D01*
X001721Y005897D02*
X001674Y005990D01*
X001674Y006037D01*
X001721Y006084D01*
X001814Y006084D01*
X001861Y006037D01*
X001721Y005897D02*
X001581Y005897D01*
X001581Y006084D01*
X034831Y016585D02*
X034924Y016492D01*
X034831Y016585D02*
X035111Y016585D01*
X035111Y016492D02*
X035111Y016678D01*
X035064Y016786D02*
X035111Y016833D01*
X035111Y016973D01*
X034924Y016973D01*
X034924Y016786D02*
X035064Y016786D01*
X035064Y017447D02*
X035111Y017494D01*
X035111Y017587D01*
X035064Y017634D01*
X035111Y017742D02*
X035111Y017928D01*
X035111Y017835D02*
X034831Y017835D01*
X034924Y017742D01*
X034877Y017634D02*
X034831Y017587D01*
X034831Y017494D01*
X034877Y017447D01*
X035064Y017447D01*
X035111Y018036D02*
X035111Y018223D01*
X035111Y018130D02*
X034831Y018130D01*
X034924Y018036D01*
X034924Y019542D02*
X034831Y019635D01*
X035111Y019635D01*
X035111Y019542D02*
X035111Y019728D01*
X035064Y019836D02*
X035111Y019883D01*
X035111Y020023D01*
X034924Y020023D01*
X034924Y019836D02*
X035064Y019836D01*
X035064Y020397D02*
X035111Y020444D01*
X035111Y020537D01*
X035064Y020584D01*
X035111Y020692D02*
X035111Y020878D01*
X035111Y020785D02*
X034831Y020785D01*
X034924Y020692D01*
X034877Y020584D02*
X034831Y020537D01*
X034831Y020444D01*
X034877Y020397D01*
X035064Y020397D01*
X035111Y020986D02*
X034924Y021173D01*
X034877Y021173D01*
X034831Y021126D01*
X034831Y021033D01*
X034877Y020986D01*
X035111Y020986D02*
X035111Y021173D01*
D17*
X014111Y009111D03*
X010611Y015361D03*
D18*
X004861Y015611D02*
X004861Y012111D01*
X003861Y012111D01*
X003861Y015611D01*
X004861Y015611D01*
X004486Y012486D02*
X004488Y012508D01*
X004494Y012529D01*
X004503Y012548D01*
X004515Y012566D01*
X004531Y012582D01*
X004548Y012594D01*
X004568Y012603D01*
X004589Y012609D01*
X004611Y012611D01*
X004633Y012609D01*
X004654Y012603D01*
X004673Y012594D01*
X004691Y012582D01*
X004707Y012566D01*
X004719Y012548D01*
X004728Y012529D01*
X004734Y012508D01*
X004736Y012486D01*
X004734Y012464D01*
X004728Y012443D01*
X004719Y012424D01*
X004707Y012406D01*
X004691Y012390D01*
X004674Y012378D01*
X004654Y012369D01*
X004633Y012363D01*
X004611Y012361D01*
X004589Y012363D01*
X004568Y012369D01*
X004548Y012378D01*
X004531Y012390D01*
X004515Y012406D01*
X004503Y012423D01*
X004494Y012443D01*
X004488Y012464D01*
X004486Y012486D01*
D19*
X003611Y007981D02*
X007611Y007981D01*
X018653Y020052D02*
X018655Y020079D01*
X018661Y020106D01*
X018670Y020132D01*
X018683Y020156D01*
X018699Y020179D01*
X018718Y020198D01*
X018740Y020215D01*
X018764Y020229D01*
X018789Y020239D01*
X018816Y020246D01*
X018843Y020249D01*
X018871Y020248D01*
X018898Y020243D01*
X018924Y020235D01*
X018948Y020223D01*
X018971Y020207D01*
X018992Y020189D01*
X019009Y020168D01*
X019024Y020144D01*
X019035Y020119D01*
X019043Y020093D01*
X019047Y020066D01*
X019047Y020038D01*
X019043Y020011D01*
X019035Y019985D01*
X019024Y019960D01*
X019009Y019936D01*
X018992Y019915D01*
X018971Y019897D01*
X018949Y019881D01*
X018924Y019869D01*
X018898Y019861D01*
X018871Y019856D01*
X018843Y019855D01*
X018816Y019858D01*
X018789Y019865D01*
X018764Y019875D01*
X018740Y019889D01*
X018718Y019906D01*
X018699Y019925D01*
X018683Y019948D01*
X018670Y019972D01*
X018661Y019998D01*
X018655Y020025D01*
X018653Y020052D01*
D20*
X020169Y010534D02*
X016153Y010534D01*
X016153Y008487D01*
X020169Y008487D01*
X020169Y010534D01*
D21*
X019814Y010151D03*
D22*
X016461Y005461D03*
X010111Y007611D03*
M02*
