G75*
%MOIN*%
%OFA0B0*%
%FSLAX24Y24*%
%IPPOS*%
%LPD*%
%AMOC8*
5,1,8,0,0,1.08239X$1,22.5*
%
%ADD10C,0.0060*%
%ADD11C,0.0070*%
%ADD12C,0.0100*%
%ADD13C,0.0079*%
%ADD14C,0.0394*%
%ADD15C,0.0197*%
%ADD16C,0.0040*%
%ADD17R,0.0118X0.0157*%
%ADD18C,0.0050*%
%ADD19C,0.0020*%
%ADD20C,0.0080*%
%ADD21C,0.0348*%
%ADD22R,0.0157X0.0118*%
D10*
X003605Y001435D02*
X003855Y001185D01*
X004355Y001185D01*
X004605Y001435D01*
X004855Y001185D01*
X005355Y001185D01*
X005605Y001435D01*
X005855Y001185D01*
X006355Y001185D01*
X006605Y001435D01*
X006605Y002435D01*
X006355Y002685D01*
X005855Y002685D01*
X005605Y002435D01*
X005605Y001435D01*
X006035Y001030D02*
X006035Y000690D01*
X006148Y000803D01*
X006262Y000690D01*
X006262Y001030D01*
X005212Y000974D02*
X005212Y000860D01*
X005155Y000803D01*
X004985Y000803D01*
X004985Y000690D02*
X004985Y001030D01*
X005155Y001030D01*
X005212Y000974D01*
X005098Y000803D02*
X005212Y000690D01*
X004212Y000747D02*
X004155Y000690D01*
X004042Y000690D01*
X003985Y000747D01*
X003985Y000974D01*
X004042Y001030D01*
X004155Y001030D01*
X004212Y000974D01*
X004605Y001435D02*
X004605Y002435D01*
X004855Y002685D01*
X005355Y002685D01*
X005605Y002435D01*
X005687Y002885D02*
X005460Y002885D01*
X005460Y003225D01*
X005092Y003225D02*
X005092Y002885D01*
X005318Y002885D01*
X004950Y002885D02*
X004723Y002885D01*
X004723Y003225D01*
X004950Y003225D01*
X004837Y003055D02*
X004723Y003055D01*
X004582Y002942D02*
X004525Y002885D01*
X004412Y002885D01*
X004355Y002942D01*
X004355Y003169D01*
X004412Y003225D01*
X004525Y003225D01*
X004582Y003169D01*
X004355Y002685D02*
X003855Y002685D01*
X003605Y002435D01*
X003605Y001435D01*
X004605Y002435D02*
X004355Y002685D01*
X009816Y005645D02*
X009816Y005662D01*
X009816Y005645D02*
X010394Y005645D01*
X010394Y005662D01*
X010394Y005979D02*
X010394Y006391D01*
X010394Y006708D02*
X010394Y006725D01*
X009816Y006725D01*
X009816Y006708D01*
X009816Y006391D02*
X009816Y006354D01*
X009816Y006016D02*
X009816Y005979D01*
X011210Y006365D02*
X011380Y006365D01*
X011437Y006422D01*
X011437Y006478D01*
X011380Y006535D01*
X011210Y006535D01*
X011210Y006365D02*
X011210Y006705D01*
X011380Y006705D01*
X011437Y006649D01*
X011437Y006592D01*
X011380Y006535D01*
X011578Y006535D02*
X011805Y006535D01*
X011805Y006592D02*
X011805Y006365D01*
X011578Y006365D02*
X011578Y006592D01*
X011692Y006705D01*
X011805Y006592D01*
X011947Y006705D02*
X012173Y006705D01*
X012060Y006705D02*
X012060Y006365D01*
X012455Y006453D02*
X012568Y006340D01*
X012682Y006453D01*
X012682Y006680D01*
X012823Y006624D02*
X012823Y006397D01*
X012880Y006340D01*
X012994Y006340D01*
X013050Y006397D01*
X013192Y006397D02*
X013248Y006340D01*
X013362Y006340D01*
X013419Y006397D01*
X013419Y006624D02*
X013362Y006680D01*
X013248Y006680D01*
X013192Y006624D01*
X013192Y006397D01*
X013050Y006624D02*
X012994Y006680D01*
X012880Y006680D01*
X012823Y006624D01*
X012580Y006810D02*
X012355Y007035D01*
X012130Y006810D01*
X011580Y006810D01*
X011355Y007035D01*
X011355Y007835D01*
X011580Y008060D01*
X012130Y008060D01*
X012355Y007835D01*
X012580Y008060D01*
X013130Y008060D01*
X013355Y007835D01*
X013580Y008060D01*
X014130Y008060D01*
X014355Y007835D01*
X014355Y007035D01*
X014130Y006810D01*
X013580Y006810D01*
X013355Y007035D01*
X013130Y006810D01*
X012580Y006810D01*
X012455Y006680D02*
X012455Y006453D01*
X013810Y006397D02*
X013867Y006340D01*
X013980Y006340D01*
X014037Y006397D01*
X014037Y006680D01*
X014178Y006624D02*
X014178Y006567D01*
X014235Y006510D01*
X014348Y006510D01*
X014405Y006453D01*
X014405Y006397D01*
X014348Y006340D01*
X014235Y006340D01*
X014178Y006397D01*
X014178Y006624D02*
X014235Y006680D01*
X014348Y006680D01*
X014405Y006624D01*
X014547Y006680D02*
X014717Y006680D01*
X014773Y006624D01*
X014773Y006567D01*
X014717Y006510D01*
X014547Y006510D01*
X014717Y006510D02*
X014773Y006453D01*
X014773Y006397D01*
X014717Y006340D01*
X014547Y006340D01*
X014547Y006680D01*
X013810Y006680D02*
X013810Y006397D01*
X013744Y008165D02*
X013630Y008278D01*
X013687Y008278D02*
X013517Y008278D01*
X013517Y008165D02*
X013517Y008505D01*
X013687Y008505D01*
X013744Y008449D01*
X013744Y008335D01*
X013687Y008278D01*
X013375Y008165D02*
X013148Y008165D01*
X013148Y008505D01*
X013375Y008505D01*
X013262Y008335D02*
X013148Y008335D01*
X013007Y008165D02*
X013007Y008505D01*
X012780Y008505D02*
X012780Y008165D01*
X012893Y008278D01*
X013007Y008165D01*
X012639Y008222D02*
X012639Y008449D01*
X012582Y008505D01*
X012468Y008505D01*
X012412Y008449D01*
X012412Y008222D01*
X012468Y008165D01*
X012582Y008165D01*
X012639Y008222D01*
X012270Y008335D02*
X012270Y008449D01*
X012214Y008505D01*
X012043Y008505D01*
X012043Y008165D01*
X012043Y008278D02*
X012214Y008278D01*
X012270Y008335D01*
X012081Y008732D02*
X011581Y008732D01*
X011331Y008982D01*
X011331Y009982D01*
X011581Y010232D01*
X012081Y010232D01*
X012331Y009982D01*
X012581Y010232D01*
X013081Y010232D01*
X013331Y009982D01*
X013331Y008982D01*
X013081Y008732D01*
X012581Y008732D01*
X012331Y008982D01*
X012081Y008732D01*
X012331Y008982D02*
X012331Y009982D01*
X013436Y010012D02*
X013607Y010012D01*
X013663Y009956D01*
X013663Y009899D01*
X013607Y009842D01*
X013436Y009842D01*
X013436Y010183D01*
X013607Y010183D01*
X013663Y010126D01*
X013663Y010069D01*
X013607Y010012D01*
X013805Y010012D02*
X014032Y010012D01*
X014032Y010069D02*
X014032Y009842D01*
X014032Y010069D02*
X013918Y010183D01*
X013805Y010069D01*
X013805Y009842D01*
X014286Y009842D02*
X014286Y010183D01*
X014173Y010183D02*
X014400Y010183D01*
X011330Y011055D02*
X011103Y011055D01*
X011103Y010715D01*
X010962Y010715D02*
X010962Y011055D01*
X011130Y011060D02*
X011355Y011285D01*
X011355Y012085D01*
X011130Y012310D01*
X010580Y012310D01*
X010355Y012085D01*
X010130Y012310D01*
X009580Y012310D01*
X009355Y012085D01*
X009130Y012310D01*
X008580Y012310D01*
X008355Y012085D01*
X008355Y011285D01*
X008580Y011060D01*
X009130Y011060D01*
X009355Y011285D01*
X009580Y011060D01*
X010130Y011060D01*
X010355Y011285D01*
X010580Y011060D01*
X011130Y011060D01*
X011103Y010885D02*
X011217Y010885D01*
X010962Y010715D02*
X010735Y011055D01*
X010735Y010715D01*
X010841Y009978D02*
X010785Y009922D01*
X010785Y009752D01*
X011125Y009752D01*
X011125Y009922D01*
X011068Y009978D01*
X010841Y009978D01*
X010785Y009610D02*
X011125Y009610D01*
X010785Y009383D01*
X011125Y009383D01*
X011068Y009242D02*
X010955Y009242D01*
X010955Y009128D01*
X011068Y009015D02*
X011125Y009072D01*
X011125Y009185D01*
X011068Y009242D01*
X010841Y009242D02*
X010785Y009185D01*
X010785Y009072D01*
X010841Y009015D01*
X011068Y009015D01*
X009003Y010615D02*
X009003Y010955D01*
X009173Y010955D01*
X009230Y010899D01*
X009230Y010785D01*
X009173Y010728D01*
X009003Y010728D01*
X008862Y010615D02*
X008635Y010615D01*
X008635Y010955D01*
X007445Y009425D02*
X003745Y009425D01*
X003725Y009425D01*
X003704Y009421D01*
X003685Y009415D01*
X003667Y009406D01*
X003650Y009394D01*
X003636Y009379D01*
X003624Y009363D01*
X003615Y009345D01*
X003609Y009325D01*
X003605Y009305D01*
X003605Y008885D01*
X003605Y008485D01*
X003605Y008065D01*
X003609Y008044D01*
X003616Y008024D01*
X003626Y008005D01*
X003639Y007988D01*
X003655Y007974D01*
X003673Y007962D01*
X003692Y007953D01*
X003713Y007947D01*
X003734Y007944D01*
X003755Y007945D01*
X007455Y007945D01*
X007476Y007944D01*
X007497Y007947D01*
X007518Y007953D01*
X007537Y007962D01*
X007555Y007974D01*
X007571Y007988D01*
X007584Y008005D01*
X007594Y008024D01*
X007601Y008044D01*
X007605Y008065D01*
X007605Y009305D01*
X007600Y009327D01*
X007592Y009347D01*
X007580Y009366D01*
X007566Y009383D01*
X007550Y009398D01*
X007531Y009410D01*
X007511Y009418D01*
X007489Y009424D01*
X007467Y009426D01*
X007445Y009425D01*
X003605Y008885D02*
X003632Y008883D01*
X003659Y008878D01*
X003685Y008868D01*
X003709Y008856D01*
X003731Y008840D01*
X003751Y008822D01*
X003768Y008800D01*
X003783Y008777D01*
X003793Y008752D01*
X003801Y008726D01*
X003805Y008699D01*
X003805Y008671D01*
X003801Y008644D01*
X003793Y008618D01*
X003783Y008593D01*
X003768Y008570D01*
X003751Y008548D01*
X003731Y008530D01*
X003709Y008514D01*
X003685Y008502D01*
X003659Y008492D01*
X003632Y008487D01*
X003605Y008485D01*
X003105Y008935D02*
X002855Y008685D01*
X002355Y008685D01*
X002105Y008935D01*
X001855Y008685D01*
X001355Y008685D01*
X001105Y008935D01*
X001105Y009935D01*
X001355Y010185D01*
X001855Y010185D01*
X002105Y009935D01*
X002355Y010185D01*
X002855Y010185D01*
X003105Y009935D01*
X003105Y008935D01*
X002105Y008935D02*
X002105Y009935D01*
X015816Y003975D02*
X015816Y003958D01*
X015816Y003975D02*
X016394Y003975D01*
X016394Y003958D01*
X016394Y003641D02*
X016394Y003604D01*
X016394Y003266D02*
X016394Y003229D01*
X015816Y003229D02*
X015816Y003641D01*
X015816Y002912D02*
X015816Y002895D01*
X016394Y002895D01*
X016394Y002912D01*
X027755Y012473D02*
X027755Y012766D01*
X027975Y012546D01*
X027535Y012546D01*
X027535Y012933D02*
X027535Y013227D01*
X027535Y013080D02*
X027975Y013080D01*
X027829Y013227D01*
X027902Y013394D02*
X027608Y013394D01*
X027535Y013467D01*
X027535Y013614D01*
X027608Y013687D01*
X027902Y013394D01*
X027975Y013467D01*
X027975Y013614D01*
X027902Y013687D01*
X027608Y013687D01*
X027535Y013854D02*
X027535Y014148D01*
X027829Y013854D01*
X027902Y013854D01*
X027975Y013927D01*
X027975Y014074D01*
X027902Y014148D01*
X027975Y014314D02*
X027535Y014608D01*
X027902Y014775D02*
X027608Y015068D01*
X027535Y015068D01*
X027535Y015235D02*
X027535Y015529D01*
X027829Y015235D01*
X027902Y015235D01*
X027975Y015309D01*
X027975Y015455D01*
X027902Y015529D01*
X027975Y015696D02*
X027535Y015989D01*
X027608Y016156D02*
X027535Y016229D01*
X027535Y016376D01*
X027608Y016450D01*
X027755Y016450D02*
X027829Y016303D01*
X027829Y016229D01*
X027755Y016156D01*
X027608Y016156D01*
X027975Y016156D02*
X027975Y016450D01*
X027755Y016450D01*
X027608Y016616D02*
X027535Y016690D01*
X027535Y016837D01*
X027608Y016910D01*
X027902Y016616D01*
X027608Y016616D01*
X027902Y016616D02*
X027975Y016690D01*
X027975Y016837D01*
X027902Y016910D01*
X027608Y016910D01*
X027975Y015068D02*
X027975Y014775D01*
X027902Y014775D01*
X019389Y019764D02*
X019389Y019815D01*
X019389Y019760D02*
X019388Y019743D01*
X019383Y019726D01*
X019376Y019711D01*
X019366Y019697D01*
X019354Y019685D01*
X019340Y019675D01*
X019325Y019668D01*
X019308Y019663D01*
X019291Y019662D01*
X019287Y019661D02*
X017519Y019661D01*
X017519Y019662D02*
X017502Y019663D01*
X017485Y019668D01*
X017470Y019675D01*
X017456Y019685D01*
X017444Y019697D01*
X017434Y019711D01*
X017427Y019726D01*
X017422Y019743D01*
X017421Y019760D01*
X017421Y019764D02*
X017421Y019815D01*
X017421Y020059D02*
X017421Y020311D01*
X017421Y020559D02*
X017421Y020811D01*
X017421Y021059D02*
X017421Y021311D01*
X017421Y021555D02*
X017421Y021614D01*
X017421Y021610D02*
X017422Y021627D01*
X017427Y021644D01*
X017434Y021659D01*
X017444Y021673D01*
X017456Y021685D01*
X017470Y021695D01*
X017485Y021702D01*
X017502Y021707D01*
X017519Y021708D01*
X017519Y021709D02*
X019291Y021709D01*
X019291Y021708D02*
X019308Y021707D01*
X019325Y021702D01*
X019340Y021695D01*
X019354Y021685D01*
X019366Y021673D01*
X019376Y021659D01*
X019383Y021644D01*
X019388Y021627D01*
X019389Y021610D01*
X019389Y021602D02*
X019389Y021551D01*
X019389Y021311D02*
X019389Y021055D01*
X019389Y020811D02*
X019389Y020555D01*
X019389Y020311D02*
X019389Y020059D01*
X015605Y020185D02*
X015355Y019935D01*
X014855Y019935D01*
X014605Y020185D01*
X014605Y021685D01*
X014855Y021935D01*
X015355Y021935D01*
X015605Y021685D01*
X015605Y020185D01*
X014605Y020185D02*
X014355Y019935D01*
X013855Y019935D01*
X013605Y020185D01*
X013605Y021685D01*
X013855Y021935D01*
X014355Y021935D01*
X014605Y021685D01*
X013605Y021685D02*
X013355Y021935D01*
X012855Y021935D01*
X012605Y021685D01*
X012605Y020185D01*
X012855Y019935D01*
X013355Y019935D01*
X013605Y020185D01*
X012435Y020915D02*
X012322Y020915D01*
X012378Y020915D02*
X012378Y021255D01*
X012322Y021255D02*
X012435Y021255D01*
X012180Y021199D02*
X012180Y020972D01*
X012123Y020915D01*
X011953Y020915D01*
X011953Y021255D01*
X012123Y021255D01*
X012180Y021199D01*
X011812Y021199D02*
X011812Y021085D01*
X011755Y021028D01*
X011585Y021028D01*
X011585Y020915D02*
X011585Y021255D01*
X011755Y021255D01*
X011812Y021199D01*
D11*
X028365Y016900D02*
X028795Y016900D01*
X028652Y016757D01*
X028795Y016613D01*
X028365Y016613D01*
X028437Y016440D02*
X028365Y016368D01*
X028365Y016224D01*
X028437Y016153D01*
X028580Y016153D01*
X028652Y016224D01*
X028652Y016368D01*
X028580Y016440D01*
X028437Y016440D01*
X028437Y015979D02*
X028580Y015979D01*
X028652Y015907D01*
X028652Y015692D01*
X028795Y015692D02*
X028365Y015692D01*
X028365Y015907D01*
X028437Y015979D01*
X028365Y015519D02*
X028365Y015375D01*
X028365Y015447D02*
X028652Y015447D01*
X028652Y015519D01*
X028795Y015447D02*
X028867Y015447D01*
X029097Y015534D02*
X029168Y015462D01*
X029527Y015462D01*
X029527Y015677D01*
X029455Y015749D01*
X029312Y015749D01*
X029240Y015677D01*
X029240Y015462D01*
X029097Y015534D02*
X029097Y015606D01*
X029240Y015912D02*
X029240Y016056D01*
X029240Y015984D02*
X029527Y015984D01*
X029527Y016056D01*
X029670Y015984D02*
X029742Y015984D01*
X029527Y016224D02*
X029527Y016296D01*
X029383Y016440D01*
X029240Y016440D02*
X029527Y016440D01*
X029599Y016613D02*
X029670Y016685D01*
X029670Y016828D01*
X029599Y016900D01*
X029312Y016900D01*
X029240Y016828D01*
X029240Y016685D01*
X029312Y016613D01*
X029599Y016613D01*
X029527Y015289D02*
X029527Y015217D01*
X029240Y015217D01*
X029240Y015289D02*
X029240Y015145D01*
X029240Y014982D02*
X029527Y014982D01*
X029527Y014767D01*
X029455Y014695D01*
X029240Y014695D01*
X029312Y014521D02*
X029383Y014450D01*
X029383Y014234D01*
X029455Y014234D02*
X029240Y014234D01*
X029240Y014450D01*
X029312Y014521D01*
X029527Y014450D02*
X029527Y014306D01*
X029455Y014234D01*
X029240Y014061D02*
X029240Y013917D01*
X029240Y013989D02*
X029670Y013989D01*
X029670Y014061D01*
X028795Y013851D02*
X028365Y013851D01*
X028365Y014066D01*
X028437Y014138D01*
X028580Y014138D01*
X028652Y014066D01*
X028652Y013851D01*
X028580Y014311D02*
X028508Y014311D01*
X028508Y014598D01*
X028437Y014598D02*
X028580Y014598D01*
X028652Y014526D01*
X028652Y014383D01*
X028580Y014311D01*
X028365Y014383D02*
X028365Y014526D01*
X028437Y014598D01*
X028365Y014762D02*
X028365Y014905D01*
X028365Y014833D02*
X028652Y014833D01*
X028652Y014905D01*
X028795Y014833D02*
X028867Y014833D01*
X028795Y015068D02*
X028724Y015140D01*
X028365Y015140D01*
X028580Y015212D02*
X028580Y015068D01*
X029670Y015217D02*
X029742Y015217D01*
X029670Y013294D02*
X029240Y013294D01*
X029240Y013078D01*
X029312Y013007D01*
X029599Y013007D01*
X029670Y013078D01*
X029670Y013294D01*
X029455Y012833D02*
X029312Y012833D01*
X029240Y012761D01*
X029240Y012618D01*
X029383Y012546D02*
X029383Y012833D01*
X029455Y012833D02*
X029527Y012761D01*
X029527Y012618D01*
X029455Y012546D01*
X029383Y012546D01*
X029455Y012373D02*
X029527Y012301D01*
X029527Y012086D01*
X029383Y012158D02*
X029383Y012301D01*
X029455Y012373D01*
X029240Y012373D02*
X029240Y012158D01*
X029312Y012086D01*
X029383Y012158D01*
X029240Y011912D02*
X029240Y011769D01*
X029240Y011841D02*
X029527Y011841D01*
X029527Y011912D01*
X029670Y011841D02*
X029742Y011841D01*
X029455Y011605D02*
X029312Y011605D01*
X029240Y011534D01*
X029240Y011319D01*
X029168Y011319D02*
X029527Y011319D01*
X029527Y011534D01*
X029455Y011605D01*
X029097Y011462D02*
X029097Y011390D01*
X029168Y011319D01*
X029240Y011145D02*
X029527Y011145D01*
X029527Y010930D01*
X029455Y010858D01*
X029240Y010858D01*
X028652Y010853D02*
X028580Y010781D01*
X028365Y010781D01*
X028365Y011068D02*
X028652Y011068D01*
X028652Y010853D01*
X028652Y011242D02*
X028652Y011457D01*
X028580Y011529D01*
X028437Y011529D01*
X028365Y011457D01*
X028365Y011242D01*
X028293Y011242D02*
X028652Y011242D01*
X028293Y011242D02*
X028222Y011314D01*
X028222Y011385D01*
X028365Y011692D02*
X028365Y011836D01*
X028365Y011764D02*
X028652Y011764D01*
X028652Y011836D01*
X028795Y011764D02*
X028867Y011764D01*
X028652Y012009D02*
X028652Y012224D01*
X028580Y012296D01*
X028508Y012224D01*
X028508Y012081D01*
X028437Y012009D01*
X028365Y012081D01*
X028365Y012296D01*
X028508Y012470D02*
X028508Y012756D01*
X028437Y012756D02*
X028580Y012756D01*
X028652Y012685D01*
X028652Y012541D01*
X028580Y012470D01*
X028508Y012470D01*
X028365Y012541D02*
X028365Y012685D01*
X028437Y012756D01*
X028437Y012930D02*
X028724Y012930D01*
X028795Y013002D01*
X028795Y013217D01*
X028365Y013217D01*
X028365Y013002D01*
X028437Y012930D01*
X028365Y010148D02*
X028365Y010004D01*
X028365Y010076D02*
X028795Y010076D01*
X028795Y010148D02*
X028795Y010004D01*
X028724Y009841D02*
X028437Y009841D01*
X028365Y009769D01*
X028365Y009625D01*
X028437Y009554D01*
X028724Y009554D01*
X028795Y009625D01*
X028795Y009769D01*
X028724Y009841D01*
X029240Y009692D02*
X029240Y009549D01*
X029312Y009477D01*
X029312Y009304D02*
X029240Y009232D01*
X029240Y009088D01*
X029312Y009017D01*
X029383Y009017D01*
X029455Y009088D01*
X029455Y009232D01*
X029527Y009304D01*
X029599Y009304D01*
X029670Y009232D01*
X029670Y009088D01*
X029599Y009017D01*
X029670Y008843D02*
X029240Y008843D01*
X029240Y008628D01*
X029312Y008556D01*
X029383Y008556D01*
X029455Y008628D01*
X029455Y008843D01*
X029455Y008628D02*
X029527Y008556D01*
X029599Y008556D01*
X029670Y008628D01*
X029670Y008843D01*
X028795Y008920D02*
X028795Y008705D01*
X028724Y008633D01*
X028580Y008633D01*
X028508Y008705D01*
X028508Y008920D01*
X028365Y008920D02*
X028795Y008920D01*
X028508Y008776D02*
X028365Y008633D01*
X028437Y008459D02*
X028365Y008388D01*
X028365Y008244D01*
X028437Y008173D01*
X028580Y008173D01*
X028652Y008244D01*
X028652Y008388D01*
X028580Y008459D01*
X028437Y008459D01*
X028437Y007999D02*
X028580Y007999D01*
X028652Y007927D01*
X028652Y007712D01*
X028795Y007712D02*
X028365Y007712D01*
X028365Y007927D01*
X028437Y007999D01*
X028437Y007539D02*
X028580Y007539D01*
X028652Y007467D01*
X028652Y007324D01*
X028580Y007252D01*
X028508Y007252D01*
X028508Y007539D01*
X028437Y007539D02*
X028365Y007467D01*
X028365Y007324D01*
X028437Y007078D02*
X028365Y007007D01*
X028365Y006863D01*
X028437Y006791D01*
X028580Y006791D01*
X028652Y006863D01*
X028652Y007007D01*
X028580Y007078D01*
X028437Y007078D01*
X029240Y007083D02*
X029670Y007083D01*
X029670Y007155D01*
X029599Y007329D02*
X029455Y007329D01*
X029383Y007400D01*
X029383Y007615D01*
X029240Y007615D02*
X029670Y007615D01*
X029670Y007400D01*
X029599Y007329D01*
X029240Y007155D02*
X029240Y007012D01*
X029312Y006848D02*
X029383Y006776D01*
X029383Y006561D01*
X029455Y006561D02*
X029240Y006561D01*
X029240Y006776D01*
X029312Y006848D01*
X029527Y006776D02*
X029527Y006633D01*
X029455Y006561D01*
X029527Y006388D02*
X029240Y006101D01*
X029312Y005927D02*
X029240Y005856D01*
X029240Y005640D01*
X029312Y005467D02*
X029240Y005395D01*
X029240Y005252D01*
X029312Y005180D01*
X029455Y005180D01*
X029527Y005252D01*
X029527Y005395D01*
X029455Y005467D01*
X029312Y005467D01*
X029527Y005640D02*
X029527Y005856D01*
X029455Y005927D01*
X029312Y005927D01*
X029527Y006101D02*
X029240Y006388D01*
X028795Y006158D02*
X028795Y006014D01*
X028795Y006086D02*
X028365Y006086D01*
X028365Y006158D02*
X028365Y006014D01*
X028365Y005851D02*
X028652Y005851D01*
X028652Y005635D01*
X028580Y005564D01*
X028365Y005564D01*
X028437Y005390D02*
X028365Y005318D01*
X028365Y005103D01*
X028652Y005103D02*
X028652Y005318D01*
X028580Y005390D01*
X028437Y005390D01*
X029312Y004546D02*
X029240Y004474D01*
X029240Y004331D01*
X029312Y004259D01*
X029455Y004259D01*
X029455Y004403D01*
X029599Y004546D02*
X029312Y004546D01*
X029599Y004546D02*
X029670Y004474D01*
X029670Y004331D01*
X029599Y004259D01*
X029527Y004086D02*
X029240Y004086D01*
X029383Y004086D02*
X029527Y003942D01*
X029527Y003871D01*
X029455Y003702D02*
X029312Y003702D01*
X029240Y003630D01*
X029240Y003487D01*
X029312Y003415D01*
X029455Y003415D01*
X029527Y003487D01*
X029527Y003630D01*
X029455Y003702D01*
X029527Y003242D02*
X029312Y003242D01*
X029240Y003170D01*
X029240Y002955D01*
X029527Y002955D01*
X029527Y002781D02*
X029527Y002566D01*
X029455Y002494D01*
X029312Y002494D01*
X029240Y002566D01*
X029240Y002781D01*
X029097Y002781D02*
X029527Y002781D01*
X029670Y002321D02*
X029527Y002177D01*
X029383Y002177D01*
X029240Y002321D01*
X029240Y007779D02*
X029383Y007922D01*
X029527Y007922D01*
X029670Y007779D01*
X029599Y009477D02*
X029670Y009549D01*
X029670Y009692D01*
X029599Y009764D01*
X029312Y009764D01*
X029240Y009692D01*
X029312Y009937D02*
X029670Y009937D01*
X029670Y010224D02*
X029312Y010224D01*
X029240Y010153D01*
X029240Y010009D01*
X029312Y009937D01*
D12*
X030080Y009799D02*
X030080Y010200D01*
X030480Y009799D01*
X030580Y009799D01*
X030681Y009899D01*
X030681Y010100D01*
X030580Y010200D01*
X030681Y010444D02*
X030280Y010444D01*
X030080Y010644D01*
X030280Y010844D01*
X030681Y010844D01*
X030480Y011718D02*
X030480Y011918D01*
X030580Y011818D02*
X030180Y011818D01*
X030080Y011718D01*
X030080Y012163D02*
X030080Y012463D01*
X030180Y012563D01*
X030280Y012463D01*
X030280Y012163D01*
X030380Y012163D02*
X030080Y012163D01*
X030380Y012163D02*
X030480Y012263D01*
X030480Y012463D01*
X030480Y012793D02*
X030480Y012993D01*
X030580Y012893D02*
X030180Y012893D01*
X030080Y012793D01*
X030180Y013237D02*
X030080Y013337D01*
X030080Y013537D01*
X030180Y013637D01*
X030380Y013537D02*
X030380Y013337D01*
X030280Y013237D01*
X030180Y013237D01*
X030380Y013537D02*
X030480Y013637D01*
X030580Y013637D01*
X030681Y013537D01*
X030681Y013337D01*
X030580Y013237D01*
X030380Y013881D02*
X030180Y013881D01*
X030080Y013982D01*
X030080Y014282D01*
X029880Y014282D02*
X030480Y014282D01*
X030480Y013982D01*
X030380Y013881D01*
X030380Y014526D02*
X030080Y014526D01*
X030080Y014826D01*
X030180Y014926D01*
X030280Y014826D01*
X030280Y014526D01*
X030380Y014526D02*
X030480Y014626D01*
X030480Y014826D01*
X030380Y015171D02*
X030280Y015171D01*
X030280Y015571D01*
X030180Y015571D02*
X030380Y015571D01*
X030480Y015471D01*
X030480Y015271D01*
X030380Y015171D01*
X030080Y015271D02*
X030080Y015471D01*
X030180Y015571D01*
X030080Y015815D02*
X030380Y015815D01*
X030480Y015915D01*
X030480Y016115D01*
X030380Y016215D01*
X030080Y016215D02*
X030681Y016215D01*
X030580Y016460D02*
X030681Y016560D01*
X030681Y016760D01*
X030580Y016860D01*
X030180Y016860D01*
X030080Y016760D01*
X030080Y016560D01*
X030180Y016460D01*
X030180Y009555D02*
X030180Y009455D01*
X030080Y009455D01*
X030080Y009555D01*
X030180Y009555D01*
X030380Y009233D02*
X030380Y008832D01*
X030080Y008933D02*
X030681Y008933D01*
X030380Y009233D01*
D13*
X016936Y014104D02*
X016936Y017766D01*
X013274Y017766D01*
X013274Y014104D01*
X016936Y014104D01*
D14*
X013629Y014459D03*
D15*
X013215Y013474D03*
D16*
X012406Y012760D02*
X012220Y012760D01*
X012220Y012620D01*
X012313Y012667D01*
X012360Y012667D01*
X012406Y012620D01*
X012406Y012527D01*
X012360Y012480D01*
X012266Y012480D01*
X012220Y012527D01*
X012112Y012480D02*
X012018Y012573D01*
X012065Y012573D02*
X011925Y012573D01*
X011925Y012480D02*
X011925Y012760D01*
X012065Y012760D01*
X012112Y012714D01*
X012112Y012620D01*
X012065Y012573D01*
X012066Y012260D02*
X012160Y012260D01*
X012206Y012214D01*
X012020Y012027D01*
X012066Y011980D01*
X012160Y011980D01*
X012206Y012027D01*
X012206Y012214D01*
X012314Y012260D02*
X012314Y011980D01*
X012314Y012073D02*
X012454Y012167D01*
X012314Y012073D02*
X012454Y011980D01*
X012020Y012027D02*
X012020Y012214D01*
X012066Y012260D01*
X011818Y012260D02*
X011818Y011980D01*
X011725Y011980D02*
X011912Y011980D01*
X011725Y012167D02*
X011818Y012260D01*
X010817Y012385D02*
X010724Y012478D01*
X010770Y012478D02*
X010630Y012478D01*
X010630Y012385D02*
X010630Y012665D01*
X010770Y012665D01*
X010817Y012619D01*
X010817Y012525D01*
X010770Y012478D01*
X010523Y012525D02*
X010523Y012619D01*
X010476Y012665D01*
X010336Y012665D01*
X010336Y012385D01*
X010336Y012478D02*
X010476Y012478D01*
X010523Y012525D01*
X010228Y012665D02*
X010134Y012665D01*
X010181Y012665D02*
X010181Y012432D01*
X010134Y012385D01*
X010088Y012385D01*
X010041Y012432D01*
X009933Y012338D02*
X009746Y012338D01*
X009639Y012432D02*
X009592Y012385D01*
X009498Y012385D01*
X009452Y012432D01*
X009452Y012619D01*
X009498Y012665D01*
X009592Y012665D01*
X009639Y012619D01*
X009344Y012619D02*
X009344Y012432D01*
X009297Y012385D01*
X009157Y012385D01*
X009157Y012665D01*
X009297Y012665D01*
X009344Y012619D01*
X009049Y012572D02*
X009049Y012385D01*
X009049Y012525D02*
X008862Y012525D01*
X008862Y012572D02*
X008862Y012385D01*
X008862Y012572D02*
X008956Y012665D01*
X009049Y012572D01*
X007335Y013355D02*
X007335Y013542D01*
X007335Y013448D02*
X007055Y013448D01*
X007148Y013355D01*
X007101Y013650D02*
X007055Y013696D01*
X007055Y013790D01*
X007101Y013836D01*
X007288Y013650D01*
X007335Y013696D01*
X007335Y013790D01*
X007288Y013836D01*
X007101Y013836D01*
X007101Y013944D02*
X007055Y013991D01*
X007055Y014084D01*
X007101Y014131D01*
X007288Y013944D01*
X007335Y013991D01*
X007335Y014084D01*
X007288Y014131D01*
X007101Y014131D01*
X007148Y014239D02*
X007148Y014379D01*
X007195Y014426D01*
X007335Y014426D01*
X007335Y014239D02*
X007148Y014239D01*
X007101Y013944D02*
X007288Y013944D01*
X007288Y013650D02*
X007101Y013650D01*
X006185Y013602D02*
X006185Y013695D01*
X006138Y013742D01*
X006185Y013850D02*
X005998Y014036D01*
X005951Y014036D01*
X005905Y013990D01*
X005905Y013896D01*
X005951Y013850D01*
X005951Y013742D02*
X005905Y013695D01*
X005905Y013602D01*
X005951Y013555D01*
X006138Y013555D01*
X006185Y013602D01*
X006185Y013850D02*
X006185Y014036D01*
X006138Y014144D02*
X006185Y014191D01*
X006185Y014284D01*
X006138Y014331D01*
X006092Y014331D01*
X006045Y014284D01*
X006045Y014238D01*
X006045Y014284D02*
X005998Y014331D01*
X005951Y014331D01*
X005905Y014284D01*
X005905Y014191D01*
X005951Y014144D01*
X006905Y015405D02*
X006905Y015545D01*
X006951Y015592D01*
X007045Y015592D01*
X007092Y015545D01*
X007092Y015405D01*
X007185Y015405D02*
X006905Y015405D01*
X007092Y015498D02*
X007185Y015592D01*
X007138Y015700D02*
X007185Y015746D01*
X007185Y015840D01*
X007138Y015886D01*
X007092Y015886D01*
X007045Y015840D01*
X007045Y015700D01*
X007138Y015700D01*
X007045Y015700D02*
X006951Y015793D01*
X006905Y015886D01*
X008055Y015894D02*
X008335Y015894D01*
X008242Y015894D02*
X008148Y016034D01*
X008242Y015894D02*
X008335Y016034D01*
X008288Y015786D02*
X008335Y015740D01*
X008335Y015646D01*
X008288Y015600D01*
X008101Y015786D01*
X008288Y015786D01*
X008288Y015600D02*
X008101Y015600D01*
X008055Y015646D01*
X008055Y015740D01*
X008101Y015786D01*
X008335Y015492D02*
X008335Y015305D01*
X008335Y015398D02*
X008055Y015398D01*
X008148Y015305D01*
X009805Y015230D02*
X010085Y015230D01*
X010085Y015417D01*
X010085Y015525D02*
X010085Y015711D01*
X010085Y015618D02*
X009805Y015618D01*
X009898Y015525D01*
X009885Y016105D02*
X009885Y016292D01*
X009885Y016198D02*
X009605Y016198D01*
X009698Y016105D01*
X009651Y016400D02*
X009605Y016446D01*
X009605Y016540D01*
X009651Y016586D01*
X009838Y016400D01*
X009885Y016446D01*
X009885Y016540D01*
X009838Y016586D01*
X009651Y016586D01*
X009698Y016694D02*
X009838Y016694D01*
X009885Y016741D01*
X009885Y016881D01*
X009698Y016881D01*
X009651Y017455D02*
X009838Y017455D01*
X009885Y017502D01*
X009885Y017595D01*
X009838Y017642D01*
X009838Y017750D02*
X009885Y017796D01*
X009885Y017890D01*
X009838Y017936D01*
X009792Y017936D01*
X009745Y017890D01*
X009745Y017750D01*
X009838Y017750D01*
X009745Y017750D02*
X009651Y017843D01*
X009605Y017936D01*
X009651Y017642D02*
X009605Y017595D01*
X009605Y017502D01*
X009651Y017455D01*
X010805Y017902D02*
X010851Y017855D01*
X011038Y017855D01*
X011085Y017902D01*
X011085Y017995D01*
X011038Y018042D01*
X011038Y018150D02*
X011085Y018196D01*
X011085Y018290D01*
X011038Y018336D01*
X010945Y018336D01*
X010898Y018290D01*
X010898Y018243D01*
X010945Y018150D01*
X010805Y018150D01*
X010805Y018336D01*
X010851Y018042D02*
X010805Y017995D01*
X010805Y017902D01*
X011255Y017848D02*
X011348Y017755D01*
X011255Y017848D02*
X011535Y017848D01*
X011535Y017755D02*
X011535Y017942D01*
X011488Y018050D02*
X011301Y018050D01*
X011255Y018096D01*
X011255Y018190D01*
X011301Y018236D01*
X011488Y018050D01*
X011535Y018096D01*
X011535Y018190D01*
X011488Y018236D01*
X011301Y018236D01*
X011301Y018344D02*
X011255Y018391D01*
X011255Y018484D01*
X011301Y018531D01*
X011488Y018344D01*
X011535Y018391D01*
X011535Y018484D01*
X011488Y018531D01*
X011301Y018531D01*
X011348Y018639D02*
X011348Y018779D01*
X011395Y018826D01*
X011535Y018826D01*
X011535Y018639D02*
X011348Y018639D01*
X011301Y018344D02*
X011488Y018344D01*
X013275Y019102D02*
X013275Y019289D01*
X013322Y019335D01*
X013415Y019335D01*
X013462Y019289D01*
X013570Y019289D02*
X013616Y019335D01*
X013710Y019335D01*
X013756Y019289D01*
X013756Y019242D01*
X013710Y019195D01*
X013756Y019148D01*
X013756Y019102D01*
X013710Y019055D01*
X013616Y019055D01*
X013570Y019102D01*
X013462Y019102D02*
X013415Y019055D01*
X013322Y019055D01*
X013275Y019102D01*
X013663Y019195D02*
X013710Y019195D01*
X015475Y019105D02*
X015662Y019105D01*
X015568Y019105D02*
X015568Y019385D01*
X015475Y019292D01*
X015770Y019339D02*
X015816Y019385D01*
X015910Y019385D01*
X015956Y019339D01*
X015770Y019152D01*
X015816Y019105D01*
X015910Y019105D01*
X015956Y019152D01*
X015956Y019339D01*
X016064Y019339D02*
X016111Y019385D01*
X016204Y019385D01*
X016251Y019339D01*
X016064Y019152D01*
X016111Y019105D01*
X016204Y019105D01*
X016251Y019152D01*
X016251Y019339D01*
X016359Y019292D02*
X016499Y019292D01*
X016546Y019245D01*
X016546Y019105D01*
X016359Y019105D02*
X016359Y019292D01*
X016064Y019339D02*
X016064Y019152D01*
X015770Y019152D02*
X015770Y019339D01*
X018739Y019260D02*
X018833Y019260D01*
X018786Y019260D02*
X018786Y019540D01*
X018739Y019540D02*
X018833Y019540D01*
X018936Y019494D02*
X018936Y019307D01*
X018982Y019260D01*
X019076Y019260D01*
X019123Y019307D01*
X019230Y019400D02*
X019417Y019400D01*
X019370Y019260D02*
X019370Y019540D01*
X019230Y019400D01*
X019123Y019494D02*
X019076Y019540D01*
X018982Y019540D01*
X018936Y019494D01*
X018899Y021885D02*
X018712Y021885D01*
X018806Y021885D02*
X018806Y022165D01*
X018712Y022072D01*
X018605Y022025D02*
X018418Y022025D01*
X018558Y022165D01*
X018558Y021885D01*
X018310Y021932D02*
X018310Y022119D01*
X018123Y021932D01*
X018170Y021885D01*
X018263Y021885D01*
X018310Y021932D01*
X018310Y022119D02*
X018263Y022165D01*
X018170Y022165D01*
X018123Y022119D01*
X018123Y021932D01*
X017922Y022025D02*
X017828Y022025D01*
X017828Y021885D02*
X017828Y022165D01*
X018015Y022165D01*
X017721Y022119D02*
X017721Y021932D01*
X017674Y021885D01*
X017534Y021885D01*
X017534Y022165D01*
X017674Y022165D01*
X017721Y022119D01*
X017426Y022165D02*
X017239Y022165D01*
X017239Y022025D01*
X017333Y022072D01*
X017379Y022072D01*
X017426Y022025D01*
X017426Y021932D01*
X017379Y021885D01*
X017286Y021885D01*
X017239Y021932D01*
X017131Y021885D02*
X016945Y021885D01*
X017131Y022072D01*
X017131Y022119D01*
X017085Y022165D01*
X016991Y022165D01*
X016945Y022119D01*
X016837Y022165D02*
X016650Y022165D01*
X016743Y022165D02*
X016743Y021885D01*
X016542Y021885D02*
X016542Y022072D01*
X016449Y022165D01*
X016355Y022072D01*
X016355Y021885D01*
X016355Y022025D02*
X016542Y022025D01*
X019007Y022025D02*
X019194Y022025D01*
X019194Y022072D02*
X019194Y021885D01*
X019302Y022025D02*
X019489Y022025D01*
X019596Y022072D02*
X019643Y022025D01*
X019737Y022025D01*
X019783Y021978D01*
X019783Y021932D01*
X019737Y021885D01*
X019643Y021885D01*
X019596Y021932D01*
X019596Y022072D02*
X019596Y022119D01*
X019643Y022165D01*
X019737Y022165D01*
X019783Y022119D01*
X019891Y022165D02*
X019891Y021885D01*
X019891Y022025D02*
X020078Y022025D01*
X020186Y022025D02*
X020373Y022025D01*
X020480Y022025D02*
X020620Y022025D01*
X020667Y021978D01*
X020667Y021932D01*
X020620Y021885D01*
X020480Y021885D01*
X020480Y022165D01*
X020620Y022165D01*
X020667Y022119D01*
X020667Y022072D01*
X020620Y022025D01*
X020078Y022165D02*
X020078Y021885D01*
X019194Y022072D02*
X019101Y022165D01*
X019007Y022072D01*
X019007Y021885D01*
X009838Y016400D02*
X009651Y016400D01*
X008067Y017432D02*
X008020Y017385D01*
X007927Y017385D01*
X007880Y017432D01*
X008067Y017619D01*
X008067Y017432D01*
X008067Y017619D02*
X008020Y017665D01*
X007927Y017665D01*
X007880Y017619D01*
X007880Y017432D01*
X007773Y017385D02*
X007586Y017385D01*
X007679Y017385D02*
X007679Y017665D01*
X007586Y017572D01*
X007478Y017619D02*
X007478Y017525D01*
X007431Y017478D01*
X007291Y017478D01*
X007291Y017385D02*
X007291Y017665D01*
X007431Y017665D01*
X007478Y017619D01*
X007384Y017478D02*
X007478Y017385D01*
X006870Y017385D02*
X006729Y017478D01*
X006870Y017572D01*
X006729Y017665D02*
X006729Y017385D01*
X006622Y017385D02*
X006435Y017385D01*
X006622Y017572D01*
X006622Y017619D01*
X006575Y017665D01*
X006482Y017665D01*
X006435Y017619D01*
X006334Y017432D02*
X006334Y017385D01*
X006287Y017385D01*
X006287Y017432D01*
X006334Y017432D01*
X006180Y017432D02*
X006133Y017385D01*
X006040Y017385D01*
X005993Y017432D01*
X006086Y017525D02*
X006133Y017525D01*
X006180Y017478D01*
X006180Y017432D01*
X006133Y017525D02*
X006180Y017572D01*
X006180Y017619D01*
X006133Y017665D01*
X006040Y017665D01*
X005993Y017619D01*
X005885Y017619D02*
X005698Y017432D01*
X005698Y017385D01*
X005698Y017665D02*
X005885Y017665D01*
X005885Y017619D01*
X005395Y016040D02*
X005255Y016040D01*
X005255Y015760D01*
X005395Y015760D01*
X005442Y015807D01*
X005442Y015994D01*
X005395Y016040D01*
X005148Y015900D02*
X004961Y015900D01*
X005101Y016040D01*
X005101Y015760D01*
X004853Y015807D02*
X004853Y015853D01*
X004806Y015900D01*
X004666Y015900D01*
X004666Y015807D01*
X004713Y015760D01*
X004806Y015760D01*
X004853Y015807D01*
X004666Y015900D02*
X004759Y015994D01*
X004853Y016040D01*
X004558Y015994D02*
X004558Y015947D01*
X004371Y015760D01*
X004558Y015760D01*
X004558Y015994D02*
X004512Y016040D01*
X004418Y016040D01*
X004371Y015994D01*
X004264Y015994D02*
X004217Y016040D01*
X004123Y016040D01*
X004077Y015994D01*
X003969Y015994D02*
X003922Y016040D01*
X003829Y016040D01*
X003782Y015994D01*
X003782Y015807D01*
X003829Y015760D01*
X003922Y015760D01*
X003969Y015807D01*
X004077Y015760D02*
X004264Y015947D01*
X004264Y015994D01*
X004264Y015760D02*
X004077Y015760D01*
X003674Y015760D02*
X003487Y015760D01*
X003487Y016040D01*
X003380Y016040D02*
X003193Y016040D01*
X003286Y016040D02*
X003286Y015760D01*
X002610Y016005D02*
X002610Y016192D01*
X002610Y016098D02*
X002330Y016098D01*
X002423Y016005D01*
X002563Y016300D02*
X002563Y016346D01*
X002610Y016346D01*
X002610Y016300D01*
X002563Y016300D01*
X002563Y016447D02*
X002610Y016494D01*
X002610Y016587D01*
X002563Y016634D01*
X002470Y016634D01*
X002423Y016587D01*
X002423Y016540D01*
X002470Y016447D01*
X002330Y016447D01*
X002330Y016634D01*
X002423Y016742D02*
X002423Y016882D01*
X002470Y016928D01*
X002610Y016928D01*
X002610Y016742D02*
X002423Y016742D01*
X001385Y016738D02*
X001105Y016738D01*
X001198Y016644D01*
X001198Y016536D02*
X001151Y016536D01*
X001105Y016490D01*
X001105Y016396D01*
X001151Y016350D01*
X001151Y016242D02*
X001105Y016195D01*
X001105Y016102D01*
X001151Y016055D01*
X001338Y016055D01*
X001385Y016102D01*
X001385Y016195D01*
X001338Y016242D01*
X001385Y016350D02*
X001198Y016536D01*
X001385Y016536D02*
X001385Y016350D01*
X001385Y016644D02*
X001385Y016831D01*
X001383Y018233D02*
X001336Y018279D01*
X001383Y018233D02*
X001476Y018233D01*
X001523Y018279D01*
X001523Y018373D01*
X001476Y018420D01*
X001430Y018420D01*
X001336Y018373D01*
X001336Y018513D01*
X001523Y018513D01*
X001631Y018466D02*
X001631Y018279D01*
X001818Y018466D01*
X001818Y018279D01*
X001771Y018233D01*
X001678Y018233D01*
X001631Y018279D01*
X001631Y018466D02*
X001678Y018513D01*
X001771Y018513D01*
X001818Y018466D01*
X001926Y018513D02*
X001926Y018233D01*
X001926Y018326D02*
X002066Y018420D01*
X001926Y018326D02*
X002066Y018233D01*
X002324Y018257D02*
X002324Y018538D01*
X002465Y018538D01*
X002511Y018491D01*
X002511Y018397D01*
X002465Y018351D01*
X002324Y018351D01*
X002418Y018351D02*
X002511Y018257D01*
X002619Y018257D02*
X002806Y018257D01*
X002712Y018257D02*
X002712Y018538D01*
X002619Y018444D01*
X002914Y018444D02*
X003007Y018538D01*
X003007Y018257D01*
X002914Y018257D02*
X003101Y018257D01*
X001228Y018233D02*
X001042Y018233D01*
X001135Y018233D02*
X001135Y018513D01*
X001042Y018420D01*
X001176Y015031D02*
X001130Y014984D01*
X001130Y014891D01*
X001176Y014844D01*
X001363Y014844D01*
X001176Y015031D01*
X001363Y015031D01*
X001410Y014984D01*
X001410Y014891D01*
X001363Y014844D01*
X001410Y014736D02*
X001410Y014550D01*
X001223Y014736D01*
X001176Y014736D01*
X001130Y014690D01*
X001130Y014596D01*
X001176Y014550D01*
X001176Y014442D02*
X001130Y014395D01*
X001130Y014302D01*
X001176Y014255D01*
X001363Y014255D01*
X001410Y014302D01*
X001410Y014395D01*
X001363Y014442D01*
X002305Y014548D02*
X002585Y014548D01*
X002585Y014455D02*
X002585Y014642D01*
X002585Y014750D02*
X002398Y014750D01*
X002398Y014890D01*
X002445Y014936D01*
X002585Y014936D01*
X002305Y014548D02*
X002398Y014455D01*
X002445Y013231D02*
X002585Y013231D01*
X002445Y013231D02*
X002398Y013184D01*
X002398Y013044D01*
X002585Y013044D01*
X002538Y012936D02*
X002585Y012890D01*
X002585Y012796D01*
X002538Y012750D01*
X002351Y012936D01*
X002538Y012936D01*
X002538Y012750D02*
X002351Y012750D01*
X002305Y012796D01*
X002305Y012890D01*
X002351Y012936D01*
X002585Y012642D02*
X002585Y012455D01*
X002585Y012548D02*
X002305Y012548D01*
X002398Y012455D01*
X002405Y011647D02*
X002405Y011460D01*
X002218Y011647D01*
X002171Y011647D01*
X002125Y011600D01*
X002125Y011507D01*
X002171Y011460D01*
X002125Y011259D02*
X002405Y011259D01*
X002405Y011166D02*
X002405Y011353D01*
X002218Y011166D02*
X002125Y011259D01*
X002171Y011058D02*
X002265Y011058D01*
X002312Y011011D01*
X002312Y010871D01*
X002405Y010871D02*
X002125Y010871D01*
X002125Y011011D01*
X002171Y011058D01*
X002312Y010964D02*
X002405Y011058D01*
X001205Y011062D02*
X001158Y011015D01*
X001205Y011062D02*
X001205Y011155D01*
X001158Y011202D01*
X001065Y011202D01*
X001018Y011155D01*
X001018Y011108D01*
X001065Y011015D01*
X000925Y011015D01*
X000925Y011202D01*
X000925Y011309D02*
X001205Y011309D01*
X001112Y011309D02*
X001018Y011450D01*
X001112Y011309D02*
X001205Y011450D01*
X001158Y010907D02*
X001112Y010907D01*
X001065Y010860D01*
X001065Y010720D01*
X001158Y010720D01*
X001205Y010767D01*
X001205Y010860D01*
X001158Y010907D01*
X000971Y010814D02*
X001065Y010720D01*
X000971Y010814D02*
X000925Y010907D01*
X000925Y010519D02*
X001205Y010519D01*
X001205Y010426D02*
X001205Y010612D01*
X001018Y010426D02*
X000925Y010519D01*
X000782Y009827D02*
X000595Y009827D01*
X000782Y009827D02*
X000875Y009734D01*
X000782Y009640D01*
X000595Y009640D01*
X000735Y009533D02*
X000735Y009346D01*
X000875Y009243D02*
X000875Y009149D01*
X000875Y009196D02*
X000595Y009196D01*
X000595Y009149D02*
X000595Y009243D01*
X003255Y008893D02*
X003348Y008800D01*
X003301Y008692D02*
X003255Y008645D01*
X003255Y008552D01*
X003301Y008505D01*
X003348Y008505D01*
X003395Y008552D01*
X003395Y008645D01*
X003442Y008692D01*
X003488Y008692D01*
X003535Y008645D01*
X003535Y008552D01*
X003488Y008505D01*
X003535Y008800D02*
X003535Y008986D01*
X003535Y008893D02*
X003255Y008893D01*
X003035Y006834D02*
X002942Y006694D01*
X002848Y006834D01*
X002755Y006694D02*
X003035Y006694D01*
X002988Y006586D02*
X003035Y006540D01*
X003035Y006446D01*
X002988Y006400D01*
X002988Y006292D02*
X003035Y006245D01*
X003035Y006152D01*
X002988Y006105D01*
X002895Y006198D02*
X002895Y006245D01*
X002942Y006292D01*
X002988Y006292D01*
X002895Y006245D02*
X002848Y006292D01*
X002801Y006292D01*
X002755Y006245D01*
X002755Y006152D01*
X002801Y006105D01*
X002585Y006305D02*
X002305Y006305D01*
X002305Y006445D01*
X002351Y006492D01*
X002445Y006492D01*
X002492Y006445D01*
X002492Y006305D01*
X002492Y006398D02*
X002585Y006492D01*
X002538Y006600D02*
X002585Y006646D01*
X002585Y006740D01*
X002538Y006786D01*
X002351Y006786D01*
X002305Y006740D01*
X002305Y006646D01*
X002351Y006600D01*
X002398Y006600D01*
X002445Y006646D01*
X002445Y006786D01*
X002755Y006540D02*
X002801Y006586D01*
X002848Y006586D01*
X002895Y006540D01*
X002942Y006586D01*
X002988Y006586D01*
X002895Y006540D02*
X002895Y006493D01*
X002801Y006400D02*
X002755Y006446D01*
X002755Y006540D01*
X001855Y006560D02*
X001668Y006560D01*
X001668Y006700D01*
X001715Y006747D01*
X001855Y006747D01*
X001808Y006453D02*
X001762Y006453D01*
X001715Y006406D01*
X001715Y006266D01*
X001808Y006266D01*
X001855Y006312D01*
X001855Y006406D01*
X001808Y006453D01*
X001621Y006359D02*
X001575Y006453D01*
X001621Y006359D02*
X001715Y006266D01*
X001715Y006158D02*
X001808Y006158D01*
X001855Y006111D01*
X001855Y006018D01*
X001808Y005971D01*
X001715Y005971D02*
X001668Y006064D01*
X001668Y006111D01*
X001715Y006158D01*
X001575Y006158D02*
X001575Y005971D01*
X001715Y005971D01*
X001408Y006266D02*
X001455Y006312D01*
X001455Y006406D01*
X001408Y006453D01*
X001408Y006560D02*
X001455Y006560D01*
X001408Y006560D02*
X001221Y006747D01*
X001175Y006747D01*
X001175Y006560D01*
X001221Y006453D02*
X001175Y006406D01*
X001175Y006312D01*
X001221Y006266D01*
X001408Y006266D01*
X007705Y008055D02*
X007705Y008195D01*
X007751Y008242D01*
X007938Y008242D01*
X007985Y008195D01*
X007985Y008055D01*
X007705Y008055D01*
X007751Y008350D02*
X007938Y008350D01*
X007985Y008396D01*
X007985Y008490D01*
X007938Y008536D01*
X007845Y008536D01*
X007845Y008443D01*
X007751Y008350D02*
X007705Y008396D01*
X007705Y008490D01*
X007751Y008536D01*
X007845Y008644D02*
X007845Y008784D01*
X007892Y008831D01*
X007938Y008831D01*
X007985Y008784D01*
X007985Y008691D01*
X007938Y008644D01*
X007845Y008644D01*
X007751Y008738D01*
X007705Y008831D01*
X007798Y008939D02*
X007705Y009032D01*
X007985Y009032D01*
X007985Y008939D02*
X007985Y009126D01*
X007985Y009234D02*
X007798Y009420D01*
X007751Y009420D01*
X007705Y009374D01*
X007705Y009280D01*
X007751Y009234D01*
X007985Y009234D02*
X007985Y009420D01*
X009361Y008415D02*
X009361Y008135D01*
X009548Y008135D01*
X009655Y008275D02*
X009842Y008275D01*
X009795Y008135D02*
X009795Y008415D01*
X009655Y008275D01*
X010166Y008322D02*
X010259Y008415D01*
X010259Y008135D01*
X010166Y008135D02*
X010353Y008135D01*
X010461Y008182D02*
X010648Y008369D01*
X010648Y008182D01*
X010601Y008135D01*
X010507Y008135D01*
X010461Y008182D01*
X010461Y008369D01*
X010507Y008415D01*
X010601Y008415D01*
X010648Y008369D01*
X010755Y008322D02*
X010755Y008182D01*
X010802Y008135D01*
X010942Y008135D01*
X010942Y008322D01*
X011675Y010655D02*
X011862Y010655D01*
X011768Y010655D02*
X011768Y010935D01*
X011675Y010842D01*
X011970Y010889D02*
X011970Y010702D01*
X012156Y010889D01*
X012156Y010702D01*
X012110Y010655D01*
X012016Y010655D01*
X011970Y010702D01*
X011970Y010889D02*
X012016Y010935D01*
X012110Y010935D01*
X012156Y010889D01*
X012165Y011005D02*
X012212Y011052D01*
X012165Y011005D02*
X012072Y011005D01*
X012025Y011052D01*
X012025Y011239D01*
X012072Y011285D01*
X012165Y011285D01*
X012212Y011239D01*
X012320Y011145D02*
X012506Y011145D01*
X012460Y011005D02*
X012460Y011285D01*
X012320Y011145D01*
X012264Y010842D02*
X012264Y010702D01*
X012311Y010655D01*
X012451Y010655D01*
X012451Y010842D01*
X014346Y011635D02*
X014533Y011635D01*
X014440Y011635D02*
X014440Y011915D01*
X014346Y011822D01*
X014641Y011869D02*
X014688Y011915D01*
X014781Y011915D01*
X014828Y011869D01*
X014641Y011682D01*
X014688Y011635D01*
X014781Y011635D01*
X014828Y011682D01*
X014828Y011869D01*
X014936Y011869D02*
X014936Y011682D01*
X015123Y011869D01*
X015123Y011682D01*
X015076Y011635D01*
X014982Y011635D01*
X014936Y011682D01*
X014936Y011869D02*
X014982Y011915D01*
X015076Y011915D01*
X015123Y011869D01*
X015230Y011822D02*
X015370Y011822D01*
X015417Y011775D01*
X015417Y011635D01*
X015230Y011635D02*
X015230Y011822D01*
X014641Y011869D02*
X014641Y011682D01*
X015686Y011682D02*
X015732Y011635D01*
X015826Y011635D01*
X015873Y011682D01*
X015980Y011635D02*
X016167Y011635D01*
X016074Y011635D02*
X016074Y011915D01*
X015980Y011822D01*
X015873Y011869D02*
X015826Y011915D01*
X015732Y011915D01*
X015686Y011869D01*
X015686Y011682D01*
X016875Y011605D02*
X017062Y011605D01*
X016968Y011605D02*
X016968Y011885D01*
X016875Y011792D01*
X017170Y011839D02*
X017216Y011885D01*
X017310Y011885D01*
X017356Y011839D01*
X017170Y011652D01*
X017216Y011605D01*
X017310Y011605D01*
X017356Y011652D01*
X017356Y011839D01*
X017464Y011839D02*
X017511Y011885D01*
X017604Y011885D01*
X017651Y011839D01*
X017464Y011652D01*
X017511Y011605D01*
X017604Y011605D01*
X017651Y011652D01*
X017651Y011839D01*
X017759Y011792D02*
X017899Y011792D01*
X017946Y011745D01*
X017946Y011605D01*
X017759Y011605D02*
X017759Y011792D01*
X017464Y011839D02*
X017464Y011652D01*
X017170Y011652D02*
X017170Y011839D01*
X018425Y011889D02*
X018425Y011702D01*
X018472Y011655D01*
X018565Y011655D01*
X018612Y011702D01*
X018720Y011655D02*
X018906Y011655D01*
X018813Y011655D02*
X018813Y011935D01*
X018720Y011842D01*
X018612Y011889D02*
X018565Y011935D01*
X018472Y011935D01*
X018425Y011889D01*
X019014Y011795D02*
X019154Y011795D01*
X019201Y011748D01*
X019201Y011702D01*
X019154Y011655D01*
X019061Y011655D01*
X019014Y011702D01*
X019014Y011795D01*
X019108Y011889D01*
X019201Y011935D01*
X020240Y010491D02*
X020333Y010491D01*
X020286Y010491D02*
X020286Y010211D01*
X020240Y010211D02*
X020333Y010211D01*
X020436Y010258D02*
X020483Y010211D01*
X020576Y010211D01*
X020623Y010258D01*
X020731Y010258D02*
X020777Y010211D01*
X020871Y010211D01*
X020918Y010258D01*
X020918Y010304D01*
X020871Y010351D01*
X020824Y010351D01*
X020871Y010351D02*
X020918Y010398D01*
X020918Y010444D01*
X020871Y010491D01*
X020777Y010491D01*
X020731Y010444D01*
X020623Y010444D02*
X020576Y010491D01*
X020483Y010491D01*
X020436Y010444D01*
X020436Y010258D01*
X020435Y008883D02*
X020248Y008883D01*
X020248Y008603D01*
X020248Y008743D02*
X020341Y008743D01*
X020542Y008883D02*
X020729Y008883D01*
X020636Y008883D02*
X020636Y008603D01*
X020837Y008603D02*
X021024Y008790D01*
X021024Y008836D01*
X020977Y008883D01*
X020884Y008883D01*
X020837Y008836D01*
X020837Y008603D02*
X021024Y008603D01*
X021132Y008649D02*
X021178Y008603D01*
X021272Y008603D01*
X021319Y008649D01*
X021319Y008696D01*
X021272Y008743D01*
X021225Y008743D01*
X021272Y008743D02*
X021319Y008790D01*
X021319Y008836D01*
X021272Y008883D01*
X021178Y008883D01*
X021132Y008836D01*
X021426Y008836D02*
X021473Y008883D01*
X021567Y008883D01*
X021613Y008836D01*
X021613Y008790D01*
X021426Y008603D01*
X021613Y008603D01*
X021721Y008603D02*
X021721Y008883D01*
X021861Y008883D01*
X021908Y008836D01*
X021908Y008743D01*
X021861Y008696D01*
X021721Y008696D01*
X021815Y008696D02*
X021908Y008603D01*
X022016Y008603D02*
X022203Y008603D01*
X022016Y008603D02*
X022016Y008883D01*
X019954Y007435D02*
X019814Y007295D01*
X020001Y007295D01*
X019954Y007155D02*
X019954Y007435D01*
X019613Y007435D02*
X019613Y007155D01*
X019520Y007155D02*
X019706Y007155D01*
X019660Y007035D02*
X019706Y006989D01*
X019520Y006802D01*
X019566Y006755D01*
X019660Y006755D01*
X019706Y006802D01*
X019706Y006989D01*
X019660Y007035D02*
X019566Y007035D01*
X019520Y006989D01*
X019520Y006802D01*
X019412Y006755D02*
X019225Y006755D01*
X019318Y006755D02*
X019318Y007035D01*
X019225Y006942D01*
X019272Y007155D02*
X019365Y007155D01*
X019412Y007202D01*
X019272Y007155D02*
X019225Y007202D01*
X019225Y007389D01*
X019272Y007435D01*
X019365Y007435D01*
X019412Y007389D01*
X019520Y007342D02*
X019613Y007435D01*
X019861Y007035D02*
X019954Y007035D01*
X020001Y006989D01*
X019814Y006802D01*
X019861Y006755D01*
X019954Y006755D01*
X020001Y006802D01*
X020001Y006989D01*
X020109Y006942D02*
X020249Y006942D01*
X020296Y006895D01*
X020296Y006755D01*
X020109Y006755D02*
X020109Y006942D01*
X019861Y007035D02*
X019814Y006989D01*
X019814Y006802D01*
X018401Y006239D02*
X018401Y006192D01*
X018354Y006145D01*
X018401Y006098D01*
X018401Y006052D01*
X018354Y006005D01*
X018261Y006005D01*
X018214Y006052D01*
X018106Y006005D02*
X017920Y006005D01*
X018013Y006005D02*
X018013Y006285D01*
X017920Y006192D01*
X017812Y006239D02*
X017765Y006285D01*
X017672Y006285D01*
X017625Y006239D01*
X017625Y006052D01*
X017672Y006005D01*
X017765Y006005D01*
X017812Y006052D01*
X018214Y006239D02*
X018261Y006285D01*
X018354Y006285D01*
X018401Y006239D01*
X018354Y006145D02*
X018308Y006145D01*
X018060Y005135D02*
X018106Y005089D01*
X017920Y004902D01*
X017966Y004855D01*
X018060Y004855D01*
X018106Y004902D01*
X018106Y005089D01*
X018060Y005135D02*
X017966Y005135D01*
X017920Y005089D01*
X017920Y004902D01*
X017812Y004855D02*
X017625Y004855D01*
X017718Y004855D02*
X017718Y005135D01*
X017625Y005042D01*
X018214Y005042D02*
X018214Y004855D01*
X018214Y005042D02*
X018354Y005042D01*
X018401Y004995D01*
X018401Y004855D01*
X017185Y004260D02*
X017185Y004073D01*
X017185Y004166D02*
X016905Y004166D01*
X016998Y004073D01*
X016951Y003965D02*
X017138Y003778D01*
X017185Y003825D01*
X017185Y003918D01*
X017138Y003965D01*
X016951Y003965D01*
X016905Y003918D01*
X016905Y003825D01*
X016951Y003778D01*
X017138Y003778D01*
X017138Y003670D02*
X017185Y003624D01*
X017185Y003530D01*
X017138Y003484D01*
X017045Y003484D02*
X016998Y003577D01*
X016998Y003624D01*
X017045Y003670D01*
X017138Y003670D01*
X017045Y003484D02*
X016905Y003484D01*
X016905Y003670D01*
X016951Y003376D02*
X016905Y003329D01*
X016905Y003236D01*
X016951Y003189D01*
X016905Y003081D02*
X017185Y003081D01*
X016905Y002894D01*
X017185Y002894D01*
X017185Y002786D02*
X016998Y002786D01*
X016905Y002693D01*
X016998Y002600D01*
X017185Y002600D01*
X017045Y002600D02*
X017045Y002786D01*
X017185Y003189D02*
X016998Y003376D01*
X016951Y003376D01*
X017185Y003376D02*
X017185Y003189D01*
X016905Y002492D02*
X016905Y002305D01*
X017185Y002305D01*
X017045Y002305D02*
X017045Y002398D01*
X015260Y003252D02*
X015260Y003345D01*
X015213Y003392D01*
X014980Y003392D01*
X015026Y003500D02*
X014980Y003546D01*
X014980Y003640D01*
X015026Y003686D01*
X015073Y003686D01*
X015120Y003640D01*
X015167Y003686D01*
X015213Y003686D01*
X015260Y003640D01*
X015260Y003546D01*
X015213Y003500D01*
X015120Y003593D02*
X015120Y003640D01*
X015260Y003252D02*
X015213Y003205D01*
X014980Y003205D01*
X015950Y004755D02*
X016137Y004755D01*
X016245Y004802D02*
X016291Y004755D01*
X016385Y004755D01*
X016431Y004802D01*
X016431Y004848D01*
X016385Y004895D01*
X016338Y004895D01*
X016385Y004895D02*
X016431Y004942D01*
X016431Y004989D01*
X016385Y005035D01*
X016291Y005035D01*
X016245Y004989D01*
X015950Y005035D02*
X015950Y004755D01*
X014917Y004982D02*
X014917Y005028D01*
X014870Y005075D01*
X014777Y005075D01*
X014730Y005122D01*
X014730Y005169D01*
X014777Y005215D01*
X014870Y005215D01*
X014917Y005169D01*
X014917Y005122D01*
X014870Y005075D01*
X014777Y005075D02*
X014730Y005028D01*
X014730Y004982D01*
X014777Y004935D01*
X014870Y004935D01*
X014917Y004982D01*
X014623Y004982D02*
X014576Y004935D01*
X014482Y004935D01*
X014436Y004982D01*
X014436Y005169D01*
X014482Y005215D01*
X014576Y005215D01*
X014623Y005169D01*
X014117Y005122D02*
X014117Y004935D01*
X013977Y004935D01*
X013930Y004982D01*
X013930Y005122D01*
X013823Y004935D02*
X013636Y004935D01*
X013729Y004935D02*
X013729Y005215D01*
X013636Y005122D01*
X013051Y005089D02*
X013051Y005042D01*
X013004Y004995D01*
X012911Y004995D01*
X012864Y005042D01*
X012864Y005089D01*
X012911Y005135D01*
X013004Y005135D01*
X013051Y005089D01*
X013004Y004995D02*
X013051Y004948D01*
X013051Y004902D01*
X013004Y004855D01*
X012911Y004855D01*
X012864Y004902D01*
X012864Y004948D01*
X012911Y004995D01*
X012756Y004855D02*
X012570Y004855D01*
X012663Y004855D02*
X012663Y005135D01*
X012570Y005042D01*
X012462Y005089D02*
X012415Y005135D01*
X012322Y005135D01*
X012275Y005089D01*
X012275Y004902D01*
X012322Y004855D01*
X012415Y004855D01*
X012462Y004902D01*
X012051Y004855D02*
X012051Y005042D01*
X011864Y005042D02*
X011864Y004902D01*
X011911Y004855D01*
X012051Y004855D01*
X011756Y004902D02*
X011756Y005089D01*
X011570Y004902D01*
X011616Y004855D01*
X011710Y004855D01*
X011756Y004902D01*
X011570Y004902D02*
X011570Y005089D01*
X011616Y005135D01*
X011710Y005135D01*
X011756Y005089D01*
X011462Y004855D02*
X011275Y004855D01*
X011368Y004855D02*
X011368Y005135D01*
X011275Y005042D01*
X010455Y005056D02*
X010455Y004962D01*
X010408Y004916D01*
X010315Y004962D02*
X010315Y005103D01*
X010408Y005103D02*
X010221Y005103D01*
X010175Y005056D01*
X010175Y004962D01*
X010221Y004916D01*
X010268Y004916D01*
X010315Y004962D01*
X010455Y005056D02*
X010408Y005103D01*
X010408Y005210D02*
X010455Y005210D01*
X010408Y005210D02*
X010221Y005397D01*
X010175Y005397D01*
X010175Y005210D01*
X009935Y005129D02*
X009888Y005176D01*
X009701Y005176D01*
X009655Y005129D01*
X009655Y004989D01*
X009935Y004989D01*
X009935Y005129D01*
X009888Y005284D02*
X009935Y005330D01*
X009935Y005424D01*
X009888Y005470D01*
X009888Y005284D02*
X009701Y005284D01*
X009655Y005330D01*
X009655Y005424D01*
X009701Y005470D01*
X009795Y004881D02*
X009795Y004694D01*
X009888Y004586D02*
X009935Y004540D01*
X009935Y004446D01*
X009888Y004400D01*
X009701Y004400D01*
X009655Y004446D01*
X009655Y004540D01*
X009701Y004586D01*
X010175Y004668D02*
X010175Y004761D01*
X010221Y004808D01*
X010408Y004621D01*
X010455Y004668D01*
X010455Y004761D01*
X010408Y004808D01*
X010221Y004808D01*
X010175Y004668D02*
X010221Y004621D01*
X010408Y004621D01*
X010455Y004513D02*
X010455Y004326D01*
X010455Y004420D02*
X010175Y004420D01*
X010268Y004326D01*
X010175Y004219D02*
X010221Y004125D01*
X010315Y004032D01*
X010315Y004172D01*
X010362Y004219D01*
X010408Y004219D01*
X010455Y004172D01*
X010455Y004078D01*
X010408Y004032D01*
X010315Y004032D01*
X010362Y003924D02*
X010315Y003877D01*
X010315Y003784D01*
X010268Y003737D01*
X010221Y003737D01*
X010175Y003784D01*
X010175Y003877D01*
X010221Y003924D01*
X010362Y003924D02*
X010408Y003924D01*
X010455Y003877D01*
X010455Y003784D01*
X010408Y003737D01*
X010315Y003629D02*
X010362Y003583D01*
X010362Y003442D01*
X010455Y003442D02*
X010175Y003442D01*
X010175Y003583D01*
X010221Y003629D01*
X010315Y003629D01*
X010175Y003335D02*
X010175Y003148D01*
X010175Y003241D02*
X010455Y003241D01*
X009935Y004105D02*
X009655Y004105D01*
X009655Y004245D01*
X009701Y004292D01*
X009888Y004292D01*
X009935Y004245D01*
X009935Y004105D01*
X008860Y004142D02*
X008860Y003955D01*
X008860Y004048D02*
X008580Y004048D01*
X008673Y003955D01*
X008626Y004250D02*
X008580Y004296D01*
X008580Y004390D01*
X008626Y004436D01*
X008813Y004250D01*
X008860Y004296D01*
X008860Y004390D01*
X008813Y004436D01*
X008626Y004436D01*
X008673Y004544D02*
X008813Y004544D01*
X008860Y004591D01*
X008860Y004731D01*
X008673Y004731D01*
X008360Y004594D02*
X008313Y004594D01*
X008126Y004781D01*
X008080Y004781D01*
X008080Y004594D01*
X008080Y004393D02*
X008360Y004393D01*
X008360Y004300D02*
X008360Y004486D01*
X008173Y004300D02*
X008080Y004393D01*
X008126Y004192D02*
X008080Y004145D01*
X008080Y004052D01*
X008126Y004005D01*
X008313Y004005D01*
X008360Y004052D01*
X008360Y004145D01*
X008313Y004192D01*
X008626Y004250D02*
X008813Y004250D01*
X015136Y007235D02*
X015323Y007235D01*
X015229Y007235D02*
X015229Y007515D01*
X015136Y007422D01*
X015430Y007422D02*
X015430Y007282D01*
X015477Y007235D01*
X015617Y007235D01*
X015617Y007422D01*
X014835Y008230D02*
X014835Y008417D01*
X014835Y008323D02*
X014555Y008323D01*
X014648Y008230D01*
X014601Y008525D02*
X014555Y008571D01*
X014555Y008665D01*
X014601Y008711D01*
X014788Y008525D01*
X014835Y008571D01*
X014835Y008665D01*
X014788Y008711D01*
X014601Y008711D01*
X014648Y008819D02*
X014788Y008819D01*
X014835Y008866D01*
X014835Y009006D01*
X014648Y009006D01*
X014555Y009230D02*
X014835Y009230D01*
X014835Y009417D01*
X014835Y009525D02*
X014648Y009711D01*
X014601Y009711D01*
X014555Y009665D01*
X014555Y009571D01*
X014601Y009525D01*
X014835Y009525D02*
X014835Y009711D01*
X014788Y008525D02*
X014601Y008525D01*
X016991Y007469D02*
X016991Y007282D01*
X017038Y007235D01*
X017131Y007235D01*
X017178Y007282D01*
X017286Y007235D02*
X017473Y007235D01*
X017379Y007235D02*
X017379Y007515D01*
X017286Y007422D01*
X017178Y007469D02*
X017131Y007515D01*
X017038Y007515D01*
X016991Y007469D01*
X017580Y007515D02*
X017580Y007375D01*
X017674Y007422D01*
X017720Y007422D01*
X017767Y007375D01*
X017767Y007282D01*
X017720Y007235D01*
X017627Y007235D01*
X017580Y007282D01*
X017580Y007515D02*
X017767Y007515D01*
X019998Y014166D02*
X019905Y014260D01*
X020185Y014260D01*
X020185Y014353D02*
X020185Y014166D01*
X020138Y014461D02*
X019951Y014648D01*
X020138Y014648D01*
X020185Y014601D01*
X020185Y014508D01*
X020138Y014461D01*
X019951Y014461D01*
X019905Y014508D01*
X019905Y014601D01*
X019951Y014648D01*
X019951Y014756D02*
X019905Y014802D01*
X019905Y014896D01*
X019951Y014943D01*
X020138Y014756D01*
X020185Y014802D01*
X020185Y014896D01*
X020138Y014943D01*
X019951Y014943D01*
X019998Y015050D02*
X019998Y015190D01*
X020045Y015237D01*
X020185Y015237D01*
X020185Y015050D02*
X019998Y015050D01*
X019951Y014756D02*
X020138Y014756D01*
X020138Y015556D02*
X020185Y015602D01*
X020185Y015696D01*
X020138Y015743D01*
X020185Y015850D02*
X019998Y016037D01*
X019951Y016037D01*
X019905Y015990D01*
X019905Y015897D01*
X019951Y015850D01*
X019951Y015743D02*
X019905Y015696D01*
X019905Y015602D01*
X019951Y015556D01*
X020138Y015556D01*
X020185Y015850D02*
X020185Y016037D01*
X018185Y016039D02*
X017905Y016039D01*
X017998Y015946D01*
X017951Y015838D02*
X017905Y015792D01*
X017905Y015698D01*
X017951Y015651D01*
X018138Y015651D01*
X018185Y015698D01*
X018185Y015792D01*
X018138Y015838D01*
X018185Y015946D02*
X018185Y016133D01*
X018185Y015548D02*
X018185Y015455D01*
X018185Y015502D02*
X017905Y015502D01*
X017905Y015548D02*
X017905Y015455D01*
X004703Y012089D02*
X004703Y012042D01*
X004516Y011855D01*
X004703Y011855D01*
X004703Y012089D02*
X004656Y012135D01*
X004563Y012135D01*
X004516Y012089D01*
X004408Y012089D02*
X004362Y012135D01*
X004268Y012135D01*
X004221Y012089D01*
X004221Y011902D01*
X004268Y011855D01*
X004362Y011855D01*
X004408Y011902D01*
X004118Y011855D02*
X004025Y011855D01*
X004072Y011855D02*
X004072Y012135D01*
X004118Y012135D02*
X004025Y012135D01*
X001435Y012502D02*
X001435Y012595D01*
X001388Y012642D01*
X001435Y012750D02*
X001248Y012936D01*
X001201Y012936D01*
X001155Y012890D01*
X001155Y012796D01*
X001201Y012750D01*
X001201Y012642D02*
X001155Y012595D01*
X001155Y012502D01*
X001201Y012455D01*
X001388Y012455D01*
X001435Y012502D01*
X001435Y012750D02*
X001435Y012936D01*
X001435Y013044D02*
X001248Y013231D01*
X001201Y013231D01*
X001155Y013184D01*
X001155Y013091D01*
X001201Y013044D01*
X001435Y013044D02*
X001435Y013231D01*
X034825Y016659D02*
X034918Y016566D01*
X034825Y016659D02*
X035105Y016659D01*
X035105Y016566D02*
X035105Y016753D01*
X035058Y016860D02*
X035105Y016907D01*
X035105Y017047D01*
X034918Y017047D01*
X034918Y016860D02*
X035058Y016860D01*
X035058Y017521D02*
X035105Y017568D01*
X035105Y017661D01*
X035058Y017708D01*
X035105Y017816D02*
X035105Y018003D01*
X035105Y017909D02*
X034825Y017909D01*
X034918Y017816D01*
X034871Y017708D02*
X034825Y017661D01*
X034825Y017568D01*
X034871Y017521D01*
X035058Y017521D01*
X035105Y018110D02*
X035105Y018297D01*
X035105Y018204D02*
X034825Y018204D01*
X034918Y018110D01*
X034918Y019616D02*
X034825Y019709D01*
X035105Y019709D01*
X035105Y019616D02*
X035105Y019803D01*
X035058Y019910D02*
X035105Y019957D01*
X035105Y020097D01*
X034918Y020097D01*
X034918Y019910D02*
X035058Y019910D01*
X035058Y020471D02*
X035105Y020518D01*
X035105Y020611D01*
X035058Y020658D01*
X035105Y020766D02*
X035105Y020953D01*
X035105Y020859D02*
X034825Y020859D01*
X034918Y020766D01*
X034871Y020658D02*
X034825Y020611D01*
X034825Y020518D01*
X034871Y020471D01*
X035058Y020471D01*
X035105Y021060D02*
X034918Y021247D01*
X034871Y021247D01*
X034825Y021200D01*
X034825Y021107D01*
X034871Y021060D01*
X035105Y021060D02*
X035105Y021247D01*
D17*
X014105Y009185D03*
X010605Y015435D03*
D18*
X004855Y015685D02*
X004855Y012185D01*
X003855Y012185D01*
X003855Y015685D01*
X004855Y015685D01*
X004480Y012560D02*
X004482Y012582D01*
X004488Y012603D01*
X004497Y012622D01*
X004509Y012640D01*
X004525Y012656D01*
X004542Y012668D01*
X004562Y012677D01*
X004583Y012683D01*
X004605Y012685D01*
X004627Y012683D01*
X004648Y012677D01*
X004667Y012668D01*
X004685Y012656D01*
X004701Y012640D01*
X004713Y012622D01*
X004722Y012603D01*
X004728Y012582D01*
X004730Y012560D01*
X004728Y012538D01*
X004722Y012517D01*
X004713Y012498D01*
X004701Y012480D01*
X004685Y012464D01*
X004668Y012452D01*
X004648Y012443D01*
X004627Y012437D01*
X004605Y012435D01*
X004583Y012437D01*
X004562Y012443D01*
X004542Y012452D01*
X004525Y012464D01*
X004509Y012480D01*
X004497Y012497D01*
X004488Y012517D01*
X004482Y012538D01*
X004480Y012560D01*
X018940Y003525D02*
X018940Y002425D01*
X018340Y002425D01*
X018340Y000125D01*
X021340Y000125D01*
X021340Y002425D01*
X020740Y002425D01*
X020740Y003525D01*
X018940Y003525D01*
D19*
X007605Y008055D02*
X003605Y008055D01*
X018647Y020126D02*
X018649Y020153D01*
X018655Y020180D01*
X018664Y020206D01*
X018677Y020230D01*
X018693Y020253D01*
X018712Y020272D01*
X018734Y020289D01*
X018758Y020303D01*
X018783Y020313D01*
X018810Y020320D01*
X018837Y020323D01*
X018865Y020322D01*
X018892Y020317D01*
X018918Y020309D01*
X018942Y020297D01*
X018965Y020281D01*
X018986Y020263D01*
X019003Y020242D01*
X019018Y020218D01*
X019029Y020193D01*
X019037Y020167D01*
X019041Y020140D01*
X019041Y020112D01*
X019037Y020085D01*
X019029Y020059D01*
X019018Y020034D01*
X019003Y020010D01*
X018986Y019989D01*
X018965Y019971D01*
X018943Y019955D01*
X018918Y019943D01*
X018892Y019935D01*
X018865Y019930D01*
X018837Y019929D01*
X018810Y019932D01*
X018783Y019939D01*
X018758Y019949D01*
X018734Y019963D01*
X018712Y019980D01*
X018693Y019999D01*
X018677Y020022D01*
X018664Y020046D01*
X018655Y020072D01*
X018649Y020099D01*
X018647Y020126D01*
D20*
X020163Y010609D02*
X016147Y010609D01*
X016147Y008561D01*
X020163Y008561D01*
X020163Y010609D01*
D21*
X019809Y010225D03*
D22*
X016455Y005535D03*
X010105Y007685D03*
M02*
