G75*
G70*
%OFA0B0*%
%FSLAX24Y24*%
%IPPOS*%
%LPD*%
%AMOC8*
5,1,8,0,0,1.08239X$1,22.5*
%
%ADD10OC8,0.0600*%
%ADD11C,0.0515*%
%ADD12C,0.0594*%
%ADD13C,0.0709*%
%ADD14C,0.0600*%
%ADD15C,0.0560*%
%ADD16C,0.0100*%
%ADD17C,0.0310*%
%ADD18C,0.0360*%
D10*
X013111Y020361D03*
X014111Y020361D03*
X015111Y020361D03*
X015111Y021361D03*
X014111Y021361D03*
X013111Y021361D03*
D11*
X025854Y020862D02*
X026369Y020862D01*
X026369Y019862D02*
X025854Y019862D01*
X036854Y019862D02*
X037369Y019862D01*
X037369Y020862D02*
X036854Y020862D01*
X036854Y018862D02*
X037369Y018862D01*
X037369Y017862D02*
X036854Y017862D01*
X036854Y016862D02*
X037369Y016862D01*
X037369Y015862D02*
X036854Y015862D01*
X036854Y014862D02*
X037369Y014862D01*
X037369Y013862D02*
X036854Y013862D01*
X036854Y012862D02*
X037369Y012862D01*
X037369Y011862D02*
X036854Y011862D01*
X036854Y010862D02*
X037369Y010862D01*
X037369Y009862D02*
X036854Y009862D01*
X036854Y008862D02*
X037369Y008862D01*
X037369Y007862D02*
X036854Y007862D01*
X036854Y006862D02*
X037369Y006862D01*
X037369Y005862D02*
X036854Y005862D01*
X036854Y004862D02*
X037369Y004862D01*
X037369Y003862D02*
X036854Y003862D01*
X036854Y002862D02*
X037369Y002862D01*
X037369Y001862D02*
X036854Y001862D01*
X026369Y001862D02*
X025854Y001862D01*
X025854Y002862D02*
X026369Y002862D01*
D12*
X023386Y009333D03*
X023386Y013388D03*
D13*
X022284Y013388D03*
X024843Y013388D03*
X024843Y009333D03*
X022284Y009333D03*
D14*
X012837Y009108D02*
X012837Y009708D01*
X011837Y009708D02*
X011837Y009108D01*
X002611Y009061D02*
X002611Y009661D01*
X001611Y009661D02*
X001611Y009061D01*
X004111Y002161D02*
X004111Y001561D01*
X005111Y001561D02*
X005111Y002161D01*
X006111Y002161D02*
X006111Y001561D01*
D15*
X011861Y007081D02*
X011861Y007641D01*
X012861Y007641D02*
X012861Y007081D01*
X013861Y007081D02*
X013861Y007641D01*
X010861Y011331D02*
X010861Y011891D01*
X009861Y011891D02*
X009861Y011331D01*
X008861Y011331D02*
X008861Y011891D01*
D16*
X002746Y003141D02*
X002736Y000361D01*
X007361Y000361D01*
X007361Y006111D01*
X010611Y009386D01*
X011236Y009386D01*
X011236Y009061D01*
X010786Y008936D01*
X007736Y005861D01*
X007736Y000361D01*
X022261Y000361D01*
X022261Y003211D01*
X025542Y003211D01*
X025589Y003258D01*
X025761Y003329D01*
X026462Y003329D01*
X026634Y003258D01*
X026765Y003126D01*
X026836Y002955D01*
X026836Y002769D01*
X026765Y002597D01*
X026634Y002465D01*
X026462Y002394D01*
X025761Y002394D01*
X025611Y002456D01*
X025611Y002267D01*
X025761Y002329D01*
X026462Y002329D01*
X026634Y002258D01*
X026765Y002126D01*
X026836Y001955D01*
X026836Y001769D01*
X026765Y001597D01*
X026634Y001465D01*
X026462Y001394D01*
X025761Y001394D01*
X025611Y001456D01*
X025611Y000361D01*
X037861Y000361D01*
X037861Y022361D01*
X025611Y022361D01*
X025611Y021267D01*
X025761Y021329D01*
X026462Y021329D01*
X026634Y021258D01*
X026765Y021127D01*
X026836Y020955D01*
X026836Y020769D01*
X026765Y020597D01*
X026634Y020466D01*
X026462Y020394D01*
X025761Y020394D01*
X025611Y020457D01*
X025611Y020267D01*
X025761Y020329D01*
X026462Y020329D01*
X026634Y020258D01*
X026765Y020127D01*
X026836Y019955D01*
X026836Y019769D01*
X026765Y019597D01*
X026634Y019466D01*
X026462Y019394D01*
X025761Y019394D01*
X025589Y019466D01*
X025544Y019511D01*
X022261Y019511D01*
X022261Y022361D01*
X008622Y022396D01*
X002796Y022396D01*
X002766Y019531D01*
X000391Y019531D01*
X000372Y011924D01*
X000390Y011941D01*
X000533Y012001D01*
X000688Y012001D01*
X000832Y011941D01*
X000902Y011871D01*
X003319Y011871D01*
X003390Y011941D01*
X003533Y012001D01*
X003625Y012001D01*
X003601Y012059D01*
X003601Y012163D01*
X003601Y013913D01*
X003640Y014008D01*
X003714Y014081D01*
X003971Y014339D01*
X003971Y014438D01*
X004030Y014582D01*
X004140Y014691D01*
X004283Y014751D01*
X004438Y014751D01*
X004582Y014691D01*
X004691Y014582D01*
X004751Y014438D01*
X004751Y014283D01*
X004691Y014140D01*
X004582Y014030D01*
X004438Y013971D01*
X004339Y013971D01*
X004121Y013753D01*
X004121Y013672D01*
X004140Y013691D01*
X004283Y013751D01*
X004383Y013751D01*
X005964Y015331D01*
X006059Y015371D01*
X006163Y015371D01*
X006511Y015371D01*
X006464Y015390D01*
X006003Y015851D01*
X005402Y015851D01*
X005332Y015780D01*
X005188Y015721D01*
X005033Y015721D01*
X004890Y015780D01*
X004780Y015890D01*
X004721Y016033D01*
X004721Y016140D01*
X004528Y016060D01*
X004194Y016060D01*
X003885Y016188D01*
X003649Y016424D01*
X003521Y016733D01*
X003521Y017067D01*
X003649Y017376D01*
X003885Y017612D01*
X004194Y017740D01*
X004528Y017740D01*
X004837Y017612D01*
X005073Y017376D01*
X005201Y017067D01*
X005201Y016733D01*
X005105Y016501D01*
X005188Y016501D01*
X005332Y016441D01*
X005402Y016371D01*
X006163Y016371D01*
X006258Y016331D01*
X006331Y016258D01*
X006719Y015871D01*
X011319Y015871D01*
X011390Y015941D01*
X011533Y016001D01*
X011688Y016001D01*
X011832Y015941D01*
X011941Y015832D01*
X012001Y015688D01*
X012001Y015533D01*
X011941Y015390D01*
X011912Y015361D01*
X011941Y015332D01*
X012001Y015188D01*
X012820Y015188D01*
X012722Y015089D02*
X012001Y015089D01*
X012001Y015033D02*
X012001Y015188D01*
X011960Y015287D02*
X012919Y015287D01*
X013017Y015385D02*
X011937Y015385D01*
X011980Y015484D02*
X013116Y015484D01*
X013214Y015582D02*
X012001Y015582D01*
X012001Y015681D02*
X013313Y015681D01*
X013351Y015719D02*
X011464Y013831D01*
X011390Y013758D01*
X011351Y013663D01*
X011351Y013360D01*
X011313Y013376D01*
X011158Y013376D01*
X011015Y013316D01*
X010944Y013246D01*
X010594Y013246D01*
X009501Y014339D01*
X009501Y014438D01*
X009441Y014582D01*
X009332Y014691D01*
X009188Y014751D01*
X009033Y014751D01*
X008890Y014691D01*
X008780Y014582D01*
X008721Y014438D01*
X008721Y014283D01*
X008780Y014140D01*
X008890Y014030D01*
X009033Y013971D01*
X009133Y013971D01*
X009914Y013190D01*
X009888Y013201D01*
X009733Y013201D01*
X009590Y013141D01*
X009519Y013071D01*
X006821Y013071D01*
X006816Y013082D01*
X006707Y013191D01*
X006563Y013251D01*
X006408Y013251D01*
X006265Y013191D01*
X006155Y013082D01*
X006096Y012938D01*
X006096Y012839D01*
X005890Y012633D01*
X005851Y012538D01*
X005851Y012434D01*
X005851Y011969D01*
X005390Y011508D01*
X005351Y011413D01*
X005351Y011309D01*
X005351Y011027D01*
X005280Y010957D01*
X005236Y010850D01*
X005191Y010957D01*
X005121Y011027D01*
X005121Y011319D01*
X005191Y011390D01*
X005251Y011533D01*
X005251Y011688D01*
X005191Y011832D01*
X005082Y011941D01*
X004938Y012001D01*
X004783Y012001D01*
X004640Y011941D01*
X004530Y011832D01*
X004524Y011816D01*
X004508Y011831D01*
X004121Y012219D01*
X004121Y013049D01*
X004140Y013030D01*
X004283Y012971D01*
X004438Y012971D01*
X004582Y013030D01*
X004691Y013140D01*
X004751Y013283D01*
X004751Y013383D01*
X006219Y014851D01*
X011319Y014851D01*
X011390Y014780D01*
X011533Y014721D01*
X011688Y014721D01*
X011832Y014780D01*
X011941Y014890D01*
X012001Y015033D01*
X011983Y014991D02*
X012623Y014991D01*
X012525Y014892D02*
X011942Y014892D01*
X011845Y014794D02*
X012426Y014794D01*
X012328Y014695D02*
X009323Y014695D01*
X009426Y014597D02*
X012229Y014597D01*
X012131Y014498D02*
X009476Y014498D01*
X009501Y014400D02*
X012032Y014400D01*
X011933Y014301D02*
X009538Y014301D01*
X009637Y014203D02*
X011835Y014203D01*
X011736Y014104D02*
X009735Y014104D01*
X009834Y014005D02*
X011638Y014005D01*
X011539Y013907D02*
X009932Y013907D01*
X010031Y013808D02*
X011441Y013808D01*
X011370Y013710D02*
X010130Y013710D01*
X010228Y013611D02*
X011351Y013611D01*
X011351Y013513D02*
X010327Y013513D01*
X010425Y013414D02*
X011351Y013414D01*
X011611Y013611D02*
X011611Y011236D01*
X010611Y010361D01*
X008361Y010361D01*
X008111Y010111D01*
X007611Y010611D02*
X007361Y010861D01*
X007611Y010611D02*
X009611Y010611D01*
X009861Y010861D01*
X009861Y011611D01*
X010136Y012486D02*
X009811Y012811D01*
X006536Y012811D01*
X006486Y012861D01*
X006111Y012486D01*
X006111Y011861D01*
X005611Y011361D01*
X005611Y010736D01*
X005237Y010852D02*
X005235Y010852D01*
X005194Y010951D02*
X005278Y010951D01*
X005351Y011049D02*
X005121Y011049D01*
X005121Y011148D02*
X005351Y011148D01*
X005351Y011246D02*
X005121Y011246D01*
X005146Y011345D02*
X005351Y011345D01*
X005364Y011443D02*
X005214Y011443D01*
X005251Y011542D02*
X005424Y011542D01*
X005523Y011640D02*
X005251Y011640D01*
X005230Y011739D02*
X005621Y011739D01*
X005720Y011838D02*
X005186Y011838D01*
X005087Y011936D02*
X005818Y011936D01*
X005851Y012035D02*
X004305Y012035D01*
X004206Y012133D02*
X005851Y012133D01*
X005851Y012232D02*
X004121Y012232D01*
X004121Y012330D02*
X005851Y012330D01*
X005851Y012429D02*
X004121Y012429D01*
X004121Y012527D02*
X005851Y012527D01*
X005887Y012626D02*
X004121Y012626D01*
X004121Y012724D02*
X005982Y012724D01*
X006080Y012823D02*
X004121Y012823D01*
X004121Y012921D02*
X006096Y012921D01*
X006130Y013020D02*
X004557Y013020D01*
X004670Y013119D02*
X006192Y013119D01*
X006327Y013217D02*
X004723Y013217D01*
X004751Y013316D02*
X009788Y013316D01*
X009690Y013414D02*
X004782Y013414D01*
X004880Y013513D02*
X009591Y013513D01*
X009493Y013611D02*
X004979Y013611D01*
X005078Y013710D02*
X009394Y013710D01*
X009296Y013808D02*
X005176Y013808D01*
X005275Y013907D02*
X009197Y013907D01*
X008950Y014005D02*
X005373Y014005D01*
X005472Y014104D02*
X008816Y014104D01*
X008754Y014203D02*
X005570Y014203D01*
X005669Y014301D02*
X008721Y014301D01*
X008721Y014400D02*
X005767Y014400D01*
X005866Y014498D02*
X008746Y014498D01*
X008795Y014597D02*
X005964Y014597D01*
X006063Y014695D02*
X008899Y014695D01*
X009111Y014361D02*
X010486Y012986D01*
X011236Y012986D01*
X011014Y013316D02*
X010524Y013316D01*
X009887Y013217D02*
X006645Y013217D01*
X006780Y013119D02*
X009567Y013119D01*
X010136Y012486D02*
X011236Y012486D01*
X012871Y012527D02*
X013127Y012527D01*
X013121Y012533D02*
X013889Y011717D01*
X013890Y011714D01*
X013924Y011680D01*
X013957Y011645D01*
X013961Y011643D01*
X013964Y011640D01*
X012871Y011640D01*
X012871Y011542D02*
X019849Y011542D01*
X019794Y011601D02*
X021751Y009521D01*
X021719Y009446D01*
X021719Y009221D01*
X021805Y009014D01*
X021964Y008855D01*
X022171Y008769D01*
X022396Y008769D01*
X022603Y008855D01*
X022762Y009014D01*
X022848Y009221D01*
X022848Y009446D01*
X022774Y009624D01*
X022900Y009484D01*
X022879Y009434D01*
X022879Y009232D01*
X022956Y009046D01*
X023099Y008904D01*
X023285Y008826D01*
X023487Y008826D01*
X023673Y008904D01*
X023816Y009046D01*
X023893Y009232D01*
X023893Y009434D01*
X023816Y009620D01*
X023673Y009763D01*
X023487Y009840D01*
X023285Y009840D01*
X023281Y009838D01*
X022232Y011002D01*
X022229Y011008D01*
X022197Y011040D01*
X022167Y011073D01*
X022161Y011076D01*
X022156Y011081D01*
X022114Y011099D01*
X022109Y011101D01*
X022857Y011101D01*
X024347Y009611D01*
X024278Y009446D01*
X024278Y009221D01*
X024364Y009014D01*
X024523Y008855D01*
X024730Y008769D01*
X024955Y008769D01*
X025162Y008855D01*
X025321Y009014D01*
X025407Y009221D01*
X025407Y009446D01*
X025321Y009653D01*
X025162Y009812D01*
X024955Y009898D01*
X024796Y009898D01*
X023112Y011581D01*
X023017Y011621D01*
X022913Y011621D01*
X021469Y011621D01*
X020008Y013081D01*
X019913Y013121D01*
X019809Y013121D01*
X019472Y013121D01*
X019541Y013190D01*
X019601Y013333D01*
X019601Y013488D01*
X019541Y013632D01*
X019432Y013741D01*
X019288Y013801D01*
X019133Y013801D01*
X018990Y013741D01*
X018919Y013671D01*
X018552Y013671D01*
X018482Y013741D01*
X018338Y013801D01*
X018183Y013801D01*
X018040Y013741D01*
X017930Y013632D01*
X017871Y013488D01*
X017871Y013333D01*
X017930Y013190D01*
X017999Y013121D01*
X014652Y013121D01*
X014582Y013191D01*
X014438Y013251D01*
X014283Y013251D01*
X014140Y013191D01*
X014049Y013101D01*
X014041Y013119D01*
X013932Y013229D01*
X013788Y013288D01*
X013633Y013288D01*
X013490Y013229D01*
X013423Y013162D01*
X013332Y013254D01*
X013188Y013313D01*
X013033Y013313D01*
X012890Y013254D01*
X012871Y013235D01*
X012871Y013503D01*
X013721Y014353D01*
X013721Y014283D01*
X013780Y014140D01*
X013890Y014030D01*
X014033Y013971D01*
X014188Y013971D01*
X014332Y014030D01*
X014402Y014101D01*
X021582Y014101D01*
X021652Y014030D01*
X021796Y013971D01*
X021951Y013971D01*
X022028Y014003D01*
X022027Y013893D01*
X021964Y013867D01*
X021805Y013708D01*
X021719Y013501D01*
X021719Y013276D01*
X021805Y013069D01*
X021964Y012910D01*
X022171Y012824D01*
X022396Y012824D01*
X022603Y012910D01*
X022762Y013069D01*
X022848Y013276D01*
X022848Y013501D01*
X022762Y013708D01*
X022603Y013867D01*
X022547Y013890D01*
X022548Y013930D01*
X023552Y014934D01*
X023583Y014921D01*
X023738Y014921D01*
X023882Y014980D01*
X023991Y015090D01*
X023996Y015101D01*
X026059Y015101D01*
X026163Y015101D01*
X026258Y015140D01*
X029339Y018221D01*
X029438Y018221D01*
X029582Y018280D01*
X029691Y018390D01*
X029751Y018533D01*
X029751Y018688D01*
X029691Y018832D01*
X029582Y018941D01*
X029438Y019001D01*
X029283Y019001D01*
X029140Y018941D01*
X029030Y018832D01*
X028971Y018688D01*
X028971Y018589D01*
X026003Y015621D01*
X023902Y015621D01*
X023882Y015641D01*
X023738Y015701D01*
X023583Y015701D01*
X023440Y015641D01*
X023330Y015532D01*
X023271Y015389D01*
X022263Y014381D01*
X022263Y014438D01*
X022204Y014582D01*
X022094Y014691D01*
X021951Y014751D01*
X021796Y014751D01*
X021652Y014691D01*
X021582Y014621D01*
X014402Y014621D01*
X014332Y014691D01*
X014188Y014751D01*
X014118Y014751D01*
X015581Y016214D01*
X015621Y016309D01*
X015621Y016413D01*
X015621Y016819D01*
X015691Y016890D01*
X015751Y017033D01*
X015751Y017188D01*
X015691Y017332D01*
X015582Y017441D01*
X015438Y017501D01*
X015283Y017501D01*
X015140Y017441D01*
X015030Y017332D01*
X014986Y017225D01*
X014941Y017332D01*
X014832Y017441D01*
X014688Y017501D01*
X014533Y017501D01*
X014390Y017441D01*
X014280Y017332D01*
X014221Y017188D01*
X014221Y017033D01*
X014280Y016890D01*
X014351Y016819D01*
X014351Y016219D01*
X013871Y015738D01*
X013871Y016819D01*
X013941Y016890D01*
X014001Y017033D01*
X014001Y017188D01*
X013941Y017332D01*
X013832Y017441D01*
X013688Y017501D01*
X013533Y017501D01*
X013390Y017441D01*
X013280Y017332D01*
X013221Y017188D01*
X013221Y017033D01*
X013280Y016890D01*
X013351Y016819D01*
X013351Y015719D01*
X013351Y015779D02*
X011963Y015779D01*
X011895Y015878D02*
X013351Y015878D01*
X013351Y015976D02*
X011748Y015976D01*
X011474Y015976D02*
X006613Y015976D01*
X006712Y015878D02*
X011326Y015878D01*
X011611Y015611D02*
X006611Y015611D01*
X006111Y016111D01*
X005111Y016111D01*
X004744Y015976D02*
X000382Y015976D01*
X000382Y015878D02*
X004792Y015878D01*
X004892Y015779D02*
X000382Y015779D01*
X000381Y015681D02*
X006173Y015681D01*
X006075Y015779D02*
X005329Y015779D01*
X004721Y016075D02*
X004564Y016075D01*
X004158Y016075D02*
X000382Y016075D01*
X000383Y016173D02*
X003920Y016173D01*
X003801Y016272D02*
X000383Y016272D01*
X000383Y016371D02*
X003702Y016371D01*
X003630Y016469D02*
X000383Y016469D01*
X000384Y016568D02*
X003589Y016568D01*
X003549Y016666D02*
X000384Y016666D01*
X000384Y016765D02*
X003521Y016765D01*
X003521Y016863D02*
X000384Y016863D01*
X000385Y016962D02*
X003521Y016962D01*
X003521Y017060D02*
X000385Y017060D01*
X000385Y017159D02*
X003559Y017159D01*
X003600Y017257D02*
X000385Y017257D01*
X000386Y017356D02*
X003641Y017356D01*
X003728Y017454D02*
X000386Y017454D01*
X000386Y017553D02*
X003826Y017553D01*
X003981Y017652D02*
X000386Y017652D01*
X000386Y017750D02*
X011485Y017750D01*
X011471Y017783D02*
X011530Y017640D01*
X011640Y017530D01*
X011783Y017471D01*
X011938Y017471D01*
X012082Y017530D01*
X012191Y017640D01*
X012236Y017747D01*
X012280Y017640D01*
X012390Y017530D01*
X012533Y017471D01*
X012688Y017471D01*
X012832Y017530D01*
X012941Y017640D01*
X013001Y017783D01*
X013001Y017938D01*
X012941Y018082D01*
X012871Y018152D01*
X012871Y018569D01*
X012941Y018640D01*
X013001Y018783D01*
X013001Y018938D01*
X012941Y019082D01*
X012832Y019191D01*
X012688Y019251D01*
X012533Y019251D01*
X012390Y019191D01*
X012280Y019082D01*
X012221Y018938D01*
X012221Y018783D01*
X012280Y018640D01*
X012351Y018569D01*
X012351Y018152D01*
X012280Y018082D01*
X012236Y017975D01*
X012191Y018082D01*
X012121Y018152D01*
X012121Y019003D01*
X012469Y019351D01*
X014663Y019351D01*
X014758Y019390D01*
X014831Y019464D01*
X015219Y019851D01*
X015322Y019851D01*
X015621Y020150D01*
X015621Y020572D01*
X015322Y020871D01*
X014900Y020871D01*
X014611Y020582D01*
X014332Y020861D01*
X014621Y021150D01*
X014621Y021572D01*
X014322Y021871D01*
X013900Y021871D01*
X013611Y021582D01*
X013322Y021871D01*
X012900Y021871D01*
X012601Y021572D01*
X012601Y021150D01*
X012890Y020861D01*
X012601Y020572D01*
X012601Y020150D01*
X012880Y019871D01*
X012413Y019871D01*
X012309Y019871D01*
X012214Y019831D01*
X011714Y019331D01*
X011640Y019258D01*
X011601Y019163D01*
X011601Y018152D01*
X011530Y018082D01*
X011471Y017938D01*
X011471Y017783D01*
X011471Y017849D02*
X000387Y017849D01*
X000387Y017947D02*
X011475Y017947D01*
X011515Y018046D02*
X000387Y018046D01*
X000387Y018144D02*
X011593Y018144D01*
X011601Y018243D02*
X000388Y018243D01*
X000388Y018341D02*
X011601Y018341D01*
X011601Y018440D02*
X000388Y018440D01*
X000388Y018538D02*
X011601Y018538D01*
X011601Y018637D02*
X000389Y018637D01*
X000389Y018736D02*
X011601Y018736D01*
X011601Y018834D02*
X000389Y018834D01*
X000389Y018933D02*
X011601Y018933D01*
X011601Y019031D02*
X000390Y019031D01*
X000390Y019130D02*
X011601Y019130D01*
X011628Y019228D02*
X000390Y019228D01*
X000390Y019327D02*
X011709Y019327D01*
X011808Y019425D02*
X000391Y019425D01*
X000391Y019524D02*
X011906Y019524D01*
X012005Y019622D02*
X002767Y019622D01*
X002768Y019721D02*
X012103Y019721D01*
X012202Y019820D02*
X002769Y019820D01*
X002770Y019918D02*
X012832Y019918D01*
X012734Y020017D02*
X002771Y020017D01*
X002772Y020115D02*
X012635Y020115D01*
X012601Y020214D02*
X002773Y020214D01*
X002774Y020312D02*
X012601Y020312D01*
X012601Y020411D02*
X002775Y020411D01*
X002776Y020509D02*
X012601Y020509D01*
X012637Y020608D02*
X002777Y020608D01*
X002778Y020706D02*
X012735Y020706D01*
X012834Y020805D02*
X002779Y020805D01*
X002780Y020904D02*
X012847Y020904D01*
X012748Y021002D02*
X002781Y021002D01*
X002782Y021101D02*
X012650Y021101D01*
X012601Y021199D02*
X002783Y021199D01*
X002784Y021298D02*
X012601Y021298D01*
X012601Y021396D02*
X002785Y021396D01*
X002786Y021495D02*
X012601Y021495D01*
X012622Y021593D02*
X002787Y021593D01*
X002788Y021692D02*
X012721Y021692D01*
X012819Y021790D02*
X002789Y021790D01*
X002790Y021889D02*
X022261Y021889D01*
X022261Y021987D02*
X002791Y021987D01*
X002792Y022086D02*
X022261Y022086D01*
X022261Y022185D02*
X002794Y022185D01*
X002795Y022283D02*
X022261Y022283D01*
X022261Y021790D02*
X015318Y021790D01*
X015297Y021811D02*
X015161Y021811D01*
X015161Y021411D01*
X015561Y021411D01*
X015561Y021547D01*
X015297Y021811D01*
X015161Y021790D02*
X015061Y021790D01*
X015061Y021811D02*
X015061Y021411D01*
X015161Y021411D01*
X015161Y021311D01*
X015561Y021311D01*
X015561Y021174D01*
X015297Y020911D01*
X015161Y020911D01*
X015161Y021311D01*
X015061Y021311D01*
X015061Y020911D01*
X014924Y020911D01*
X014661Y021174D01*
X014661Y021311D01*
X015061Y021311D01*
X015061Y021411D01*
X014661Y021411D01*
X014661Y021547D01*
X014924Y021811D01*
X015061Y021811D01*
X015061Y021692D02*
X015161Y021692D01*
X015161Y021593D02*
X015061Y021593D01*
X015061Y021495D02*
X015161Y021495D01*
X015161Y021396D02*
X017745Y021396D01*
X017790Y021441D02*
X017680Y021332D01*
X017621Y021188D01*
X017621Y021033D01*
X017680Y020890D01*
X017751Y020819D01*
X017751Y019452D01*
X017680Y019382D01*
X017621Y019238D01*
X017621Y019083D01*
X017680Y018940D01*
X017790Y018830D01*
X017933Y018771D01*
X018088Y018771D01*
X018232Y018830D01*
X018341Y018940D01*
X018401Y019083D01*
X018401Y019238D01*
X018341Y019382D01*
X018271Y019452D01*
X018271Y020819D01*
X018341Y020890D01*
X018401Y021033D01*
X018401Y021188D01*
X018341Y021332D01*
X018232Y021441D01*
X018088Y021501D01*
X017933Y021501D01*
X017790Y021441D01*
X017919Y021495D02*
X015561Y021495D01*
X015515Y021593D02*
X022261Y021593D01*
X022261Y021495D02*
X018103Y021495D01*
X018277Y021396D02*
X022261Y021396D01*
X022261Y021298D02*
X018356Y021298D01*
X018396Y021199D02*
X022261Y021199D01*
X022261Y021101D02*
X018401Y021101D01*
X018388Y021002D02*
X022261Y021002D01*
X022261Y020904D02*
X018347Y020904D01*
X018271Y020805D02*
X022261Y020805D01*
X022261Y020706D02*
X018271Y020706D01*
X018271Y020608D02*
X022261Y020608D01*
X022261Y020509D02*
X018271Y020509D01*
X018271Y020411D02*
X022261Y020411D01*
X022261Y020312D02*
X018271Y020312D01*
X018271Y020214D02*
X022261Y020214D01*
X022261Y020115D02*
X018271Y020115D01*
X018271Y020017D02*
X022261Y020017D01*
X022261Y019918D02*
X018271Y019918D01*
X018271Y019820D02*
X022261Y019820D01*
X022261Y019721D02*
X018271Y019721D01*
X018271Y019622D02*
X022261Y019622D01*
X022261Y019524D02*
X018271Y019524D01*
X018298Y019425D02*
X025686Y019425D01*
X026537Y019425D02*
X036686Y019425D01*
X036761Y019394D02*
X036589Y019466D01*
X036458Y019597D01*
X036387Y019769D01*
X036387Y019955D01*
X036458Y020127D01*
X036589Y020258D01*
X036761Y020329D01*
X037462Y020329D01*
X037634Y020258D01*
X037765Y020127D01*
X037836Y019955D01*
X037836Y019769D01*
X037765Y019597D01*
X037634Y019466D01*
X037462Y019394D01*
X036761Y019394D01*
X036761Y019329D02*
X036589Y019258D01*
X036458Y019127D01*
X036387Y018955D01*
X036387Y018769D01*
X036458Y018597D01*
X036589Y018466D01*
X036761Y018394D01*
X037462Y018394D01*
X037634Y018466D01*
X037765Y018597D01*
X037836Y018769D01*
X037836Y018955D01*
X037765Y019127D01*
X037634Y019258D01*
X037462Y019329D01*
X036761Y019329D01*
X036755Y019327D02*
X018364Y019327D01*
X018401Y019228D02*
X036559Y019228D01*
X036461Y019130D02*
X018401Y019130D01*
X018379Y019031D02*
X036418Y019031D01*
X036387Y018933D02*
X029591Y018933D01*
X029689Y018834D02*
X036387Y018834D01*
X036400Y018736D02*
X029731Y018736D01*
X029751Y018637D02*
X036441Y018637D01*
X036516Y018538D02*
X029751Y018538D01*
X029712Y018440D02*
X036651Y018440D01*
X036761Y018329D02*
X036589Y018258D01*
X036458Y018127D01*
X036387Y017955D01*
X036387Y017769D01*
X036458Y017597D01*
X036589Y017466D01*
X036761Y017394D01*
X037462Y017394D01*
X037634Y017466D01*
X037765Y017597D01*
X037836Y017769D01*
X037836Y017955D01*
X037765Y018127D01*
X037634Y018258D01*
X037462Y018329D01*
X036761Y018329D01*
X036574Y018243D02*
X029491Y018243D01*
X029643Y018341D02*
X037861Y018341D01*
X037861Y018243D02*
X037649Y018243D01*
X037748Y018144D02*
X037861Y018144D01*
X037861Y018046D02*
X037799Y018046D01*
X037836Y017947D02*
X037861Y017947D01*
X037861Y017849D02*
X037836Y017849D01*
X037829Y017750D02*
X037861Y017750D01*
X037861Y017652D02*
X037788Y017652D01*
X037721Y017553D02*
X037861Y017553D01*
X037861Y017454D02*
X037607Y017454D01*
X037462Y017329D02*
X037634Y017258D01*
X037765Y017127D01*
X037836Y016955D01*
X037836Y016769D01*
X037765Y016597D01*
X037634Y016466D01*
X037462Y016394D01*
X036761Y016394D01*
X036589Y016466D01*
X036458Y016597D01*
X036387Y016769D01*
X036387Y016955D01*
X036458Y017127D01*
X036589Y017258D01*
X036761Y017329D01*
X037462Y017329D01*
X037635Y017257D02*
X037861Y017257D01*
X037861Y017159D02*
X037733Y017159D01*
X037793Y017060D02*
X037861Y017060D01*
X037861Y016962D02*
X037834Y016962D01*
X037836Y016863D02*
X037861Y016863D01*
X037861Y016765D02*
X037835Y016765D01*
X037861Y016666D02*
X037794Y016666D01*
X037736Y016568D02*
X037861Y016568D01*
X037861Y016469D02*
X037637Y016469D01*
X037600Y016272D02*
X037861Y016272D01*
X037861Y016371D02*
X033169Y016371D01*
X033222Y016424D02*
X033350Y016733D01*
X033350Y017067D01*
X033222Y017376D01*
X032986Y017612D01*
X032678Y017740D01*
X032343Y017740D01*
X032035Y017612D01*
X031798Y017376D01*
X031671Y017067D01*
X031671Y016733D01*
X031798Y016424D01*
X032035Y016188D01*
X032343Y016060D01*
X032678Y016060D01*
X032986Y016188D01*
X033222Y016424D01*
X033241Y016469D02*
X036586Y016469D01*
X036487Y016568D02*
X033282Y016568D01*
X033323Y016666D02*
X036429Y016666D01*
X036388Y016765D02*
X033350Y016765D01*
X033350Y016863D02*
X036387Y016863D01*
X036389Y016962D02*
X033350Y016962D01*
X033350Y017060D02*
X036430Y017060D01*
X036490Y017159D02*
X033312Y017159D01*
X033271Y017257D02*
X036589Y017257D01*
X036616Y017454D02*
X033144Y017454D01*
X033231Y017356D02*
X037861Y017356D01*
X036502Y017553D02*
X033045Y017553D01*
X032890Y017652D02*
X036435Y017652D01*
X036394Y017750D02*
X028868Y017750D01*
X028966Y017849D02*
X036387Y017849D01*
X036387Y017947D02*
X029065Y017947D01*
X029163Y018046D02*
X036424Y018046D01*
X036475Y018144D02*
X029262Y018144D01*
X028724Y018341D02*
X012871Y018341D01*
X012871Y018243D02*
X028625Y018243D01*
X028527Y018144D02*
X012879Y018144D01*
X012956Y018046D02*
X028428Y018046D01*
X028330Y017947D02*
X012997Y017947D01*
X013001Y017849D02*
X028231Y017849D01*
X028132Y017750D02*
X012987Y017750D01*
X012946Y017652D02*
X019926Y017652D01*
X019830Y017612D02*
X019594Y017376D01*
X019466Y017067D01*
X019466Y016733D01*
X019594Y016424D01*
X019830Y016188D01*
X020139Y016060D01*
X020473Y016060D01*
X020781Y016188D01*
X021018Y016424D01*
X021146Y016733D01*
X021146Y017067D01*
X021018Y017376D01*
X020781Y017612D01*
X020473Y017740D01*
X020139Y017740D01*
X019830Y017612D01*
X019771Y017553D02*
X012855Y017553D01*
X012611Y017861D02*
X012611Y018861D01*
X012894Y019130D02*
X017621Y019130D01*
X017621Y019228D02*
X012743Y019228D01*
X012479Y019228D02*
X012346Y019228D01*
X012328Y019130D02*
X012247Y019130D01*
X012259Y019031D02*
X012149Y019031D01*
X012121Y018933D02*
X012221Y018933D01*
X012221Y018834D02*
X012121Y018834D01*
X012121Y018736D02*
X012241Y018736D01*
X012283Y018637D02*
X012121Y018637D01*
X012121Y018538D02*
X012351Y018538D01*
X012351Y018440D02*
X012121Y018440D01*
X012121Y018341D02*
X012351Y018341D01*
X012351Y018243D02*
X012121Y018243D01*
X012129Y018144D02*
X012343Y018144D01*
X012265Y018046D02*
X012206Y018046D01*
X011861Y017861D02*
X011861Y019111D01*
X012361Y019611D01*
X014611Y019611D01*
X015111Y020111D01*
X015111Y020361D01*
X015488Y020017D02*
X017751Y020017D01*
X017751Y020115D02*
X015586Y020115D01*
X015621Y020214D02*
X017751Y020214D01*
X017751Y020312D02*
X015621Y020312D01*
X015621Y020411D02*
X017751Y020411D01*
X017751Y020509D02*
X015621Y020509D01*
X015585Y020608D02*
X017751Y020608D01*
X017751Y020706D02*
X015486Y020706D01*
X015388Y020805D02*
X017751Y020805D01*
X017675Y020904D02*
X014375Y020904D01*
X014388Y020805D02*
X014834Y020805D01*
X014735Y020706D02*
X014486Y020706D01*
X014585Y020608D02*
X014637Y020608D01*
X014473Y021002D02*
X014833Y021002D01*
X014735Y021101D02*
X014572Y021101D01*
X014621Y021199D02*
X014661Y021199D01*
X014661Y021298D02*
X014621Y021298D01*
X014621Y021396D02*
X015061Y021396D01*
X015061Y021298D02*
X015161Y021298D01*
X015161Y021199D02*
X015061Y021199D01*
X015061Y021101D02*
X015161Y021101D01*
X015161Y021002D02*
X015061Y021002D01*
X015388Y021002D02*
X017634Y021002D01*
X017621Y021101D02*
X015487Y021101D01*
X015561Y021199D02*
X017625Y021199D01*
X017666Y021298D02*
X015561Y021298D01*
X015416Y021692D02*
X022261Y021692D01*
X025611Y021692D02*
X037861Y021692D01*
X037861Y021790D02*
X025611Y021790D01*
X025611Y021889D02*
X037861Y021889D01*
X037861Y021987D02*
X025611Y021987D01*
X025611Y022086D02*
X037861Y022086D01*
X037861Y022185D02*
X025611Y022185D01*
X025611Y022283D02*
X037861Y022283D01*
X037861Y021593D02*
X025611Y021593D01*
X025611Y021495D02*
X037861Y021495D01*
X037861Y021396D02*
X025611Y021396D01*
X025611Y021298D02*
X025685Y021298D01*
X026538Y021298D02*
X036685Y021298D01*
X036761Y021329D02*
X036589Y021258D01*
X036458Y021127D01*
X036387Y020955D01*
X036387Y020769D01*
X036458Y020597D01*
X036589Y020466D01*
X036761Y020394D01*
X037462Y020394D01*
X037634Y020466D01*
X037765Y020597D01*
X037836Y020769D01*
X037836Y020955D01*
X037765Y021127D01*
X037634Y021258D01*
X037462Y021329D01*
X036761Y021329D01*
X036530Y021199D02*
X026693Y021199D01*
X026776Y021101D02*
X036447Y021101D01*
X036406Y021002D02*
X026817Y021002D01*
X026836Y020904D02*
X036387Y020904D01*
X036387Y020805D02*
X026836Y020805D01*
X026810Y020706D02*
X036412Y020706D01*
X036453Y020608D02*
X026770Y020608D01*
X026677Y020509D02*
X036546Y020509D01*
X036721Y020411D02*
X026501Y020411D01*
X026503Y020312D02*
X036720Y020312D01*
X036545Y020214D02*
X026678Y020214D01*
X026770Y020115D02*
X036453Y020115D01*
X036412Y020017D02*
X026811Y020017D01*
X026836Y019918D02*
X036387Y019918D01*
X036387Y019820D02*
X026836Y019820D01*
X026816Y019721D02*
X036406Y019721D01*
X036447Y019622D02*
X026776Y019622D01*
X026692Y019524D02*
X036531Y019524D01*
X037468Y019327D02*
X037861Y019327D01*
X037861Y019425D02*
X037537Y019425D01*
X037692Y019524D02*
X037861Y019524D01*
X037861Y019622D02*
X037776Y019622D01*
X037817Y019721D02*
X037861Y019721D01*
X037861Y019820D02*
X037836Y019820D01*
X037836Y019918D02*
X037861Y019918D01*
X037861Y020017D02*
X037811Y020017D01*
X037770Y020115D02*
X037861Y020115D01*
X037861Y020214D02*
X037678Y020214D01*
X037503Y020312D02*
X037861Y020312D01*
X037861Y020411D02*
X037502Y020411D01*
X037678Y020509D02*
X037861Y020509D01*
X037861Y020608D02*
X037770Y020608D01*
X037811Y020706D02*
X037861Y020706D01*
X037861Y020805D02*
X037836Y020805D01*
X037836Y020904D02*
X037861Y020904D01*
X037861Y021002D02*
X037817Y021002D01*
X037776Y021101D02*
X037861Y021101D01*
X037861Y021199D02*
X037693Y021199D01*
X037538Y021298D02*
X037861Y021298D01*
X037861Y019228D02*
X037664Y019228D01*
X037762Y019130D02*
X037861Y019130D01*
X037861Y019031D02*
X037805Y019031D01*
X037836Y018933D02*
X037861Y018933D01*
X037861Y018834D02*
X037836Y018834D01*
X037823Y018736D02*
X037861Y018736D01*
X037861Y018637D02*
X037782Y018637D01*
X037707Y018538D02*
X037861Y018538D01*
X037861Y018440D02*
X037572Y018440D01*
X037462Y016329D02*
X036761Y016329D01*
X036589Y016258D01*
X036458Y016127D01*
X036387Y015955D01*
X036387Y015769D01*
X036458Y015597D01*
X036589Y015466D01*
X036761Y015394D01*
X037462Y015394D01*
X037634Y015466D01*
X037765Y015597D01*
X037836Y015769D01*
X037836Y015955D01*
X037765Y016127D01*
X037634Y016258D01*
X037462Y016329D01*
X037719Y016173D02*
X037861Y016173D01*
X037861Y016075D02*
X037787Y016075D01*
X037828Y015976D02*
X037861Y015976D01*
X037861Y015878D02*
X037836Y015878D01*
X037836Y015779D02*
X037861Y015779D01*
X037861Y015681D02*
X037800Y015681D01*
X037751Y015582D02*
X037861Y015582D01*
X037861Y015484D02*
X037652Y015484D01*
X037861Y015385D02*
X026503Y015385D01*
X026601Y015484D02*
X036571Y015484D01*
X036473Y015582D02*
X026700Y015582D01*
X026798Y015681D02*
X036423Y015681D01*
X036387Y015779D02*
X026897Y015779D01*
X026995Y015878D02*
X036387Y015878D01*
X036396Y015976D02*
X027094Y015976D01*
X027193Y016075D02*
X032307Y016075D01*
X032069Y016173D02*
X027291Y016173D01*
X027390Y016272D02*
X031951Y016272D01*
X031852Y016371D02*
X027488Y016371D01*
X027587Y016469D02*
X031780Y016469D01*
X031739Y016568D02*
X027685Y016568D01*
X027784Y016666D02*
X031698Y016666D01*
X031671Y016765D02*
X027882Y016765D01*
X027981Y016863D02*
X031671Y016863D01*
X031671Y016962D02*
X028079Y016962D01*
X028178Y017060D02*
X031671Y017060D01*
X031709Y017159D02*
X028277Y017159D01*
X028375Y017257D02*
X031749Y017257D01*
X031790Y017356D02*
X028474Y017356D01*
X028572Y017454D02*
X031877Y017454D01*
X031976Y017553D02*
X028671Y017553D01*
X028769Y017652D02*
X032131Y017652D01*
X033070Y016272D02*
X036623Y016272D01*
X036505Y016173D02*
X032951Y016173D01*
X032714Y016075D02*
X036436Y016075D01*
X036698Y015239D02*
X036641Y015210D01*
X036589Y015173D01*
X036543Y015127D01*
X036506Y015075D01*
X036476Y015018D01*
X036457Y014957D01*
X036447Y014894D01*
X036447Y014891D01*
X037083Y014891D01*
X037083Y015269D01*
X036822Y015269D01*
X036759Y015259D01*
X036698Y015239D01*
X036610Y015188D02*
X026306Y015188D01*
X026404Y015287D02*
X037861Y015287D01*
X037861Y015188D02*
X037613Y015188D01*
X037634Y015173D02*
X037583Y015210D01*
X037525Y015239D01*
X037464Y015259D01*
X037401Y015269D01*
X037140Y015269D01*
X037140Y014891D01*
X037083Y014891D01*
X037083Y014833D01*
X037140Y014833D01*
X037140Y014454D01*
X037401Y014454D01*
X037464Y014464D01*
X037525Y014484D01*
X037583Y014513D01*
X037634Y014551D01*
X037680Y014596D01*
X037718Y014648D01*
X037747Y014705D01*
X037766Y014766D01*
X037776Y014830D01*
X037776Y014833D01*
X037141Y014833D01*
X037141Y014891D01*
X037776Y014891D01*
X037776Y014894D01*
X037766Y014957D01*
X037747Y015018D01*
X037718Y015075D01*
X037680Y015127D01*
X037634Y015173D01*
X037707Y015089D02*
X037861Y015089D01*
X037861Y014991D02*
X037756Y014991D01*
X037776Y014892D02*
X037861Y014892D01*
X037861Y014794D02*
X037771Y014794D01*
X037741Y014695D02*
X037861Y014695D01*
X037861Y014597D02*
X037680Y014597D01*
X037553Y014498D02*
X037861Y014498D01*
X037861Y014400D02*
X023017Y014400D01*
X023116Y014498D02*
X036670Y014498D01*
X036698Y014484D02*
X036641Y014513D01*
X036589Y014551D01*
X036543Y014596D01*
X036506Y014648D01*
X036476Y014705D01*
X036457Y014766D01*
X036447Y014830D01*
X036447Y014833D01*
X037083Y014833D01*
X037083Y014454D01*
X036822Y014454D01*
X036759Y014464D01*
X036698Y014484D01*
X036761Y014329D02*
X036589Y014258D01*
X036458Y014127D01*
X036387Y013955D01*
X036387Y013769D01*
X036458Y013597D01*
X036589Y013466D01*
X036761Y013394D01*
X037462Y013394D01*
X037634Y013466D01*
X037765Y013597D01*
X037836Y013769D01*
X037836Y013955D01*
X037765Y014127D01*
X037634Y014258D01*
X037462Y014329D01*
X036761Y014329D01*
X036693Y014301D02*
X022919Y014301D01*
X022820Y014203D02*
X036534Y014203D01*
X036448Y014104D02*
X022722Y014104D01*
X022623Y014005D02*
X036408Y014005D01*
X036387Y013907D02*
X025066Y013907D01*
X025162Y013867D02*
X024955Y013953D01*
X024730Y013953D01*
X024523Y013867D01*
X024364Y013708D01*
X024278Y013501D01*
X024278Y013276D01*
X024364Y013069D01*
X024523Y012910D01*
X024730Y012824D01*
X024955Y012824D01*
X025162Y012910D01*
X025321Y013069D01*
X025407Y013276D01*
X025407Y013501D01*
X025321Y013708D01*
X025162Y013867D01*
X025221Y013808D02*
X036387Y013808D01*
X036411Y013710D02*
X025319Y013710D01*
X025361Y013611D02*
X036452Y013611D01*
X036542Y013513D02*
X025402Y013513D01*
X025407Y013414D02*
X036713Y013414D01*
X036761Y013329D02*
X036589Y013258D01*
X036458Y013127D01*
X036387Y012955D01*
X036387Y012769D01*
X036458Y012597D01*
X036589Y012465D01*
X036761Y012394D01*
X037462Y012394D01*
X037634Y012465D01*
X037765Y012597D01*
X037836Y012769D01*
X037836Y012955D01*
X037765Y013127D01*
X037634Y013258D01*
X037462Y013329D01*
X036761Y013329D01*
X036728Y013316D02*
X025407Y013316D01*
X025383Y013217D02*
X036548Y013217D01*
X036454Y013119D02*
X025342Y013119D01*
X025272Y013020D02*
X036414Y013020D01*
X036387Y012921D02*
X025174Y012921D01*
X024512Y012921D02*
X023583Y012921D01*
X023673Y012959D02*
X023487Y012882D01*
X023285Y012882D01*
X023099Y012959D01*
X022956Y013101D01*
X022879Y013288D01*
X022879Y013489D01*
X022956Y013676D01*
X023099Y013818D01*
X023285Y013895D01*
X023487Y013895D01*
X023673Y013818D01*
X023816Y013676D01*
X023893Y013489D01*
X023893Y013288D01*
X023816Y013101D01*
X023673Y012959D01*
X023734Y013020D02*
X024413Y013020D01*
X024344Y013119D02*
X023823Y013119D01*
X023864Y013217D02*
X024303Y013217D01*
X024278Y013316D02*
X023893Y013316D01*
X023893Y013414D02*
X024278Y013414D01*
X024283Y013513D02*
X023883Y013513D01*
X023842Y013611D02*
X024324Y013611D01*
X024366Y013710D02*
X023781Y013710D01*
X023683Y013808D02*
X024465Y013808D01*
X024620Y013907D02*
X022547Y013907D01*
X022662Y013808D02*
X023089Y013808D01*
X022991Y013710D02*
X022760Y013710D01*
X022802Y013611D02*
X022930Y013611D01*
X022889Y013513D02*
X022843Y013513D01*
X022848Y013414D02*
X022879Y013414D01*
X022879Y013316D02*
X022848Y013316D01*
X022824Y013217D02*
X022908Y013217D01*
X022949Y013119D02*
X022783Y013119D01*
X022713Y013020D02*
X023038Y013020D01*
X023189Y012921D02*
X022615Y012921D01*
X022284Y013388D02*
X022288Y014038D01*
X023586Y015336D01*
X023611Y015311D01*
X023661Y015311D01*
X023611Y015361D02*
X026111Y015361D01*
X029361Y018611D01*
X028990Y018736D02*
X012981Y018736D01*
X013001Y018834D02*
X017786Y018834D01*
X017688Y018933D02*
X013001Y018933D01*
X012962Y019031D02*
X017642Y019031D01*
X018011Y019161D02*
X018011Y021111D01*
X017751Y019918D02*
X015389Y019918D01*
X015187Y019820D02*
X017751Y019820D01*
X017751Y019721D02*
X015089Y019721D01*
X014990Y019622D02*
X017751Y019622D01*
X017751Y019524D02*
X014892Y019524D01*
X014793Y019425D02*
X017724Y019425D01*
X017657Y019327D02*
X012444Y019327D01*
X012939Y018637D02*
X028971Y018637D01*
X028921Y018538D02*
X012871Y018538D01*
X012871Y018440D02*
X028822Y018440D01*
X029033Y018834D02*
X018236Y018834D01*
X018334Y018933D02*
X029131Y018933D01*
X028034Y017652D02*
X020686Y017652D01*
X020840Y017553D02*
X027935Y017553D01*
X027837Y017454D02*
X020939Y017454D01*
X021026Y017356D02*
X027738Y017356D01*
X027640Y017257D02*
X021067Y017257D01*
X021108Y017159D02*
X027541Y017159D01*
X027443Y017060D02*
X021146Y017060D01*
X021146Y016962D02*
X027344Y016962D01*
X027246Y016863D02*
X021146Y016863D01*
X021146Y016765D02*
X027147Y016765D01*
X027048Y016666D02*
X021118Y016666D01*
X021077Y016568D02*
X026950Y016568D01*
X026851Y016469D02*
X021036Y016469D01*
X020964Y016371D02*
X026753Y016371D01*
X026654Y016272D02*
X020866Y016272D01*
X020747Y016173D02*
X026556Y016173D01*
X026457Y016075D02*
X020509Y016075D01*
X020103Y016075D02*
X015443Y016075D01*
X015541Y016173D02*
X019865Y016173D01*
X019746Y016272D02*
X015605Y016272D01*
X015621Y016371D02*
X019647Y016371D01*
X019575Y016469D02*
X015621Y016469D01*
X015621Y016568D02*
X019534Y016568D01*
X019493Y016666D02*
X015621Y016666D01*
X015621Y016765D02*
X019466Y016765D01*
X019466Y016863D02*
X015665Y016863D01*
X015721Y016962D02*
X019466Y016962D01*
X019466Y017060D02*
X015751Y017060D01*
X015751Y017159D02*
X019504Y017159D01*
X019545Y017257D02*
X015722Y017257D01*
X015667Y017356D02*
X019586Y017356D01*
X019673Y017454D02*
X015550Y017454D01*
X015171Y017454D02*
X014800Y017454D01*
X014917Y017356D02*
X015054Y017356D01*
X014999Y017257D02*
X014972Y017257D01*
X014611Y017111D02*
X014611Y016111D01*
X012111Y013611D01*
X012111Y011236D01*
X010861Y010111D01*
X008861Y010111D01*
X007861Y009111D01*
X004861Y009111D01*
X005152Y008851D02*
X006598Y008851D01*
X006515Y008816D01*
X006405Y008707D01*
X006346Y008563D01*
X006346Y008408D01*
X006405Y008265D01*
X006515Y008155D01*
X006658Y008096D01*
X006813Y008096D01*
X006957Y008155D01*
X007027Y008226D01*
X007944Y008226D01*
X008015Y008155D01*
X008158Y008096D01*
X008228Y008096D01*
X007883Y007751D01*
X007783Y007751D01*
X007640Y007691D01*
X007530Y007582D01*
X007471Y007438D01*
X007471Y007283D01*
X007530Y007140D01*
X007640Y007030D01*
X007783Y006971D01*
X007938Y006971D01*
X008082Y007030D01*
X008191Y007140D01*
X008251Y007283D01*
X008251Y007383D01*
X010469Y009601D01*
X011105Y009601D01*
X011151Y009599D01*
X011157Y009601D01*
X011163Y009601D01*
X011205Y009618D01*
X011248Y009634D01*
X011253Y009638D01*
X011258Y009640D01*
X011290Y009673D01*
X011391Y009765D01*
X011387Y009744D01*
X011387Y009458D01*
X011787Y009458D01*
X011787Y009358D01*
X011387Y009358D01*
X011387Y009073D01*
X011398Y009003D01*
X011420Y008935D01*
X011452Y008872D01*
X011494Y008815D01*
X011544Y008765D01*
X011601Y008723D01*
X011664Y008691D01*
X011732Y008669D01*
X011787Y008660D01*
X011787Y009358D01*
X011887Y009358D01*
X011887Y008660D01*
X011943Y008669D01*
X012010Y008691D01*
X012073Y008723D01*
X012130Y008765D01*
X012180Y008815D01*
X012222Y008872D01*
X012254Y008935D01*
X012276Y009003D01*
X012287Y009073D01*
X012287Y009358D01*
X011887Y009358D01*
X011887Y009458D01*
X011787Y009458D01*
X011787Y010128D01*
X012753Y011013D01*
X012758Y011015D01*
X012791Y011048D01*
X012825Y011079D01*
X012827Y011084D01*
X012831Y011089D01*
X012849Y011131D01*
X012868Y011173D01*
X012869Y011179D01*
X012871Y011184D01*
X012871Y011230D01*
X012873Y011276D01*
X012871Y011282D01*
X012871Y012612D01*
X012890Y012593D01*
X013033Y012533D01*
X013121Y012533D01*
X013219Y012429D02*
X012871Y012429D01*
X012871Y012330D02*
X013312Y012330D01*
X013405Y012232D02*
X012871Y012232D01*
X012871Y012133D02*
X013498Y012133D01*
X013590Y012035D02*
X012871Y012035D01*
X012871Y011936D02*
X013683Y011936D01*
X013776Y011838D02*
X012871Y011838D01*
X012871Y011739D02*
X013869Y011739D01*
X013964Y011640D02*
X014008Y011622D01*
X014051Y011603D01*
X014055Y011602D01*
X014059Y011601D01*
X014107Y011601D01*
X014155Y011599D01*
X014159Y011601D01*
X019794Y011601D01*
X019942Y011443D02*
X012871Y011443D01*
X012871Y011345D02*
X020035Y011345D01*
X020127Y011246D02*
X012871Y011246D01*
X012857Y011148D02*
X020220Y011148D01*
X020313Y011049D02*
X012792Y011049D01*
X012684Y010951D02*
X020405Y010951D01*
X020498Y010852D02*
X012577Y010852D01*
X012469Y010754D02*
X020591Y010754D01*
X020684Y010655D02*
X012362Y010655D01*
X012254Y010556D02*
X020776Y010556D01*
X020869Y010458D02*
X012147Y010458D01*
X012039Y010359D02*
X020962Y010359D01*
X021054Y010261D02*
X011932Y010261D01*
X011887Y010156D02*
X011887Y009458D01*
X012287Y009458D01*
X012287Y009744D01*
X012276Y009813D01*
X012254Y009881D01*
X012222Y009944D01*
X012180Y010001D01*
X012130Y010051D01*
X012073Y010093D01*
X012010Y010125D01*
X011943Y010147D01*
X011887Y010156D01*
X011824Y010162D02*
X012601Y010162D01*
X012548Y010140D02*
X012405Y009997D01*
X012327Y009810D01*
X012327Y009007D01*
X012405Y008819D01*
X012548Y008676D01*
X012736Y008598D01*
X012939Y008598D01*
X013126Y008676D01*
X013270Y008819D01*
X013347Y009007D01*
X013347Y009810D01*
X013270Y009997D01*
X013126Y010140D01*
X012939Y010218D01*
X012736Y010218D01*
X012548Y010140D01*
X012472Y010064D02*
X012113Y010064D01*
X012207Y009965D02*
X012392Y009965D01*
X012351Y009867D02*
X012259Y009867D01*
X012283Y009768D02*
X012327Y009768D01*
X012327Y009670D02*
X012287Y009670D01*
X012287Y009571D02*
X012327Y009571D01*
X012327Y009472D02*
X012287Y009472D01*
X012327Y009374D02*
X011887Y009374D01*
X011887Y009472D02*
X011787Y009472D01*
X011787Y009374D02*
X011236Y009374D01*
X011236Y009275D02*
X011387Y009275D01*
X011387Y009177D02*
X011236Y009177D01*
X011236Y009078D02*
X011387Y009078D01*
X011406Y008980D02*
X010944Y008980D01*
X010732Y008881D02*
X011448Y008881D01*
X011526Y008783D02*
X010634Y008783D01*
X010536Y008684D02*
X011686Y008684D01*
X011787Y008684D02*
X011887Y008684D01*
X011887Y008783D02*
X011787Y008783D01*
X011787Y008881D02*
X011887Y008881D01*
X011887Y008980D02*
X011787Y008980D01*
X011787Y009078D02*
X011887Y009078D01*
X011887Y009177D02*
X011787Y009177D01*
X011787Y009275D02*
X011887Y009275D01*
X012287Y009275D02*
X012327Y009275D01*
X012327Y009177D02*
X012287Y009177D01*
X012287Y009078D02*
X012327Y009078D01*
X012338Y008980D02*
X012269Y008980D01*
X012227Y008881D02*
X012379Y008881D01*
X012441Y008783D02*
X012148Y008783D01*
X011989Y008684D02*
X012540Y008684D01*
X013134Y008684D02*
X036422Y008684D01*
X036387Y008769D02*
X036458Y008597D01*
X036589Y008465D01*
X036761Y008394D01*
X037462Y008394D01*
X037634Y008465D01*
X037765Y008597D01*
X037836Y008769D01*
X037836Y008955D01*
X037765Y009127D01*
X037634Y009258D01*
X037462Y009329D01*
X036761Y009329D01*
X036589Y009258D01*
X036458Y009127D01*
X036387Y008955D01*
X036387Y008769D01*
X036387Y008783D02*
X024988Y008783D01*
X025189Y008881D02*
X036387Y008881D01*
X036397Y008980D02*
X025287Y008980D01*
X025348Y009078D02*
X036438Y009078D01*
X036508Y009177D02*
X025389Y009177D01*
X025407Y009275D02*
X036631Y009275D01*
X036761Y009394D02*
X036589Y009465D01*
X036458Y009597D01*
X036387Y009769D01*
X036387Y009955D01*
X036458Y010127D01*
X036589Y010258D01*
X036761Y010329D01*
X037462Y010329D01*
X037634Y010258D01*
X037765Y010127D01*
X037836Y009955D01*
X037836Y009769D01*
X037765Y009597D01*
X037634Y009465D01*
X037462Y009394D01*
X036761Y009394D01*
X036582Y009472D02*
X025396Y009472D01*
X025407Y009374D02*
X037861Y009374D01*
X037861Y009472D02*
X037641Y009472D01*
X037739Y009571D02*
X037861Y009571D01*
X037861Y009670D02*
X037795Y009670D01*
X037836Y009768D02*
X037861Y009768D01*
X037861Y009867D02*
X037836Y009867D01*
X037832Y009965D02*
X037861Y009965D01*
X037861Y010064D02*
X037791Y010064D01*
X037730Y010162D02*
X037861Y010162D01*
X037861Y010261D02*
X037627Y010261D01*
X037616Y010458D02*
X037861Y010458D01*
X037861Y010556D02*
X037725Y010556D01*
X037765Y010597D02*
X037836Y010769D01*
X037836Y010955D01*
X037765Y011127D01*
X037634Y011258D01*
X037462Y011329D01*
X036761Y011329D01*
X036589Y011258D01*
X036458Y011127D01*
X036387Y010955D01*
X036387Y010769D01*
X036458Y010597D01*
X036589Y010465D01*
X036761Y010394D01*
X037462Y010394D01*
X037634Y010465D01*
X037765Y010597D01*
X037789Y010655D02*
X037861Y010655D01*
X037861Y010754D02*
X037830Y010754D01*
X037836Y010852D02*
X037861Y010852D01*
X037861Y010951D02*
X037836Y010951D01*
X037861Y011049D02*
X037797Y011049D01*
X037744Y011148D02*
X037861Y011148D01*
X037861Y011246D02*
X037646Y011246D01*
X037580Y011443D02*
X037861Y011443D01*
X037861Y011345D02*
X023349Y011345D01*
X023250Y011443D02*
X036643Y011443D01*
X036589Y011465D02*
X036761Y011394D01*
X037462Y011394D01*
X037634Y011465D01*
X037765Y011597D01*
X037836Y011769D01*
X037836Y011955D01*
X037765Y012127D01*
X037634Y012258D01*
X037462Y012329D01*
X036761Y012329D01*
X036589Y012258D01*
X036458Y012127D01*
X036387Y011955D01*
X036387Y011769D01*
X036458Y011597D01*
X036589Y011465D01*
X036513Y011542D02*
X023152Y011542D01*
X022965Y011361D02*
X024843Y009483D01*
X024843Y009333D01*
X025355Y009571D02*
X036484Y009571D01*
X036428Y009670D02*
X025305Y009670D01*
X025206Y009768D02*
X036387Y009768D01*
X036387Y009867D02*
X025030Y009867D01*
X024729Y009965D02*
X036391Y009965D01*
X036432Y010064D02*
X024630Y010064D01*
X024531Y010162D02*
X036494Y010162D01*
X036596Y010261D02*
X024433Y010261D01*
X024334Y010359D02*
X037861Y010359D01*
X036607Y010458D02*
X024236Y010458D01*
X024137Y010556D02*
X036498Y010556D01*
X036434Y010655D02*
X024039Y010655D01*
X023940Y010754D02*
X036393Y010754D01*
X036387Y010852D02*
X023842Y010852D01*
X023743Y010951D02*
X036387Y010951D01*
X036426Y011049D02*
X023645Y011049D01*
X023546Y011148D02*
X036479Y011148D01*
X036577Y011246D02*
X023447Y011246D01*
X022965Y011361D02*
X021361Y011361D01*
X019861Y012861D01*
X014361Y012861D01*
X014067Y013119D02*
X014042Y013119D01*
X013944Y013217D02*
X014202Y013217D01*
X014520Y013217D02*
X017919Y013217D01*
X017878Y013316D02*
X012871Y013316D01*
X012871Y013414D02*
X017871Y013414D01*
X017881Y013513D02*
X012880Y013513D01*
X012979Y013611D02*
X017922Y013611D01*
X018008Y013710D02*
X013077Y013710D01*
X013176Y013808D02*
X021906Y013808D01*
X021807Y013710D02*
X019463Y013710D01*
X019550Y013611D02*
X021765Y013611D01*
X021724Y013513D02*
X019591Y013513D01*
X019601Y013414D02*
X021719Y013414D01*
X021719Y013316D02*
X019594Y013316D01*
X019553Y013217D02*
X021744Y013217D01*
X021785Y013119D02*
X019918Y013119D01*
X020069Y013020D02*
X021854Y013020D01*
X021953Y012921D02*
X020168Y012921D01*
X020266Y012823D02*
X036387Y012823D01*
X036405Y012724D02*
X020365Y012724D01*
X020464Y012626D02*
X036446Y012626D01*
X036527Y012527D02*
X020562Y012527D01*
X020661Y012429D02*
X036678Y012429D01*
X036563Y012232D02*
X020858Y012232D01*
X020956Y012133D02*
X036464Y012133D01*
X036420Y012035D02*
X021055Y012035D01*
X021153Y011936D02*
X036387Y011936D01*
X036387Y011838D02*
X021252Y011838D01*
X021350Y011739D02*
X036399Y011739D01*
X036440Y011640D02*
X021449Y011640D01*
X022189Y011049D02*
X022909Y011049D01*
X023008Y010951D02*
X022278Y010951D01*
X022366Y010852D02*
X023106Y010852D01*
X023205Y010754D02*
X022455Y010754D01*
X022544Y010655D02*
X023303Y010655D01*
X023402Y010556D02*
X022633Y010556D01*
X022722Y010458D02*
X023500Y010458D01*
X023599Y010359D02*
X022811Y010359D01*
X022900Y010261D02*
X023698Y010261D01*
X023796Y010162D02*
X022989Y010162D01*
X023077Y010064D02*
X023895Y010064D01*
X023993Y009965D02*
X023166Y009965D01*
X023255Y009867D02*
X024092Y009867D01*
X024190Y009768D02*
X023661Y009768D01*
X023767Y009670D02*
X024289Y009670D01*
X024330Y009571D02*
X023836Y009571D01*
X023877Y009472D02*
X024290Y009472D01*
X024278Y009374D02*
X023893Y009374D01*
X023893Y009275D02*
X024278Y009275D01*
X024297Y009177D02*
X023870Y009177D01*
X023829Y009078D02*
X024338Y009078D01*
X024398Y008980D02*
X023749Y008980D01*
X023619Y008881D02*
X024497Y008881D01*
X024697Y008783D02*
X022429Y008783D01*
X022630Y008881D02*
X023153Y008881D01*
X023023Y008980D02*
X022728Y008980D01*
X022789Y009078D02*
X022943Y009078D01*
X022902Y009177D02*
X022830Y009177D01*
X022848Y009275D02*
X022879Y009275D01*
X022879Y009374D02*
X022848Y009374D01*
X022837Y009472D02*
X022895Y009472D01*
X022822Y009571D02*
X022796Y009571D01*
X022284Y009333D02*
X019906Y011861D01*
X014111Y011861D01*
X013111Y012923D01*
X013711Y012898D02*
X013711Y012761D01*
X014111Y012361D01*
X019861Y012361D01*
X021361Y010861D01*
X022009Y010861D01*
X023386Y009333D01*
X022138Y008783D02*
X013233Y008783D01*
X013295Y008881D02*
X021938Y008881D01*
X021839Y008980D02*
X013336Y008980D01*
X013347Y009078D02*
X021778Y009078D01*
X021738Y009177D02*
X013347Y009177D01*
X013347Y009275D02*
X021719Y009275D01*
X021719Y009374D02*
X013347Y009374D01*
X013347Y009472D02*
X021731Y009472D01*
X021703Y009571D02*
X013347Y009571D01*
X013347Y009670D02*
X021610Y009670D01*
X021518Y009768D02*
X013347Y009768D01*
X013324Y009867D02*
X021425Y009867D01*
X021332Y009965D02*
X013283Y009965D01*
X013203Y010064D02*
X021240Y010064D01*
X021147Y010162D02*
X013073Y010162D01*
X011887Y010064D02*
X011787Y010064D01*
X011787Y009965D02*
X011887Y009965D01*
X011887Y009867D02*
X011787Y009867D01*
X011787Y009768D02*
X011887Y009768D01*
X011887Y009670D02*
X011787Y009670D01*
X011787Y009571D02*
X011887Y009571D01*
X011387Y009571D02*
X010439Y009571D01*
X010340Y009472D02*
X011387Y009472D01*
X011387Y009670D02*
X011287Y009670D01*
X011111Y009861D02*
X010361Y009861D01*
X007861Y007361D01*
X008219Y007206D02*
X008448Y007206D01*
X008545Y007305D02*
X008251Y007305D01*
X008271Y007403D02*
X008643Y007403D01*
X008741Y007502D02*
X008369Y007502D01*
X008468Y007600D02*
X008839Y007600D01*
X008937Y007699D02*
X008566Y007699D01*
X008665Y007797D02*
X009034Y007797D01*
X009132Y007896D02*
X008763Y007896D01*
X008862Y007994D02*
X009230Y007994D01*
X009328Y008093D02*
X008961Y008093D01*
X009059Y008191D02*
X009426Y008191D01*
X009523Y008290D02*
X009158Y008290D01*
X009256Y008389D02*
X009621Y008389D01*
X009719Y008487D02*
X009355Y008487D01*
X009453Y008586D02*
X009817Y008586D01*
X009915Y008684D02*
X009552Y008684D01*
X009650Y008783D02*
X010012Y008783D01*
X010110Y008881D02*
X009749Y008881D01*
X009847Y008980D02*
X010208Y008980D01*
X010306Y009078D02*
X009946Y009078D01*
X010045Y009177D02*
X010403Y009177D01*
X010501Y009275D02*
X010143Y009275D01*
X010242Y009374D02*
X010599Y009374D01*
X011111Y009861D02*
X012611Y011236D01*
X012611Y013611D01*
X015361Y016361D01*
X015361Y017111D01*
X014421Y017454D02*
X013800Y017454D01*
X013917Y017356D02*
X014304Y017356D01*
X014249Y017257D02*
X013972Y017257D01*
X014001Y017159D02*
X014221Y017159D01*
X014221Y017060D02*
X014001Y017060D01*
X013971Y016962D02*
X014250Y016962D01*
X014307Y016863D02*
X013915Y016863D01*
X013871Y016765D02*
X014351Y016765D01*
X014351Y016666D02*
X013871Y016666D01*
X013871Y016568D02*
X014351Y016568D01*
X014351Y016469D02*
X013871Y016469D01*
X013871Y016371D02*
X014351Y016371D01*
X014351Y016272D02*
X013871Y016272D01*
X013871Y016173D02*
X014306Y016173D01*
X014207Y016075D02*
X013871Y016075D01*
X013871Y015976D02*
X014109Y015976D01*
X014010Y015878D02*
X013871Y015878D01*
X013871Y015779D02*
X013912Y015779D01*
X013611Y015611D02*
X011611Y013611D01*
X013275Y013907D02*
X022028Y013907D01*
X021712Y014005D02*
X014272Y014005D01*
X013950Y014005D02*
X013373Y014005D01*
X013472Y014104D02*
X013816Y014104D01*
X013754Y014203D02*
X013570Y014203D01*
X013669Y014301D02*
X013721Y014301D01*
X014111Y014361D02*
X021873Y014361D01*
X022239Y014498D02*
X022381Y014498D01*
X022479Y014597D02*
X022189Y014597D01*
X022085Y014695D02*
X022578Y014695D01*
X022676Y014794D02*
X014161Y014794D01*
X014260Y014892D02*
X022775Y014892D01*
X022873Y014991D02*
X014359Y014991D01*
X014457Y015089D02*
X022972Y015089D01*
X023070Y015188D02*
X014556Y015188D01*
X014654Y015287D02*
X023169Y015287D01*
X023267Y015385D02*
X014753Y015385D01*
X014851Y015484D02*
X023310Y015484D01*
X023381Y015582D02*
X014950Y015582D01*
X015048Y015681D02*
X023535Y015681D01*
X023787Y015681D02*
X026063Y015681D01*
X026162Y015779D02*
X015147Y015779D01*
X015245Y015878D02*
X026260Y015878D01*
X026359Y015976D02*
X015344Y015976D01*
X013611Y015611D02*
X013611Y017111D01*
X013249Y017257D02*
X005122Y017257D01*
X005163Y017159D02*
X013221Y017159D01*
X013221Y017060D02*
X005201Y017060D01*
X005201Y016962D02*
X013250Y016962D01*
X013307Y016863D02*
X005201Y016863D01*
X005201Y016765D02*
X013351Y016765D01*
X013351Y016666D02*
X005173Y016666D01*
X005132Y016568D02*
X013351Y016568D01*
X013351Y016469D02*
X005265Y016469D01*
X006163Y016371D02*
X013351Y016371D01*
X013351Y016272D02*
X006317Y016272D01*
X006416Y016173D02*
X013351Y016173D01*
X013351Y016075D02*
X006514Y016075D01*
X006272Y015582D02*
X000381Y015582D01*
X000381Y015484D02*
X006370Y015484D01*
X006477Y015385D02*
X000381Y015385D01*
X000380Y015287D02*
X005919Y015287D01*
X005820Y015188D02*
X000380Y015188D01*
X000380Y015089D02*
X005722Y015089D01*
X005623Y014991D02*
X000380Y014991D01*
X000380Y014892D02*
X005525Y014892D01*
X005426Y014794D02*
X000379Y014794D01*
X000379Y014695D02*
X004149Y014695D01*
X004045Y014597D02*
X000379Y014597D01*
X000379Y014498D02*
X003996Y014498D01*
X003971Y014400D02*
X000378Y014400D01*
X000378Y014301D02*
X003933Y014301D01*
X003835Y014203D02*
X000378Y014203D01*
X000378Y014104D02*
X003736Y014104D01*
X003639Y014005D02*
X000377Y014005D01*
X000377Y013907D02*
X003601Y013907D01*
X003601Y013808D02*
X000377Y013808D01*
X000377Y013710D02*
X003601Y013710D01*
X003601Y013611D02*
X000376Y013611D01*
X000376Y013513D02*
X003601Y013513D01*
X003601Y013414D02*
X000376Y013414D01*
X000376Y013316D02*
X003601Y013316D01*
X003601Y013217D02*
X000375Y013217D01*
X000375Y013119D02*
X003601Y013119D01*
X003601Y013020D02*
X000375Y013020D01*
X000375Y012921D02*
X003601Y012921D01*
X003601Y012823D02*
X000374Y012823D01*
X000374Y012724D02*
X003601Y012724D01*
X003601Y012626D02*
X000374Y012626D01*
X000374Y012527D02*
X003601Y012527D01*
X003601Y012429D02*
X000374Y012429D01*
X000373Y012330D02*
X003601Y012330D01*
X003601Y012232D02*
X000373Y012232D01*
X000373Y012133D02*
X003601Y012133D01*
X003611Y012035D02*
X000373Y012035D01*
X000372Y011936D02*
X000385Y011936D01*
X000611Y011611D02*
X003611Y011611D01*
X004001Y011603D02*
X004101Y011503D01*
X004101Y008663D01*
X004101Y008559D01*
X004140Y008464D01*
X004351Y008253D01*
X004351Y006913D01*
X004351Y006809D01*
X004389Y006716D01*
X004194Y006716D01*
X003885Y006588D01*
X003649Y006352D01*
X003521Y006043D01*
X003521Y005709D01*
X003649Y005400D01*
X003885Y005164D01*
X004194Y005036D01*
X004528Y005036D01*
X004837Y005164D01*
X005073Y005400D01*
X005201Y005709D01*
X005201Y005903D01*
X005221Y005883D01*
X005221Y005783D01*
X005280Y005640D01*
X005390Y005530D01*
X005533Y005471D01*
X005688Y005471D01*
X005832Y005530D01*
X005941Y005640D01*
X006001Y005783D01*
X006001Y005938D01*
X005941Y006082D01*
X005832Y006191D01*
X005688Y006251D01*
X005589Y006251D01*
X004871Y006969D01*
X004871Y008413D01*
X004831Y008508D01*
X004758Y008581D01*
X004621Y008719D01*
X004621Y008799D01*
X004640Y008780D01*
X004783Y008721D01*
X004938Y008721D01*
X005082Y008780D01*
X005152Y008851D01*
X005084Y008783D02*
X006481Y008783D01*
X006396Y008684D02*
X004655Y008684D01*
X004637Y008783D02*
X004621Y008783D01*
X004754Y008586D02*
X006355Y008586D01*
X006346Y008487D02*
X004840Y008487D01*
X004871Y008389D02*
X006354Y008389D01*
X006395Y008290D02*
X004871Y008290D01*
X004871Y008191D02*
X006479Y008191D01*
X006736Y008486D02*
X008236Y008486D01*
X007979Y008191D02*
X006993Y008191D01*
X007930Y007797D02*
X004871Y007797D01*
X004871Y007699D02*
X007657Y007699D01*
X007549Y007600D02*
X004871Y007600D01*
X004871Y007502D02*
X007497Y007502D01*
X007471Y007403D02*
X004871Y007403D01*
X004871Y007305D02*
X007471Y007305D01*
X007503Y007206D02*
X004871Y007206D01*
X004871Y007107D02*
X007563Y007107D01*
X007691Y007009D02*
X004871Y007009D01*
X004929Y006910D02*
X008154Y006910D01*
X008056Y006812D02*
X005028Y006812D01*
X005126Y006713D02*
X007959Y006713D01*
X007861Y006615D02*
X005225Y006615D01*
X005323Y006516D02*
X007763Y006516D01*
X007665Y006418D02*
X005422Y006418D01*
X005520Y006319D02*
X007568Y006319D01*
X007470Y006221D02*
X005762Y006221D01*
X005901Y006122D02*
X007372Y006122D01*
X007361Y006023D02*
X005966Y006023D01*
X006001Y005925D02*
X007361Y005925D01*
X007361Y005826D02*
X006001Y005826D01*
X005978Y005728D02*
X007361Y005728D01*
X007361Y005629D02*
X005931Y005629D01*
X005832Y005531D02*
X007361Y005531D01*
X007361Y005432D02*
X005086Y005432D01*
X005127Y005531D02*
X005389Y005531D01*
X005291Y005629D02*
X005168Y005629D01*
X005201Y005728D02*
X005244Y005728D01*
X005221Y005826D02*
X005201Y005826D01*
X005611Y005861D02*
X004611Y006861D01*
X004611Y008361D01*
X004361Y008611D01*
X004361Y011611D01*
X003861Y012111D01*
X003861Y013861D01*
X004361Y014361D01*
X004717Y014203D02*
X004835Y014203D01*
X004751Y014301D02*
X004933Y014301D01*
X005032Y014400D02*
X004751Y014400D01*
X004726Y014498D02*
X005131Y014498D01*
X005229Y014597D02*
X004676Y014597D01*
X004573Y014695D02*
X005328Y014695D01*
X004736Y014104D02*
X004656Y014104D01*
X004638Y014005D02*
X004522Y014005D01*
X004539Y013907D02*
X004275Y013907D01*
X004176Y013808D02*
X004441Y013808D01*
X004184Y013710D02*
X004121Y013710D01*
X004361Y013361D02*
X006111Y015111D01*
X011611Y015111D01*
X011376Y014794D02*
X006161Y014794D01*
X004165Y013020D02*
X004121Y013020D01*
X004403Y011936D02*
X004635Y011936D01*
X004536Y011838D02*
X004502Y011838D01*
X004861Y011611D02*
X004861Y010736D01*
X005236Y010361D01*
X006111Y010361D01*
X006361Y010611D01*
X006611Y010611D01*
X004101Y010655D02*
X000369Y010655D01*
X000369Y010556D02*
X004101Y010556D01*
X004101Y010458D02*
X000369Y010458D01*
X000368Y010359D02*
X004101Y010359D01*
X004101Y010261D02*
X000368Y010261D01*
X000368Y010162D02*
X001489Y010162D01*
X001509Y010171D02*
X001322Y010093D01*
X001179Y009950D01*
X001101Y009762D01*
X001101Y008959D01*
X001179Y008772D01*
X001322Y008629D01*
X001509Y008551D01*
X001712Y008551D01*
X001900Y008629D01*
X002043Y008772D01*
X002111Y008935D01*
X002179Y008772D01*
X002322Y008629D01*
X002509Y008551D01*
X002712Y008551D01*
X002900Y008629D01*
X003043Y008772D01*
X003121Y008959D01*
X003121Y009762D01*
X003043Y009950D01*
X002900Y010093D01*
X002712Y010171D01*
X002509Y010171D01*
X002322Y010093D01*
X002179Y009950D01*
X002111Y009786D01*
X002043Y009950D01*
X001900Y010093D01*
X001712Y010171D01*
X001509Y010171D01*
X001733Y010162D02*
X002489Y010162D01*
X002293Y010064D02*
X001929Y010064D01*
X002028Y009965D02*
X002194Y009965D01*
X002144Y009867D02*
X002078Y009867D01*
X002733Y010162D02*
X004101Y010162D01*
X004101Y010064D02*
X002929Y010064D01*
X003028Y009965D02*
X004101Y009965D01*
X004101Y009867D02*
X003078Y009867D01*
X003118Y009768D02*
X004101Y009768D01*
X004101Y009670D02*
X003121Y009670D01*
X003121Y009571D02*
X004101Y009571D01*
X004101Y009472D02*
X003121Y009472D01*
X003121Y009374D02*
X004101Y009374D01*
X004101Y009275D02*
X003121Y009275D01*
X003121Y009177D02*
X004101Y009177D01*
X004101Y009078D02*
X003121Y009078D01*
X003121Y008980D02*
X004101Y008980D01*
X004101Y008881D02*
X003088Y008881D01*
X003048Y008783D02*
X004101Y008783D01*
X004101Y008684D02*
X002955Y008684D01*
X002796Y008586D02*
X004101Y008586D01*
X004131Y008487D02*
X000364Y008487D01*
X000364Y008389D02*
X004216Y008389D01*
X004314Y008290D02*
X000363Y008290D01*
X000363Y008191D02*
X004351Y008191D01*
X004351Y008093D02*
X000363Y008093D01*
X000363Y007994D02*
X004351Y007994D01*
X004351Y007896D02*
X000362Y007896D01*
X000362Y007797D02*
X004351Y007797D01*
X004351Y007699D02*
X000362Y007699D01*
X000362Y007600D02*
X004351Y007600D01*
X004351Y007502D02*
X000361Y007502D01*
X000361Y007403D02*
X004351Y007403D01*
X004351Y007305D02*
X000361Y007305D01*
X000361Y007206D02*
X004351Y007206D01*
X004351Y007107D02*
X000361Y007107D01*
X000360Y007009D02*
X004351Y007009D01*
X004351Y006910D02*
X000360Y006910D01*
X000360Y006812D02*
X004351Y006812D01*
X004187Y006713D02*
X000360Y006713D01*
X000359Y006615D02*
X003949Y006615D01*
X003813Y006516D02*
X000359Y006516D01*
X000359Y006418D02*
X003714Y006418D01*
X003635Y006319D02*
X000359Y006319D01*
X000358Y006221D02*
X003594Y006221D01*
X003554Y006122D02*
X000358Y006122D01*
X000358Y006023D02*
X003521Y006023D01*
X003521Y005925D02*
X000358Y005925D01*
X000357Y005826D02*
X003521Y005826D01*
X003521Y005728D02*
X000357Y005728D01*
X000357Y005629D02*
X003554Y005629D01*
X003595Y005531D02*
X000357Y005531D01*
X000356Y005432D02*
X003636Y005432D01*
X003716Y005334D02*
X000356Y005334D01*
X000356Y005235D02*
X003814Y005235D01*
X003952Y005137D02*
X000356Y005137D01*
X000356Y005038D02*
X004190Y005038D01*
X004532Y005038D02*
X007361Y005038D01*
X007361Y004939D02*
X000355Y004939D01*
X000355Y004841D02*
X007361Y004841D01*
X007361Y004742D02*
X000355Y004742D01*
X000355Y004644D02*
X007361Y004644D01*
X007361Y004545D02*
X000354Y004545D01*
X000354Y004447D02*
X007361Y004447D01*
X007361Y004348D02*
X000354Y004348D01*
X000354Y004250D02*
X007361Y004250D01*
X007361Y004151D02*
X000353Y004151D01*
X000353Y004053D02*
X007361Y004053D01*
X007361Y003954D02*
X000353Y003954D01*
X000353Y003856D02*
X007361Y003856D01*
X007361Y003757D02*
X000352Y003757D01*
X000352Y003658D02*
X007361Y003658D01*
X007361Y003560D02*
X000352Y003560D01*
X000352Y003461D02*
X007361Y003461D01*
X007361Y003363D02*
X000351Y003363D01*
X000351Y003264D02*
X007361Y003264D01*
X007361Y003166D02*
X000351Y003166D01*
X000351Y003131D02*
X000371Y011299D01*
X000390Y011280D01*
X000533Y011221D01*
X000688Y011221D01*
X000832Y011280D01*
X000902Y011351D01*
X003319Y011351D01*
X003390Y011280D01*
X003533Y011221D01*
X003688Y011221D01*
X003832Y011280D01*
X003941Y011390D01*
X004001Y011533D01*
X004001Y011603D01*
X004001Y011542D02*
X004062Y011542D01*
X004101Y011443D02*
X003964Y011443D01*
X003896Y011345D02*
X004101Y011345D01*
X004101Y011246D02*
X003750Y011246D01*
X003472Y011246D02*
X000750Y011246D01*
X000896Y011345D02*
X003325Y011345D01*
X004101Y011148D02*
X000370Y011148D01*
X000371Y011246D02*
X000472Y011246D01*
X000370Y011049D02*
X004101Y011049D01*
X004101Y010951D02*
X000370Y010951D01*
X000370Y010852D02*
X004101Y010852D01*
X004101Y010754D02*
X000369Y010754D01*
X000368Y010064D02*
X001293Y010064D01*
X001194Y009965D02*
X000368Y009965D01*
X000367Y009867D02*
X001144Y009867D01*
X001103Y009768D02*
X000367Y009768D01*
X000367Y009670D02*
X001101Y009670D01*
X001101Y009571D02*
X000367Y009571D01*
X000366Y009472D02*
X001101Y009472D01*
X001101Y009374D02*
X000366Y009374D01*
X000366Y009275D02*
X001101Y009275D01*
X001101Y009177D02*
X000366Y009177D01*
X000365Y009078D02*
X001101Y009078D01*
X001101Y008980D02*
X000365Y008980D01*
X000365Y008881D02*
X001133Y008881D01*
X001174Y008783D02*
X000365Y008783D01*
X000364Y008684D02*
X001266Y008684D01*
X001426Y008586D02*
X000364Y008586D01*
X001796Y008586D02*
X002426Y008586D01*
X002266Y008684D02*
X001955Y008684D01*
X002048Y008783D02*
X002174Y008783D01*
X002133Y008881D02*
X002088Y008881D01*
X004871Y008093D02*
X008225Y008093D01*
X008127Y007994D02*
X004871Y007994D01*
X004871Y007896D02*
X008028Y007896D01*
X009168Y007305D02*
X011371Y007305D01*
X011371Y007403D02*
X009266Y007403D01*
X009363Y007502D02*
X011371Y007502D01*
X011371Y007600D02*
X009461Y007600D01*
X009559Y007699D02*
X011371Y007699D01*
X011371Y007738D02*
X011371Y006983D01*
X011445Y006803D01*
X011583Y006665D01*
X011763Y006591D01*
X011958Y006591D01*
X012138Y006665D01*
X012276Y006803D01*
X012351Y006983D01*
X012351Y007738D01*
X012276Y007918D01*
X012138Y008056D01*
X011958Y008131D01*
X011763Y008131D01*
X011583Y008056D01*
X011445Y007918D01*
X011371Y007738D01*
X011395Y007797D02*
X009656Y007797D01*
X009754Y007896D02*
X011436Y007896D01*
X011521Y007994D02*
X009852Y007994D01*
X009950Y008093D02*
X011672Y008093D01*
X012050Y008093D02*
X012672Y008093D01*
X012583Y008056D02*
X012763Y008131D01*
X012958Y008131D01*
X013138Y008056D01*
X013276Y007918D01*
X013351Y007738D01*
X013351Y006983D01*
X013276Y006803D01*
X013138Y006665D01*
X012958Y006591D01*
X012763Y006591D01*
X012583Y006665D01*
X012445Y006803D01*
X012371Y006983D01*
X012371Y007738D01*
X012445Y007918D01*
X012583Y008056D01*
X012521Y007994D02*
X012200Y007994D01*
X012286Y007896D02*
X012436Y007896D01*
X012395Y007797D02*
X012326Y007797D01*
X012351Y007699D02*
X012371Y007699D01*
X012371Y007600D02*
X012351Y007600D01*
X012351Y007502D02*
X012371Y007502D01*
X012371Y007403D02*
X012351Y007403D01*
X012351Y007305D02*
X012371Y007305D01*
X012371Y007206D02*
X012351Y007206D01*
X012351Y007107D02*
X012371Y007107D01*
X012371Y007009D02*
X012351Y007009D01*
X012321Y006910D02*
X012401Y006910D01*
X012442Y006812D02*
X012280Y006812D01*
X012186Y006713D02*
X012535Y006713D01*
X012706Y006615D02*
X012016Y006615D01*
X011706Y006615D02*
X008484Y006615D01*
X008581Y006713D02*
X011535Y006713D01*
X011442Y006812D02*
X008679Y006812D01*
X008777Y006910D02*
X011401Y006910D01*
X011371Y007009D02*
X008875Y007009D01*
X008972Y007107D02*
X011371Y007107D01*
X011371Y007206D02*
X009070Y007206D01*
X008350Y007107D02*
X008159Y007107D01*
X008252Y007009D02*
X008030Y007009D01*
X008386Y006516D02*
X015901Y006516D01*
X015901Y006563D02*
X015901Y006459D01*
X015940Y006364D01*
X018501Y003803D01*
X018501Y002913D01*
X018501Y002809D01*
X018540Y002714D01*
X018821Y002433D01*
X018821Y002333D01*
X018880Y002190D01*
X018990Y002080D01*
X019133Y002021D01*
X019288Y002021D01*
X019432Y002080D01*
X019541Y002190D01*
X019601Y002333D01*
X019601Y002488D01*
X019541Y002632D01*
X019432Y002741D01*
X019288Y002801D01*
X019189Y002801D01*
X019021Y002969D01*
X022261Y002969D01*
X022261Y003067D02*
X019021Y003067D01*
X019021Y002969D02*
X019021Y003963D01*
X018981Y004058D01*
X018908Y004131D01*
X016421Y006619D01*
X016421Y007094D01*
X016461Y007134D01*
X016501Y007094D01*
X016501Y006809D01*
X016540Y006714D01*
X016614Y006640D01*
X018546Y004708D01*
X018546Y004608D01*
X018605Y004465D01*
X018715Y004355D01*
X018858Y004296D01*
X019013Y004296D01*
X019157Y004355D01*
X019266Y004465D01*
X019326Y004608D01*
X019326Y004763D01*
X019266Y004907D01*
X019157Y005016D01*
X019013Y005076D01*
X018914Y005076D01*
X017021Y006969D01*
X017021Y007094D01*
X017091Y007165D01*
X017151Y007308D01*
X017151Y007463D01*
X017091Y007607D01*
X016982Y007716D01*
X016838Y007776D01*
X016683Y007776D01*
X016540Y007716D01*
X016461Y007637D01*
X016382Y007716D01*
X016238Y007776D01*
X016083Y007776D01*
X015940Y007716D01*
X015830Y007607D01*
X015771Y007463D01*
X015771Y007308D01*
X015830Y007165D01*
X015901Y007094D01*
X015901Y006563D01*
X015901Y006615D02*
X014016Y006615D01*
X013958Y006591D02*
X014138Y006665D01*
X014276Y006803D01*
X014351Y006983D01*
X014351Y007738D01*
X014276Y007918D01*
X014138Y008056D01*
X013958Y008131D01*
X013763Y008131D01*
X013583Y008056D01*
X013445Y007918D01*
X013371Y007738D01*
X013371Y006983D01*
X013445Y006803D01*
X013583Y006665D01*
X013763Y006591D01*
X013958Y006591D01*
X013706Y006615D02*
X013016Y006615D01*
X013186Y006713D02*
X013535Y006713D01*
X013442Y006812D02*
X013280Y006812D01*
X013321Y006910D02*
X013401Y006910D01*
X013371Y007009D02*
X013351Y007009D01*
X013351Y007107D02*
X013371Y007107D01*
X013371Y007206D02*
X013351Y007206D01*
X013351Y007305D02*
X013371Y007305D01*
X013371Y007403D02*
X013351Y007403D01*
X013351Y007502D02*
X013371Y007502D01*
X013371Y007600D02*
X013351Y007600D01*
X013351Y007699D02*
X013371Y007699D01*
X013395Y007797D02*
X013326Y007797D01*
X013286Y007896D02*
X013436Y007896D01*
X013521Y007994D02*
X013200Y007994D01*
X013050Y008093D02*
X013672Y008093D01*
X014050Y008093D02*
X036444Y008093D01*
X036458Y008127D02*
X036387Y007955D01*
X036387Y007769D01*
X036458Y007597D01*
X036589Y007465D01*
X036761Y007394D01*
X037462Y007394D01*
X037634Y007465D01*
X037765Y007597D01*
X037836Y007769D01*
X037836Y007955D01*
X037765Y008127D01*
X037634Y008258D01*
X037462Y008329D01*
X036761Y008329D01*
X036589Y008258D01*
X036458Y008127D01*
X036523Y008191D02*
X010047Y008191D01*
X010145Y008290D02*
X036666Y008290D01*
X036568Y008487D02*
X010341Y008487D01*
X010438Y008586D02*
X036469Y008586D01*
X036403Y007994D02*
X014200Y007994D01*
X014286Y007896D02*
X036387Y007896D01*
X036387Y007797D02*
X014326Y007797D01*
X014351Y007699D02*
X015922Y007699D01*
X015828Y007600D02*
X014351Y007600D01*
X014351Y007502D02*
X015787Y007502D01*
X015771Y007403D02*
X014351Y007403D01*
X014351Y007305D02*
X015772Y007305D01*
X015813Y007206D02*
X014351Y007206D01*
X014351Y007107D02*
X015888Y007107D01*
X015901Y007009D02*
X014351Y007009D01*
X014321Y006910D02*
X015901Y006910D01*
X015901Y006812D02*
X014280Y006812D01*
X014186Y006713D02*
X015901Y006713D01*
X015918Y006418D02*
X008288Y006418D01*
X008190Y006319D02*
X015985Y006319D01*
X016083Y006221D02*
X008093Y006221D01*
X007995Y006122D02*
X016182Y006122D01*
X016281Y006023D02*
X007897Y006023D01*
X007799Y005925D02*
X016379Y005925D01*
X016478Y005826D02*
X007736Y005826D01*
X007736Y005728D02*
X016576Y005728D01*
X016675Y005629D02*
X007736Y005629D01*
X007736Y005531D02*
X016773Y005531D01*
X016872Y005432D02*
X007736Y005432D01*
X007736Y005334D02*
X016970Y005334D01*
X017069Y005235D02*
X007736Y005235D01*
X007736Y005137D02*
X017167Y005137D01*
X017266Y005038D02*
X007736Y005038D01*
X007736Y004939D02*
X017365Y004939D01*
X017463Y004841D02*
X007736Y004841D01*
X007736Y004742D02*
X017562Y004742D01*
X017660Y004644D02*
X007736Y004644D01*
X007736Y004545D02*
X017759Y004545D01*
X017857Y004447D02*
X007736Y004447D01*
X007736Y004348D02*
X017956Y004348D01*
X018054Y004250D02*
X007736Y004250D01*
X007736Y004151D02*
X018153Y004151D01*
X018251Y004053D02*
X007736Y004053D01*
X007736Y003954D02*
X018350Y003954D01*
X018449Y003856D02*
X007736Y003856D01*
X007736Y003757D02*
X018501Y003757D01*
X018501Y003658D02*
X007736Y003658D01*
X007736Y003560D02*
X018501Y003560D01*
X018501Y003461D02*
X007736Y003461D01*
X007736Y003363D02*
X018501Y003363D01*
X018501Y003264D02*
X007736Y003264D01*
X007736Y003166D02*
X018501Y003166D01*
X018501Y003067D02*
X007736Y003067D01*
X007736Y002969D02*
X018501Y002969D01*
X018501Y002870D02*
X007736Y002870D01*
X007736Y002772D02*
X018516Y002772D01*
X018581Y002673D02*
X007736Y002673D01*
X007736Y002574D02*
X018680Y002574D01*
X018778Y002476D02*
X007736Y002476D01*
X007736Y002377D02*
X018821Y002377D01*
X018843Y002279D02*
X007736Y002279D01*
X007736Y002180D02*
X018890Y002180D01*
X018988Y002082D02*
X007736Y002082D01*
X007736Y001983D02*
X022261Y001983D01*
X022261Y001885D02*
X007736Y001885D01*
X007736Y001786D02*
X022261Y001786D01*
X022261Y001688D02*
X007736Y001688D01*
X007736Y001589D02*
X022261Y001589D01*
X022261Y001490D02*
X007736Y001490D01*
X007736Y001392D02*
X022261Y001392D01*
X022261Y001293D02*
X007736Y001293D01*
X007736Y001195D02*
X022261Y001195D01*
X022261Y001096D02*
X007736Y001096D01*
X007736Y000998D02*
X022261Y000998D01*
X022261Y000899D02*
X007736Y000899D01*
X007736Y000801D02*
X022261Y000801D01*
X022261Y000702D02*
X007736Y000702D01*
X007736Y000604D02*
X022261Y000604D01*
X022261Y000505D02*
X007736Y000505D01*
X007736Y000406D02*
X022261Y000406D01*
X022261Y002082D02*
X019433Y002082D01*
X019532Y002180D02*
X022261Y002180D01*
X022261Y002279D02*
X019578Y002279D01*
X019601Y002377D02*
X022261Y002377D01*
X022261Y002476D02*
X019601Y002476D01*
X019565Y002574D02*
X022261Y002574D01*
X022261Y002673D02*
X019500Y002673D01*
X019359Y002772D02*
X022261Y002772D01*
X022261Y002870D02*
X019119Y002870D01*
X019021Y003166D02*
X022261Y003166D01*
X019211Y002411D02*
X018761Y002861D01*
X018761Y003911D01*
X016161Y006511D01*
X016161Y007386D01*
X016434Y007107D02*
X016488Y007107D01*
X016501Y007009D02*
X016421Y007009D01*
X016421Y006910D02*
X016501Y006910D01*
X016501Y006812D02*
X016421Y006812D01*
X016421Y006713D02*
X016541Y006713D01*
X016614Y006640D02*
X016614Y006640D01*
X016639Y006615D02*
X016425Y006615D01*
X016523Y006516D02*
X016738Y006516D01*
X016836Y006418D02*
X016622Y006418D01*
X016720Y006319D02*
X016935Y006319D01*
X017034Y006221D02*
X016819Y006221D01*
X016917Y006122D02*
X017132Y006122D01*
X017231Y006023D02*
X017016Y006023D01*
X017114Y005925D02*
X017329Y005925D01*
X017428Y005826D02*
X017213Y005826D01*
X017312Y005728D02*
X017526Y005728D01*
X017625Y005629D02*
X017410Y005629D01*
X017509Y005531D02*
X017723Y005531D01*
X017822Y005432D02*
X017607Y005432D01*
X017706Y005334D02*
X017920Y005334D01*
X018019Y005235D02*
X017804Y005235D01*
X017903Y005137D02*
X018117Y005137D01*
X018216Y005038D02*
X018001Y005038D01*
X018100Y004939D02*
X018315Y004939D01*
X018413Y004841D02*
X018198Y004841D01*
X018297Y004742D02*
X018512Y004742D01*
X018546Y004644D02*
X018396Y004644D01*
X018494Y004545D02*
X018572Y004545D01*
X018593Y004447D02*
X018623Y004447D01*
X018691Y004348D02*
X018732Y004348D01*
X018790Y004250D02*
X032782Y004250D01*
X032881Y004348D02*
X019140Y004348D01*
X019248Y004447D02*
X032979Y004447D01*
X033078Y004545D02*
X019300Y004545D01*
X019326Y004644D02*
X033176Y004644D01*
X033275Y004742D02*
X019326Y004742D01*
X019294Y004841D02*
X033373Y004841D01*
X033472Y004939D02*
X019234Y004939D01*
X019105Y005038D02*
X020134Y005038D01*
X020139Y005036D02*
X020473Y005036D01*
X020781Y005164D01*
X021018Y005400D01*
X021146Y005709D01*
X021146Y006043D01*
X021018Y006352D01*
X020781Y006588D01*
X020473Y006716D01*
X020139Y006716D01*
X019830Y006588D01*
X019594Y006352D01*
X019466Y006043D01*
X019466Y005709D01*
X019594Y005400D01*
X019830Y005164D01*
X020139Y005036D01*
X019897Y005137D02*
X018853Y005137D01*
X018754Y005235D02*
X019759Y005235D01*
X019660Y005334D02*
X018656Y005334D01*
X018557Y005432D02*
X019581Y005432D01*
X019540Y005531D02*
X018459Y005531D01*
X018360Y005629D02*
X019499Y005629D01*
X019466Y005728D02*
X018261Y005728D01*
X018163Y005826D02*
X019466Y005826D01*
X019466Y005925D02*
X018064Y005925D01*
X017966Y006023D02*
X019466Y006023D01*
X019498Y006122D02*
X017867Y006122D01*
X017769Y006221D02*
X019539Y006221D01*
X019580Y006319D02*
X017670Y006319D01*
X017572Y006418D02*
X019659Y006418D01*
X019758Y006516D02*
X017473Y006516D01*
X017375Y006615D02*
X019894Y006615D01*
X020132Y006713D02*
X017276Y006713D01*
X017178Y006812D02*
X035344Y006812D01*
X035371Y006839D02*
X032683Y004151D01*
X032583Y004151D01*
X032440Y004091D01*
X032330Y003982D01*
X032271Y003838D01*
X032271Y003683D01*
X032330Y003540D01*
X032440Y003430D01*
X032583Y003371D01*
X032738Y003371D01*
X032882Y003430D01*
X032991Y003540D01*
X033051Y003683D01*
X033051Y003783D01*
X035739Y006471D01*
X035838Y006471D01*
X035982Y006530D01*
X036091Y006640D01*
X036151Y006783D01*
X036151Y006938D01*
X036091Y007082D01*
X035982Y007191D01*
X035838Y007251D01*
X035683Y007251D01*
X035540Y007191D01*
X035430Y007082D01*
X035371Y006938D01*
X035371Y006839D01*
X035371Y006910D02*
X017079Y006910D01*
X017021Y007009D02*
X035400Y007009D01*
X035456Y007107D02*
X017034Y007107D01*
X017108Y007206D02*
X035575Y007206D01*
X035947Y007206D02*
X036537Y007206D01*
X036589Y007258D02*
X036458Y007127D01*
X036387Y006955D01*
X036387Y006769D01*
X036458Y006597D01*
X036589Y006465D01*
X036761Y006394D01*
X037462Y006394D01*
X037634Y006465D01*
X037765Y006597D01*
X037836Y006769D01*
X037836Y006955D01*
X037765Y007127D01*
X037634Y007258D01*
X037462Y007329D01*
X036761Y007329D01*
X036589Y007258D01*
X036702Y007305D02*
X017149Y007305D01*
X017151Y007403D02*
X036740Y007403D01*
X036553Y007502D02*
X017135Y007502D01*
X017094Y007600D02*
X036456Y007600D01*
X036416Y007699D02*
X017000Y007699D01*
X016761Y007386D02*
X016761Y006861D01*
X018936Y004686D01*
X018888Y004151D02*
X032683Y004151D01*
X032401Y004053D02*
X018984Y004053D01*
X019021Y003954D02*
X032319Y003954D01*
X032278Y003856D02*
X019021Y003856D01*
X019021Y003757D02*
X032271Y003757D01*
X032281Y003658D02*
X019021Y003658D01*
X019021Y003560D02*
X032322Y003560D01*
X032409Y003461D02*
X019021Y003461D01*
X019021Y003363D02*
X037861Y003363D01*
X037861Y003461D02*
X037446Y003461D01*
X037464Y003464D02*
X037401Y003454D01*
X037140Y003454D01*
X037140Y003833D01*
X037083Y003833D01*
X037083Y003454D01*
X036822Y003454D01*
X036759Y003464D01*
X036698Y003484D01*
X036641Y003513D01*
X036589Y003551D01*
X036543Y003596D01*
X036506Y003648D01*
X036476Y003705D01*
X036457Y003766D01*
X036447Y003830D01*
X036447Y003833D01*
X037083Y003833D01*
X037083Y003890D01*
X036447Y003890D01*
X036447Y003894D01*
X036457Y003957D01*
X036476Y004018D01*
X036506Y004075D01*
X036543Y004127D01*
X036589Y004172D01*
X036641Y004210D01*
X036698Y004239D01*
X036759Y004259D01*
X036822Y004269D01*
X037083Y004269D01*
X037083Y003891D01*
X037140Y003891D01*
X037140Y004269D01*
X037401Y004269D01*
X037464Y004259D01*
X037525Y004239D01*
X037583Y004210D01*
X037634Y004172D01*
X037680Y004127D01*
X037718Y004075D01*
X037747Y004018D01*
X037766Y003957D01*
X037776Y003894D01*
X037776Y003890D01*
X037141Y003890D01*
X037141Y003833D01*
X037776Y003833D01*
X037776Y003830D01*
X037766Y003766D01*
X037747Y003705D01*
X037718Y003648D01*
X037680Y003596D01*
X037634Y003551D01*
X037583Y003513D01*
X037525Y003484D01*
X037464Y003464D01*
X037462Y003329D02*
X037634Y003258D01*
X037765Y003126D01*
X037836Y002955D01*
X037836Y002769D01*
X037765Y002597D01*
X037634Y002465D01*
X037462Y002394D01*
X036761Y002394D01*
X036589Y002465D01*
X036458Y002597D01*
X036386Y002769D01*
X036386Y002955D01*
X036458Y003126D01*
X036589Y003258D01*
X036761Y003329D01*
X037462Y003329D01*
X037618Y003264D02*
X037861Y003264D01*
X037861Y003166D02*
X037726Y003166D01*
X037790Y003067D02*
X037861Y003067D01*
X037861Y002969D02*
X037831Y002969D01*
X037836Y002870D02*
X037861Y002870D01*
X037861Y002772D02*
X037836Y002772D01*
X037861Y002673D02*
X037797Y002673D01*
X037743Y002574D02*
X037861Y002574D01*
X037861Y002476D02*
X037644Y002476D01*
X037583Y002279D02*
X037861Y002279D01*
X037861Y002377D02*
X025611Y002377D01*
X025611Y002279D02*
X025640Y002279D01*
X026583Y002279D02*
X036640Y002279D01*
X036589Y002258D02*
X036458Y002126D01*
X036386Y001955D01*
X036386Y001769D01*
X036458Y001597D01*
X036589Y001465D01*
X036761Y001394D01*
X037462Y001394D01*
X037634Y001465D01*
X037765Y001597D01*
X037836Y001769D01*
X037836Y001955D01*
X037765Y002126D01*
X037634Y002258D01*
X037462Y002329D01*
X036761Y002329D01*
X036589Y002258D01*
X036511Y002180D02*
X026711Y002180D01*
X026784Y002082D02*
X036439Y002082D01*
X036398Y001983D02*
X026825Y001983D01*
X026836Y001885D02*
X036386Y001885D01*
X036386Y001786D02*
X026836Y001786D01*
X026803Y001688D02*
X036420Y001688D01*
X036465Y001589D02*
X026757Y001589D01*
X026659Y001490D02*
X036564Y001490D01*
X037659Y001490D02*
X037861Y001490D01*
X037861Y001392D02*
X025611Y001392D01*
X025611Y001293D02*
X037861Y001293D01*
X037861Y001195D02*
X025611Y001195D01*
X025611Y001096D02*
X037861Y001096D01*
X037861Y000998D02*
X025611Y000998D01*
X025611Y000899D02*
X037861Y000899D01*
X037861Y000801D02*
X025611Y000801D01*
X025611Y000702D02*
X037861Y000702D01*
X037861Y000604D02*
X025611Y000604D01*
X025611Y000505D02*
X037861Y000505D01*
X037861Y000406D02*
X025611Y000406D01*
X026644Y002476D02*
X036579Y002476D01*
X036480Y002574D02*
X026743Y002574D01*
X026797Y002673D02*
X036426Y002673D01*
X036386Y002772D02*
X026836Y002772D01*
X026836Y002870D02*
X036386Y002870D01*
X036392Y002969D02*
X026831Y002969D01*
X026790Y003067D02*
X036433Y003067D01*
X036497Y003166D02*
X026726Y003166D01*
X026618Y003264D02*
X036604Y003264D01*
X036777Y003461D02*
X032913Y003461D01*
X033000Y003560D02*
X036580Y003560D01*
X036500Y003658D02*
X033041Y003658D01*
X033051Y003757D02*
X036460Y003757D01*
X036456Y003954D02*
X033222Y003954D01*
X033320Y004053D02*
X036494Y004053D01*
X036567Y004151D02*
X033419Y004151D01*
X033517Y004250D02*
X036730Y004250D01*
X036761Y004394D02*
X036589Y004465D01*
X036458Y004597D01*
X036387Y004769D01*
X036387Y004955D01*
X036458Y005126D01*
X036589Y005258D01*
X036761Y005329D01*
X037462Y005329D01*
X037634Y005258D01*
X037765Y005126D01*
X037836Y004955D01*
X037836Y004769D01*
X037765Y004597D01*
X037634Y004465D01*
X037462Y004394D01*
X036761Y004394D01*
X036634Y004447D02*
X033714Y004447D01*
X033616Y004348D02*
X037861Y004348D01*
X037861Y004250D02*
X037493Y004250D01*
X037656Y004151D02*
X037861Y004151D01*
X037861Y004053D02*
X037729Y004053D01*
X037767Y003954D02*
X037861Y003954D01*
X037861Y003856D02*
X037141Y003856D01*
X037083Y003856D02*
X033123Y003856D01*
X032661Y003761D02*
X035761Y006861D01*
X036122Y007009D02*
X036409Y007009D01*
X036387Y006910D02*
X036151Y006910D01*
X036151Y006812D02*
X036387Y006812D01*
X036410Y006713D02*
X036122Y006713D01*
X036066Y006615D02*
X036450Y006615D01*
X036539Y006516D02*
X035948Y006516D01*
X035685Y006418D02*
X036705Y006418D01*
X036737Y006319D02*
X035587Y006319D01*
X035488Y006221D02*
X036552Y006221D01*
X036589Y006258D02*
X036458Y006126D01*
X036387Y005955D01*
X036387Y005769D01*
X036458Y005597D01*
X036589Y005465D01*
X036761Y005394D01*
X037462Y005394D01*
X037634Y005465D01*
X037765Y005597D01*
X037836Y005769D01*
X037836Y005955D01*
X037765Y006126D01*
X037634Y006258D01*
X037462Y006329D01*
X036761Y006329D01*
X036589Y006258D01*
X036456Y006122D02*
X035390Y006122D01*
X035291Y006023D02*
X036415Y006023D01*
X036387Y005925D02*
X035193Y005925D01*
X035094Y005826D02*
X036387Y005826D01*
X036404Y005728D02*
X034996Y005728D01*
X034897Y005629D02*
X036444Y005629D01*
X036524Y005531D02*
X034798Y005531D01*
X034700Y005432D02*
X036669Y005432D01*
X036566Y005235D02*
X034503Y005235D01*
X034601Y005334D02*
X037861Y005334D01*
X037861Y005432D02*
X037554Y005432D01*
X037699Y005531D02*
X037861Y005531D01*
X037861Y005629D02*
X037779Y005629D01*
X037820Y005728D02*
X037861Y005728D01*
X037861Y005826D02*
X037836Y005826D01*
X037836Y005925D02*
X037861Y005925D01*
X037861Y006023D02*
X037808Y006023D01*
X037767Y006122D02*
X037861Y006122D01*
X037861Y006221D02*
X037671Y006221D01*
X037486Y006319D02*
X037861Y006319D01*
X037861Y006418D02*
X037518Y006418D01*
X037685Y006516D02*
X037861Y006516D01*
X037861Y006615D02*
X037773Y006615D01*
X037814Y006713D02*
X037861Y006713D01*
X037861Y006812D02*
X037836Y006812D01*
X037836Y006910D02*
X037861Y006910D01*
X037861Y007009D02*
X037814Y007009D01*
X037773Y007107D02*
X037861Y007107D01*
X037861Y007206D02*
X037686Y007206D01*
X037522Y007305D02*
X037861Y007305D01*
X037861Y007403D02*
X037483Y007403D01*
X037670Y007502D02*
X037861Y007502D01*
X037861Y007600D02*
X037767Y007600D01*
X037807Y007699D02*
X037861Y007699D01*
X037861Y007797D02*
X037836Y007797D01*
X037836Y007896D02*
X037861Y007896D01*
X037861Y007994D02*
X037820Y007994D01*
X037779Y008093D02*
X037861Y008093D01*
X037861Y008191D02*
X037700Y008191D01*
X037557Y008290D02*
X037861Y008290D01*
X037861Y008389D02*
X010243Y008389D01*
X007361Y005334D02*
X005006Y005334D01*
X004908Y005235D02*
X007361Y005235D01*
X007361Y005137D02*
X004770Y005137D01*
X002746Y003141D02*
X000351Y003131D01*
X002746Y003067D02*
X007361Y003067D01*
X007361Y002969D02*
X002745Y002969D01*
X002745Y002870D02*
X007361Y002870D01*
X007361Y002772D02*
X002745Y002772D01*
X002744Y002673D02*
X007361Y002673D01*
X007361Y002574D02*
X006418Y002574D01*
X006400Y002593D02*
X006212Y002671D01*
X006009Y002671D01*
X005822Y002593D01*
X005679Y002450D01*
X005611Y002286D01*
X005543Y002450D01*
X005400Y002593D01*
X005212Y002671D01*
X005009Y002671D01*
X004822Y002593D01*
X004679Y002450D01*
X004611Y002286D01*
X004543Y002450D01*
X004400Y002593D01*
X004212Y002671D01*
X004009Y002671D01*
X003822Y002593D01*
X003679Y002450D01*
X003601Y002262D01*
X003601Y001459D01*
X003679Y001272D01*
X003822Y001129D01*
X004009Y001051D01*
X004212Y001051D01*
X004400Y001129D01*
X004543Y001272D01*
X004611Y001435D01*
X004679Y001272D01*
X004822Y001129D01*
X005009Y001051D01*
X005212Y001051D01*
X005400Y001129D01*
X005543Y001272D01*
X005611Y001435D01*
X005679Y001272D01*
X005822Y001129D01*
X006009Y001051D01*
X006212Y001051D01*
X006400Y001129D01*
X006543Y001272D01*
X006621Y001459D01*
X006621Y002262D01*
X006543Y002450D01*
X006400Y002593D01*
X006517Y002476D02*
X007361Y002476D01*
X007361Y002377D02*
X006573Y002377D01*
X006614Y002279D02*
X007361Y002279D01*
X007361Y002180D02*
X006621Y002180D01*
X006621Y002082D02*
X007361Y002082D01*
X007361Y001983D02*
X006621Y001983D01*
X006621Y001885D02*
X007361Y001885D01*
X007361Y001786D02*
X006621Y001786D01*
X006621Y001688D02*
X007361Y001688D01*
X007361Y001589D02*
X006621Y001589D01*
X006621Y001490D02*
X007361Y001490D01*
X007361Y001392D02*
X006593Y001392D01*
X006552Y001293D02*
X007361Y001293D01*
X007361Y001195D02*
X006466Y001195D01*
X006322Y001096D02*
X007361Y001096D01*
X007361Y000998D02*
X002738Y000998D01*
X002739Y001096D02*
X003900Y001096D01*
X003756Y001195D02*
X002739Y001195D01*
X002739Y001293D02*
X003670Y001293D01*
X003629Y001392D02*
X002740Y001392D01*
X002740Y001490D02*
X003601Y001490D01*
X003601Y001589D02*
X002740Y001589D01*
X002741Y001688D02*
X003601Y001688D01*
X003601Y001786D02*
X002741Y001786D01*
X002741Y001885D02*
X003601Y001885D01*
X003601Y001983D02*
X002742Y001983D01*
X002742Y002082D02*
X003601Y002082D01*
X003601Y002180D02*
X002742Y002180D01*
X002743Y002279D02*
X003608Y002279D01*
X003649Y002377D02*
X002743Y002377D01*
X002743Y002476D02*
X003705Y002476D01*
X003803Y002574D02*
X002744Y002574D01*
X004418Y002574D02*
X004803Y002574D01*
X004705Y002476D02*
X004517Y002476D01*
X004573Y002377D02*
X004649Y002377D01*
X005418Y002574D02*
X005803Y002574D01*
X005705Y002476D02*
X005517Y002476D01*
X005573Y002377D02*
X005649Y002377D01*
X005629Y001392D02*
X005593Y001392D01*
X005552Y001293D02*
X005670Y001293D01*
X005756Y001195D02*
X005466Y001195D01*
X005322Y001096D02*
X005900Y001096D01*
X004900Y001096D02*
X004322Y001096D01*
X004466Y001195D02*
X004756Y001195D01*
X004670Y001293D02*
X004552Y001293D01*
X004593Y001392D02*
X004629Y001392D01*
X002738Y000899D02*
X007361Y000899D01*
X007361Y000801D02*
X002737Y000801D01*
X002737Y000702D02*
X007361Y000702D01*
X007361Y000604D02*
X002737Y000604D01*
X002736Y000505D02*
X007361Y000505D01*
X007361Y000406D02*
X002736Y000406D01*
X016400Y007699D02*
X016522Y007699D01*
X020480Y006713D02*
X032337Y006713D01*
X032343Y006716D02*
X032035Y006588D01*
X031798Y006352D01*
X031671Y006043D01*
X031671Y005709D01*
X031798Y005400D01*
X032035Y005164D01*
X032343Y005036D01*
X032678Y005036D01*
X032986Y005164D01*
X033222Y005400D01*
X033350Y005709D01*
X033350Y006043D01*
X033222Y006352D01*
X032986Y006588D01*
X032678Y006716D01*
X032343Y006716D01*
X032099Y006615D02*
X020718Y006615D01*
X020854Y006516D02*
X031963Y006516D01*
X031864Y006418D02*
X020952Y006418D01*
X021031Y006319D02*
X031785Y006319D01*
X031744Y006221D02*
X021072Y006221D01*
X021113Y006122D02*
X031703Y006122D01*
X031671Y006023D02*
X021146Y006023D01*
X021146Y005925D02*
X031671Y005925D01*
X031671Y005826D02*
X021146Y005826D01*
X021146Y005728D02*
X031671Y005728D01*
X031704Y005629D02*
X021113Y005629D01*
X021072Y005531D02*
X031744Y005531D01*
X031785Y005432D02*
X021031Y005432D01*
X020951Y005334D02*
X031865Y005334D01*
X031964Y005235D02*
X020852Y005235D01*
X020715Y005137D02*
X032101Y005137D01*
X032339Y005038D02*
X020477Y005038D01*
X019021Y003264D02*
X025604Y003264D01*
X032682Y005038D02*
X033570Y005038D01*
X033669Y005137D02*
X032920Y005137D01*
X033057Y005235D02*
X033767Y005235D01*
X033866Y005334D02*
X033156Y005334D01*
X033236Y005432D02*
X033965Y005432D01*
X034063Y005531D02*
X033276Y005531D01*
X033317Y005629D02*
X034162Y005629D01*
X034260Y005728D02*
X033350Y005728D01*
X033350Y005826D02*
X034359Y005826D01*
X034457Y005925D02*
X033350Y005925D01*
X033350Y006023D02*
X034556Y006023D01*
X034654Y006122D02*
X033318Y006122D01*
X033277Y006221D02*
X034753Y006221D01*
X034851Y006319D02*
X033236Y006319D01*
X033157Y006418D02*
X034950Y006418D01*
X035049Y006516D02*
X033058Y006516D01*
X032922Y006615D02*
X035147Y006615D01*
X035246Y006713D02*
X032684Y006713D01*
X034306Y005038D02*
X036421Y005038D01*
X036387Y004939D02*
X034207Y004939D01*
X034109Y004841D02*
X036387Y004841D01*
X036397Y004742D02*
X034010Y004742D01*
X033912Y004644D02*
X036438Y004644D01*
X036509Y004545D02*
X033813Y004545D01*
X034404Y005137D02*
X036468Y005137D01*
X037657Y005235D02*
X037861Y005235D01*
X037861Y005137D02*
X037755Y005137D01*
X037802Y005038D02*
X037861Y005038D01*
X037861Y004939D02*
X037836Y004939D01*
X037836Y004841D02*
X037861Y004841D01*
X037861Y004742D02*
X037826Y004742D01*
X037861Y004644D02*
X037785Y004644D01*
X037714Y004545D02*
X037861Y004545D01*
X037861Y004447D02*
X037589Y004447D01*
X037140Y004250D02*
X037083Y004250D01*
X037083Y004151D02*
X037140Y004151D01*
X037140Y004053D02*
X037083Y004053D01*
X037083Y003954D02*
X037140Y003954D01*
X037140Y003757D02*
X037083Y003757D01*
X037083Y003658D02*
X037140Y003658D01*
X037140Y003560D02*
X037083Y003560D01*
X037083Y003461D02*
X037140Y003461D01*
X037644Y003560D02*
X037861Y003560D01*
X037861Y003658D02*
X037723Y003658D01*
X037763Y003757D02*
X037861Y003757D01*
X037861Y002180D02*
X037711Y002180D01*
X037784Y002082D02*
X037861Y002082D01*
X037861Y001983D02*
X037825Y001983D01*
X037836Y001885D02*
X037861Y001885D01*
X037861Y001786D02*
X037836Y001786D01*
X037861Y001688D02*
X037803Y001688D01*
X037757Y001589D02*
X037861Y001589D01*
X036450Y007107D02*
X036066Y007107D01*
X037655Y008487D02*
X037861Y008487D01*
X037861Y008586D02*
X037754Y008586D01*
X037801Y008684D02*
X037861Y008684D01*
X037861Y008783D02*
X037836Y008783D01*
X037836Y008881D02*
X037861Y008881D01*
X037861Y008980D02*
X037826Y008980D01*
X037861Y009078D02*
X037785Y009078D01*
X037715Y009177D02*
X037861Y009177D01*
X037861Y009275D02*
X037592Y009275D01*
X037710Y011542D02*
X037861Y011542D01*
X037861Y011640D02*
X037783Y011640D01*
X037824Y011739D02*
X037861Y011739D01*
X037861Y011838D02*
X037836Y011838D01*
X037836Y011936D02*
X037861Y011936D01*
X037861Y012035D02*
X037803Y012035D01*
X037759Y012133D02*
X037861Y012133D01*
X037861Y012232D02*
X037660Y012232D01*
X037861Y012330D02*
X020759Y012330D01*
X019211Y013411D02*
X018261Y013411D01*
X018513Y013710D02*
X018958Y013710D01*
X021662Y014695D02*
X014323Y014695D01*
X013478Y013217D02*
X013369Y013217D01*
X013304Y017356D02*
X005081Y017356D01*
X004994Y017454D02*
X013421Y017454D01*
X012367Y017553D02*
X012105Y017553D01*
X012196Y017652D02*
X012275Y017652D01*
X011617Y017553D02*
X004895Y017553D01*
X004741Y017652D02*
X011525Y017652D01*
X014621Y021495D02*
X014661Y021495D01*
X014707Y021593D02*
X014600Y021593D01*
X014501Y021692D02*
X014805Y021692D01*
X014904Y021790D02*
X014403Y021790D01*
X013819Y021790D02*
X013403Y021790D01*
X013501Y021692D02*
X013721Y021692D01*
X013622Y021593D02*
X013600Y021593D01*
X014160Y022382D02*
X002796Y022382D01*
X003385Y011936D02*
X000837Y011936D01*
X022263Y014400D02*
X022282Y014400D01*
X023214Y014597D02*
X036543Y014597D01*
X036482Y014695D02*
X023313Y014695D01*
X023411Y014794D02*
X036452Y014794D01*
X036447Y014892D02*
X023510Y014892D01*
X023892Y014991D02*
X036468Y014991D01*
X036516Y015089D02*
X023991Y015089D01*
X023611Y015361D02*
X023586Y015336D01*
X025611Y020312D02*
X025720Y020312D01*
X025721Y020411D02*
X025611Y020411D01*
X037083Y015188D02*
X037140Y015188D01*
X037140Y015089D02*
X037083Y015089D01*
X037083Y014991D02*
X037140Y014991D01*
X037140Y014892D02*
X037083Y014892D01*
X037083Y014794D02*
X037140Y014794D01*
X037140Y014695D02*
X037083Y014695D01*
X037083Y014597D02*
X037140Y014597D01*
X037140Y014498D02*
X037083Y014498D01*
X037530Y014301D02*
X037861Y014301D01*
X037861Y014203D02*
X037689Y014203D01*
X037775Y014104D02*
X037861Y014104D01*
X037861Y014005D02*
X037816Y014005D01*
X037836Y013907D02*
X037861Y013907D01*
X037861Y013808D02*
X037836Y013808D01*
X037812Y013710D02*
X037861Y013710D01*
X037861Y013611D02*
X037771Y013611D01*
X037681Y013513D02*
X037861Y013513D01*
X037861Y013414D02*
X037510Y013414D01*
X037495Y013316D02*
X037861Y013316D01*
X037861Y013217D02*
X037675Y013217D01*
X037769Y013119D02*
X037861Y013119D01*
X037861Y013020D02*
X037809Y013020D01*
X037836Y012921D02*
X037861Y012921D01*
X037861Y012823D02*
X037836Y012823D01*
X037818Y012724D02*
X037861Y012724D01*
X037861Y012626D02*
X037777Y012626D01*
X037696Y012527D02*
X037861Y012527D01*
X037861Y012429D02*
X037545Y012429D01*
D17*
X021386Y014861D03*
X018611Y016111D03*
X015611Y014861D03*
X017611Y013361D03*
X012111Y016861D03*
X007423Y014361D03*
X002611Y013861D03*
X005611Y006611D03*
X008861Y006611D03*
X013236Y005611D03*
X016111Y003361D03*
X019611Y004861D03*
X015611Y008861D03*
X016111Y020861D03*
X020761Y021361D03*
D18*
X018011Y021111D03*
X018011Y019161D03*
X015361Y017111D03*
X014611Y017111D03*
X013611Y017111D03*
X012611Y017861D03*
X011861Y017861D03*
X012611Y018861D03*
X011611Y015611D03*
X011611Y015111D03*
X014111Y014361D03*
X013711Y012898D03*
X013111Y012923D03*
X014361Y012861D03*
X011236Y012986D03*
X011236Y012486D03*
X009811Y012811D03*
X009111Y014361D03*
X006486Y012861D03*
X004861Y011611D03*
X003611Y011611D03*
X004861Y010736D03*
X005611Y010736D03*
X006611Y010611D03*
X007361Y010861D03*
X008111Y010111D03*
X008236Y008486D03*
X006736Y008486D03*
X007861Y007361D03*
X005611Y005861D03*
X004861Y009111D03*
X000611Y011611D03*
X004361Y013361D03*
X004361Y014361D03*
X005111Y016111D03*
X018261Y013411D03*
X019211Y013411D03*
X021873Y014361D03*
X023661Y015311D03*
X029361Y018611D03*
X016761Y007386D03*
X016161Y007386D03*
X018936Y004686D03*
X019211Y002411D03*
X032661Y003761D03*
X035761Y006861D03*
M02*
