G75*
%MOIN*%
%OFA0B0*%
%FSLAX24Y24*%
%IPPOS*%
%LPD*%
%AMOC8*
5,1,8,0,0,1.08239X$1,22.5*
%
%ADD10OC8,0.0600*%
%ADD11C,0.0515*%
%ADD12C,0.0594*%
%ADD13C,0.0709*%
%ADD14C,0.0600*%
%ADD15C,0.0560*%
%ADD16C,0.0310*%
%ADD17C,0.0100*%
%ADD18C,0.0396*%
%ADD19C,0.0360*%
D10*
X013105Y020435D03*
X014105Y020435D03*
X015105Y020435D03*
X015105Y021435D03*
X014105Y021435D03*
X013105Y021435D03*
D11*
X025848Y020936D02*
X026363Y020936D01*
X026363Y019936D02*
X025848Y019936D01*
X036848Y019936D02*
X037363Y019936D01*
X037363Y018936D02*
X036848Y018936D01*
X036848Y017936D02*
X037363Y017936D01*
X037363Y016936D02*
X036848Y016936D01*
X036848Y015936D02*
X037363Y015936D01*
X037363Y014936D02*
X036848Y014936D01*
X036848Y013936D02*
X037363Y013936D01*
X037363Y012936D02*
X036848Y012936D01*
X036848Y011936D02*
X037363Y011936D01*
X037363Y010936D02*
X036848Y010936D01*
X036848Y009936D02*
X037363Y009936D01*
X037363Y008936D02*
X036848Y008936D01*
X036848Y007936D02*
X037363Y007936D01*
X037363Y006936D02*
X036848Y006936D01*
X036848Y005936D02*
X037363Y005936D01*
X037363Y004936D02*
X036848Y004936D01*
X036848Y003936D02*
X037363Y003936D01*
X037363Y002936D02*
X036848Y002936D01*
X036848Y001936D02*
X037363Y001936D01*
X026363Y001936D02*
X025848Y001936D01*
X025848Y002936D02*
X026363Y002936D01*
X036848Y020936D02*
X037363Y020936D01*
D12*
X023380Y013463D03*
X023380Y009407D03*
D13*
X022278Y009407D03*
X024837Y009407D03*
X024837Y013463D03*
X022278Y013463D03*
D14*
X012831Y009782D02*
X012831Y009182D01*
X011831Y009182D02*
X011831Y009782D01*
X002605Y009735D02*
X002605Y009135D01*
X001605Y009135D02*
X001605Y009735D01*
X004105Y002235D02*
X004105Y001635D01*
X005105Y001635D02*
X005105Y002235D01*
X006105Y002235D02*
X006105Y001635D01*
D15*
X011855Y007155D02*
X011855Y007715D01*
X012855Y007715D02*
X012855Y007155D01*
X013855Y007155D02*
X013855Y007715D01*
X010855Y011405D02*
X010855Y011965D01*
X009855Y011965D02*
X009855Y011405D01*
X008855Y011405D02*
X008855Y011965D01*
D16*
X007418Y014435D03*
X012105Y016935D03*
X015605Y014935D03*
X017605Y013435D03*
X021380Y014935D03*
X018605Y016185D03*
X016105Y020935D03*
X020755Y021435D03*
X002605Y013935D03*
X005605Y006685D03*
X008855Y006685D03*
X013230Y005685D03*
X015605Y008935D03*
D17*
X002740Y003215D02*
X002730Y000435D01*
X007355Y000435D01*
X007355Y006185D01*
X010605Y009460D01*
X011230Y009460D01*
X011230Y009135D01*
X010780Y009010D01*
X007730Y005935D01*
X007730Y000435D01*
X022255Y000435D01*
X022255Y003285D01*
X025536Y003285D01*
X025583Y003332D01*
X025755Y003403D01*
X026456Y003403D01*
X026628Y003332D01*
X026759Y003201D01*
X026831Y003029D01*
X026831Y002843D01*
X026759Y002671D01*
X026628Y002539D01*
X026456Y002468D01*
X025755Y002468D01*
X025605Y002530D01*
X025605Y002341D01*
X025755Y002403D01*
X026456Y002403D01*
X026628Y002332D01*
X026759Y002201D01*
X026831Y002029D01*
X026831Y001843D01*
X026759Y001671D01*
X026628Y001539D01*
X026456Y001468D01*
X025755Y001468D01*
X025605Y001530D01*
X025605Y000435D01*
X037855Y000435D01*
X037855Y022435D01*
X025605Y022435D01*
X025605Y021341D01*
X025755Y021404D01*
X026456Y021404D01*
X026628Y021332D01*
X026759Y021201D01*
X026831Y021029D01*
X026831Y020843D01*
X026759Y020671D01*
X026628Y020540D01*
X026456Y020469D01*
X025755Y020469D01*
X025605Y020531D01*
X025605Y020341D01*
X025755Y020404D01*
X026456Y020404D01*
X026628Y020332D01*
X026759Y020201D01*
X026831Y020029D01*
X026831Y019843D01*
X026759Y019671D01*
X026628Y019540D01*
X026456Y019469D01*
X025755Y019469D01*
X025583Y019540D01*
X025538Y019585D01*
X022255Y019585D01*
X022255Y022435D01*
X008629Y022470D01*
X002790Y022470D01*
X002760Y019605D01*
X000385Y019605D01*
X000366Y011998D01*
X000384Y012016D01*
X000527Y012075D01*
X000683Y012075D01*
X000826Y012016D01*
X000897Y011945D01*
X003313Y011945D01*
X003384Y012016D01*
X003527Y012075D01*
X003619Y012075D01*
X003595Y012133D01*
X003595Y013987D01*
X003635Y014082D01*
X003708Y014155D01*
X003965Y014413D01*
X003965Y014513D01*
X004024Y014656D01*
X004134Y014766D01*
X004277Y014825D01*
X004433Y014825D01*
X004576Y014766D01*
X004686Y014656D01*
X004745Y014513D01*
X004745Y014357D01*
X004686Y014214D01*
X004576Y014104D01*
X004433Y014045D01*
X004333Y014045D01*
X004115Y013827D01*
X004115Y013747D01*
X004134Y013766D01*
X004277Y013825D01*
X004377Y013825D01*
X005958Y015405D01*
X006053Y015445D01*
X006505Y015445D01*
X006458Y015465D01*
X005997Y015925D01*
X005397Y015925D01*
X005326Y015854D01*
X005183Y015795D01*
X005027Y015795D01*
X004884Y015854D01*
X004774Y015964D01*
X004715Y016107D01*
X004715Y016214D01*
X004522Y016134D01*
X004188Y016134D01*
X003879Y016262D01*
X003643Y016498D01*
X003515Y016807D01*
X003515Y017141D01*
X003643Y017450D01*
X003879Y017686D01*
X004188Y017814D01*
X004522Y017814D01*
X004831Y017686D01*
X005067Y017450D01*
X005195Y017141D01*
X005195Y016807D01*
X005099Y016575D01*
X005183Y016575D01*
X005326Y016516D01*
X005397Y016445D01*
X006157Y016445D01*
X006252Y016405D01*
X006325Y016332D01*
X006713Y015945D01*
X011313Y015945D01*
X011384Y016016D01*
X011527Y016075D01*
X011683Y016075D01*
X011826Y016016D01*
X011936Y015906D01*
X011995Y015763D01*
X011995Y015607D01*
X011936Y015464D01*
X011907Y015435D01*
X011936Y015406D01*
X011995Y015263D01*
X011995Y015107D01*
X011936Y014964D01*
X011826Y014854D01*
X011683Y014795D01*
X011527Y014795D01*
X011384Y014854D01*
X011313Y014925D01*
X006213Y014925D01*
X004745Y013457D01*
X004745Y013357D01*
X004686Y013214D01*
X004576Y013104D01*
X004433Y013045D01*
X004277Y013045D01*
X004134Y013104D01*
X004115Y013123D01*
X004115Y012293D01*
X004502Y011905D01*
X004518Y011890D01*
X004524Y011906D01*
X004634Y012016D01*
X004777Y012075D01*
X004933Y012075D01*
X005076Y012016D01*
X005186Y011906D01*
X005245Y011763D01*
X005245Y011607D01*
X005186Y011464D01*
X005115Y011393D01*
X005115Y011102D01*
X005186Y011031D01*
X005230Y010924D01*
X005274Y011031D01*
X005345Y011102D01*
X005345Y011487D01*
X005385Y011582D01*
X005845Y012043D01*
X005845Y012612D01*
X005885Y012707D01*
X006090Y012913D01*
X006090Y013013D01*
X006149Y013156D01*
X006259Y013266D01*
X006402Y013325D01*
X006558Y013325D01*
X006701Y013266D01*
X006811Y013156D01*
X006815Y013145D01*
X009513Y013145D01*
X009584Y013216D01*
X009727Y013275D01*
X009883Y013275D01*
X009908Y013265D01*
X009127Y014045D01*
X009027Y014045D01*
X008884Y014104D01*
X008774Y014214D01*
X008715Y014357D01*
X008715Y014513D01*
X008774Y014656D01*
X008884Y014766D01*
X009027Y014825D01*
X009183Y014825D01*
X009326Y014766D01*
X009436Y014656D01*
X009495Y014513D01*
X009495Y014413D01*
X010588Y013320D01*
X010938Y013320D01*
X011009Y013391D01*
X011152Y013450D01*
X011308Y013450D01*
X011345Y013434D01*
X011345Y013737D01*
X011385Y013832D01*
X011458Y013905D01*
X011458Y013905D01*
X013345Y015793D01*
X013345Y016893D01*
X013274Y016964D01*
X013215Y017107D01*
X013215Y017263D01*
X013274Y017406D01*
X013384Y017516D01*
X013527Y017575D01*
X013683Y017575D01*
X013826Y017516D01*
X013936Y017406D01*
X013995Y017263D01*
X013995Y017107D01*
X013936Y016964D01*
X013865Y016893D01*
X013865Y015813D01*
X014345Y016293D01*
X014345Y016893D01*
X014274Y016964D01*
X014215Y017107D01*
X014215Y017263D01*
X014274Y017406D01*
X014384Y017516D01*
X014527Y017575D01*
X014683Y017575D01*
X014826Y017516D01*
X014936Y017406D01*
X014980Y017299D01*
X015024Y017406D01*
X015134Y017516D01*
X015277Y017575D01*
X015433Y017575D01*
X015576Y017516D01*
X015686Y017406D01*
X015745Y017263D01*
X015745Y017107D01*
X015686Y016964D01*
X015615Y016893D01*
X015615Y016383D01*
X015575Y016288D01*
X014113Y014825D01*
X014183Y014825D01*
X014326Y014766D01*
X014397Y014695D01*
X021576Y014695D01*
X021647Y014766D01*
X021790Y014825D01*
X021945Y014825D01*
X022088Y014766D01*
X022198Y014656D01*
X022258Y014513D01*
X022258Y014455D01*
X023265Y015463D01*
X023324Y015606D01*
X023434Y015716D01*
X023577Y015775D01*
X023733Y015775D01*
X023876Y015716D01*
X023897Y015695D01*
X025997Y015695D01*
X028965Y018663D01*
X028965Y018763D01*
X029024Y018906D01*
X029134Y019016D01*
X029277Y019075D01*
X029433Y019075D01*
X029576Y019016D01*
X029686Y018906D01*
X029745Y018763D01*
X029745Y018607D01*
X029686Y018464D01*
X029576Y018354D01*
X029433Y018295D01*
X029333Y018295D01*
X026252Y015215D01*
X026157Y015175D01*
X023990Y015175D01*
X023986Y015164D01*
X023876Y015054D01*
X023733Y014995D01*
X023577Y014995D01*
X023546Y015008D01*
X022542Y014004D01*
X022541Y013964D01*
X022598Y013941D01*
X022756Y013782D01*
X022842Y013575D01*
X022842Y013350D01*
X022756Y013143D01*
X022598Y012984D01*
X022390Y012898D01*
X022166Y012898D01*
X021958Y012984D01*
X021799Y013143D01*
X021714Y013350D01*
X021714Y013575D01*
X021799Y013782D01*
X021958Y013941D01*
X022021Y013967D01*
X022022Y014077D01*
X021945Y014045D01*
X021790Y014045D01*
X021647Y014104D01*
X021576Y014175D01*
X014397Y014175D01*
X014326Y014104D01*
X014183Y014045D01*
X014027Y014045D01*
X013884Y014104D01*
X013774Y014214D01*
X013715Y014357D01*
X013715Y014427D01*
X012865Y013577D01*
X012865Y013309D01*
X012884Y013328D01*
X013027Y013388D01*
X013183Y013388D01*
X013326Y013328D01*
X013418Y013237D01*
X013484Y013303D01*
X013627Y013362D01*
X013783Y013362D01*
X013926Y013303D01*
X014036Y013193D01*
X014043Y013175D01*
X014134Y013266D01*
X014277Y013325D01*
X014433Y013325D01*
X014576Y013266D01*
X014647Y013195D01*
X017993Y013195D01*
X017924Y013264D01*
X017865Y013407D01*
X017865Y013563D01*
X017924Y013706D01*
X018034Y013816D01*
X018177Y013875D01*
X018333Y013875D01*
X018476Y013816D01*
X018547Y013745D01*
X018913Y013745D01*
X018984Y013816D01*
X019127Y013875D01*
X019283Y013875D01*
X019426Y013816D01*
X019536Y013706D01*
X019595Y013563D01*
X019595Y013407D01*
X019536Y013264D01*
X019467Y013195D01*
X019907Y013195D01*
X020002Y013155D01*
X021463Y011695D01*
X023011Y011695D01*
X023107Y011655D01*
X024790Y009972D01*
X024949Y009972D01*
X025157Y009886D01*
X025315Y009727D01*
X025401Y009520D01*
X025401Y009295D01*
X025315Y009088D01*
X025157Y008929D01*
X024949Y008843D01*
X024725Y008843D01*
X024517Y008929D01*
X024358Y009088D01*
X024273Y009295D01*
X024273Y009520D01*
X024341Y009685D01*
X022852Y011175D01*
X022103Y011175D01*
X022108Y011173D01*
X022150Y011155D01*
X022155Y011151D01*
X022161Y011148D01*
X022191Y011114D01*
X022223Y011082D01*
X022226Y011076D01*
X023275Y009912D01*
X023279Y009914D01*
X023481Y009914D01*
X023667Y009837D01*
X023810Y009695D01*
X023887Y009508D01*
X023887Y009307D01*
X023810Y009120D01*
X023667Y008978D01*
X023481Y008901D01*
X023279Y008901D01*
X023093Y008978D01*
X022951Y009120D01*
X022873Y009307D01*
X022873Y009508D01*
X022894Y009558D01*
X022769Y009697D01*
X022842Y009520D01*
X022842Y009295D01*
X022756Y009088D01*
X022598Y008929D01*
X022390Y008843D01*
X022166Y008843D01*
X021958Y008929D01*
X021799Y009088D01*
X021714Y009295D01*
X021714Y009520D01*
X021745Y009595D01*
X019788Y011675D01*
X014153Y011675D01*
X014149Y011674D01*
X014101Y011675D01*
X014053Y011675D01*
X014050Y011677D01*
X014045Y011677D01*
X014002Y011696D01*
X013958Y011715D01*
X013955Y011717D01*
X013951Y011719D01*
X013918Y011754D01*
X013885Y011788D01*
X013883Y011791D01*
X013115Y012608D01*
X013027Y012608D01*
X012884Y012667D01*
X012865Y012686D01*
X012865Y011356D01*
X012867Y011350D01*
X012865Y011304D01*
X012865Y011258D01*
X012863Y011253D01*
X012863Y011247D01*
X012843Y011205D01*
X012825Y011163D01*
X012821Y011159D01*
X012819Y011153D01*
X012785Y011122D01*
X012752Y011090D01*
X012747Y011087D01*
X011781Y010202D01*
X011781Y009532D01*
X011781Y009432D01*
X011381Y009432D01*
X011381Y009147D01*
X011392Y009077D01*
X011414Y009010D01*
X011447Y008946D01*
X011488Y008889D01*
X011538Y008839D01*
X011596Y008797D01*
X011659Y008765D01*
X011726Y008743D01*
X011781Y008735D01*
X011781Y009432D01*
X011881Y009432D01*
X011881Y008735D01*
X011937Y008743D01*
X012004Y008765D01*
X012067Y008797D01*
X012125Y008839D01*
X012175Y008889D01*
X012216Y008946D01*
X012248Y009010D01*
X012270Y009077D01*
X012281Y009147D01*
X012281Y009432D01*
X011881Y009432D01*
X011881Y009532D01*
X011781Y009532D01*
X011381Y009532D01*
X011381Y009818D01*
X011385Y009839D01*
X011285Y009747D01*
X011252Y009715D01*
X011247Y009712D01*
X011243Y009708D01*
X011199Y009693D01*
X011157Y009675D01*
X011151Y009675D01*
X011145Y009673D01*
X011099Y009675D01*
X010463Y009675D01*
X008245Y007457D01*
X008245Y007357D01*
X008186Y007214D01*
X008076Y007104D01*
X007933Y007045D01*
X007777Y007045D01*
X007634Y007104D01*
X007524Y007214D01*
X007465Y007357D01*
X007465Y007513D01*
X007524Y007656D01*
X007634Y007766D01*
X007777Y007825D01*
X007877Y007825D01*
X008222Y008170D01*
X008152Y008170D01*
X008009Y008229D01*
X007938Y008300D01*
X007022Y008300D01*
X006951Y008229D01*
X006808Y008170D01*
X006652Y008170D01*
X006509Y008229D01*
X006399Y008339D01*
X006340Y008482D01*
X006340Y008638D01*
X006399Y008781D01*
X006509Y008891D01*
X006592Y008925D01*
X005147Y008925D01*
X005076Y008854D01*
X004933Y008795D01*
X004777Y008795D01*
X004634Y008854D01*
X004615Y008873D01*
X004615Y008793D01*
X004752Y008655D01*
X004825Y008582D01*
X004865Y008487D01*
X004865Y007043D01*
X005583Y006325D01*
X005683Y006325D01*
X005826Y006266D01*
X005936Y006156D01*
X005995Y006013D01*
X005995Y005857D01*
X005936Y005714D01*
X005826Y005604D01*
X005683Y005545D01*
X005527Y005545D01*
X005384Y005604D01*
X005274Y005714D01*
X005215Y005857D01*
X005215Y005957D01*
X005195Y005977D01*
X005195Y005783D01*
X005067Y005475D01*
X004831Y005238D01*
X004522Y005110D01*
X004188Y005110D01*
X003879Y005238D01*
X003643Y005475D01*
X003515Y005783D01*
X003515Y006117D01*
X003643Y006426D01*
X003879Y006662D01*
X004188Y006790D01*
X004384Y006790D01*
X004345Y006883D01*
X000354Y006883D01*
X000354Y006785D02*
X004174Y006785D01*
X004345Y006883D02*
X004345Y008327D01*
X004135Y008538D01*
X004095Y008633D01*
X004095Y011577D01*
X003995Y011677D01*
X003995Y011607D01*
X003936Y011464D01*
X003826Y011354D01*
X003683Y011295D01*
X003527Y011295D01*
X003384Y011354D01*
X003313Y011425D01*
X000897Y011425D01*
X000826Y011354D01*
X000683Y011295D01*
X000527Y011295D01*
X000384Y011354D01*
X000365Y011374D01*
X000345Y003205D01*
X002740Y003215D01*
X002740Y003140D02*
X007355Y003140D01*
X007355Y003042D02*
X002739Y003042D01*
X002739Y002943D02*
X007355Y002943D01*
X007355Y002845D02*
X002739Y002845D01*
X002738Y002746D02*
X007355Y002746D01*
X007355Y002648D02*
X006414Y002648D01*
X006394Y002667D02*
X006206Y002745D01*
X006004Y002745D01*
X005816Y002667D01*
X005673Y002524D01*
X005605Y002361D01*
X005537Y002524D01*
X005394Y002667D01*
X005206Y002745D01*
X005004Y002745D01*
X004816Y002667D01*
X004673Y002524D01*
X004605Y002361D01*
X004537Y002524D01*
X004394Y002667D01*
X004206Y002745D01*
X004004Y002745D01*
X003816Y002667D01*
X003673Y002524D01*
X003595Y002336D01*
X003595Y001534D01*
X003673Y001346D01*
X003816Y001203D01*
X004004Y001125D01*
X004206Y001125D01*
X004394Y001203D01*
X004537Y001346D01*
X004605Y001509D01*
X004673Y001346D01*
X004816Y001203D01*
X005004Y001125D01*
X005206Y001125D01*
X005394Y001203D01*
X005537Y001346D01*
X005605Y001509D01*
X005673Y001346D01*
X005816Y001203D01*
X006004Y001125D01*
X006206Y001125D01*
X006394Y001203D01*
X006537Y001346D01*
X006615Y001534D01*
X006615Y002336D01*
X006537Y002524D01*
X006394Y002667D01*
X006512Y002549D02*
X007355Y002549D01*
X007355Y002451D02*
X006568Y002451D01*
X006609Y002352D02*
X007355Y002352D01*
X007355Y002254D02*
X006615Y002254D01*
X006615Y002155D02*
X007355Y002155D01*
X007355Y002057D02*
X006615Y002057D01*
X006615Y001958D02*
X007355Y001958D01*
X007355Y001860D02*
X006615Y001860D01*
X006615Y001761D02*
X007355Y001761D01*
X007355Y001663D02*
X006615Y001663D01*
X006615Y001564D02*
X007355Y001564D01*
X007355Y001466D02*
X006587Y001466D01*
X006546Y001367D02*
X007355Y001367D01*
X007355Y001269D02*
X006460Y001269D01*
X006315Y001170D02*
X007355Y001170D01*
X007355Y001072D02*
X002732Y001072D01*
X002733Y001170D02*
X003895Y001170D01*
X003750Y001269D02*
X002733Y001269D01*
X002733Y001367D02*
X003664Y001367D01*
X003623Y001466D02*
X002734Y001466D01*
X002734Y001564D02*
X003595Y001564D01*
X003595Y001663D02*
X002734Y001663D01*
X002735Y001761D02*
X003595Y001761D01*
X003595Y001860D02*
X002735Y001860D01*
X002735Y001958D02*
X003595Y001958D01*
X003595Y002057D02*
X002736Y002057D01*
X002736Y002155D02*
X003595Y002155D01*
X003595Y002254D02*
X002737Y002254D01*
X002737Y002352D02*
X003601Y002352D01*
X003642Y002451D02*
X002737Y002451D01*
X002738Y002549D02*
X003698Y002549D01*
X003796Y002648D02*
X002738Y002648D01*
X004414Y002648D02*
X004796Y002648D01*
X004698Y002549D02*
X004512Y002549D01*
X004568Y002451D02*
X004642Y002451D01*
X005414Y002648D02*
X005796Y002648D01*
X005698Y002549D02*
X005512Y002549D01*
X005568Y002451D02*
X005642Y002451D01*
X005623Y001466D02*
X005587Y001466D01*
X005546Y001367D02*
X005664Y001367D01*
X005750Y001269D02*
X005460Y001269D01*
X005315Y001170D02*
X005895Y001170D01*
X004895Y001170D02*
X004315Y001170D01*
X004460Y001269D02*
X004750Y001269D01*
X004664Y001367D02*
X004546Y001367D01*
X004587Y001466D02*
X004623Y001466D01*
X002732Y000973D02*
X007355Y000973D01*
X007355Y000875D02*
X002732Y000875D01*
X002731Y000776D02*
X007355Y000776D01*
X007355Y000678D02*
X002731Y000678D01*
X002731Y000579D02*
X007355Y000579D01*
X007355Y000481D02*
X002730Y000481D01*
X000345Y003239D02*
X007355Y003239D01*
X007355Y003337D02*
X000345Y003337D01*
X000346Y003436D02*
X007355Y003436D01*
X007355Y003534D02*
X000346Y003534D01*
X000346Y003633D02*
X007355Y003633D01*
X007355Y003731D02*
X000346Y003731D01*
X000347Y003830D02*
X007355Y003830D01*
X007355Y003928D02*
X000347Y003928D01*
X000347Y004027D02*
X007355Y004027D01*
X007355Y004125D02*
X000347Y004125D01*
X000347Y004224D02*
X007355Y004224D01*
X007355Y004322D02*
X000348Y004322D01*
X000348Y004421D02*
X007355Y004421D01*
X007355Y004519D02*
X000348Y004519D01*
X000348Y004618D02*
X007355Y004618D01*
X007355Y004716D02*
X000349Y004716D01*
X000349Y004815D02*
X007355Y004815D01*
X007355Y004913D02*
X000349Y004913D01*
X000349Y005012D02*
X007355Y005012D01*
X007355Y005110D02*
X000350Y005110D01*
X000350Y005209D02*
X003951Y005209D01*
X003811Y005307D02*
X000350Y005307D01*
X000350Y005406D02*
X003712Y005406D01*
X003631Y005504D02*
X000351Y005504D01*
X000351Y005603D02*
X003590Y005603D01*
X003549Y005701D02*
X000351Y005701D01*
X000351Y005800D02*
X003515Y005800D01*
X003515Y005898D02*
X000352Y005898D01*
X000352Y005997D02*
X003515Y005997D01*
X003515Y006095D02*
X000352Y006095D01*
X000352Y006194D02*
X003547Y006194D01*
X003587Y006292D02*
X000353Y006292D01*
X000353Y006391D02*
X003628Y006391D01*
X003706Y006489D02*
X000353Y006489D01*
X000353Y006588D02*
X003804Y006588D01*
X003936Y006686D02*
X000353Y006686D01*
X000354Y006982D02*
X004345Y006982D01*
X004345Y007080D02*
X000354Y007080D01*
X000355Y007179D02*
X004345Y007179D01*
X004345Y007277D02*
X000355Y007277D01*
X000355Y007376D02*
X004345Y007376D01*
X004345Y007474D02*
X000355Y007474D01*
X000356Y007573D02*
X004345Y007573D01*
X004345Y007671D02*
X000356Y007671D01*
X000356Y007770D02*
X004345Y007770D01*
X004345Y007868D02*
X000356Y007868D01*
X000357Y007967D02*
X004345Y007967D01*
X004345Y008065D02*
X000357Y008065D01*
X000357Y008164D02*
X004345Y008164D01*
X004345Y008262D02*
X000357Y008262D01*
X000358Y008361D02*
X004312Y008361D01*
X004213Y008459D02*
X000358Y008459D01*
X000358Y008558D02*
X004126Y008558D01*
X004095Y008656D02*
X002781Y008656D01*
X002706Y008625D02*
X002894Y008703D01*
X003037Y008846D01*
X003115Y009034D01*
X003115Y009836D01*
X003037Y010024D01*
X002894Y010167D01*
X002706Y010245D01*
X002504Y010245D01*
X002316Y010167D01*
X002173Y010024D01*
X002105Y009861D01*
X002037Y010024D01*
X001894Y010167D01*
X001706Y010245D01*
X001504Y010245D01*
X001316Y010167D01*
X001173Y010024D01*
X001095Y009836D01*
X001095Y009034D01*
X001173Y008846D01*
X001316Y008703D01*
X001504Y008625D01*
X001706Y008625D01*
X001894Y008703D01*
X002037Y008846D01*
X002105Y009009D01*
X002173Y008846D01*
X002316Y008703D01*
X002504Y008625D01*
X002706Y008625D01*
X002946Y008755D02*
X004095Y008755D01*
X004095Y008853D02*
X003040Y008853D01*
X003081Y008952D02*
X004095Y008952D01*
X004095Y009050D02*
X003115Y009050D01*
X003115Y009149D02*
X004095Y009149D01*
X004095Y009247D02*
X003115Y009247D01*
X003115Y009346D02*
X004095Y009346D01*
X004095Y009444D02*
X003115Y009444D01*
X003115Y009543D02*
X004095Y009543D01*
X004095Y009641D02*
X003115Y009641D01*
X003115Y009740D02*
X004095Y009740D01*
X004095Y009838D02*
X003114Y009838D01*
X003074Y009937D02*
X004095Y009937D01*
X004095Y010035D02*
X003026Y010035D01*
X002928Y010134D02*
X004095Y010134D01*
X004095Y010232D02*
X002738Y010232D01*
X002472Y010232D02*
X001738Y010232D01*
X001928Y010134D02*
X002282Y010134D01*
X002184Y010035D02*
X002026Y010035D01*
X002074Y009937D02*
X002136Y009937D01*
X001472Y010232D02*
X000362Y010232D01*
X000362Y010134D02*
X001282Y010134D01*
X001184Y010035D02*
X000362Y010035D01*
X000361Y009937D02*
X001136Y009937D01*
X001096Y009838D02*
X000361Y009838D01*
X000361Y009740D02*
X001095Y009740D01*
X001095Y009641D02*
X000361Y009641D01*
X000360Y009543D02*
X001095Y009543D01*
X001095Y009444D02*
X000360Y009444D01*
X000360Y009346D02*
X001095Y009346D01*
X001095Y009247D02*
X000360Y009247D01*
X000359Y009149D02*
X001095Y009149D01*
X001095Y009050D02*
X000359Y009050D01*
X000359Y008952D02*
X001129Y008952D01*
X001170Y008853D02*
X000359Y008853D01*
X000359Y008755D02*
X001264Y008755D01*
X001429Y008656D02*
X000358Y008656D01*
X001781Y008656D02*
X002429Y008656D01*
X002264Y008755D02*
X001946Y008755D01*
X002040Y008853D02*
X002170Y008853D01*
X002129Y008952D02*
X002081Y008952D01*
X000362Y010331D02*
X004095Y010331D01*
X004095Y010429D02*
X000363Y010429D01*
X000363Y010528D02*
X004095Y010528D01*
X004095Y010626D02*
X000363Y010626D01*
X000363Y010725D02*
X004095Y010725D01*
X004095Y010823D02*
X000364Y010823D01*
X000364Y010922D02*
X004095Y010922D01*
X004095Y011020D02*
X000364Y011020D01*
X000364Y011119D02*
X004095Y011119D01*
X004095Y011217D02*
X000365Y011217D01*
X000365Y011316D02*
X000478Y011316D01*
X000732Y011316D02*
X003478Y011316D01*
X003324Y011414D02*
X000886Y011414D01*
X000605Y011685D02*
X003605Y011685D01*
X003886Y011414D02*
X004095Y011414D01*
X004095Y011316D02*
X003732Y011316D01*
X003956Y011513D02*
X004095Y011513D01*
X004061Y011611D02*
X003995Y011611D01*
X004355Y011685D02*
X004355Y008685D01*
X004605Y008435D01*
X004605Y006935D01*
X005605Y005935D01*
X005762Y006292D02*
X007461Y006292D01*
X007363Y006194D02*
X005898Y006194D01*
X005961Y006095D02*
X007355Y006095D01*
X007355Y005997D02*
X005995Y005997D01*
X005995Y005898D02*
X007355Y005898D01*
X007355Y005800D02*
X005971Y005800D01*
X005923Y005701D02*
X007355Y005701D01*
X007355Y005603D02*
X005821Y005603D01*
X005389Y005603D02*
X005120Y005603D01*
X005161Y005701D02*
X005287Y005701D01*
X005239Y005800D02*
X005195Y005800D01*
X005195Y005898D02*
X005215Y005898D01*
X005079Y005504D02*
X007355Y005504D01*
X007355Y005406D02*
X004998Y005406D01*
X004899Y005307D02*
X007355Y005307D01*
X007355Y005209D02*
X004759Y005209D01*
X005517Y006391D02*
X007559Y006391D01*
X007657Y006489D02*
X005419Y006489D01*
X005320Y006588D02*
X007754Y006588D01*
X007852Y006686D02*
X005222Y006686D01*
X005123Y006785D02*
X007950Y006785D01*
X008048Y006883D02*
X005025Y006883D01*
X004926Y006982D02*
X008145Y006982D01*
X008243Y007080D02*
X008017Y007080D01*
X008150Y007179D02*
X008341Y007179D01*
X008439Y007277D02*
X008212Y007277D01*
X008245Y007376D02*
X008536Y007376D01*
X008634Y007474D02*
X008262Y007474D01*
X008360Y007573D02*
X008732Y007573D01*
X008830Y007671D02*
X008459Y007671D01*
X008557Y007770D02*
X008927Y007770D01*
X009025Y007868D02*
X008656Y007868D01*
X008754Y007967D02*
X009123Y007967D01*
X009221Y008065D02*
X008853Y008065D01*
X008951Y008164D02*
X009318Y008164D01*
X009416Y008262D02*
X009050Y008262D01*
X009148Y008361D02*
X009514Y008361D01*
X009612Y008459D02*
X009247Y008459D01*
X009345Y008558D02*
X009709Y008558D01*
X009807Y008656D02*
X009444Y008656D01*
X009542Y008755D02*
X009905Y008755D01*
X010003Y008853D02*
X009641Y008853D01*
X009739Y008952D02*
X010100Y008952D01*
X010198Y009050D02*
X009838Y009050D01*
X009936Y009149D02*
X010296Y009149D01*
X010394Y009247D02*
X010035Y009247D01*
X010133Y009346D02*
X010491Y009346D01*
X010589Y009444D02*
X010232Y009444D01*
X010330Y009543D02*
X011381Y009543D01*
X011381Y009641D02*
X010429Y009641D01*
X010355Y009935D02*
X011105Y009935D01*
X012605Y011310D01*
X012605Y013685D01*
X015355Y016435D01*
X015355Y017185D01*
X015712Y017029D02*
X019460Y017029D01*
X019460Y017127D02*
X015745Y017127D01*
X015745Y017226D02*
X019495Y017226D01*
X019460Y017141D02*
X019588Y017450D01*
X019824Y017686D01*
X020133Y017814D01*
X020467Y017814D01*
X020776Y017686D01*
X021012Y017450D01*
X021140Y017141D01*
X021140Y016807D01*
X021012Y016498D01*
X020776Y016262D01*
X020467Y016134D01*
X020133Y016134D01*
X019824Y016262D01*
X019588Y016498D01*
X019460Y016807D01*
X019460Y017141D01*
X019536Y017324D02*
X015720Y017324D01*
X015669Y017423D02*
X019577Y017423D01*
X019659Y017521D02*
X015563Y017521D01*
X015147Y017521D02*
X014813Y017521D01*
X014919Y017423D02*
X015041Y017423D01*
X014990Y017324D02*
X014970Y017324D01*
X014605Y017185D02*
X014605Y016185D01*
X012105Y013685D01*
X012105Y011310D01*
X010855Y010185D01*
X008855Y010185D01*
X007855Y009185D01*
X004855Y009185D01*
X005073Y008853D02*
X006471Y008853D01*
X006388Y008755D02*
X004653Y008755D01*
X004637Y008853D02*
X004615Y008853D01*
X004752Y008656D02*
X006348Y008656D01*
X006340Y008558D02*
X004836Y008558D01*
X004865Y008459D02*
X006350Y008459D01*
X006390Y008361D02*
X004865Y008361D01*
X004865Y008262D02*
X006476Y008262D01*
X006730Y008560D02*
X008230Y008560D01*
X007976Y008262D02*
X006984Y008262D01*
X007643Y007770D02*
X004865Y007770D01*
X004865Y007868D02*
X007920Y007868D01*
X008019Y007967D02*
X004865Y007967D01*
X004865Y008065D02*
X008117Y008065D01*
X008216Y008164D02*
X004865Y008164D01*
X004865Y007671D02*
X007539Y007671D01*
X007490Y007573D02*
X004865Y007573D01*
X004865Y007474D02*
X007465Y007474D01*
X007465Y007376D02*
X004865Y007376D01*
X004865Y007277D02*
X007498Y007277D01*
X007560Y007179D02*
X004865Y007179D01*
X004865Y007080D02*
X007693Y007080D01*
X007855Y007435D02*
X010355Y009935D01*
X010605Y010435D02*
X008355Y010435D01*
X008105Y010185D01*
X007605Y010685D02*
X007355Y010935D01*
X007605Y010685D02*
X009605Y010685D01*
X009855Y010935D01*
X009855Y011685D01*
X010130Y012560D02*
X009805Y012885D01*
X006530Y012885D01*
X006480Y012935D01*
X006105Y012560D01*
X006105Y011935D01*
X005605Y011435D01*
X005605Y010810D01*
X005270Y011020D02*
X005190Y011020D01*
X005115Y011119D02*
X005345Y011119D01*
X005345Y011217D02*
X005115Y011217D01*
X005115Y011316D02*
X005345Y011316D01*
X005345Y011414D02*
X005136Y011414D01*
X005206Y011513D02*
X005356Y011513D01*
X005413Y011611D02*
X005245Y011611D01*
X005245Y011710D02*
X005512Y011710D01*
X005610Y011808D02*
X005226Y011808D01*
X005185Y011907D02*
X005709Y011907D01*
X005807Y012005D02*
X005087Y012005D01*
X004855Y011685D02*
X004855Y010810D01*
X005230Y010435D01*
X006105Y010435D01*
X006355Y010685D01*
X006605Y010685D01*
X004623Y012005D02*
X004403Y012005D01*
X004501Y011907D02*
X004525Y011907D01*
X004355Y011685D02*
X003855Y012185D01*
X003855Y013935D01*
X004355Y014435D01*
X004709Y014271D02*
X004823Y014271D01*
X004745Y014369D02*
X004921Y014369D01*
X005020Y014468D02*
X004745Y014468D01*
X004723Y014566D02*
X005118Y014566D01*
X005217Y014665D02*
X004677Y014665D01*
X004579Y014763D02*
X005315Y014763D01*
X005414Y014862D02*
X000373Y014862D01*
X000374Y014960D02*
X005512Y014960D01*
X005611Y015059D02*
X000374Y015059D01*
X000374Y015157D02*
X005709Y015157D01*
X005808Y015256D02*
X000374Y015256D01*
X000375Y015354D02*
X005906Y015354D01*
X006105Y015185D02*
X004355Y013435D01*
X004715Y013286D02*
X006307Y013286D01*
X006180Y013187D02*
X004659Y013187D01*
X004538Y013089D02*
X006121Y013089D01*
X006090Y012990D02*
X004115Y012990D01*
X004115Y012892D02*
X006069Y012892D01*
X005970Y012793D02*
X004115Y012793D01*
X004115Y012695D02*
X005879Y012695D01*
X005845Y012596D02*
X004115Y012596D01*
X004115Y012498D02*
X005845Y012498D01*
X005845Y012399D02*
X004115Y012399D01*
X004115Y012301D02*
X005845Y012301D01*
X005845Y012202D02*
X004206Y012202D01*
X004304Y012104D02*
X005845Y012104D01*
X006780Y013187D02*
X009555Y013187D01*
X009788Y013384D02*
X004745Y013384D01*
X004770Y013483D02*
X009690Y013483D01*
X009591Y013581D02*
X004869Y013581D01*
X004967Y013680D02*
X009493Y013680D01*
X009394Y013778D02*
X005066Y013778D01*
X005164Y013877D02*
X009296Y013877D01*
X009197Y013975D02*
X005263Y013975D01*
X005361Y014074D02*
X008959Y014074D01*
X008816Y014172D02*
X005460Y014172D01*
X005558Y014271D02*
X008751Y014271D01*
X008715Y014369D02*
X005657Y014369D01*
X005755Y014468D02*
X008715Y014468D01*
X008737Y014566D02*
X005854Y014566D01*
X005952Y014665D02*
X008783Y014665D01*
X008881Y014763D02*
X006051Y014763D01*
X006149Y014862D02*
X011377Y014862D01*
X011605Y015185D02*
X006105Y015185D01*
X006487Y015453D02*
X000375Y015453D01*
X000375Y015551D02*
X006371Y015551D01*
X006273Y015650D02*
X000375Y015650D01*
X000376Y015748D02*
X006174Y015748D01*
X006076Y015847D02*
X005307Y015847D01*
X004903Y015847D02*
X000376Y015847D01*
X000376Y015945D02*
X004793Y015945D01*
X004741Y016044D02*
X000376Y016044D01*
X000377Y016142D02*
X004169Y016142D01*
X003931Y016241D02*
X000377Y016241D01*
X000377Y016339D02*
X003802Y016339D01*
X003704Y016438D02*
X000377Y016438D01*
X000378Y016536D02*
X003627Y016536D01*
X003586Y016635D02*
X000378Y016635D01*
X000378Y016733D02*
X003546Y016733D01*
X003515Y016832D02*
X000378Y016832D01*
X000378Y016930D02*
X003515Y016930D01*
X003515Y017029D02*
X000379Y017029D01*
X000379Y017127D02*
X003515Y017127D01*
X003550Y017226D02*
X000379Y017226D01*
X000379Y017324D02*
X003591Y017324D01*
X003632Y017423D02*
X000380Y017423D01*
X000380Y017521D02*
X003714Y017521D01*
X003813Y017620D02*
X000380Y017620D01*
X000380Y017718D02*
X003957Y017718D01*
X004753Y017718D02*
X011523Y017718D01*
X011524Y017714D02*
X011634Y017604D01*
X011777Y017545D01*
X011933Y017545D01*
X012076Y017604D01*
X012186Y017714D01*
X012230Y017821D01*
X012274Y017714D01*
X012384Y017604D01*
X012527Y017545D01*
X012683Y017545D01*
X012826Y017604D01*
X012936Y017714D01*
X012995Y017857D01*
X012995Y018013D01*
X012936Y018156D01*
X012865Y018227D01*
X012865Y018643D01*
X012936Y018714D01*
X012995Y018857D01*
X012995Y019013D01*
X012936Y019156D01*
X012826Y019266D01*
X012683Y019325D01*
X012527Y019325D01*
X012384Y019266D01*
X012274Y019156D01*
X012215Y019013D01*
X012215Y018857D01*
X012274Y018714D01*
X012345Y018643D01*
X012345Y018227D01*
X012274Y018156D01*
X012230Y018049D01*
X012186Y018156D01*
X012115Y018227D01*
X012115Y019077D01*
X012463Y019425D01*
X014657Y019425D01*
X014752Y019465D01*
X014825Y019538D01*
X015213Y019925D01*
X015316Y019925D01*
X015615Y020224D01*
X015615Y020646D01*
X015316Y020945D01*
X014894Y020945D01*
X014605Y020656D01*
X014326Y020935D01*
X014615Y021224D01*
X014615Y021646D01*
X014316Y021945D01*
X013894Y021945D01*
X013605Y021656D01*
X013316Y021945D01*
X012894Y021945D01*
X012595Y021646D01*
X012595Y021224D01*
X012884Y020935D01*
X012595Y020646D01*
X012595Y020224D01*
X012874Y019945D01*
X012303Y019945D01*
X012208Y019905D01*
X011708Y019405D01*
X011635Y019332D01*
X011595Y019237D01*
X011595Y018227D01*
X011524Y018156D01*
X011465Y018013D01*
X011465Y017857D01*
X011524Y017714D01*
X011482Y017817D02*
X000381Y017817D01*
X000381Y017915D02*
X011465Y017915D01*
X011465Y018014D02*
X000381Y018014D01*
X000381Y018112D02*
X011506Y018112D01*
X011579Y018211D02*
X000382Y018211D01*
X000382Y018309D02*
X011595Y018309D01*
X011595Y018408D02*
X000382Y018408D01*
X000382Y018506D02*
X011595Y018506D01*
X011595Y018605D02*
X000383Y018605D01*
X000383Y018703D02*
X011595Y018703D01*
X011595Y018802D02*
X000383Y018802D01*
X000383Y018900D02*
X011595Y018900D01*
X011595Y018999D02*
X000384Y018999D01*
X000384Y019097D02*
X011595Y019097D01*
X011595Y019196D02*
X000384Y019196D01*
X000384Y019294D02*
X011619Y019294D01*
X011695Y019393D02*
X000384Y019393D01*
X000385Y019491D02*
X011793Y019491D01*
X011892Y019590D02*
X000385Y019590D01*
X002761Y019688D02*
X011990Y019688D01*
X012089Y019787D02*
X002762Y019787D01*
X002763Y019885D02*
X012187Y019885D01*
X012355Y019685D02*
X011855Y019185D01*
X011855Y017935D01*
X012131Y018211D02*
X012329Y018211D01*
X012345Y018309D02*
X012115Y018309D01*
X012115Y018408D02*
X012345Y018408D01*
X012345Y018506D02*
X012115Y018506D01*
X012115Y018605D02*
X012345Y018605D01*
X012285Y018703D02*
X012115Y018703D01*
X012115Y018802D02*
X012238Y018802D01*
X012215Y018900D02*
X012115Y018900D01*
X012115Y018999D02*
X012215Y018999D01*
X012250Y019097D02*
X012135Y019097D01*
X012233Y019196D02*
X012314Y019196D01*
X012332Y019294D02*
X012453Y019294D01*
X012430Y019393D02*
X017648Y019393D01*
X017674Y019456D02*
X017615Y019313D01*
X017615Y019157D01*
X017674Y019014D01*
X017784Y018904D01*
X017927Y018845D01*
X018083Y018845D01*
X018226Y018904D01*
X018336Y019014D01*
X018395Y019157D01*
X018395Y019313D01*
X018336Y019456D01*
X018265Y019527D01*
X018265Y020893D01*
X018336Y020964D01*
X018395Y021107D01*
X018395Y021263D01*
X018336Y021406D01*
X018226Y021516D01*
X018083Y021575D01*
X017927Y021575D01*
X017784Y021516D01*
X017674Y021406D01*
X017615Y021263D01*
X017615Y021107D01*
X017674Y020964D01*
X017745Y020893D01*
X017745Y019527D01*
X017674Y019456D01*
X017710Y019491D02*
X014779Y019491D01*
X014877Y019590D02*
X017745Y019590D01*
X017745Y019688D02*
X014976Y019688D01*
X015074Y019787D02*
X017745Y019787D01*
X017745Y019885D02*
X015173Y019885D01*
X015375Y019984D02*
X017745Y019984D01*
X017745Y020082D02*
X015473Y020082D01*
X015572Y020181D02*
X017745Y020181D01*
X017745Y020279D02*
X015615Y020279D01*
X015615Y020378D02*
X017745Y020378D01*
X017745Y020476D02*
X015615Y020476D01*
X015615Y020575D02*
X017745Y020575D01*
X017745Y020673D02*
X015588Y020673D01*
X015490Y020772D02*
X017745Y020772D01*
X017745Y020870D02*
X015391Y020870D01*
X015291Y020985D02*
X015155Y020985D01*
X015155Y021385D01*
X015155Y021485D01*
X015555Y021485D01*
X015555Y021621D01*
X015291Y021885D01*
X015155Y021885D01*
X015155Y021485D01*
X015055Y021485D01*
X015055Y021885D01*
X014919Y021885D01*
X014655Y021621D01*
X014655Y021485D01*
X015055Y021485D01*
X015055Y021385D01*
X015155Y021385D01*
X015555Y021385D01*
X015555Y021249D01*
X015291Y020985D01*
X015373Y021067D02*
X017632Y021067D01*
X017615Y021166D02*
X015472Y021166D01*
X015555Y021264D02*
X017616Y021264D01*
X017656Y021363D02*
X015555Y021363D01*
X015555Y021560D02*
X017890Y021560D01*
X017730Y021461D02*
X015155Y021461D01*
X015155Y021363D02*
X015055Y021363D01*
X015055Y021385D02*
X015055Y020985D01*
X014919Y020985D01*
X014655Y021249D01*
X014655Y021385D01*
X015055Y021385D01*
X015055Y021461D02*
X014615Y021461D01*
X014615Y021363D02*
X014655Y021363D01*
X014655Y021264D02*
X014615Y021264D01*
X014557Y021166D02*
X014738Y021166D01*
X014837Y021067D02*
X014458Y021067D01*
X014360Y020969D02*
X017673Y020969D01*
X018005Y021185D02*
X018005Y019235D01*
X018362Y019393D02*
X036729Y019393D01*
X036755Y019403D02*
X036583Y019332D01*
X036452Y019201D01*
X036381Y019029D01*
X036381Y018843D01*
X036452Y018671D01*
X036583Y018540D01*
X036755Y018469D01*
X037456Y018469D01*
X037628Y018540D01*
X037759Y018671D01*
X037831Y018843D01*
X037831Y019029D01*
X037759Y019201D01*
X037628Y019332D01*
X037456Y019403D01*
X036755Y019403D01*
X036755Y019469D02*
X037456Y019469D01*
X037628Y019540D01*
X037759Y019671D01*
X037831Y019843D01*
X037831Y020029D01*
X037759Y020201D01*
X037628Y020332D01*
X037456Y020404D01*
X036755Y020404D01*
X036583Y020332D01*
X036452Y020201D01*
X036381Y020029D01*
X036381Y019843D01*
X036452Y019671D01*
X036583Y019540D01*
X036755Y019469D01*
X036701Y019491D02*
X026510Y019491D01*
X026678Y019590D02*
X036534Y019590D01*
X036445Y019688D02*
X026766Y019688D01*
X026807Y019787D02*
X036404Y019787D01*
X036381Y019885D02*
X026831Y019885D01*
X026831Y019984D02*
X036381Y019984D01*
X036403Y020082D02*
X026809Y020082D01*
X026768Y020181D02*
X036444Y020181D01*
X036530Y020279D02*
X026681Y020279D01*
X026519Y020378D02*
X036693Y020378D01*
X036737Y020476D02*
X026474Y020476D01*
X026663Y020575D02*
X036549Y020575D01*
X036583Y020540D02*
X036755Y020469D01*
X037456Y020469D01*
X037628Y020540D01*
X037759Y020671D01*
X037831Y020843D01*
X037831Y021029D01*
X037759Y021201D01*
X037628Y021332D01*
X037456Y021404D01*
X036755Y021404D01*
X036583Y021332D01*
X036452Y021201D01*
X036381Y021029D01*
X036381Y020843D01*
X036452Y020671D01*
X036583Y020540D01*
X036451Y020673D02*
X026760Y020673D01*
X026801Y020772D02*
X036410Y020772D01*
X036381Y020870D02*
X026831Y020870D01*
X026831Y020969D02*
X036381Y020969D01*
X036397Y021067D02*
X026815Y021067D01*
X026774Y021166D02*
X036437Y021166D01*
X036515Y021264D02*
X026696Y021264D01*
X026555Y021363D02*
X036656Y021363D01*
X037555Y021363D02*
X037855Y021363D01*
X037855Y021461D02*
X025605Y021461D01*
X025605Y021363D02*
X025656Y021363D01*
X025605Y021560D02*
X037855Y021560D01*
X037855Y021658D02*
X025605Y021658D01*
X025605Y021757D02*
X037855Y021757D01*
X037855Y021855D02*
X025605Y021855D01*
X025605Y021954D02*
X037855Y021954D01*
X037855Y022052D02*
X025605Y022052D01*
X025605Y022151D02*
X037855Y022151D01*
X037855Y022249D02*
X025605Y022249D01*
X025605Y022348D02*
X037855Y022348D01*
X037855Y021264D02*
X037696Y021264D01*
X037774Y021166D02*
X037855Y021166D01*
X037855Y021067D02*
X037815Y021067D01*
X037831Y020969D02*
X037855Y020969D01*
X037855Y020870D02*
X037831Y020870D01*
X037855Y020772D02*
X037801Y020772D01*
X037760Y020673D02*
X037855Y020673D01*
X037855Y020575D02*
X037663Y020575D01*
X037474Y020476D02*
X037855Y020476D01*
X037855Y020378D02*
X037519Y020378D01*
X037681Y020279D02*
X037855Y020279D01*
X037855Y020181D02*
X037768Y020181D01*
X037809Y020082D02*
X037855Y020082D01*
X037855Y019984D02*
X037831Y019984D01*
X037831Y019885D02*
X037855Y019885D01*
X037855Y019787D02*
X037807Y019787D01*
X037766Y019688D02*
X037855Y019688D01*
X037855Y019590D02*
X037678Y019590D01*
X037511Y019491D02*
X037855Y019491D01*
X037855Y019393D02*
X037483Y019393D01*
X037666Y019294D02*
X037855Y019294D01*
X037855Y019196D02*
X037762Y019196D01*
X037802Y019097D02*
X037855Y019097D01*
X037855Y018999D02*
X037831Y018999D01*
X037831Y018900D02*
X037855Y018900D01*
X037855Y018802D02*
X037813Y018802D01*
X037773Y018703D02*
X037855Y018703D01*
X037855Y018605D02*
X037693Y018605D01*
X037547Y018506D02*
X037855Y018506D01*
X037855Y018408D02*
X029629Y018408D01*
X029703Y018506D02*
X036665Y018506D01*
X036755Y018403D02*
X036583Y018332D01*
X036452Y018201D01*
X036381Y018029D01*
X036381Y017843D01*
X036452Y017671D01*
X036583Y017540D01*
X036755Y017469D01*
X037456Y017469D01*
X037628Y017540D01*
X037759Y017671D01*
X037831Y017843D01*
X037831Y018029D01*
X037759Y018201D01*
X037628Y018332D01*
X037456Y018403D01*
X036755Y018403D01*
X036560Y018309D02*
X029466Y018309D01*
X029248Y018211D02*
X036462Y018211D01*
X036415Y018112D02*
X029150Y018112D01*
X029051Y018014D02*
X036381Y018014D01*
X036381Y017915D02*
X028953Y017915D01*
X028854Y017817D02*
X036392Y017817D01*
X036433Y017718D02*
X032903Y017718D01*
X032980Y017686D02*
X032672Y017814D01*
X032338Y017814D01*
X032029Y017686D01*
X031793Y017450D01*
X031665Y017141D01*
X031665Y016807D01*
X031793Y016498D01*
X032029Y016262D01*
X032338Y016134D01*
X032672Y016134D01*
X032980Y016262D01*
X033217Y016498D01*
X033345Y016807D01*
X033345Y017141D01*
X033217Y017450D01*
X032980Y017686D01*
X033047Y017620D02*
X036504Y017620D01*
X036628Y017521D02*
X033145Y017521D01*
X033228Y017423D02*
X037855Y017423D01*
X037855Y017521D02*
X037583Y017521D01*
X037708Y017620D02*
X037855Y017620D01*
X037855Y017718D02*
X037779Y017718D01*
X037820Y017817D02*
X037855Y017817D01*
X037855Y017915D02*
X037831Y017915D01*
X037831Y018014D02*
X037855Y018014D01*
X037855Y018112D02*
X037796Y018112D01*
X037750Y018211D02*
X037855Y018211D01*
X037855Y018309D02*
X037651Y018309D01*
X036519Y018605D02*
X029744Y018605D01*
X029745Y018703D02*
X036439Y018703D01*
X036398Y018802D02*
X029729Y018802D01*
X029688Y018900D02*
X036381Y018900D01*
X036381Y018999D02*
X029593Y018999D01*
X029117Y018999D02*
X018320Y018999D01*
X018370Y019097D02*
X036409Y019097D01*
X036450Y019196D02*
X018395Y019196D01*
X018395Y019294D02*
X036545Y019294D01*
X036755Y017403D02*
X036583Y017332D01*
X036452Y017201D01*
X036381Y017029D01*
X036381Y016843D01*
X036452Y016671D01*
X036583Y016540D01*
X036755Y016469D01*
X037456Y016469D01*
X037628Y016540D01*
X037759Y016671D01*
X037831Y016843D01*
X037831Y017029D01*
X037759Y017201D01*
X037628Y017332D01*
X037456Y017403D01*
X036755Y017403D01*
X036575Y017324D02*
X033269Y017324D01*
X033310Y017226D02*
X036477Y017226D01*
X036421Y017127D02*
X033345Y017127D01*
X033345Y017029D02*
X036381Y017029D01*
X036381Y016930D02*
X033345Y016930D01*
X033345Y016832D02*
X036385Y016832D01*
X036426Y016733D02*
X033314Y016733D01*
X033273Y016635D02*
X036489Y016635D01*
X036592Y016536D02*
X033232Y016536D01*
X033156Y016438D02*
X037855Y016438D01*
X037855Y016536D02*
X037619Y016536D01*
X037723Y016635D02*
X037855Y016635D01*
X037855Y016733D02*
X037785Y016733D01*
X037826Y016832D02*
X037855Y016832D01*
X037855Y016930D02*
X037831Y016930D01*
X037831Y017029D02*
X037855Y017029D01*
X037855Y017127D02*
X037790Y017127D01*
X037735Y017226D02*
X037855Y017226D01*
X037855Y017324D02*
X037636Y017324D01*
X037456Y016403D02*
X036755Y016403D01*
X036583Y016332D01*
X036452Y016201D01*
X036381Y016029D01*
X036381Y015843D01*
X036452Y015671D01*
X036583Y015540D01*
X036755Y015468D01*
X037456Y015468D01*
X037628Y015540D01*
X037759Y015671D01*
X037831Y015843D01*
X037831Y016029D01*
X037759Y016201D01*
X037628Y016332D01*
X037456Y016403D01*
X037612Y016339D02*
X037855Y016339D01*
X037855Y016241D02*
X037720Y016241D01*
X037784Y016142D02*
X037855Y016142D01*
X037855Y016044D02*
X037825Y016044D01*
X037831Y015945D02*
X037855Y015945D01*
X037855Y015847D02*
X037831Y015847D01*
X037855Y015748D02*
X037791Y015748D01*
X037738Y015650D02*
X037855Y015650D01*
X037855Y015551D02*
X037639Y015551D01*
X037855Y015453D02*
X026490Y015453D01*
X026589Y015551D02*
X036572Y015551D01*
X036474Y015650D02*
X026687Y015650D01*
X026786Y015748D02*
X036420Y015748D01*
X036381Y015847D02*
X026884Y015847D01*
X026983Y015945D02*
X036381Y015945D01*
X036387Y016044D02*
X027081Y016044D01*
X027180Y016142D02*
X032318Y016142D01*
X032080Y016241D02*
X027278Y016241D01*
X027377Y016339D02*
X031952Y016339D01*
X031853Y016438D02*
X027475Y016438D01*
X027574Y016536D02*
X031777Y016536D01*
X031736Y016635D02*
X027672Y016635D01*
X027771Y016733D02*
X031695Y016733D01*
X031665Y016832D02*
X027869Y016832D01*
X027968Y016930D02*
X031665Y016930D01*
X031665Y017029D02*
X028066Y017029D01*
X028165Y017127D02*
X031665Y017127D01*
X031700Y017226D02*
X028263Y017226D01*
X028362Y017324D02*
X031740Y017324D01*
X031781Y017423D02*
X028460Y017423D01*
X028559Y017521D02*
X031864Y017521D01*
X031962Y017620D02*
X028657Y017620D01*
X028756Y017718D02*
X032106Y017718D01*
X033057Y016339D02*
X036600Y016339D01*
X036492Y016241D02*
X032929Y016241D01*
X032691Y016142D02*
X036428Y016142D01*
X036692Y015314D02*
X036635Y015284D01*
X036583Y015247D01*
X036537Y015201D01*
X036500Y015150D01*
X036471Y015092D01*
X036451Y015031D01*
X036441Y014968D01*
X036441Y014965D01*
X037077Y014965D01*
X037077Y015343D01*
X036816Y015343D01*
X036753Y015333D01*
X036692Y015314D01*
X036595Y015256D02*
X026293Y015256D01*
X026392Y015354D02*
X037855Y015354D01*
X037855Y015256D02*
X037617Y015256D01*
X037629Y015247D02*
X037577Y015284D01*
X037520Y015314D01*
X037459Y015333D01*
X037395Y015343D01*
X037134Y015343D01*
X037134Y014965D01*
X037077Y014965D01*
X037077Y014907D01*
X037134Y014907D01*
X037134Y014528D01*
X037395Y014528D01*
X037459Y014538D01*
X037520Y014558D01*
X037577Y014587D01*
X037629Y014625D01*
X037674Y014670D01*
X037712Y014722D01*
X037741Y014780D01*
X037761Y014841D01*
X037771Y014904D01*
X037771Y014907D01*
X037134Y014907D01*
X037134Y014965D01*
X037771Y014965D01*
X037771Y014968D01*
X037761Y015031D01*
X037741Y015092D01*
X037712Y015150D01*
X037674Y015201D01*
X037629Y015247D01*
X037706Y015157D02*
X037855Y015157D01*
X037855Y015059D02*
X037752Y015059D01*
X037855Y014960D02*
X037134Y014960D01*
X037077Y014960D02*
X023498Y014960D01*
X023399Y014862D02*
X036447Y014862D01*
X036451Y014841D02*
X036471Y014780D01*
X036500Y014722D01*
X036537Y014670D01*
X036583Y014625D01*
X036635Y014587D01*
X036692Y014558D01*
X036753Y014538D01*
X036816Y014528D01*
X037077Y014528D01*
X037077Y014907D01*
X036441Y014907D01*
X036441Y014904D01*
X036451Y014841D01*
X036479Y014763D02*
X023301Y014763D01*
X023202Y014665D02*
X036543Y014665D01*
X036677Y014566D02*
X023104Y014566D01*
X023005Y014468D02*
X037855Y014468D01*
X037855Y014566D02*
X037535Y014566D01*
X037668Y014665D02*
X037855Y014665D01*
X037855Y014763D02*
X037732Y014763D01*
X037764Y014862D02*
X037855Y014862D01*
X037855Y014369D02*
X037539Y014369D01*
X037456Y014403D02*
X037628Y014332D01*
X037759Y014201D01*
X037831Y014029D01*
X037831Y013843D01*
X037759Y013671D01*
X037628Y013540D01*
X037456Y013468D01*
X036755Y013468D01*
X036583Y013540D01*
X036452Y013671D01*
X036381Y013843D01*
X036381Y014029D01*
X036452Y014201D01*
X036583Y014332D01*
X036755Y014403D01*
X037456Y014403D01*
X037690Y014271D02*
X037855Y014271D01*
X037855Y014172D02*
X037771Y014172D01*
X037812Y014074D02*
X037855Y014074D01*
X037855Y013975D02*
X037831Y013975D01*
X037831Y013877D02*
X037855Y013877D01*
X037855Y013778D02*
X037804Y013778D01*
X037763Y013680D02*
X037855Y013680D01*
X037855Y013581D02*
X037669Y013581D01*
X037490Y013483D02*
X037855Y013483D01*
X037855Y013384D02*
X037503Y013384D01*
X037456Y013403D02*
X037628Y013332D01*
X037759Y013201D01*
X037831Y013029D01*
X037831Y012843D01*
X037759Y012671D01*
X037628Y012540D01*
X037456Y012468D01*
X036755Y012468D01*
X036583Y012540D01*
X036452Y012671D01*
X036381Y012843D01*
X036381Y013029D01*
X036452Y013201D01*
X036583Y013332D01*
X036755Y013403D01*
X037456Y013403D01*
X037675Y013286D02*
X037855Y013286D01*
X037855Y013187D02*
X037765Y013187D01*
X037806Y013089D02*
X037855Y013089D01*
X037855Y012990D02*
X037831Y012990D01*
X037831Y012892D02*
X037855Y012892D01*
X037855Y012793D02*
X037810Y012793D01*
X037769Y012695D02*
X037855Y012695D01*
X037855Y012596D02*
X037684Y012596D01*
X037526Y012498D02*
X037855Y012498D01*
X037855Y012399D02*
X037467Y012399D01*
X037456Y012403D02*
X037628Y012332D01*
X037759Y012201D01*
X037831Y012029D01*
X037831Y011843D01*
X037759Y011671D01*
X037628Y011540D01*
X037456Y011468D01*
X036755Y011468D01*
X036583Y011540D01*
X036452Y011671D01*
X036381Y011843D01*
X036381Y012029D01*
X036452Y012201D01*
X036583Y012332D01*
X036755Y012403D01*
X037456Y012403D01*
X037660Y012301D02*
X037855Y012301D01*
X037855Y012202D02*
X037758Y012202D01*
X037800Y012104D02*
X037855Y012104D01*
X037855Y012005D02*
X037831Y012005D01*
X037831Y011907D02*
X037855Y011907D01*
X037855Y011808D02*
X037816Y011808D01*
X037855Y011710D02*
X037775Y011710D01*
X037699Y011611D02*
X037855Y011611D01*
X037855Y011513D02*
X037563Y011513D01*
X037456Y011403D02*
X037628Y011332D01*
X037759Y011201D01*
X037831Y011029D01*
X037831Y010843D01*
X037759Y010671D01*
X037628Y010540D01*
X037456Y010468D01*
X036755Y010468D01*
X036583Y010540D01*
X036452Y010671D01*
X036381Y010843D01*
X036381Y011029D01*
X036452Y011201D01*
X036583Y011332D01*
X036755Y011403D01*
X037456Y011403D01*
X037645Y011316D02*
X037855Y011316D01*
X037855Y011414D02*
X023348Y011414D01*
X023446Y011316D02*
X036567Y011316D01*
X036468Y011217D02*
X023545Y011217D01*
X023643Y011119D02*
X036418Y011119D01*
X036381Y011020D02*
X023742Y011020D01*
X023840Y010922D02*
X036381Y010922D01*
X036389Y010823D02*
X023939Y010823D01*
X024037Y010725D02*
X036430Y010725D01*
X036497Y010626D02*
X024136Y010626D01*
X024234Y010528D02*
X036613Y010528D01*
X036755Y010403D02*
X036583Y010332D01*
X036452Y010201D01*
X036381Y010029D01*
X036381Y009843D01*
X036452Y009671D01*
X036583Y009540D01*
X036755Y009468D01*
X037456Y009468D01*
X037628Y009540D01*
X037759Y009671D01*
X037831Y009843D01*
X037831Y010029D01*
X037759Y010201D01*
X037628Y010332D01*
X037456Y010403D01*
X036755Y010403D01*
X036582Y010331D02*
X024431Y010331D01*
X024333Y010429D02*
X037855Y010429D01*
X037855Y010331D02*
X037630Y010331D01*
X037728Y010232D02*
X037855Y010232D01*
X037855Y010134D02*
X037787Y010134D01*
X037828Y010035D02*
X037855Y010035D01*
X037855Y009937D02*
X037831Y009937D01*
X037829Y009838D02*
X037855Y009838D01*
X037855Y009740D02*
X037788Y009740D01*
X037729Y009641D02*
X037855Y009641D01*
X037855Y009543D02*
X037631Y009543D01*
X037596Y009346D02*
X037855Y009346D01*
X037855Y009444D02*
X025401Y009444D01*
X025401Y009346D02*
X036616Y009346D01*
X036583Y009332D02*
X036452Y009201D01*
X036381Y009029D01*
X036381Y008843D01*
X036452Y008671D01*
X036583Y008540D01*
X036755Y008468D01*
X037456Y008468D01*
X037628Y008540D01*
X037759Y008671D01*
X037831Y008843D01*
X037831Y009029D01*
X037759Y009201D01*
X037628Y009332D01*
X037456Y009403D01*
X036755Y009403D01*
X036583Y009332D01*
X036498Y009247D02*
X025381Y009247D01*
X025340Y009149D02*
X036430Y009149D01*
X036390Y009050D02*
X025278Y009050D01*
X025179Y008952D02*
X036381Y008952D01*
X036381Y008853D02*
X024973Y008853D01*
X024701Y008853D02*
X022414Y008853D01*
X022620Y008952D02*
X023156Y008952D01*
X023021Y009050D02*
X022718Y009050D01*
X022781Y009149D02*
X022939Y009149D01*
X022898Y009247D02*
X022822Y009247D01*
X022842Y009346D02*
X022873Y009346D01*
X022873Y009444D02*
X022842Y009444D01*
X022833Y009543D02*
X022888Y009543D01*
X022819Y009641D02*
X022792Y009641D01*
X023253Y009937D02*
X024090Y009937D01*
X023992Y010035D02*
X023164Y010035D01*
X023076Y010134D02*
X023893Y010134D01*
X023795Y010232D02*
X022987Y010232D01*
X022898Y010331D02*
X023696Y010331D01*
X023598Y010429D02*
X022809Y010429D01*
X022720Y010528D02*
X023499Y010528D01*
X023401Y010626D02*
X022631Y010626D01*
X022543Y010725D02*
X023302Y010725D01*
X023204Y010823D02*
X022454Y010823D01*
X022365Y010922D02*
X023105Y010922D01*
X023007Y011020D02*
X022276Y011020D01*
X022187Y011119D02*
X022908Y011119D01*
X022959Y011435D02*
X024837Y009557D01*
X024837Y009407D01*
X025351Y009641D02*
X036482Y009641D01*
X036424Y009740D02*
X025303Y009740D01*
X025204Y009838D02*
X036383Y009838D01*
X036381Y009937D02*
X025034Y009937D01*
X024727Y010035D02*
X036383Y010035D01*
X036424Y010134D02*
X024628Y010134D01*
X024530Y010232D02*
X036483Y010232D01*
X036580Y009543D02*
X025392Y009543D01*
X024495Y008952D02*
X023604Y008952D01*
X023740Y009050D02*
X024396Y009050D01*
X024333Y009149D02*
X023822Y009149D01*
X023862Y009247D02*
X024293Y009247D01*
X024273Y009346D02*
X023887Y009346D01*
X023887Y009444D02*
X024273Y009444D01*
X024282Y009543D02*
X023873Y009543D01*
X023832Y009641D02*
X024323Y009641D01*
X024287Y009740D02*
X023765Y009740D01*
X023665Y009838D02*
X024189Y009838D01*
X023380Y009407D02*
X022003Y010935D01*
X021355Y010935D01*
X019855Y012435D01*
X014105Y012435D01*
X013705Y012835D01*
X013705Y012972D01*
X014038Y013187D02*
X014055Y013187D01*
X013943Y013286D02*
X014182Y013286D01*
X014528Y013286D02*
X017915Y013286D01*
X017875Y013384D02*
X013191Y013384D01*
X013019Y013384D02*
X012865Y013384D01*
X012865Y013483D02*
X017865Y013483D01*
X017873Y013581D02*
X012869Y013581D01*
X012967Y013680D02*
X017913Y013680D01*
X017996Y013778D02*
X013066Y013778D01*
X013164Y013877D02*
X021894Y013877D01*
X021798Y013778D02*
X019464Y013778D01*
X019547Y013680D02*
X021757Y013680D01*
X021716Y013581D02*
X019587Y013581D01*
X019595Y013483D02*
X021714Y013483D01*
X021714Y013384D02*
X019585Y013384D01*
X019545Y013286D02*
X021740Y013286D01*
X021781Y013187D02*
X019926Y013187D01*
X020069Y013089D02*
X021854Y013089D01*
X021952Y012990D02*
X020168Y012990D01*
X020266Y012892D02*
X036381Y012892D01*
X036381Y012990D02*
X025162Y012990D01*
X025157Y012984D02*
X025315Y013143D01*
X025401Y013350D01*
X025401Y013575D01*
X025315Y013782D01*
X025157Y013941D01*
X024949Y014027D01*
X024725Y014027D01*
X024517Y013941D01*
X024358Y013782D01*
X024273Y013575D01*
X024273Y013350D01*
X024358Y013143D01*
X024517Y012984D01*
X024725Y012898D01*
X024949Y012898D01*
X025157Y012984D01*
X025261Y013089D02*
X036405Y013089D01*
X036446Y013187D02*
X025334Y013187D01*
X025374Y013286D02*
X036537Y013286D01*
X036709Y013384D02*
X025401Y013384D01*
X025401Y013483D02*
X036721Y013483D01*
X036542Y013581D02*
X025399Y013581D01*
X025358Y013680D02*
X036448Y013680D01*
X036408Y013778D02*
X025317Y013778D01*
X025221Y013877D02*
X036381Y013877D01*
X036381Y013975D02*
X025074Y013975D01*
X024599Y013975D02*
X022542Y013975D01*
X022611Y014074D02*
X036399Y014074D01*
X036440Y014172D02*
X022710Y014172D01*
X022808Y014271D02*
X036522Y014271D01*
X036672Y014369D02*
X022907Y014369D01*
X022565Y014763D02*
X022091Y014763D01*
X022190Y014665D02*
X022467Y014665D01*
X022368Y014566D02*
X022235Y014566D01*
X022258Y014468D02*
X022270Y014468D01*
X021868Y014435D02*
X014105Y014435D01*
X013751Y014271D02*
X013558Y014271D01*
X013657Y014369D02*
X013715Y014369D01*
X013816Y014172D02*
X013460Y014172D01*
X013361Y014074D02*
X013959Y014074D01*
X014251Y014074D02*
X021721Y014074D01*
X021579Y014172D02*
X014394Y014172D01*
X014329Y014763D02*
X021644Y014763D01*
X022014Y014074D02*
X022022Y014074D01*
X022022Y013975D02*
X013263Y013975D01*
X013369Y013286D02*
X013467Y013286D01*
X013105Y012998D02*
X014105Y011935D01*
X019900Y011935D01*
X022278Y009407D01*
X021714Y009444D02*
X013341Y009444D01*
X013341Y009346D02*
X021714Y009346D01*
X021733Y009247D02*
X013341Y009247D01*
X013341Y009149D02*
X021774Y009149D01*
X021837Y009050D02*
X013329Y009050D01*
X013341Y009081D02*
X013264Y008893D01*
X013120Y008750D01*
X012933Y008672D01*
X012730Y008672D01*
X012542Y008750D01*
X012399Y008893D01*
X012321Y009081D01*
X012321Y009884D01*
X012399Y010071D01*
X012542Y010215D01*
X012730Y010292D01*
X012933Y010292D01*
X013120Y010215D01*
X013264Y010071D01*
X013341Y009884D01*
X013341Y009081D01*
X013288Y008952D02*
X021936Y008952D01*
X022142Y008853D02*
X013223Y008853D01*
X013125Y008755D02*
X036417Y008755D01*
X036467Y008656D02*
X010429Y008656D01*
X010527Y008755D02*
X011692Y008755D01*
X011781Y008755D02*
X011881Y008755D01*
X011971Y008755D02*
X012538Y008755D01*
X012439Y008853D02*
X012139Y008853D01*
X012219Y008952D02*
X012375Y008952D01*
X012334Y009050D02*
X012262Y009050D01*
X012281Y009149D02*
X012321Y009149D01*
X012321Y009247D02*
X012281Y009247D01*
X012281Y009346D02*
X012321Y009346D01*
X012321Y009444D02*
X011881Y009444D01*
X011881Y009532D02*
X012281Y009532D01*
X012281Y009818D01*
X012270Y009888D01*
X012248Y009955D01*
X012216Y010018D01*
X012175Y010075D01*
X012125Y010125D01*
X012067Y010167D01*
X012004Y010199D01*
X011937Y010221D01*
X011881Y010230D01*
X011881Y009532D01*
X011881Y009543D02*
X011781Y009543D01*
X011781Y009641D02*
X011881Y009641D01*
X011881Y009740D02*
X011781Y009740D01*
X011781Y009838D02*
X011881Y009838D01*
X011881Y009937D02*
X011781Y009937D01*
X011781Y010035D02*
X011881Y010035D01*
X011881Y010134D02*
X011781Y010134D01*
X011814Y010232D02*
X012585Y010232D01*
X012461Y010134D02*
X012113Y010134D01*
X012204Y010035D02*
X012384Y010035D01*
X012343Y009937D02*
X012254Y009937D01*
X012278Y009838D02*
X012321Y009838D01*
X012321Y009740D02*
X012281Y009740D01*
X012281Y009641D02*
X012321Y009641D01*
X012321Y009543D02*
X012281Y009543D01*
X011881Y009346D02*
X011781Y009346D01*
X011781Y009444D02*
X011230Y009444D01*
X011230Y009346D02*
X011381Y009346D01*
X011381Y009247D02*
X011230Y009247D01*
X011230Y009149D02*
X011381Y009149D01*
X011401Y009050D02*
X010924Y009050D01*
X010722Y008952D02*
X011444Y008952D01*
X011524Y008853D02*
X010624Y008853D01*
X010331Y008558D02*
X036565Y008558D01*
X036652Y008361D02*
X010136Y008361D01*
X010233Y008459D02*
X037855Y008459D01*
X037855Y008361D02*
X037560Y008361D01*
X037628Y008332D02*
X037456Y008403D01*
X036755Y008403D01*
X036583Y008332D01*
X036452Y008201D01*
X036381Y008029D01*
X036381Y007843D01*
X036452Y007671D01*
X017101Y007671D01*
X017091Y007696D02*
X016976Y007811D01*
X016826Y007873D01*
X016664Y007873D01*
X016514Y007811D01*
X016402Y007699D01*
X016341Y007846D01*
X016226Y007961D01*
X016076Y008023D01*
X015914Y008023D01*
X015764Y007961D01*
X015649Y007846D01*
X015587Y007696D01*
X015587Y007534D01*
X015649Y007384D01*
X015715Y007318D01*
X015715Y005193D01*
X015755Y005098D01*
X015828Y005025D01*
X016648Y004205D01*
X016743Y004165D01*
X019067Y004165D01*
X019162Y004205D01*
X019235Y004278D01*
X019540Y004583D01*
X019594Y004529D01*
X019744Y004467D01*
X019906Y004467D01*
X020056Y004529D01*
X020171Y004644D01*
X020233Y004794D01*
X020233Y004956D01*
X020171Y005106D01*
X020167Y005110D01*
X033562Y005110D01*
X033464Y005012D02*
X020210Y005012D01*
X020233Y004913D02*
X033365Y004913D01*
X033267Y004815D02*
X020233Y004815D01*
X020201Y004716D02*
X033168Y004716D01*
X033070Y004618D02*
X020145Y004618D01*
X020032Y004519D02*
X032971Y004519D01*
X032873Y004421D02*
X019378Y004421D01*
X019477Y004519D02*
X019618Y004519D01*
X019280Y004322D02*
X032774Y004322D01*
X032677Y004225D02*
X032577Y004225D01*
X032434Y004166D01*
X032324Y004056D01*
X032265Y003913D01*
X032265Y003757D01*
X032324Y003614D01*
X032434Y003504D01*
X032577Y003445D01*
X032733Y003445D01*
X032876Y003504D01*
X032986Y003614D01*
X033045Y003757D01*
X033045Y003857D01*
X035733Y006545D01*
X035833Y006545D01*
X035976Y006604D01*
X036086Y006714D01*
X036145Y006857D01*
X036145Y007013D01*
X036086Y007156D01*
X035976Y007266D01*
X035833Y007325D01*
X035677Y007325D01*
X035534Y007266D01*
X035424Y007156D01*
X035365Y007013D01*
X035365Y006913D01*
X032677Y004225D01*
X032574Y004224D02*
X019181Y004224D01*
X019015Y004425D02*
X016795Y004425D01*
X015975Y005245D01*
X015975Y007595D01*
X015995Y007615D01*
X015617Y007770D02*
X014345Y007770D01*
X014345Y007812D02*
X014270Y007993D01*
X014133Y008130D01*
X013952Y008205D01*
X013758Y008205D01*
X013577Y008130D01*
X013440Y007993D01*
X013365Y007812D01*
X013365Y007058D01*
X013440Y006877D01*
X013577Y006740D01*
X013758Y006665D01*
X013952Y006665D01*
X014133Y006740D01*
X014270Y006877D01*
X014345Y007058D01*
X014345Y007812D01*
X014322Y007868D02*
X015671Y007868D01*
X015777Y007967D02*
X014281Y007967D01*
X014198Y008065D02*
X036396Y008065D01*
X036381Y007967D02*
X016213Y007967D01*
X016319Y007868D02*
X016652Y007868D01*
X016838Y007868D02*
X036381Y007868D01*
X036411Y007770D02*
X017018Y007770D01*
X017091Y007696D02*
X017153Y007546D01*
X017153Y007384D01*
X017091Y007234D01*
X017005Y007148D01*
X017005Y005733D01*
X017653Y005085D01*
X018268Y005085D01*
X018354Y005171D01*
X018504Y005233D01*
X018666Y005233D01*
X018816Y005171D01*
X018931Y005056D01*
X018993Y004906D01*
X018993Y004771D01*
X019318Y005095D01*
X019413Y005135D01*
X019508Y005135D01*
X019594Y005221D01*
X019744Y005283D01*
X019779Y005283D01*
X019588Y005475D01*
X019460Y005783D01*
X019460Y006117D01*
X019588Y006426D01*
X019824Y006662D01*
X020133Y006790D01*
X020467Y006790D01*
X020776Y006662D01*
X021012Y006426D01*
X021140Y006117D01*
X021140Y005783D01*
X021012Y005475D01*
X020776Y005238D01*
X020467Y005110D01*
X020167Y005110D01*
X019825Y004875D02*
X019465Y004875D01*
X019015Y004425D01*
X018993Y004815D02*
X019037Y004815D01*
X018990Y004913D02*
X019135Y004913D01*
X019234Y005012D02*
X018949Y005012D01*
X018877Y005110D02*
X019353Y005110D01*
X019581Y005209D02*
X018726Y005209D01*
X018444Y005209D02*
X017529Y005209D01*
X017431Y005307D02*
X019755Y005307D01*
X019657Y005406D02*
X017332Y005406D01*
X017234Y005504D02*
X019576Y005504D01*
X019535Y005603D02*
X017135Y005603D01*
X017037Y005701D02*
X019494Y005701D01*
X019460Y005800D02*
X017005Y005800D01*
X017005Y005898D02*
X019460Y005898D01*
X019460Y005997D02*
X017005Y005997D01*
X017005Y006095D02*
X019460Y006095D01*
X019491Y006194D02*
X017005Y006194D01*
X017005Y006292D02*
X019532Y006292D01*
X019573Y006391D02*
X017005Y006391D01*
X017005Y006489D02*
X019651Y006489D01*
X019749Y006588D02*
X017005Y006588D01*
X017005Y006686D02*
X019881Y006686D01*
X020119Y006785D02*
X017005Y006785D01*
X017005Y006883D02*
X035335Y006883D01*
X035365Y006982D02*
X017005Y006982D01*
X017005Y007080D02*
X035393Y007080D01*
X035447Y007179D02*
X017036Y007179D01*
X017109Y007277D02*
X035562Y007277D01*
X035948Y007277D02*
X036528Y007277D01*
X036583Y007332D02*
X036452Y007201D01*
X036381Y007029D01*
X036381Y006843D01*
X036452Y006671D01*
X036583Y006540D01*
X036755Y006468D01*
X037456Y006468D01*
X037628Y006540D01*
X037759Y006671D01*
X037831Y006843D01*
X037831Y007029D01*
X037759Y007201D01*
X037628Y007332D01*
X037456Y007403D01*
X036755Y007403D01*
X036583Y007332D01*
X036688Y007376D02*
X017150Y007376D01*
X017153Y007474D02*
X036742Y007474D01*
X036755Y007468D02*
X037456Y007468D01*
X037628Y007540D01*
X037759Y007671D01*
X037855Y007671D01*
X037759Y007671D02*
X037831Y007843D01*
X037831Y008029D01*
X037759Y008201D01*
X037628Y008332D01*
X037698Y008262D02*
X037855Y008262D01*
X037855Y008164D02*
X037775Y008164D01*
X037816Y008065D02*
X037855Y008065D01*
X037855Y007967D02*
X037831Y007967D01*
X037831Y007868D02*
X037855Y007868D01*
X037855Y007770D02*
X037800Y007770D01*
X037855Y007573D02*
X037661Y007573D01*
X037470Y007474D02*
X037855Y007474D01*
X037855Y007376D02*
X037523Y007376D01*
X037683Y007277D02*
X037855Y007277D01*
X037855Y007179D02*
X037769Y007179D01*
X037809Y007080D02*
X037855Y007080D01*
X037855Y006982D02*
X037831Y006982D01*
X037831Y006883D02*
X037855Y006883D01*
X037855Y006785D02*
X037806Y006785D01*
X037766Y006686D02*
X037855Y006686D01*
X037855Y006588D02*
X037676Y006588D01*
X037506Y006489D02*
X037855Y006489D01*
X037855Y006391D02*
X037487Y006391D01*
X037456Y006403D02*
X037628Y006332D01*
X037759Y006201D01*
X037831Y006029D01*
X037831Y005843D01*
X037759Y005671D01*
X037628Y005540D01*
X037456Y005468D01*
X036755Y005468D01*
X036583Y005540D01*
X036452Y005671D01*
X036381Y005843D01*
X036381Y006029D01*
X036452Y006201D01*
X036583Y006332D01*
X036755Y006403D01*
X037456Y006403D01*
X037668Y006292D02*
X037855Y006292D01*
X037855Y006194D02*
X037762Y006194D01*
X037803Y006095D02*
X037855Y006095D01*
X037855Y005997D02*
X037831Y005997D01*
X037831Y005898D02*
X037855Y005898D01*
X037855Y005800D02*
X037813Y005800D01*
X037772Y005701D02*
X037855Y005701D01*
X037855Y005603D02*
X037691Y005603D01*
X037542Y005504D02*
X037855Y005504D01*
X037855Y005406D02*
X034593Y005406D01*
X034692Y005504D02*
X036669Y005504D01*
X036755Y005403D02*
X036583Y005332D01*
X036452Y005201D01*
X036381Y005029D01*
X036381Y004843D01*
X036452Y004671D01*
X036583Y004540D01*
X036755Y004468D01*
X037456Y004468D01*
X037628Y004540D01*
X037759Y004671D01*
X037831Y004843D01*
X037831Y005029D01*
X037759Y005201D01*
X037628Y005332D01*
X037456Y005403D01*
X036755Y005403D01*
X036558Y005307D02*
X034495Y005307D01*
X034396Y005209D02*
X036460Y005209D01*
X036414Y005110D02*
X034298Y005110D01*
X034199Y005012D02*
X036381Y005012D01*
X036381Y004913D02*
X034101Y004913D01*
X034002Y004815D02*
X036392Y004815D01*
X036433Y004716D02*
X033904Y004716D01*
X033805Y004618D02*
X036505Y004618D01*
X036633Y004519D02*
X033707Y004519D01*
X033608Y004421D02*
X037855Y004421D01*
X037855Y004519D02*
X037578Y004519D01*
X037706Y004618D02*
X037855Y004618D01*
X037855Y004716D02*
X037778Y004716D01*
X037819Y004815D02*
X037855Y004815D01*
X037855Y004913D02*
X037831Y004913D01*
X037831Y005012D02*
X037855Y005012D01*
X037855Y005110D02*
X037797Y005110D01*
X037752Y005209D02*
X037855Y005209D01*
X037855Y005307D02*
X037653Y005307D01*
X036520Y005603D02*
X034790Y005603D01*
X034889Y005701D02*
X036439Y005701D01*
X036399Y005800D02*
X034987Y005800D01*
X035086Y005898D02*
X036381Y005898D01*
X036381Y005997D02*
X035184Y005997D01*
X035283Y006095D02*
X036408Y006095D01*
X036449Y006194D02*
X035381Y006194D01*
X035480Y006292D02*
X036543Y006292D01*
X036724Y006391D02*
X035578Y006391D01*
X035677Y006489D02*
X036705Y006489D01*
X036535Y006588D02*
X035935Y006588D01*
X036058Y006686D02*
X036446Y006686D01*
X036405Y006785D02*
X036115Y006785D01*
X036145Y006883D02*
X036381Y006883D01*
X036381Y006982D02*
X036145Y006982D01*
X036117Y007080D02*
X036402Y007080D01*
X036443Y007179D02*
X036063Y007179D01*
X035755Y006935D02*
X032655Y003835D01*
X033045Y003830D02*
X036454Y003830D01*
X036451Y003840D02*
X036471Y003779D01*
X036500Y003722D01*
X036537Y003670D01*
X036583Y003625D01*
X036635Y003587D01*
X036692Y003558D01*
X036753Y003538D01*
X036816Y003528D01*
X037077Y003528D01*
X037077Y003907D01*
X037134Y003907D01*
X037134Y003528D01*
X037395Y003528D01*
X037459Y003538D01*
X037520Y003558D01*
X037577Y003587D01*
X037629Y003625D01*
X037674Y003670D01*
X037712Y003722D01*
X037741Y003779D01*
X037761Y003840D01*
X037771Y003904D01*
X037771Y003907D01*
X037134Y003907D01*
X037134Y003965D01*
X037077Y003965D01*
X037077Y004343D01*
X036816Y004343D01*
X036753Y004333D01*
X036692Y004313D01*
X036635Y004284D01*
X036583Y004247D01*
X036537Y004201D01*
X036500Y004149D01*
X036471Y004092D01*
X036451Y004031D01*
X036441Y003968D01*
X036441Y003965D01*
X037077Y003965D01*
X037077Y003907D01*
X036441Y003907D01*
X036441Y003904D01*
X036451Y003840D01*
X036495Y003731D02*
X033034Y003731D01*
X032993Y003633D02*
X036575Y003633D01*
X036780Y003534D02*
X032906Y003534D01*
X033116Y003928D02*
X037077Y003928D01*
X037106Y003936D02*
X036405Y003235D01*
X032335Y003235D01*
X030815Y004755D01*
X021895Y004755D01*
X020575Y003435D01*
X017235Y003435D01*
X016629Y004224D02*
X007730Y004224D01*
X007730Y004322D02*
X016530Y004322D01*
X016432Y004421D02*
X007730Y004421D01*
X007730Y004519D02*
X016333Y004519D01*
X016235Y004618D02*
X007730Y004618D01*
X007730Y004716D02*
X016136Y004716D01*
X016038Y004815D02*
X007730Y004815D01*
X007730Y004913D02*
X015939Y004913D01*
X015841Y005012D02*
X007730Y005012D01*
X007730Y005110D02*
X015749Y005110D01*
X015715Y005209D02*
X007730Y005209D01*
X007730Y005307D02*
X015715Y005307D01*
X015715Y005406D02*
X007730Y005406D01*
X007730Y005504D02*
X015715Y005504D01*
X015715Y005603D02*
X007730Y005603D01*
X007730Y005701D02*
X015715Y005701D01*
X015715Y005800D02*
X007730Y005800D01*
X007730Y005898D02*
X015715Y005898D01*
X015715Y005997D02*
X007791Y005997D01*
X007889Y006095D02*
X015715Y006095D01*
X015715Y006194D02*
X007986Y006194D01*
X008084Y006292D02*
X015715Y006292D01*
X015715Y006391D02*
X008182Y006391D01*
X008280Y006489D02*
X015715Y006489D01*
X015715Y006588D02*
X008377Y006588D01*
X008475Y006686D02*
X011707Y006686D01*
X011758Y006665D02*
X011952Y006665D01*
X012133Y006740D01*
X012270Y006877D01*
X012345Y007058D01*
X012345Y007812D01*
X012270Y007993D01*
X012133Y008130D01*
X011952Y008205D01*
X011758Y008205D01*
X011577Y008130D01*
X011440Y007993D01*
X011365Y007812D01*
X011365Y007058D01*
X011440Y006877D01*
X011577Y006740D01*
X011758Y006665D01*
X012003Y006686D02*
X012707Y006686D01*
X012758Y006665D02*
X012952Y006665D01*
X013133Y006740D01*
X013270Y006877D01*
X013345Y007058D01*
X013345Y007812D01*
X013270Y007993D01*
X013133Y008130D01*
X012952Y008205D01*
X012758Y008205D01*
X012577Y008130D01*
X012440Y007993D01*
X012365Y007812D01*
X012365Y007058D01*
X012440Y006877D01*
X012577Y006740D01*
X012758Y006665D01*
X013003Y006686D02*
X013707Y006686D01*
X013533Y006785D02*
X013177Y006785D01*
X013273Y006883D02*
X013437Y006883D01*
X013396Y006982D02*
X013314Y006982D01*
X013345Y007080D02*
X013365Y007080D01*
X013365Y007179D02*
X013345Y007179D01*
X013345Y007277D02*
X013365Y007277D01*
X013365Y007376D02*
X013345Y007376D01*
X013345Y007474D02*
X013365Y007474D01*
X013365Y007573D02*
X013345Y007573D01*
X013345Y007671D02*
X013365Y007671D01*
X013365Y007770D02*
X013345Y007770D01*
X013322Y007868D02*
X013388Y007868D01*
X013429Y007967D02*
X013281Y007967D01*
X013198Y008065D02*
X013512Y008065D01*
X013657Y008164D02*
X013053Y008164D01*
X012657Y008164D02*
X012053Y008164D01*
X012198Y008065D02*
X012512Y008065D01*
X012429Y007967D02*
X012281Y007967D01*
X012322Y007868D02*
X012388Y007868D01*
X012365Y007770D02*
X012345Y007770D01*
X012345Y007671D02*
X012365Y007671D01*
X012365Y007573D02*
X012345Y007573D01*
X012345Y007474D02*
X012365Y007474D01*
X012365Y007376D02*
X012345Y007376D01*
X012345Y007277D02*
X012365Y007277D01*
X012365Y007179D02*
X012345Y007179D01*
X012345Y007080D02*
X012365Y007080D01*
X012396Y006982D02*
X012314Y006982D01*
X012273Y006883D02*
X012437Y006883D01*
X012533Y006785D02*
X012177Y006785D01*
X011533Y006785D02*
X008573Y006785D01*
X008670Y006883D02*
X011437Y006883D01*
X011396Y006982D02*
X008768Y006982D01*
X008866Y007080D02*
X011365Y007080D01*
X011365Y007179D02*
X008963Y007179D01*
X009061Y007277D02*
X011365Y007277D01*
X011365Y007376D02*
X009159Y007376D01*
X009257Y007474D02*
X011365Y007474D01*
X011365Y007573D02*
X009354Y007573D01*
X009452Y007671D02*
X011365Y007671D01*
X011365Y007770D02*
X009550Y007770D01*
X009647Y007868D02*
X011388Y007868D01*
X011429Y007967D02*
X009745Y007967D01*
X009843Y008065D02*
X011512Y008065D01*
X011657Y008164D02*
X009940Y008164D01*
X010038Y008262D02*
X036513Y008262D01*
X036437Y008164D02*
X014053Y008164D01*
X014345Y007671D02*
X015587Y007671D01*
X015587Y007573D02*
X014345Y007573D01*
X014345Y007474D02*
X015612Y007474D01*
X015657Y007376D02*
X014345Y007376D01*
X014345Y007277D02*
X015715Y007277D01*
X015715Y007179D02*
X014345Y007179D01*
X014345Y007080D02*
X015715Y007080D01*
X015715Y006982D02*
X014314Y006982D01*
X014273Y006883D02*
X015715Y006883D01*
X015715Y006785D02*
X014177Y006785D01*
X014003Y006686D02*
X015715Y006686D01*
X016745Y007465D02*
X016745Y005625D01*
X017545Y004825D01*
X018585Y004825D01*
X018293Y005110D02*
X017628Y005110D01*
X020481Y006785D02*
X032324Y006785D01*
X032338Y006790D02*
X032029Y006662D01*
X031793Y006426D01*
X031665Y006117D01*
X031665Y005783D01*
X031793Y005475D01*
X032029Y005238D01*
X032338Y005110D01*
X032672Y005110D01*
X032980Y005238D01*
X033217Y005475D01*
X033345Y005783D01*
X033345Y006117D01*
X033217Y006426D01*
X032980Y006662D01*
X032672Y006790D01*
X032338Y006790D01*
X032086Y006686D02*
X020719Y006686D01*
X020851Y006588D02*
X031954Y006588D01*
X031855Y006489D02*
X020949Y006489D01*
X021027Y006391D02*
X031778Y006391D01*
X031737Y006292D02*
X021067Y006292D01*
X021108Y006194D02*
X031696Y006194D01*
X031665Y006095D02*
X021140Y006095D01*
X021140Y005997D02*
X031665Y005997D01*
X031665Y005898D02*
X021140Y005898D01*
X021140Y005800D02*
X031665Y005800D01*
X031699Y005701D02*
X021106Y005701D01*
X021065Y005603D02*
X031740Y005603D01*
X031780Y005504D02*
X021024Y005504D01*
X020943Y005406D02*
X031862Y005406D01*
X031960Y005307D02*
X020844Y005307D01*
X020704Y005209D02*
X032101Y005209D01*
X032908Y005209D02*
X033661Y005209D01*
X033759Y005307D02*
X033049Y005307D01*
X033148Y005406D02*
X033858Y005406D01*
X033956Y005504D02*
X033229Y005504D01*
X033270Y005603D02*
X034055Y005603D01*
X034153Y005701D02*
X033310Y005701D01*
X033345Y005800D02*
X034252Y005800D01*
X034350Y005898D02*
X033345Y005898D01*
X033345Y005997D02*
X034449Y005997D01*
X034547Y006095D02*
X033345Y006095D01*
X033313Y006194D02*
X034646Y006194D01*
X034744Y006292D02*
X033272Y006292D01*
X033231Y006391D02*
X034843Y006391D01*
X034941Y006489D02*
X033154Y006489D01*
X033055Y006588D02*
X035040Y006588D01*
X035138Y006686D02*
X032923Y006686D01*
X032686Y006785D02*
X035237Y006785D01*
X036452Y007671D02*
X036583Y007540D01*
X036755Y007468D01*
X036550Y007573D02*
X017142Y007573D01*
X016472Y007770D02*
X016373Y007770D01*
X013341Y009543D02*
X021723Y009543D01*
X021701Y009641D02*
X013341Y009641D01*
X013341Y009740D02*
X021609Y009740D01*
X021516Y009838D02*
X013341Y009838D01*
X013319Y009937D02*
X021423Y009937D01*
X021331Y010035D02*
X013279Y010035D01*
X013201Y010134D02*
X021238Y010134D01*
X021145Y010232D02*
X013078Y010232D01*
X012244Y010626D02*
X020775Y010626D01*
X020867Y010528D02*
X012136Y010528D01*
X012029Y010429D02*
X020960Y010429D01*
X021053Y010331D02*
X011921Y010331D01*
X012351Y010725D02*
X020682Y010725D01*
X020589Y010823D02*
X012459Y010823D01*
X012566Y010922D02*
X020497Y010922D01*
X020404Y011020D02*
X012673Y011020D01*
X012781Y011119D02*
X020311Y011119D01*
X020219Y011217D02*
X012849Y011217D01*
X012865Y011316D02*
X020126Y011316D01*
X020033Y011414D02*
X012865Y011414D01*
X012865Y011513D02*
X019941Y011513D01*
X019848Y011611D02*
X012865Y011611D01*
X012865Y011710D02*
X013970Y011710D01*
X013867Y011808D02*
X012865Y011808D01*
X012865Y011907D02*
X013775Y011907D01*
X013682Y012005D02*
X012865Y012005D01*
X012865Y012104D02*
X013589Y012104D01*
X013497Y012202D02*
X012865Y012202D01*
X012865Y012301D02*
X013404Y012301D01*
X013311Y012399D02*
X012865Y012399D01*
X012865Y012498D02*
X013219Y012498D01*
X013126Y012596D02*
X012865Y012596D01*
X014355Y012935D02*
X019855Y012935D01*
X021355Y011435D01*
X022959Y011435D01*
X023151Y011611D02*
X036512Y011611D01*
X036436Y011710D02*
X021448Y011710D01*
X021350Y011808D02*
X036395Y011808D01*
X036381Y011907D02*
X021251Y011907D01*
X021153Y012005D02*
X036381Y012005D01*
X036412Y012104D02*
X021054Y012104D01*
X020956Y012202D02*
X036453Y012202D01*
X036552Y012301D02*
X020857Y012301D01*
X020759Y012399D02*
X036745Y012399D01*
X036685Y012498D02*
X020660Y012498D01*
X020562Y012596D02*
X036527Y012596D01*
X036442Y012695D02*
X020463Y012695D01*
X020365Y012793D02*
X036401Y012793D01*
X036649Y011513D02*
X023249Y011513D01*
X023279Y012956D02*
X023481Y012956D01*
X023667Y013033D01*
X023810Y013175D01*
X023887Y013362D01*
X023887Y013563D01*
X023810Y013750D01*
X023667Y013892D01*
X023481Y013969D01*
X023279Y013969D01*
X023093Y013892D01*
X022951Y013750D01*
X022873Y013563D01*
X022873Y013362D01*
X022951Y013175D01*
X023093Y013033D01*
X023279Y012956D01*
X023197Y012990D02*
X022603Y012990D01*
X022702Y013089D02*
X023037Y013089D01*
X022946Y013187D02*
X022775Y013187D01*
X022815Y013286D02*
X022905Y013286D01*
X022873Y013384D02*
X022842Y013384D01*
X022842Y013483D02*
X022873Y013483D01*
X022881Y013581D02*
X022840Y013581D01*
X022799Y013680D02*
X022921Y013680D01*
X022979Y013778D02*
X022758Y013778D01*
X022662Y013877D02*
X023077Y013877D01*
X023683Y013877D02*
X024453Y013877D01*
X024357Y013778D02*
X023782Y013778D01*
X023839Y013680D02*
X024316Y013680D01*
X024275Y013581D02*
X023880Y013581D01*
X023887Y013483D02*
X024273Y013483D01*
X024273Y013384D02*
X023887Y013384D01*
X023855Y013286D02*
X024299Y013286D01*
X024340Y013187D02*
X023815Y013187D01*
X023723Y013089D02*
X024413Y013089D01*
X024511Y012990D02*
X023564Y012990D01*
X022278Y013463D02*
X022283Y014113D01*
X023580Y015410D01*
X023605Y015385D01*
X023655Y015385D01*
X023605Y015435D02*
X026105Y015435D01*
X029355Y018685D01*
X028965Y018703D02*
X012925Y018703D01*
X012972Y018802D02*
X028981Y018802D01*
X029022Y018900D02*
X018215Y018900D01*
X017795Y018900D02*
X012995Y018900D01*
X012995Y018999D02*
X017690Y018999D01*
X017640Y019097D02*
X012960Y019097D01*
X012896Y019196D02*
X017615Y019196D01*
X017615Y019294D02*
X012757Y019294D01*
X012605Y018935D02*
X012605Y017935D01*
X012881Y018211D02*
X028513Y018211D01*
X028611Y018309D02*
X012865Y018309D01*
X012865Y018408D02*
X028710Y018408D01*
X028808Y018506D02*
X012865Y018506D01*
X012865Y018605D02*
X028907Y018605D01*
X028414Y018112D02*
X012954Y018112D01*
X012995Y018014D02*
X028316Y018014D01*
X028217Y017915D02*
X012995Y017915D01*
X012978Y017817D02*
X028119Y017817D01*
X028020Y017718D02*
X020698Y017718D01*
X020842Y017620D02*
X027922Y017620D01*
X027823Y017521D02*
X020941Y017521D01*
X021023Y017423D02*
X027725Y017423D01*
X027626Y017324D02*
X021064Y017324D01*
X021105Y017226D02*
X027528Y017226D01*
X027429Y017127D02*
X021140Y017127D01*
X021140Y017029D02*
X027331Y017029D01*
X027232Y016930D02*
X021140Y016930D01*
X021140Y016832D02*
X027134Y016832D01*
X027035Y016733D02*
X021109Y016733D01*
X021068Y016635D02*
X026937Y016635D01*
X026838Y016536D02*
X021028Y016536D01*
X020951Y016438D02*
X026740Y016438D01*
X026641Y016339D02*
X020853Y016339D01*
X020724Y016241D02*
X026543Y016241D01*
X026444Y016142D02*
X020486Y016142D01*
X020114Y016142D02*
X015430Y016142D01*
X015528Y016241D02*
X019876Y016241D01*
X019747Y016339D02*
X015597Y016339D01*
X015615Y016438D02*
X019648Y016438D01*
X019572Y016536D02*
X015615Y016536D01*
X015615Y016635D02*
X019531Y016635D01*
X019491Y016733D02*
X015615Y016733D01*
X015615Y016832D02*
X019460Y016832D01*
X019460Y016930D02*
X015652Y016930D01*
X014345Y016832D02*
X013865Y016832D01*
X013865Y016733D02*
X014345Y016733D01*
X014345Y016635D02*
X013865Y016635D01*
X013865Y016536D02*
X014345Y016536D01*
X014345Y016438D02*
X013865Y016438D01*
X013865Y016339D02*
X014345Y016339D01*
X014293Y016241D02*
X013865Y016241D01*
X013865Y016142D02*
X014194Y016142D01*
X014096Y016044D02*
X013865Y016044D01*
X013865Y015945D02*
X013997Y015945D01*
X013899Y015847D02*
X013865Y015847D01*
X013605Y015685D02*
X011605Y013685D01*
X011605Y011310D01*
X010605Y010435D01*
X011384Y009838D02*
X011385Y009838D01*
X011381Y009740D02*
X011277Y009740D01*
X011781Y009247D02*
X011881Y009247D01*
X011881Y009149D02*
X011781Y009149D01*
X011781Y009050D02*
X011881Y009050D01*
X011881Y008952D02*
X011781Y008952D01*
X011781Y008853D02*
X011881Y008853D01*
X011230Y012560D02*
X010130Y012560D01*
X010480Y013060D02*
X009105Y014435D01*
X009473Y014566D02*
X012118Y014566D01*
X012020Y014468D02*
X009495Y014468D01*
X009539Y014369D02*
X011921Y014369D01*
X011823Y014271D02*
X009637Y014271D01*
X009736Y014172D02*
X011724Y014172D01*
X011626Y014074D02*
X009834Y014074D01*
X009933Y013975D02*
X011527Y013975D01*
X011429Y013877D02*
X010031Y013877D01*
X010130Y013778D02*
X011362Y013778D01*
X011345Y013680D02*
X010228Y013680D01*
X010327Y013581D02*
X011345Y013581D01*
X011345Y013483D02*
X010425Y013483D01*
X010524Y013384D02*
X011002Y013384D01*
X011230Y013060D02*
X010480Y013060D01*
X009887Y013286D02*
X006653Y013286D01*
X004724Y014172D02*
X004644Y014172D01*
X004626Y014074D02*
X004501Y014074D01*
X004527Y013975D02*
X004263Y013975D01*
X004164Y013877D02*
X004429Y013877D01*
X004164Y013778D02*
X004115Y013778D01*
X003595Y013778D02*
X000371Y013778D01*
X000371Y013680D02*
X003595Y013680D01*
X003595Y013581D02*
X000370Y013581D01*
X000370Y013483D02*
X003595Y013483D01*
X003595Y013384D02*
X000370Y013384D01*
X000370Y013286D02*
X003595Y013286D01*
X003595Y013187D02*
X000369Y013187D01*
X000369Y013089D02*
X003595Y013089D01*
X003595Y012990D02*
X000369Y012990D01*
X000369Y012892D02*
X003595Y012892D01*
X003595Y012793D02*
X000368Y012793D01*
X000368Y012695D02*
X003595Y012695D01*
X003595Y012596D02*
X000368Y012596D01*
X000368Y012498D02*
X003595Y012498D01*
X003595Y012399D02*
X000367Y012399D01*
X000367Y012301D02*
X003595Y012301D01*
X003595Y012202D02*
X000367Y012202D01*
X000367Y012104D02*
X003607Y012104D01*
X003373Y012005D02*
X000837Y012005D01*
X000373Y012005D02*
X000366Y012005D01*
X000371Y013877D02*
X003595Y013877D01*
X003595Y013975D02*
X000371Y013975D01*
X000372Y014074D02*
X003631Y014074D01*
X003724Y014172D02*
X000372Y014172D01*
X000372Y014271D02*
X003823Y014271D01*
X003921Y014369D02*
X000372Y014369D01*
X000372Y014468D02*
X003965Y014468D01*
X003987Y014566D02*
X000373Y014566D01*
X000373Y014665D02*
X004033Y014665D01*
X004131Y014763D02*
X000373Y014763D01*
X004115Y013089D02*
X004172Y013089D01*
X006605Y015685D02*
X006105Y016185D01*
X005105Y016185D01*
X005277Y016536D02*
X013345Y016536D01*
X013345Y016438D02*
X006175Y016438D01*
X006319Y016339D02*
X013345Y016339D01*
X013345Y016241D02*
X006417Y016241D01*
X006516Y016142D02*
X013345Y016142D01*
X013345Y016044D02*
X011759Y016044D01*
X011897Y015945D02*
X013345Y015945D01*
X013345Y015847D02*
X011960Y015847D01*
X011995Y015748D02*
X013300Y015748D01*
X013202Y015650D02*
X011995Y015650D01*
X011972Y015551D02*
X013103Y015551D01*
X013005Y015453D02*
X011924Y015453D01*
X011957Y015354D02*
X012906Y015354D01*
X012808Y015256D02*
X011995Y015256D01*
X011995Y015157D02*
X012709Y015157D01*
X012611Y015059D02*
X011975Y015059D01*
X011932Y014960D02*
X012512Y014960D01*
X012414Y014862D02*
X011833Y014862D01*
X012217Y014665D02*
X009427Y014665D01*
X009329Y014763D02*
X012315Y014763D01*
X011605Y015685D02*
X006605Y015685D01*
X006713Y015945D02*
X011313Y015945D01*
X011451Y016044D02*
X006614Y016044D01*
X005124Y016635D02*
X013345Y016635D01*
X013345Y016733D02*
X005164Y016733D01*
X005195Y016832D02*
X013345Y016832D01*
X013308Y016930D02*
X005195Y016930D01*
X005195Y017029D02*
X013248Y017029D01*
X013215Y017127D02*
X005195Y017127D01*
X005160Y017226D02*
X013215Y017226D01*
X013240Y017324D02*
X005119Y017324D01*
X005078Y017423D02*
X013291Y017423D01*
X013397Y017521D02*
X004996Y017521D01*
X004897Y017620D02*
X011619Y017620D01*
X012091Y017620D02*
X012369Y017620D01*
X012273Y017718D02*
X012187Y017718D01*
X012228Y017817D02*
X012232Y017817D01*
X012256Y018112D02*
X012204Y018112D01*
X012841Y017620D02*
X019758Y017620D01*
X019901Y017718D02*
X012937Y017718D01*
X013605Y017185D02*
X013605Y015685D01*
X014346Y015059D02*
X022861Y015059D01*
X022959Y015157D02*
X014445Y015157D01*
X014543Y015256D02*
X023058Y015256D01*
X023156Y015354D02*
X014642Y015354D01*
X014740Y015453D02*
X023255Y015453D01*
X023302Y015551D02*
X014839Y015551D01*
X014937Y015650D02*
X023368Y015650D01*
X023512Y015748D02*
X015036Y015748D01*
X015134Y015847D02*
X026149Y015847D01*
X026247Y015945D02*
X015233Y015945D01*
X015331Y016044D02*
X026346Y016044D01*
X026050Y015748D02*
X023798Y015748D01*
X023605Y015435D02*
X023580Y015410D01*
X023880Y015059D02*
X036460Y015059D01*
X036505Y015157D02*
X023979Y015157D01*
X022762Y014960D02*
X014248Y014960D01*
X014149Y014862D02*
X022664Y014862D01*
X019205Y013485D02*
X018255Y013485D01*
X018514Y013778D02*
X018946Y013778D01*
X014308Y016930D02*
X013902Y016930D01*
X013962Y017029D02*
X014248Y017029D01*
X014215Y017127D02*
X013995Y017127D01*
X013995Y017226D02*
X014215Y017226D01*
X014240Y017324D02*
X013970Y017324D01*
X013919Y017423D02*
X014291Y017423D01*
X014397Y017521D02*
X013813Y017521D01*
X014605Y019685D02*
X012355Y019685D01*
X012835Y019984D02*
X002764Y019984D01*
X002765Y020082D02*
X012737Y020082D01*
X012638Y020181D02*
X002766Y020181D01*
X002767Y020279D02*
X012595Y020279D01*
X012595Y020378D02*
X002768Y020378D01*
X002769Y020476D02*
X012595Y020476D01*
X012595Y020575D02*
X002770Y020575D01*
X002771Y020673D02*
X012622Y020673D01*
X012720Y020772D02*
X002772Y020772D01*
X002773Y020870D02*
X012819Y020870D01*
X012850Y020969D02*
X002774Y020969D01*
X002775Y021067D02*
X012752Y021067D01*
X012653Y021166D02*
X002776Y021166D01*
X002777Y021264D02*
X012595Y021264D01*
X012595Y021363D02*
X002778Y021363D01*
X002779Y021461D02*
X012595Y021461D01*
X012595Y021560D02*
X002780Y021560D01*
X002781Y021658D02*
X012607Y021658D01*
X012705Y021757D02*
X002782Y021757D01*
X002783Y021855D02*
X012804Y021855D01*
X013406Y021855D02*
X013804Y021855D01*
X013705Y021757D02*
X013505Y021757D01*
X013603Y021658D02*
X013607Y021658D01*
X014406Y021855D02*
X014889Y021855D01*
X014790Y021757D02*
X014505Y021757D01*
X014603Y021658D02*
X014692Y021658D01*
X014655Y021560D02*
X014615Y021560D01*
X015055Y021560D02*
X015155Y021560D01*
X015155Y021658D02*
X015055Y021658D01*
X015055Y021757D02*
X015155Y021757D01*
X015155Y021855D02*
X015055Y021855D01*
X015321Y021855D02*
X022255Y021855D01*
X022255Y021757D02*
X015420Y021757D01*
X015518Y021658D02*
X022255Y021658D01*
X022255Y021560D02*
X018120Y021560D01*
X018280Y021461D02*
X022255Y021461D01*
X022255Y021363D02*
X018354Y021363D01*
X018394Y021264D02*
X022255Y021264D01*
X022255Y021166D02*
X018395Y021166D01*
X018378Y021067D02*
X022255Y021067D01*
X022255Y020969D02*
X018337Y020969D01*
X018265Y020870D02*
X022255Y020870D01*
X022255Y020772D02*
X018265Y020772D01*
X018265Y020673D02*
X022255Y020673D01*
X022255Y020575D02*
X018265Y020575D01*
X018265Y020476D02*
X022255Y020476D01*
X022255Y020378D02*
X018265Y020378D01*
X018265Y020279D02*
X022255Y020279D01*
X022255Y020181D02*
X018265Y020181D01*
X018265Y020082D02*
X022255Y020082D01*
X022255Y019984D02*
X018265Y019984D01*
X018265Y019885D02*
X022255Y019885D01*
X022255Y019787D02*
X018265Y019787D01*
X018265Y019688D02*
X022255Y019688D01*
X022255Y019590D02*
X018265Y019590D01*
X018300Y019491D02*
X025701Y019491D01*
X025692Y020378D02*
X025605Y020378D01*
X025605Y020476D02*
X025737Y020476D01*
X022255Y021954D02*
X002784Y021954D01*
X002785Y022052D02*
X022255Y022052D01*
X022255Y022151D02*
X002787Y022151D01*
X002788Y022249D02*
X022255Y022249D01*
X022255Y022348D02*
X002789Y022348D01*
X002790Y022446D02*
X017951Y022446D01*
X015155Y021264D02*
X015055Y021264D01*
X015055Y021166D02*
X015155Y021166D01*
X015155Y021067D02*
X015055Y021067D01*
X014819Y020870D02*
X014391Y020870D01*
X014490Y020772D02*
X014720Y020772D01*
X014622Y020673D02*
X014588Y020673D01*
X015105Y020435D02*
X015105Y020185D01*
X014605Y019685D01*
X004715Y016142D02*
X004541Y016142D01*
X007730Y004125D02*
X032393Y004125D01*
X032312Y004027D02*
X007730Y004027D01*
X007730Y003928D02*
X032271Y003928D01*
X032265Y003830D02*
X007730Y003830D01*
X007730Y003731D02*
X032276Y003731D01*
X032317Y003633D02*
X007730Y003633D01*
X007730Y003534D02*
X032404Y003534D01*
X033214Y004027D02*
X036450Y004027D01*
X036487Y004125D02*
X033313Y004125D01*
X033411Y004224D02*
X036560Y004224D01*
X036718Y004322D02*
X033510Y004322D01*
X036427Y003140D02*
X026784Y003140D01*
X026825Y003042D02*
X036386Y003042D01*
X036381Y003029D02*
X036381Y002843D01*
X036452Y002671D01*
X036583Y002539D01*
X036755Y002468D01*
X037456Y002468D01*
X037628Y002539D01*
X037759Y002671D01*
X037831Y002843D01*
X037831Y003029D01*
X037759Y003201D01*
X037628Y003332D01*
X037456Y003403D01*
X036755Y003403D01*
X036583Y003332D01*
X036452Y003201D01*
X036381Y003029D01*
X036381Y002943D02*
X026831Y002943D01*
X026831Y002845D02*
X036381Y002845D01*
X036421Y002746D02*
X026790Y002746D01*
X026736Y002648D02*
X036475Y002648D01*
X036574Y002549D02*
X026637Y002549D01*
X026580Y002352D02*
X036631Y002352D01*
X036583Y002332D02*
X036452Y002201D01*
X036381Y002029D01*
X036381Y001843D01*
X036452Y001671D01*
X036583Y001539D01*
X036755Y001468D01*
X037456Y001468D01*
X037628Y001539D01*
X037759Y001671D01*
X037831Y001843D01*
X037831Y002029D01*
X037759Y002201D01*
X037628Y002332D01*
X037456Y002403D01*
X036755Y002403D01*
X036583Y002332D01*
X036505Y002254D02*
X026706Y002254D01*
X026778Y002155D02*
X036433Y002155D01*
X036392Y002057D02*
X026819Y002057D01*
X026831Y001958D02*
X036381Y001958D01*
X036381Y001860D02*
X026831Y001860D01*
X026797Y001761D02*
X036414Y001761D01*
X036460Y001663D02*
X026751Y001663D01*
X026652Y001564D02*
X036559Y001564D01*
X037652Y001564D02*
X037855Y001564D01*
X037855Y001466D02*
X025605Y001466D01*
X025605Y001367D02*
X037855Y001367D01*
X037855Y001269D02*
X025605Y001269D01*
X025605Y001170D02*
X037855Y001170D01*
X037855Y001072D02*
X025605Y001072D01*
X025605Y000973D02*
X037855Y000973D01*
X037855Y000875D02*
X025605Y000875D01*
X025605Y000776D02*
X037855Y000776D01*
X037855Y000678D02*
X025605Y000678D01*
X025605Y000579D02*
X037855Y000579D01*
X037855Y000481D02*
X025605Y000481D01*
X025605Y002352D02*
X025631Y002352D01*
X025605Y002451D02*
X037855Y002451D01*
X037855Y002549D02*
X037637Y002549D01*
X037736Y002648D02*
X037855Y002648D01*
X037855Y002746D02*
X037790Y002746D01*
X037831Y002845D02*
X037855Y002845D01*
X037855Y002943D02*
X037831Y002943D01*
X037825Y003042D02*
X037855Y003042D01*
X037855Y003140D02*
X037784Y003140D01*
X037721Y003239D02*
X037855Y003239D01*
X037855Y003337D02*
X037616Y003337D01*
X037855Y003436D02*
X007730Y003436D01*
X007730Y003337D02*
X025595Y003337D01*
X026616Y003337D02*
X036595Y003337D01*
X036490Y003239D02*
X026721Y003239D01*
X022255Y003239D02*
X007730Y003239D01*
X007730Y003140D02*
X022255Y003140D01*
X022255Y003042D02*
X007730Y003042D01*
X007730Y002943D02*
X022255Y002943D01*
X022255Y002845D02*
X007730Y002845D01*
X007730Y002746D02*
X022255Y002746D01*
X022255Y002648D02*
X007730Y002648D01*
X007730Y002549D02*
X022255Y002549D01*
X022255Y002451D02*
X007730Y002451D01*
X007730Y002352D02*
X022255Y002352D01*
X022255Y002254D02*
X007730Y002254D01*
X007730Y002155D02*
X022255Y002155D01*
X022255Y002057D02*
X007730Y002057D01*
X007730Y001958D02*
X022255Y001958D01*
X022255Y001860D02*
X007730Y001860D01*
X007730Y001761D02*
X022255Y001761D01*
X022255Y001663D02*
X007730Y001663D01*
X007730Y001564D02*
X022255Y001564D01*
X022255Y001466D02*
X007730Y001466D01*
X007730Y001367D02*
X022255Y001367D01*
X022255Y001269D02*
X007730Y001269D01*
X007730Y001170D02*
X022255Y001170D01*
X022255Y001072D02*
X007730Y001072D01*
X007730Y000973D02*
X022255Y000973D01*
X022255Y000875D02*
X007730Y000875D01*
X007730Y000776D02*
X022255Y000776D01*
X022255Y000678D02*
X007730Y000678D01*
X007730Y000579D02*
X022255Y000579D01*
X022255Y000481D02*
X007730Y000481D01*
X037077Y003534D02*
X037134Y003534D01*
X037134Y003633D02*
X037077Y003633D01*
X037077Y003731D02*
X037134Y003731D01*
X037134Y003830D02*
X037077Y003830D01*
X037134Y003928D02*
X037855Y003928D01*
X037771Y003965D02*
X037771Y003968D01*
X037761Y004031D01*
X037741Y004092D01*
X037712Y004149D01*
X037674Y004201D01*
X037629Y004247D01*
X037577Y004284D01*
X037520Y004313D01*
X037459Y004333D01*
X037395Y004343D01*
X037134Y004343D01*
X037134Y003965D01*
X037771Y003965D01*
X037761Y004027D02*
X037855Y004027D01*
X037855Y004125D02*
X037724Y004125D01*
X037652Y004224D02*
X037855Y004224D01*
X037855Y004322D02*
X037493Y004322D01*
X037134Y004322D02*
X037077Y004322D01*
X037077Y004224D02*
X037134Y004224D01*
X037134Y004125D02*
X037077Y004125D01*
X037077Y004027D02*
X037134Y004027D01*
X037716Y003731D02*
X037855Y003731D01*
X037855Y003633D02*
X037636Y003633D01*
X037431Y003534D02*
X037855Y003534D01*
X037855Y003830D02*
X037757Y003830D01*
X037855Y002352D02*
X037580Y002352D01*
X037706Y002254D02*
X037855Y002254D01*
X037855Y002155D02*
X037778Y002155D01*
X037819Y002057D02*
X037855Y002057D01*
X037855Y001958D02*
X037831Y001958D01*
X037831Y001860D02*
X037855Y001860D01*
X037855Y001761D02*
X037797Y001761D01*
X037751Y001663D02*
X037855Y001663D01*
X037855Y008558D02*
X037646Y008558D01*
X037744Y008656D02*
X037855Y008656D01*
X037855Y008755D02*
X037794Y008755D01*
X037831Y008853D02*
X037855Y008853D01*
X037855Y008952D02*
X037831Y008952D01*
X037822Y009050D02*
X037855Y009050D01*
X037855Y009149D02*
X037781Y009149D01*
X037713Y009247D02*
X037855Y009247D01*
X037855Y010528D02*
X037599Y010528D01*
X037714Y010626D02*
X037855Y010626D01*
X037855Y010725D02*
X037782Y010725D01*
X037822Y010823D02*
X037855Y010823D01*
X037855Y010922D02*
X037831Y010922D01*
X037831Y011020D02*
X037855Y011020D01*
X037855Y011119D02*
X037794Y011119D01*
X037743Y011217D02*
X037855Y011217D01*
X037134Y014566D02*
X037077Y014566D01*
X037077Y014665D02*
X037134Y014665D01*
X037134Y014763D02*
X037077Y014763D01*
X037077Y014862D02*
X037134Y014862D01*
X037134Y015059D02*
X037077Y015059D01*
X037077Y015157D02*
X037134Y015157D01*
X037134Y015256D02*
X037077Y015256D01*
D18*
X021895Y004755D03*
X019825Y004875D03*
X018585Y004825D03*
X017235Y003435D03*
X016745Y007465D03*
X015995Y007615D03*
D19*
X008230Y008560D03*
X006730Y008560D03*
X007855Y007435D03*
X005605Y005935D03*
X004855Y009185D03*
X006605Y010685D03*
X007355Y010935D03*
X008105Y010185D03*
X005605Y010810D03*
X004855Y010810D03*
X004855Y011685D03*
X003605Y011685D03*
X004355Y013435D03*
X004355Y014435D03*
X006480Y012935D03*
X009105Y014435D03*
X011230Y013060D03*
X011230Y012560D03*
X009805Y012885D03*
X013105Y012998D03*
X013705Y012972D03*
X014355Y012935D03*
X014105Y014435D03*
X011605Y015185D03*
X011605Y015685D03*
X013605Y017185D03*
X014605Y017185D03*
X015355Y017185D03*
X012605Y017935D03*
X011855Y017935D03*
X012605Y018935D03*
X018005Y019235D03*
X018005Y021185D03*
X023655Y015385D03*
X021868Y014435D03*
X019205Y013485D03*
X018255Y013485D03*
X029355Y018685D03*
X035755Y006935D03*
X032655Y003835D03*
X005105Y016185D03*
X000605Y011685D03*
M02*
