G75*
%MOIN*%
%OFA0B0*%
%FSLAX24Y24*%
%IPPOS*%
%LPD*%
%AMOC8*
5,1,8,0,0,1.08239X$1,22.5*
%
%ADD10C,0.1340*%
%ADD11OC8,0.0680*%
%ADD12C,0.0595*%
%ADD13C,0.0674*%
%ADD14C,0.0789*%
%ADD15C,0.0680*%
%ADD16C,0.0640*%
%ADD17C,0.0390*%
%ADD18C,0.0476*%
%ADD19C,0.0440*%
D10*
X004355Y005950D03*
X020300Y005950D03*
X032505Y005950D03*
X032505Y016974D03*
X020300Y016974D03*
X004355Y016974D03*
D11*
X013105Y020435D03*
X014105Y020435D03*
X015105Y020435D03*
X015105Y021435D03*
X014105Y021435D03*
X013105Y021435D03*
D12*
X025848Y020936D02*
X026363Y020936D01*
X026363Y019936D02*
X025848Y019936D01*
X036848Y019936D02*
X037363Y019936D01*
X037363Y018936D02*
X036848Y018936D01*
X036848Y017936D02*
X037363Y017936D01*
X037363Y016936D02*
X036848Y016936D01*
X036848Y015936D02*
X037363Y015936D01*
X037363Y014936D02*
X036848Y014936D01*
X036848Y013936D02*
X037363Y013936D01*
X037363Y012936D02*
X036848Y012936D01*
X036848Y011936D02*
X037363Y011936D01*
X037363Y010936D02*
X036848Y010936D01*
X036848Y009936D02*
X037363Y009936D01*
X037363Y008936D02*
X036848Y008936D01*
X036848Y007936D02*
X037363Y007936D01*
X037363Y006936D02*
X036848Y006936D01*
X036848Y005936D02*
X037363Y005936D01*
X037363Y004936D02*
X036848Y004936D01*
X036848Y003936D02*
X037363Y003936D01*
X037363Y002936D02*
X036848Y002936D01*
X036848Y001936D02*
X037363Y001936D01*
X026363Y001936D02*
X025848Y001936D01*
X025848Y002936D02*
X026363Y002936D01*
X036848Y020936D02*
X037363Y020936D01*
D13*
X023380Y013463D03*
X023380Y009407D03*
D14*
X022278Y009407D03*
X024837Y009407D03*
X024837Y013463D03*
X022278Y013463D03*
D15*
X004105Y002235D02*
X004105Y001635D01*
X005105Y001635D02*
X005105Y002235D01*
X006105Y002235D02*
X006105Y001635D01*
X002605Y009135D02*
X002605Y009735D01*
X001605Y009735D02*
X001605Y009135D01*
X011831Y009182D02*
X011831Y009782D01*
X012831Y009782D02*
X012831Y009182D01*
D16*
X012855Y007715D02*
X012855Y007155D01*
X011855Y007155D02*
X011855Y007715D01*
X013855Y007715D02*
X013855Y007155D01*
X010855Y011405D02*
X010855Y011965D01*
X009855Y011965D02*
X009855Y011405D01*
X008855Y011405D02*
X008855Y011965D01*
D17*
X007418Y014435D03*
X012105Y016935D03*
X015605Y014935D03*
X017605Y013435D03*
X021380Y014935D03*
X018605Y016185D03*
X016105Y020935D03*
X020755Y021435D03*
X002605Y013935D03*
X005605Y006685D03*
X008855Y006685D03*
X013230Y005685D03*
X015605Y008935D03*
D18*
X015995Y007615D03*
X016745Y007465D03*
X018585Y004825D03*
X019825Y004875D03*
X021895Y004755D03*
X017235Y003435D03*
D19*
X008230Y008560D03*
X006730Y008560D03*
X007855Y007435D03*
X005605Y005935D03*
X004855Y009185D03*
X006605Y010685D03*
X007355Y010935D03*
X008105Y010185D03*
X005605Y010810D03*
X004855Y010810D03*
X004855Y011685D03*
X003605Y011685D03*
X004355Y013435D03*
X004355Y014435D03*
X006480Y012935D03*
X009105Y014435D03*
X011230Y013060D03*
X011230Y012560D03*
X009805Y012885D03*
X013105Y012998D03*
X013705Y012972D03*
X014355Y012935D03*
X014105Y014435D03*
X011605Y015185D03*
X011605Y015685D03*
X013605Y017185D03*
X014605Y017185D03*
X015355Y017185D03*
X012605Y017935D03*
X011855Y017935D03*
X012605Y018935D03*
X018005Y019235D03*
X018005Y021185D03*
X023655Y015385D03*
X021868Y014435D03*
X019205Y013485D03*
X018255Y013485D03*
X029355Y018685D03*
X035755Y006935D03*
X032655Y003835D03*
X005105Y016185D03*
X000605Y011685D03*
M02*
