G75*
%MOIN*%
%OFA0B0*%
%FSLAX24Y24*%
%IPPOS*%
%LPD*%
%AMOC8*
5,1,8,0,0,1.08239X$1,22.5*
%
%ADD10C,0.0050*%
%ADD11C,0.0160*%
%ADD12C,0.0010*%
D10*
X026106Y000623D02*
X026106Y022277D01*
X037129Y022277D01*
X037129Y000623D01*
X026106Y000623D01*
X028468Y001804D02*
X028468Y021096D01*
X033192Y021096D01*
X033192Y001804D01*
X028468Y001804D01*
D11*
X029729Y004247D02*
X029729Y005474D01*
X029729Y006088D02*
X030957Y006088D01*
X031570Y006702D01*
X030957Y007316D01*
X029729Y007316D01*
X030650Y007316D02*
X030650Y006088D01*
X031570Y005474D02*
X031570Y004247D01*
X029729Y004247D01*
X030650Y004247D02*
X030650Y004860D01*
X033930Y008141D02*
X033623Y008448D01*
X033623Y009062D01*
X033930Y009369D01*
X034237Y009369D01*
X034544Y009062D01*
X034544Y008755D01*
X034544Y009062D02*
X034851Y009369D01*
X035158Y009369D01*
X035465Y009062D01*
X035465Y008448D01*
X035158Y008141D01*
X035158Y009982D02*
X033930Y011210D01*
X034544Y011210D02*
X034544Y009982D01*
X033930Y009982D02*
X035158Y011210D01*
X034851Y011824D02*
X035465Y012438D01*
X033623Y012438D01*
X033623Y011824D02*
X033623Y013052D01*
X033930Y013666D02*
X033623Y013973D01*
X033623Y014586D01*
X033930Y014893D01*
X034237Y014893D01*
X034544Y014586D01*
X034544Y013666D01*
X033930Y013666D01*
X034544Y013666D02*
X035158Y014279D01*
X035465Y014893D01*
X031570Y014375D02*
X031570Y013761D01*
X031264Y013454D01*
X030036Y013454D01*
X029729Y013761D01*
X029729Y014375D01*
X030036Y014682D01*
X030650Y014682D01*
X030650Y014068D01*
X031264Y014682D02*
X031570Y014375D01*
X030650Y015296D02*
X030650Y016524D01*
X029729Y017138D02*
X031570Y017138D01*
X030957Y017751D01*
X031570Y018365D01*
X029729Y018365D01*
X030036Y012841D02*
X031264Y012841D01*
X031570Y012534D01*
X031570Y011920D01*
X031264Y011613D01*
X030036Y011613D01*
X029729Y011920D01*
X029729Y012534D01*
X030036Y012841D01*
X030036Y010999D02*
X031264Y010999D01*
X031570Y010692D01*
X031570Y009771D01*
X029729Y009771D01*
X029729Y010692D01*
X030036Y010999D01*
X033930Y010596D02*
X035158Y010596D01*
D12*
X025361Y001603D02*
X025361Y001503D01*
X025361Y001553D02*
X025511Y001553D01*
X025461Y001503D01*
X037673Y001516D02*
X037823Y001516D01*
X037748Y001441D01*
X037748Y001541D01*
X037698Y001588D02*
X037798Y001688D01*
X037698Y001688D01*
X037673Y001663D01*
X037673Y001613D01*
X037698Y001588D01*
X037798Y001588D01*
X037823Y001613D01*
X037823Y001663D01*
X037798Y001688D01*
X037736Y020504D02*
X037836Y020604D01*
X037861Y020604D01*
X037886Y020579D01*
X037886Y020529D01*
X037861Y020504D01*
X037736Y020504D02*
X037736Y020604D01*
X037736Y020651D02*
X037736Y020751D01*
X037736Y020701D02*
X037886Y020701D01*
X037836Y020651D01*
X025511Y020676D02*
X025511Y020726D01*
X025486Y020751D01*
X025386Y020651D01*
X025361Y020676D01*
X025361Y020726D01*
X025386Y020751D01*
X025486Y020751D01*
X025511Y020676D02*
X025486Y020651D01*
X025386Y020651D01*
X025361Y020604D02*
X025361Y020504D01*
X025461Y020604D01*
X025486Y020604D01*
X025511Y020579D01*
X025511Y020529D01*
X025486Y020504D01*
M02*
