G75*
G70*
%OFA0B0*%
%FSLAX24Y24*%
%IPPOS*%
%LPD*%
%AMOC8*
5,1,8,0,0,1.08239X$1,22.5*
%
%ADD10C,0.0000*%
%ADD11C,0.0010*%
D10*
X003731Y005876D02*
X003733Y005926D01*
X003739Y005976D01*
X003749Y006025D01*
X003763Y006073D01*
X003780Y006120D01*
X003801Y006165D01*
X003826Y006209D01*
X003854Y006250D01*
X003886Y006289D01*
X003920Y006326D01*
X003957Y006360D01*
X003997Y006390D01*
X004039Y006417D01*
X004083Y006441D01*
X004129Y006462D01*
X004176Y006478D01*
X004224Y006491D01*
X004274Y006500D01*
X004323Y006505D01*
X004374Y006506D01*
X004424Y006503D01*
X004473Y006496D01*
X004522Y006485D01*
X004570Y006470D01*
X004616Y006452D01*
X004661Y006430D01*
X004704Y006404D01*
X004745Y006375D01*
X004784Y006343D01*
X004820Y006308D01*
X004852Y006270D01*
X004882Y006230D01*
X004909Y006187D01*
X004932Y006143D01*
X004951Y006097D01*
X004967Y006049D01*
X004979Y006000D01*
X004987Y005951D01*
X004991Y005901D01*
X004991Y005851D01*
X004987Y005801D01*
X004979Y005752D01*
X004967Y005703D01*
X004951Y005655D01*
X004932Y005609D01*
X004909Y005565D01*
X004882Y005522D01*
X004852Y005482D01*
X004820Y005444D01*
X004784Y005409D01*
X004745Y005377D01*
X004704Y005348D01*
X004661Y005322D01*
X004616Y005300D01*
X004570Y005282D01*
X004522Y005267D01*
X004473Y005256D01*
X004424Y005249D01*
X004374Y005246D01*
X004323Y005247D01*
X004274Y005252D01*
X004224Y005261D01*
X004176Y005274D01*
X004129Y005290D01*
X004083Y005311D01*
X004039Y005335D01*
X003997Y005362D01*
X003957Y005392D01*
X003920Y005426D01*
X003886Y005463D01*
X003854Y005502D01*
X003826Y005543D01*
X003801Y005587D01*
X003780Y005632D01*
X003763Y005679D01*
X003749Y005727D01*
X003739Y005776D01*
X003733Y005826D01*
X003731Y005876D01*
X019676Y005876D02*
X019678Y005926D01*
X019684Y005976D01*
X019694Y006025D01*
X019708Y006073D01*
X019725Y006120D01*
X019746Y006165D01*
X019771Y006209D01*
X019799Y006250D01*
X019831Y006289D01*
X019865Y006326D01*
X019902Y006360D01*
X019942Y006390D01*
X019984Y006417D01*
X020028Y006441D01*
X020074Y006462D01*
X020121Y006478D01*
X020169Y006491D01*
X020219Y006500D01*
X020268Y006505D01*
X020319Y006506D01*
X020369Y006503D01*
X020418Y006496D01*
X020467Y006485D01*
X020515Y006470D01*
X020561Y006452D01*
X020606Y006430D01*
X020649Y006404D01*
X020690Y006375D01*
X020729Y006343D01*
X020765Y006308D01*
X020797Y006270D01*
X020827Y006230D01*
X020854Y006187D01*
X020877Y006143D01*
X020896Y006097D01*
X020912Y006049D01*
X020924Y006000D01*
X020932Y005951D01*
X020936Y005901D01*
X020936Y005851D01*
X020932Y005801D01*
X020924Y005752D01*
X020912Y005703D01*
X020896Y005655D01*
X020877Y005609D01*
X020854Y005565D01*
X020827Y005522D01*
X020797Y005482D01*
X020765Y005444D01*
X020729Y005409D01*
X020690Y005377D01*
X020649Y005348D01*
X020606Y005322D01*
X020561Y005300D01*
X020515Y005282D01*
X020467Y005267D01*
X020418Y005256D01*
X020369Y005249D01*
X020319Y005246D01*
X020268Y005247D01*
X020219Y005252D01*
X020169Y005261D01*
X020121Y005274D01*
X020074Y005290D01*
X020028Y005311D01*
X019984Y005335D01*
X019942Y005362D01*
X019902Y005392D01*
X019865Y005426D01*
X019831Y005463D01*
X019799Y005502D01*
X019771Y005543D01*
X019746Y005587D01*
X019725Y005632D01*
X019708Y005679D01*
X019694Y005727D01*
X019684Y005776D01*
X019678Y005826D01*
X019676Y005876D01*
X031880Y005876D02*
X031882Y005926D01*
X031888Y005976D01*
X031898Y006025D01*
X031912Y006073D01*
X031929Y006120D01*
X031950Y006165D01*
X031975Y006209D01*
X032003Y006250D01*
X032035Y006289D01*
X032069Y006326D01*
X032106Y006360D01*
X032146Y006390D01*
X032188Y006417D01*
X032232Y006441D01*
X032278Y006462D01*
X032325Y006478D01*
X032373Y006491D01*
X032423Y006500D01*
X032472Y006505D01*
X032523Y006506D01*
X032573Y006503D01*
X032622Y006496D01*
X032671Y006485D01*
X032719Y006470D01*
X032765Y006452D01*
X032810Y006430D01*
X032853Y006404D01*
X032894Y006375D01*
X032933Y006343D01*
X032969Y006308D01*
X033001Y006270D01*
X033031Y006230D01*
X033058Y006187D01*
X033081Y006143D01*
X033100Y006097D01*
X033116Y006049D01*
X033128Y006000D01*
X033136Y005951D01*
X033140Y005901D01*
X033140Y005851D01*
X033136Y005801D01*
X033128Y005752D01*
X033116Y005703D01*
X033100Y005655D01*
X033081Y005609D01*
X033058Y005565D01*
X033031Y005522D01*
X033001Y005482D01*
X032969Y005444D01*
X032933Y005409D01*
X032894Y005377D01*
X032853Y005348D01*
X032810Y005322D01*
X032765Y005300D01*
X032719Y005282D01*
X032671Y005267D01*
X032622Y005256D01*
X032573Y005249D01*
X032523Y005246D01*
X032472Y005247D01*
X032423Y005252D01*
X032373Y005261D01*
X032325Y005274D01*
X032278Y005290D01*
X032232Y005311D01*
X032188Y005335D01*
X032146Y005362D01*
X032106Y005392D01*
X032069Y005426D01*
X032035Y005463D01*
X032003Y005502D01*
X031975Y005543D01*
X031950Y005587D01*
X031929Y005632D01*
X031912Y005679D01*
X031898Y005727D01*
X031888Y005776D01*
X031882Y005826D01*
X031880Y005876D01*
X031880Y016900D02*
X031882Y016950D01*
X031888Y017000D01*
X031898Y017049D01*
X031912Y017097D01*
X031929Y017144D01*
X031950Y017189D01*
X031975Y017233D01*
X032003Y017274D01*
X032035Y017313D01*
X032069Y017350D01*
X032106Y017384D01*
X032146Y017414D01*
X032188Y017441D01*
X032232Y017465D01*
X032278Y017486D01*
X032325Y017502D01*
X032373Y017515D01*
X032423Y017524D01*
X032472Y017529D01*
X032523Y017530D01*
X032573Y017527D01*
X032622Y017520D01*
X032671Y017509D01*
X032719Y017494D01*
X032765Y017476D01*
X032810Y017454D01*
X032853Y017428D01*
X032894Y017399D01*
X032933Y017367D01*
X032969Y017332D01*
X033001Y017294D01*
X033031Y017254D01*
X033058Y017211D01*
X033081Y017167D01*
X033100Y017121D01*
X033116Y017073D01*
X033128Y017024D01*
X033136Y016975D01*
X033140Y016925D01*
X033140Y016875D01*
X033136Y016825D01*
X033128Y016776D01*
X033116Y016727D01*
X033100Y016679D01*
X033081Y016633D01*
X033058Y016589D01*
X033031Y016546D01*
X033001Y016506D01*
X032969Y016468D01*
X032933Y016433D01*
X032894Y016401D01*
X032853Y016372D01*
X032810Y016346D01*
X032765Y016324D01*
X032719Y016306D01*
X032671Y016291D01*
X032622Y016280D01*
X032573Y016273D01*
X032523Y016270D01*
X032472Y016271D01*
X032423Y016276D01*
X032373Y016285D01*
X032325Y016298D01*
X032278Y016314D01*
X032232Y016335D01*
X032188Y016359D01*
X032146Y016386D01*
X032106Y016416D01*
X032069Y016450D01*
X032035Y016487D01*
X032003Y016526D01*
X031975Y016567D01*
X031950Y016611D01*
X031929Y016656D01*
X031912Y016703D01*
X031898Y016751D01*
X031888Y016800D01*
X031882Y016850D01*
X031880Y016900D01*
X019676Y016900D02*
X019678Y016950D01*
X019684Y017000D01*
X019694Y017049D01*
X019708Y017097D01*
X019725Y017144D01*
X019746Y017189D01*
X019771Y017233D01*
X019799Y017274D01*
X019831Y017313D01*
X019865Y017350D01*
X019902Y017384D01*
X019942Y017414D01*
X019984Y017441D01*
X020028Y017465D01*
X020074Y017486D01*
X020121Y017502D01*
X020169Y017515D01*
X020219Y017524D01*
X020268Y017529D01*
X020319Y017530D01*
X020369Y017527D01*
X020418Y017520D01*
X020467Y017509D01*
X020515Y017494D01*
X020561Y017476D01*
X020606Y017454D01*
X020649Y017428D01*
X020690Y017399D01*
X020729Y017367D01*
X020765Y017332D01*
X020797Y017294D01*
X020827Y017254D01*
X020854Y017211D01*
X020877Y017167D01*
X020896Y017121D01*
X020912Y017073D01*
X020924Y017024D01*
X020932Y016975D01*
X020936Y016925D01*
X020936Y016875D01*
X020932Y016825D01*
X020924Y016776D01*
X020912Y016727D01*
X020896Y016679D01*
X020877Y016633D01*
X020854Y016589D01*
X020827Y016546D01*
X020797Y016506D01*
X020765Y016468D01*
X020729Y016433D01*
X020690Y016401D01*
X020649Y016372D01*
X020606Y016346D01*
X020561Y016324D01*
X020515Y016306D01*
X020467Y016291D01*
X020418Y016280D01*
X020369Y016273D01*
X020319Y016270D01*
X020268Y016271D01*
X020219Y016276D01*
X020169Y016285D01*
X020121Y016298D01*
X020074Y016314D01*
X020028Y016335D01*
X019984Y016359D01*
X019942Y016386D01*
X019902Y016416D01*
X019865Y016450D01*
X019831Y016487D01*
X019799Y016526D01*
X019771Y016567D01*
X019746Y016611D01*
X019725Y016656D01*
X019708Y016703D01*
X019694Y016751D01*
X019684Y016800D01*
X019678Y016850D01*
X019676Y016900D01*
X003731Y016900D02*
X003733Y016950D01*
X003739Y017000D01*
X003749Y017049D01*
X003763Y017097D01*
X003780Y017144D01*
X003801Y017189D01*
X003826Y017233D01*
X003854Y017274D01*
X003886Y017313D01*
X003920Y017350D01*
X003957Y017384D01*
X003997Y017414D01*
X004039Y017441D01*
X004083Y017465D01*
X004129Y017486D01*
X004176Y017502D01*
X004224Y017515D01*
X004274Y017524D01*
X004323Y017529D01*
X004374Y017530D01*
X004424Y017527D01*
X004473Y017520D01*
X004522Y017509D01*
X004570Y017494D01*
X004616Y017476D01*
X004661Y017454D01*
X004704Y017428D01*
X004745Y017399D01*
X004784Y017367D01*
X004820Y017332D01*
X004852Y017294D01*
X004882Y017254D01*
X004909Y017211D01*
X004932Y017167D01*
X004951Y017121D01*
X004967Y017073D01*
X004979Y017024D01*
X004987Y016975D01*
X004991Y016925D01*
X004991Y016875D01*
X004987Y016825D01*
X004979Y016776D01*
X004967Y016727D01*
X004951Y016679D01*
X004932Y016633D01*
X004909Y016589D01*
X004882Y016546D01*
X004852Y016506D01*
X004820Y016468D01*
X004784Y016433D01*
X004745Y016401D01*
X004704Y016372D01*
X004661Y016346D01*
X004616Y016324D01*
X004570Y016306D01*
X004522Y016291D01*
X004473Y016280D01*
X004424Y016273D01*
X004374Y016270D01*
X004323Y016271D01*
X004274Y016276D01*
X004224Y016285D01*
X004176Y016298D01*
X004129Y016314D01*
X004083Y016335D01*
X004039Y016359D01*
X003997Y016386D01*
X003957Y016416D01*
X003920Y016450D01*
X003886Y016487D01*
X003854Y016526D01*
X003826Y016567D01*
X003801Y016611D01*
X003780Y016656D01*
X003763Y016703D01*
X003749Y016751D01*
X003739Y016800D01*
X003733Y016850D01*
X003731Y016900D01*
D11*
X002511Y002911D02*
X002511Y000111D01*
X022511Y000111D01*
X022511Y002911D01*
X025311Y002911D01*
X025311Y000111D01*
X038111Y000111D01*
X038111Y022611D01*
X025311Y022611D01*
X025311Y019811D01*
X022511Y019811D01*
X022511Y022611D01*
X002511Y022611D01*
X002511Y019811D01*
X000111Y019811D01*
X000111Y002911D01*
X002511Y002911D01*
M02*
