G75*
G70*
%OFA0B0*%
%FSLAX24Y24*%
%IPPOS*%
%LPD*%
%AMOC8*
5,1,8,0,0,1.08239X$1,22.5*
%
%ADD10C,0.1340*%
%ADD11R,0.0297X0.0690*%
%ADD12R,0.0690X0.0297*%
%ADD13R,0.0592X0.0671*%
%ADD14R,0.0671X0.0592*%
%ADD15R,0.0781X0.0482*%
%ADD16OC8,0.0680*%
%ADD17R,0.0946X0.0316*%
%ADD18R,0.0340X0.0880*%
%ADD19R,0.0237X0.0671*%
%ADD20C,0.0595*%
%ADD21C,0.0674*%
%ADD22C,0.0789*%
%ADD23R,0.0867X0.1064*%
%ADD24R,0.0867X0.1379*%
%ADD25R,0.0277X0.1300*%
%ADD26R,0.0552X0.0297*%
%ADD27C,0.0680*%
%ADD28R,0.0482X0.0781*%
%ADD29C,0.0640*%
%ADD30R,0.0946X0.0277*%
%ADD31C,0.0390*%
%ADD32C,0.0440*%
D10*
X004361Y005876D03*
X020306Y005876D03*
X032510Y005876D03*
X032510Y016900D03*
X020306Y016900D03*
X004361Y016900D03*
D11*
X013536Y018125D03*
X013851Y018125D03*
X014166Y018125D03*
X014481Y018125D03*
X014796Y018125D03*
X015111Y018125D03*
X015426Y018125D03*
X015741Y018125D03*
X016056Y018125D03*
X016371Y018125D03*
X016686Y018125D03*
X016686Y013597D03*
X016371Y013597D03*
X016056Y013597D03*
X015741Y013597D03*
X015426Y013597D03*
X015111Y013597D03*
X014796Y013597D03*
X014481Y013597D03*
X014166Y013597D03*
X013851Y013597D03*
X013536Y013597D03*
D12*
X012847Y014286D03*
X012847Y014601D03*
X012847Y014916D03*
X012847Y015231D03*
X012847Y015546D03*
X012847Y015861D03*
X012847Y016176D03*
X012847Y016491D03*
X012847Y016806D03*
X012847Y017121D03*
X012847Y017436D03*
X017375Y017436D03*
X017375Y017121D03*
X017375Y016806D03*
X017375Y016491D03*
X017375Y016176D03*
X017375Y015861D03*
X017375Y015546D03*
X017375Y015231D03*
X017375Y014916D03*
X017375Y014601D03*
X017375Y014286D03*
D13*
X017237Y012361D03*
X017985Y012361D03*
X015985Y012361D03*
X015237Y012361D03*
X013735Y012236D03*
X012987Y012236D03*
X012987Y010861D03*
X013735Y010861D03*
X016087Y006711D03*
X016835Y006711D03*
X017987Y006711D03*
X018735Y006711D03*
X018735Y005461D03*
X017987Y005461D03*
X014735Y005611D03*
X013987Y005611D03*
X012485Y005611D03*
X011737Y005611D03*
X007485Y016861D03*
X006737Y016861D03*
X002543Y017683D03*
X001795Y017683D03*
X014237Y019111D03*
X014985Y019111D03*
D14*
X011361Y017235D03*
X010361Y017235D03*
X010361Y016487D03*
X011361Y016487D03*
X007611Y015985D03*
X007611Y015237D03*
X006611Y014235D03*
X006611Y013487D03*
X001861Y013235D03*
X001861Y012487D03*
X001611Y011485D03*
X001611Y010737D03*
X001561Y007985D03*
X002611Y007985D03*
X002611Y007237D03*
X001561Y007237D03*
X008486Y005985D03*
X008486Y005237D03*
X001861Y014237D03*
X001861Y014985D03*
X001861Y015987D03*
X001861Y016735D03*
X020641Y015475D03*
X020641Y014727D03*
X035611Y016987D03*
X035611Y017735D03*
X035611Y019987D03*
X035611Y020735D03*
D15*
X014111Y009461D03*
X014111Y008760D03*
X010611Y015010D03*
X010611Y015711D03*
D16*
X013111Y020361D03*
X014111Y020361D03*
X015111Y020361D03*
X015111Y021361D03*
X014111Y021361D03*
X013111Y021361D03*
D17*
X005384Y015361D03*
X005384Y014861D03*
X005384Y014361D03*
X005384Y013861D03*
X005384Y013361D03*
X005384Y012861D03*
X005384Y012361D03*
X003337Y012361D03*
X003337Y012861D03*
X003337Y013361D03*
X003337Y013861D03*
X003337Y014361D03*
X003337Y014861D03*
X003337Y015361D03*
D18*
X003861Y009821D03*
X004361Y009821D03*
X004861Y009821D03*
X005361Y009821D03*
X005861Y009821D03*
X006361Y009821D03*
X006861Y009821D03*
X007361Y009821D03*
X007361Y007401D03*
X006861Y007401D03*
X006361Y007401D03*
X005861Y007401D03*
X005361Y007401D03*
X004861Y007401D03*
X004361Y007401D03*
X003861Y007401D03*
D19*
X016497Y008084D03*
X016753Y008084D03*
X017009Y008084D03*
X017265Y008084D03*
X017521Y008084D03*
X017777Y008084D03*
X018033Y008084D03*
X018289Y008084D03*
X018545Y008084D03*
X018801Y008084D03*
X019057Y008084D03*
X019312Y008084D03*
X019568Y008084D03*
X019824Y008084D03*
X019824Y010938D03*
X019568Y010938D03*
X019312Y010938D03*
X019057Y010938D03*
X018801Y010938D03*
X018545Y010938D03*
X018289Y010938D03*
X018033Y010938D03*
X017777Y010938D03*
X017521Y010938D03*
X017265Y010938D03*
X017009Y010938D03*
X016753Y010938D03*
X016497Y010938D03*
D20*
X025854Y002862D02*
X026369Y002862D01*
X026369Y001862D02*
X025854Y001862D01*
X036854Y001862D02*
X037369Y001862D01*
X037369Y002862D02*
X036854Y002862D01*
X036854Y003862D02*
X037369Y003862D01*
X037369Y004862D02*
X036854Y004862D01*
X036854Y005862D02*
X037369Y005862D01*
X037369Y006862D02*
X036854Y006862D01*
X036854Y007862D02*
X037369Y007862D01*
X037369Y008862D02*
X036854Y008862D01*
X036854Y009862D02*
X037369Y009862D01*
X037369Y010862D02*
X036854Y010862D01*
X036854Y011862D02*
X037369Y011862D01*
X037369Y012862D02*
X036854Y012862D01*
X036854Y013862D02*
X037369Y013862D01*
X037369Y014862D02*
X036854Y014862D01*
X036854Y015862D02*
X037369Y015862D01*
X037369Y016862D02*
X036854Y016862D01*
X036854Y017862D02*
X037369Y017862D01*
X037369Y018862D02*
X036854Y018862D01*
X036854Y019862D02*
X037369Y019862D01*
X037369Y020862D02*
X036854Y020862D01*
X026369Y020862D02*
X025854Y020862D01*
X025854Y019862D02*
X026369Y019862D01*
D21*
X023386Y013388D03*
X023386Y009333D03*
D22*
X022284Y009333D03*
X024843Y009333D03*
X024843Y013388D03*
X022284Y013388D03*
D23*
X021620Y001844D03*
X018076Y001844D03*
D24*
X018076Y003537D03*
X021620Y003537D03*
D25*
X020478Y003576D03*
X020163Y003576D03*
X019848Y003576D03*
X019533Y003576D03*
X019218Y003576D03*
D26*
X016623Y003735D03*
X016623Y003361D03*
X016623Y002987D03*
X015599Y002987D03*
X015599Y003735D03*
X010623Y005737D03*
X009599Y005737D03*
X009599Y006111D03*
X009599Y006485D03*
X010623Y006485D03*
D27*
X004111Y002161D02*
X004111Y001561D01*
X005111Y001561D02*
X005111Y002161D01*
X006111Y002161D02*
X006111Y001561D01*
X002611Y009061D02*
X002611Y009661D01*
X001611Y009661D02*
X001611Y009061D01*
X011837Y009108D02*
X011837Y009708D01*
X012837Y009708D02*
X012837Y009108D01*
D28*
X010461Y007611D03*
X009760Y007611D03*
X016110Y005461D03*
X016811Y005461D03*
D29*
X013861Y007081D02*
X013861Y007641D01*
X012861Y007641D02*
X012861Y007081D01*
X011861Y007081D02*
X011861Y007641D01*
X010861Y011331D02*
X010861Y011891D01*
X009861Y011891D02*
X009861Y011331D01*
X008861Y011331D02*
X008861Y011891D01*
D30*
X017169Y019861D03*
X017169Y020361D03*
X017169Y020861D03*
X017169Y021361D03*
X019653Y021357D03*
X019653Y020857D03*
X019653Y020357D03*
X019653Y019861D03*
D31*
X020761Y021361D03*
X016111Y020861D03*
X012111Y016861D03*
X015611Y014861D03*
X017611Y013361D03*
X021386Y014861D03*
X018611Y016111D03*
X007423Y014361D03*
X002611Y013861D03*
X005611Y006611D03*
X008861Y006611D03*
X013236Y005611D03*
X016111Y003361D03*
X019611Y004861D03*
X015611Y008861D03*
D32*
X016161Y007386D03*
X016761Y007386D03*
X018936Y004686D03*
X019211Y002411D03*
X008236Y008486D03*
X006736Y008486D03*
X007861Y007361D03*
X005611Y005861D03*
X004861Y009111D03*
X006611Y010611D03*
X007361Y010861D03*
X008111Y010111D03*
X005611Y010736D03*
X004861Y010736D03*
X004861Y011611D03*
X003611Y011611D03*
X004361Y013361D03*
X004361Y014361D03*
X005111Y016111D03*
X009111Y014361D03*
X011236Y012986D03*
X011236Y012486D03*
X009811Y012811D03*
X013111Y012923D03*
X013711Y012898D03*
X014361Y012861D03*
X014111Y014361D03*
X011611Y015111D03*
X011611Y015611D03*
X013611Y017111D03*
X014611Y017111D03*
X015361Y017111D03*
X012611Y017861D03*
X011861Y017861D03*
X012611Y018861D03*
X018011Y019161D03*
X018011Y021111D03*
X023661Y015311D03*
X021873Y014361D03*
X019211Y013411D03*
X018261Y013411D03*
X029361Y018611D03*
X035761Y006861D03*
X032661Y003761D03*
X006486Y012861D03*
X000611Y011611D03*
M02*
